<svg width="1656" height="174" viewBox="0 0 1656 174" fill="none" xmlns="http://www.w3.org/2000/svg">
<path d="M614.517 77.1295C656.405 77.1296 696.293 77.1296 737.116 77.1296C737.116 83.4889 737.116 88.5801 737.116 93.5363C735.904 94.4429 734.927 95.7929 733.859 95.87C727.906 96.2994 721.931 96.6167 715.964 96.6184C580.17 96.6559 444.375 96.6472 308.581 96.6472C301.28 96.6472 293.979 96.6473 285.111 96.6473C284.471 98.083 283.501 101.096 281.886 103.711C278.373 109.395 273.976 111.378 268.739 110.08C263.611 108.809 260.431 105.12 260.055 100.282C259.386 91.6899 259.349 83.0026 259.762 74.3897C260.043 68.5443 264.443 64.1399 269.484 63.0595C274.183 62.0525 278.877 64.582 282.216 70.4171C283.489 72.6426 283.984 75.3136 284.609 77.1294C394.378 77.1294 503.447 77.1294 614.517 77.1295Z" fill="#1C1C1C"/>
<path d="M1366.44 94.1171C1359.67 98.4041 1352.15 96.1603 1345.04 96.171C1231.72 96.3413 1118.41 96.2911 1005.09 96.2909C981.762 96.2909 958.433 96.3398 935.104 96.2494C929.856 96.229 924.61 95.719 918.59 95.3925C918.59 89.467 918.59 84.391 918.59 79.4012C936.526 76.4873 1192.4 75.4714 1364.23 79.6312C1366.08 85.8462 1366.26 89.9816 1366.44 94.1171Z" fill="#050505"/>
<path d="M154.367 78.625C160.733 78.6194 165.594 81.553 169.534 85.9491C169.942 90.6609 166.537 92.2776 163.671 92.9544C140.986 98.3107 129.487 114.216 123.191 135.145C120.902 142.756 119.152 150.539 116.61 158.059C115.154 162.364 112.996 166.567 110.435 170.326C107.561 174.546 102.176 174.514 98.3148 170.962C89.6688 163.009 88.1119 152.523 88.972 141.784C89.5458 134.62 92.025 127.609 91.9701 119.304C90.2889 118.077 90.3766 118.423 91.8934 119.141C95.4124 118.304 95.8866 116.391 94.6039 114.107C94.442 114.113 94.4203 114.436 95.7469 114.846C97.6717 113.522 98.2696 111.79 98.6166 110.07C98.3656 110.084 98.3172 110.584 99.5658 110.114C102.147 108.498 103.479 107.352 105.168 105.548C104.544 103.319 103.564 101.75 103.881 101.494C109.321 101.147 113.486 99.5408 117.6 97.8104C121.744 96.0667 125.803 94.1154 129.963 92.4116C133.784 90.8467 137.691 89.4902 142.463 87.7042C140.5 85.0938 139.431 83.6714 139.802 82.176C145.848 81.8185 150.875 83.1183 154.367 78.625Z" fill="#111111"/>
<path d="M74.6781 97.9812C73.1329 97.1472 71.3451 95.3248 70.0814 95.6354C59.7469 98.176 49.608 101.574 39.212 103.781C31.4752 105.423 23.4427 106.376 15.544 106.364C6.98324 106.35 1.89754 101.658 0.460778 93.2406C-0.300453 88.7824 -0.0502086 83.9649 0.713463 79.4745C1.97665 72.0487 7.17123 67.4769 14.3724 66.9423C20.8883 66.4585 27.6742 67.1935 34.107 68.5233C47.107 71.2107 59.9483 74.6659 73.7308 75.9463C74.6065 74.0883 74.3011 74.1951 73.7161 75.7996C82.2142 80.4577 91.2974 83.511 102.458 87.2625C92.4347 89.8552 84.3538 91.8187 76.3861 94.1668C75.3829 94.4624 74.9762 96.782 74.4351 98.2146C74.5772 98.2653 74.6781 97.9812 74.6781 97.9812Z" fill="#111111"/>
<path d="M1566.29 121.919C1565.36 123.386 1563.49 124.97 1563.66 126.3C1564.23 130.856 1566.31 135.32 1566.33 139.825C1566.35 146.346 1565.7 153.018 1564.19 159.354C1562.62 165.926 1559.06 172.639 1551.72 173.283C1543.31 174.022 1541.53 165.926 1539.37 159.93C1536.25 151.235 1534 142.221 1531.45 133.325C1526.21 115.081 1515.63 101.527 1497.3 93.045C1504.07 91.2002 1511.09 90.8169 1519.64 90.6289C1530.26 95.3842 1539.32 100.038 1548.54 104.352C1549.41 104.761 1551.28 103.045 1553.18 102.952C1555.23 105.019 1556.81 106.449 1557.01 109.689C1557.09 114.657 1559.43 115.676 1562.69 114.275C1562.67 114.117 1562.4 113.952 1560.85 115.205C1560.96 119.362 1560.3 125.132 1566.57 122.227C1566.56 122.073 1566.29 121.919 1566.29 121.919Z" fill="#0E0E0E"/>
<path d="M1582.34 74.4605C1583.77 75.4498 1585.46 77.5293 1586.58 77.2606C1598.21 74.4906 1609.66 70.9537 1621.34 68.4509C1627.74 67.0782 1634.54 66.4825 1641.06 66.9592C1649.04 67.5434 1654.08 73.3446 1654.91 81.5036C1655.31 85.431 1655.25 89.5119 1654.66 93.4106C1653.58 100.513 1648.52 105.902 1641.41 106.124C1633.52 106.37 1625.42 105.902 1617.7 104.334C1606.65 102.09 1595.86 98.5655 1583.69 96.8986C1582.43 98.2093 1582.71 98.1844 1582.64 96.6163C1578.23 93.7422 1573.93 92.2756 1569.55 91.1744C1564.99 90.0305 1560.34 89.2398 1551.11 87.3481C1564.4 83.5084 1572.99 81.133 1581.46 78.409C1582.25 78.1557 1582.32 75.6937 1582.58 74.2099C1582.43 74.1624 1582.34 74.4605 1582.34 74.4605Z" fill="#0E0E0E"/>
<path d="M198.283 124.223C185.05 122.506 179.426 115.273 179.181 103.81C178.926 91.8471 178.655 79.8456 179.323 67.9133C179.949 56.7237 186.73 50.1093 196.523 49.4473C206.335 48.784 214.546 53.5778 215.258 63.2715C216.418 79.0717 216.134 95.0661 215.161 110.899C214.652 119.194 207.51 122.752 198.283 124.223Z" fill="#111111"/>
<path d="M153.319 77.7624C150.875 83.1182 145.848 81.8184 138.31 82.3044C125.798 78.3395 116.217 74.1733 106.643 70.1359C106.649 70.2647 106.892 70.1783 105.983 68.5439C102.211 65.3389 99.6406 60.4425 96.2695 65.87C96.4008 65.6177 96.3491 65.591 96.3491 65.591C97.1149 64.057 98.9091 62.1083 98.4843 61.0546C95.03 52.4905 90.9575 44.346 88.903 35.0628C86.205 22.8706 90.112 13.1117 96.7465 3.94987C101.219 -2.22616 109.199 -0.941855 112.761 6.28275C115.089 11.0036 116.678 16.1232 118.254 21.1719C120.03 26.8621 121.288 32.7127 123.002 38.424C127.945 54.8858 136.521 68.6347 153.319 77.7624Z" fill="#0C0C0C"/>
<path d="M805.602 69.3582C810.939 62.8505 816.288 59.1343 823.235 58.0551C839.543 55.5216 853.87 66.786 855.24 83.2335C856.78 101.729 845.272 115.254 828.127 115.53C808.485 115.846 798.461 97.5581 800.175 83.724C800.73 79.2376 803.142 74.9811 805.602 69.3582Z" fill="#0C0C0C"/>
<path d="M1442.39 116.428C1437.37 109.103 1438.9 102.28 1438.8 95.7681C1438.63 85.8355 1438.31 75.8535 1439.08 65.9717C1439.88 55.6609 1447.78 49.2531 1457.8 49.4415C1467.18 49.6176 1474.56 55.6376 1475.04 65.1067C1475.71 78.3248 1475.71 91.6137 1475.23 104.845C1474.67 120.423 1464.46 127.231 1449.62 122.344C1447.25 121.565 1445.36 119.343 1442.39 116.428Z" fill="#0C0C0C"/>
<path d="M1498.79 78.5721C1515.87 71.1983 1526.27 58.1854 1531.21 40.4348C1533.88 30.8269 1536.64 21.2303 1539.8 11.7761C1541.47 6.76353 1543.67 1.61741 1549.72 0.225809C1554.13 -0.789449 1559.47 3.51255 1562.86 10.5838C1568.72 22.8181 1567.17 35.1834 1564.95 48.9231C1566.46 50.2699 1566.4 49.9713 1564.62 49.6539C1562.04 52.2893 1556.96 54.9701 1562.46 58.3025C1562.64 58.291 1562.66 57.9303 1560.99 56.979C1556.76 57.3292 1555.7 59.3818 1556.41 62.2469C1556.62 62.276 1556.72 61.8552 1555.08 61.9826C1551.7 63.4675 1549.98 64.8252 1547.83 66.3493C1547.4 66.5158 1546.41 68.0079 1545.61 69.2566C1543.58 70.7149 1541.81 70.4751 1541.2 71.2048C1536.17 77.2859 1529.56 80.3445 1520.48 81.5945C1514.98 81.6588 1511.04 82.0311 1507.1 82.326C1503.67 82.5826 1500.55 82.0572 1498.79 78.5721Z" fill="#0C0C0C"/>
<path d="M1556.72 61.854C1556.72 61.854 1556.62 62.2747 1558.07 63.5252C1560.57 62.4935 1561.62 60.2113 1562.66 57.929C1562.66 57.929 1562.64 58.2898 1564.19 58.3362C1566.61 55.6291 1571.65 53.2025 1566.4 49.9701C1566.4 49.9701 1566.46 50.2686 1566.31 50.2805C1567.26 50.4544 1569.18 51.0478 1569.36 50.7132C1571.82 46.0958 1573.74 41.1721 1576.4 36.6815C1579.8 30.9309 1584.4 26.3503 1591.14 24.3685C1598.56 22.1871 1606.14 26.7723 1607.16 34.3751C1608.66 45.5708 1605.67 55.404 1596.77 62.5556C1592.24 66.1963 1586.69 68.5731 1581.97 72.9907C1582.34 74.4603 1582.43 74.1622 1581.42 72.9904C1572.66 72.7979 1564.88 74.6158 1557.16 74.389C1553.52 74.282 1549.99 70.2567 1546.41 68.0067C1546.41 68.0067 1547.4 66.5146 1549.85 67.9775C1556.11 68.2749 1558.06 66.0206 1556.72 61.854Z" fill="#171717"/>
<path d="M102.585 100.182C103.564 101.751 104.544 103.32 103.377 104.177C98.1582 104.978 97.149 107.336 98.3172 110.585C98.3172 110.585 98.3655 110.085 96.9368 109.256C92.9141 110.026 92.532 112.026 94.4202 114.437C94.4202 114.437 94.4419 114.114 93.0906 113.35C89.7391 114.172 89.2657 116.113 90.3765 118.424C90.3765 118.424 90.2889 118.078 90.4297 117.973C84.3372 119.453 84.4971 125.439 82.5079 129.839C79.1756 137.211 75.0237 143.727 67.6255 147.697C58.212 152.747 48.2872 147.794 47.4129 137.027C46.49 125.661 51.1531 116.297 60.1956 109.582C64.9058 106.084 70.4915 103.765 75.18 99.4471C74.678 97.9809 74.5772 98.2651 75.7322 99.643C85.4283 99.9895 93.8594 95.5869 102.585 100.182Z" fill="#171717"/>
<path d="M94.8808 64.8087C96.349 65.5913 96.4008 65.6179 97.3583 67.265C101.133 69.6144 103.207 75.347 106.891 70.1784C106.891 70.1784 106.649 70.2649 105.306 70.3692C102.187 75.071 98.2169 74.3775 94.391 74.9193C87.5858 75.8832 81.1264 69.8318 74.3012 74.194C74.3012 74.194 74.6066 74.0871 74.6864 74.2264C75.6537 70.608 72.3859 70.7314 70.3893 69.4796C65.3886 66.3448 59.8497 63.6437 55.8229 59.5068C52.2963 55.8839 49.8722 50.7795 48.1417 45.9099C45.3556 38.0698 48.0985 29.6633 53.5214 26.3758C59.6044 22.6881 69.0089 24.6692 74.7641 31.6997C78.0448 35.7073 80.1771 40.6615 82.777 45.2178C86.3466 51.4732 89.8698 57.7555 94.8808 64.8087Z" fill="#171717"/>
<path d="M1431.77 102.477C1430.18 106.913 1429.34 110.649 1427 112.455C1417.17 120.059 1404.5 114.961 1403.47 102.717C1402.59 92.1852 1402.8 81.4969 1403.39 70.9259C1403.86 62.6324 1410 57.5476 1417.79 57.5158C1425.22 57.4854 1431.03 61.7818 1431.47 69.0821C1432.12 79.6524 1431.76 90.2837 1431.77 102.477Z" fill="#0C0C0C"/>
<path d="M762.051 66.132C766.653 65.5019 770.006 64.6965 773.159 65.1859C784.906 67.0086 791.411 75.1369 791.236 87.1201C791.07 98.4373 783.273 107.589 772.507 109.103C762.298 110.539 751.416 102.338 749.676 91.7712C747.905 81.0169 750.954 72.2973 762.051 66.132Z" fill="#0C0C0C"/>
<path d="M1558.38 107.88C1556.81 106.45 1555.23 105.021 1553.62 101.452C1562.35 96.3059 1570.45 100.786 1578.89 101.394C1580.08 101.479 1581.44 99.3105 1582.71 98.1854C1582.71 98.1854 1582.43 98.2103 1582.38 98.0781C1582.43 99.5171 1581.93 101.961 1582.73 102.514C1587.07 105.503 1592.08 107.579 1596.21 110.797C1605.33 117.898 1608.98 127.453 1607.03 138.946C1605.73 146.674 1598.02 151.028 1590.49 148.424C1584.6 146.387 1579.95 142.736 1577.01 137.283C1574.19 132.047 1571.83 126.563 1567.78 121.554C1566.29 121.92 1566.56 122.074 1567.69 121.033C1567.28 117.341 1566.71 113.665 1562.4 113.953C1562.4 113.953 1562.67 114.119 1562.99 112.709C1561.67 110.159 1560.03 109.02 1558.38 107.88Z" fill="#111111"/>
<path d="M251.866 95.9545C251.631 100.215 251.896 103.018 251.074 105.455C248.606 112.777 243.093 116.536 236.305 116.088C229.74 115.654 223.543 110.448 223.177 103.362C222.596 92.1267 222.499 80.7941 223.315 69.5841C223.895 61.6243 230.96 56.9333 238.874 57.5785C246.052 58.1636 250.874 62.6236 251.466 70.4657C252.064 78.3855 251.772 86.3726 251.866 95.9545Z" fill="#0C0C0C"/>
<path d="M1371 78.7128C1371.89 75.5502 1372.38 72.1982 1373.76 69.2687C1375.94 64.6595 1380 62.4994 1385.11 63.0218C1390.53 63.5752 1394.77 67.6849 1395.09 73.6871C1395.54 82.2734 1395.36 90.9051 1395.16 99.511C1395.04 104.693 1392.02 108.148 1387.23 109.829C1382.24 111.584 1377.42 109.666 1373.82 104.189C1372.42 102.066 1372.08 99.2519 1371.8 93.8573C1371.9 86.8788 1371.45 82.7958 1371 78.7128Z" fill="#171717"/>
<path d="M905.124 80.6889C904.807 87.2856 905.19 92.904 903.14 97.4167C897.973 108.788 885.455 112.584 874.908 106.928C863.21 100.654 859.464 85.9262 866.673 74.5563C872.725 65.013 886.769 61.8418 896.192 68.6182C899.738 71.1683 901.916 75.6216 905.124 80.6889Z" fill="#111111"/>
</svg>
