<svg width="1644" height="137" viewBox="0 0 1644 137" fill="none" xmlns="http://www.w3.org/2000/svg">
<path d="M707.289 62.7052C717.551 70.4982 727.653 78.5851 741.275 82.0334C741.716 75.2711 741.634 69.4181 742.554 63.7262C745.781 43.7526 763.34 32.1144 783.118 36.4528C790.888 38.1569 795.4 43.5661 799.297 53.0807C799.725 62.987 799.89 69.8673 799.459 77.9801C795.422 83.5314 791.176 87.0578 785.571 87.0451C782.682 87.0382 779.076 85.4088 777.091 83.2956C774.527 80.5656 775.911 77.0514 778.576 74.5226C780.5 72.6964 782.891 71.3068 784.593 69.3117C791.508 61.2086 788.573 50.735 778.73 46.821C772.474 44.3332 766.905 45.5934 761.716 49.0866C747.847 58.4235 746.361 81.1227 758.706 92.9562C773.409 107.049 789.284 107.701 810.072 94.5417C808.226 88.5358 806.305 82.2887 804.621 74.5412C805.011 67.0631 805.165 61.0866 805.318 55.1095C807.192 49.484 809.066 43.8581 811.278 37.2165C805.344 27.6925 795.595 22.11 785.385 17.4777C773.835 12.237 761.58 9.25309 748.827 8.67447C742.857 8.40396 736.837 8.49137 730.947 7.65836C729.192 7.4108 727.802 4.58951 724.762 1.38248C761.196 -2.65658 793.029 2.11148 820.95 24.8092C848.282 2.59488 879.685 -2.35775 913.055 0.915194C913.985 1.0065 914.649 3.80191 916.049 6.52652C909.524 9.18326 903.583 7.79947 897.981 8.4274C892.049 9.09391 885.999 9.09146 880.178 10.2633C873.708 11.567 867.285 13.4713 861.127 15.8527C855.598 17.9909 850.184 20.7111 845.222 23.946C840.312 27.1466 836.032 31.3122 830.949 35.4879C832.478 40.4377 833.805 44.7375 835.42 52.5133C836.057 63.0016 836.407 70.0138 836.444 78.4899C834.729 84.8966 833.327 89.8395 831.882 94.9313C834.683 96.8366 836.722 98.5646 839.045 99.7189C841.996 101.184 845.092 102.513 848.272 103.332C869.952 108.914 893.073 91.2233 891.898 69.9289C891.348 59.9704 886.818 52.2712 877.791 47.5861C870.439 43.7716 860.811 45.6276 856.202 51.63C851.718 57.4709 852.7 64.0959 859.162 71.1056C861.729 73.8903 864.402 76.5773 866.758 79.0299C864.532 86.3258 860.191 88.0436 854.218 86.8048C847.854 85.4845 844.476 80.3815 840.526 74.3781C840.731 66.5944 840.981 60.3849 841.231 54.1759C850.718 37.1784 858.026 33.2853 874.531 36.4386C888.181 39.0465 898.574 50.883 899.992 65.9411C900.468 70.9928 900.067 76.1266 900.067 81.6359C914.85 76.9806 927.708 69.9313 933.525 63.0363C938.311 57.3644 942.407 51.1525 940.637 43.1628C939.469 37.8908 936.372 35.0055 930.476 37.0963C926.07 40.4396 930.358 44.2746 929.812 47.6862C929.36 50.5036 927.351 53.7355 925.034 55.3551C923.492 56.4328 919.919 55.5905 917.73 54.5807C908.66 50.401 907.934 33.9035 917.123 27.2785C924.122 22.2321 932.055 21.7892 939.876 25.0563C946.715 27.9128 949.663 34.1632 950.222 40.9933C950.635 46.05 949.327 51.2467 948.635 57.8073C952.533 57.4738 955.597 57.0915 958.67 56.9733C965.965 56.6935 973.373 55.6354 980.541 56.5031C1001.88 59.088 1016.37 77.8356 1013.93 98.7096C1011.24 121.771 991.524 138.437 970.224 136.109C948.224 133.706 940.751 109.647 947.727 95.7448C951.719 87.7878 958.333 84.1955 967.15 84.3971C976.409 84.6086 984.445 89.9547 987.129 98.154C988.448 102.183 987.8 106.049 984.188 108.895C980.75 111.603 977.079 112.393 973.186 109.905C971.514 108.836 970.061 107.405 968.344 106.428C966.719 105.504 964.878 104.96 963.197 104.275C957.5 113.707 961.243 122.291 971.596 124.475C985.112 127.327 999.755 117.973 1003.77 103.924C1008.8 86.3102 997.601 68.7931 978.821 65.5002C968.141 63.6271 957.485 64.3078 947.687 69.4572C937.695 74.7086 927.85 80.2589 918.123 85.9879C907.242 92.3966 896.607 99.2204 885.792 105.741C864.649 118.49 843.405 120.635 822.309 105.991C820.837 106.396 819.397 106.46 818.341 107.13C798.149 119.951 778.014 118.435 758.073 106.733C745.461 99.3322 733.141 91.4372 720.567 83.9723C711.997 78.8849 703.213 74.1574 694.204 67.6535C698.351 64.9269 702.82 63.8161 707.289 62.7052ZM825.116 63.1852C824.476 60.1252 823.836 57.0656 823.09 53.5016C815.863 60.9289 815.352 61.6632 816.706 70.6632C817.197 73.924 816.979 79.0504 823.741 77.7843C824.2 74.0607 824.675 70.2043 825.116 63.1852Z" fill="black"/>
<path d="M40.0107 41.1961C95.8076 39.7059 151.599 37.2396 207.403 36.9334C315.114 36.3426 422.832 36.9251 530.547 37.1282C557.794 37.1795 585.041 37.6341 614.052 38.8191C615.838 41.3318 615.858 42.9295 615.879 44.5267C605.372 45.8543 594.887 48.0765 584.353 48.3436C551.772 49.1697 519.171 49.6673 486.58 49.5477C362.183 49.0931 237.786 48.4539 113.391 47.6121C90.1279 47.4549 66.8733 46.0447 41.8303 43.9842C40.0454 42.7552 40.0107 41.1961 40.0107 41.1961Z" fill="black"/>
<path d="M1599.85 44.4265C1566.64 45.6707 1533.43 47.7425 1500.21 48.0081C1389.04 48.8958 1277.87 49.2625 1166.7 49.554C1130.76 49.6487 1094.81 49.1111 1058.87 48.3953C1048.28 48.1843 1037.72 46.3733 1025.64 43.3562C1024.09 39.7317 1024.03 38.0467 1023.98 36.3621C1035.22 36.991 1046.48 38.3777 1057.71 38.1341C1204.08 34.9583 1350.46 35.5408 1496.83 37.6194C1530.08 38.0916 1563.32 39.534 1598.19 41.657C1599.83 42.784 1599.85 44.4265 1599.85 44.4265Z" fill="black"/>
<path d="M706.43 61.0926C702.82 63.8152 698.351 64.9261 693.083 66.889C683.242 65.2156 674.076 63.8001 664.706 65.303C650.887 67.5213 641.675 75.4392 637.702 88.7718C632.18 107.305 650.01 127.408 669.117 124.659C675.728 123.709 680.067 119.795 682.45 114.006C683.287 111.972 682.861 108.366 681.496 106.798C680.316 105.441 676.765 105.208 674.669 105.836C672.282 106.551 670.53 109.596 668.166 110.125C665.233 110.781 661.62 110.668 658.902 109.495C654.662 107.666 654.189 103.345 654.987 99.2166C656.598 90.8811 664.166 85.0379 673.848 84.3763C683.948 83.6863 693.313 89.2576 695.556 98.3323C700.24 117.286 690.063 135.67 668.96 136.293C648.709 136.89 629.586 119.252 627.807 97.9139C626.057 76.9212 640.957 58.3211 662.243 56.4383C672.056 55.5706 682.078 57.0735 693.169 57.552C692.772 54.0852 692.025 49.802 691.834 45.4949C691.094 28.7908 703.198 19.4056 719.157 24.1658C731.917 27.972 735.98 43.1922 726.69 52.9397C723.806 55.9651 720.148 57.5501 715.981 55.1092C712.772 53.2293 711.588 50.3557 712.261 46.7068C712.731 44.1629 713.195 41.618 713.874 37.9163C710.936 37.4632 707.821 36.0057 706.453 36.9861C704.013 38.7361 700.943 42.1014 701.15 44.5349C701.582 49.6057 703.98 54.5086 706.43 61.0926Z" fill="black"/>
<path d="M617.33 44.5045C615.858 42.9303 615.838 41.3326 615.917 38.5397C645.464 15.3053 688.357 0.717885 721.475 1.48595C723.73 4.98058 722.841 7.47911 718.918 8.65636C717.035 9.2213 714.992 9.31212 713.009 9.47618C683.972 11.8795 657.429 21.6349 632.633 36.611C628.089 39.3556 623.402 41.8644 617.33 44.5045Z" fill="black"/>
<path d="M1023.26 35.2148C1024.03 38.0493 1024.09 39.7344 1024.17 42.6855C1015.46 39.3979 1006.77 34.7627 997.98 30.3066C982.641 22.5273 967.175 15.0498 948.75 10.4458C947.724 7.104 947.791 6.01465 947.859 4.92578C975.259 8.22314 999.581 19.4106 1023.26 35.2148Z" fill="black"/>
<path d="M23.9268 44.6259C19.429 44.9018 14.9172 45.5234 10.4377 45.3437C6.8208 45.1977 2.97046 44.9238 0 41.1059C6.96313 40.8066 13.926 40.5073 22.3384 41.4877C23.7878 42.767 23.9268 44.6259 23.9268 44.6259Z" fill="black"/>
<path d="M946.295 4.46585C947.791 6.01322 947.724 7.10257 947.553 9.82718C940.469 10.4571 933.487 9.45169 926.671 8.46976C924.886 4.76273 925.049 1.61527 929.529 1.74613C934.614 1.89359 939.665 3.20316 946.295 4.46585Z" fill="black"/>
<path d="M1619.65 41.0802C1627.83 39.4181 1635.83 40.1974 1643.82 44.1891C1636.87 44.5661 1629.93 44.943 1621.42 44.0363C1619.85 42.7526 1619.65 41.0802 1619.65 41.0802Z" fill="black"/>
<path d="M1618.01 40.8965C1619.65 41.0811 1619.85 42.7535 1619.82 43.5948C1614.24 44.6763 1608.68 44.9165 1601.49 44.793C1599.85 44.4287 1599.83 42.7862 1599.84 41.9649C1605.36 41 1610.86 40.8565 1618.01 40.8965Z" fill="black"/>
<path d="M25.53 44.8158C23.9267 44.6249 23.7878 42.766 23.9516 41.8485C28.3735 40.7855 32.6315 40.64 38.4502 40.8446C40.0109 41.1947 40.0456 42.7538 40.0126 43.5326C35.6975 44.5433 31.4152 44.7753 25.53 44.8158Z" fill="black"/>
</svg>
