<svg width="1656" height="329" viewBox="0 0 1656 329" fill="none" xmlns="http://www.w3.org/2000/svg">
<path d="M887.54 145.794C892.976 148.341 898.169 150.627 904.617 148.191C910.786 145.859 917.398 144.601 923.893 143.244C953.372 137.084 980.736 142.308 1005.94 158.811C1008.17 160.267 1010.45 161.629 1012.06 162.629C1020.12 158.326 1027.36 153.228 1035.39 150.438C1052.1 144.636 1068.24 145.131 1081.2 159.518C1082.41 160.862 1082.78 162.961 1083.76 165.206C1077.89 167.452 1075.32 162.052 1071.32 160.873C1067.49 159.746 1063.73 157.873 1059.85 157.611C1055.31 157.305 1050.58 157.994 1046.1 158.987C1042.26 159.84 1038.44 161.368 1034.98 163.254C1031 165.415 1027.42 168.302 1022.63 171.583C1027.59 179.505 1032.6 186.376 1036.37 193.875C1040.23 201.558 1043.56 209.665 1045.85 217.936C1048.13 226.126 1048.83 234.753 1050.37 244.105C1059.53 245.15 1067.98 244.694 1076 241.035C1088.68 235.244 1101.21 229.112 1113.83 223.172C1125.24 217.802 1136.45 211.904 1148.18 207.38C1155.52 204.551 1163.6 203.072 1171.48 202.317C1195.39 200.023 1214.73 211.091 1225.22 232.48C1227.55 237.233 1229.33 242.257 1231.53 247.569C1359.43 249.428 1487.15 251.284 1615.47 253.149C1617.64 250.188 1619.59 246.708 1622.3 243.997C1630.97 235.338 1642.61 235.371 1650.57 243.739C1657.51 251.034 1657.35 263.901 1650.24 270.896C1642.78 278.232 1631.36 278.47 1623.26 270.975C1620.45 268.376 1618.61 264.723 1616.02 261.119C1489.24 262.768 1362.18 264.422 1234.6 266.081C1231.23 276.781 1227.91 287.341 1222.54 298.385C1219.59 297.372 1218.7 295.875 1217.81 294.377C1218.57 285.275 1224.77 276.794 1220.61 266.143C1163.83 264.796 1106.79 266.927 1049.4 267.001C1047.21 275.141 1045.34 282.076 1041.7 290.52C1039.06 292.1 1038.19 292.171 1037.32 292.241C1037.7 284.437 1038.09 276.633 1038.46 269.05C1020.43 265.77 979.754 265.846 955.96 269.036C953.824 275.019 951.94 281.357 949.344 287.388C934.851 321.056 904.287 335.152 869.403 324.571C854.648 320.096 843.502 311.293 836.491 297.551C833.788 292.252 831.685 286.646 828.693 279.765C826.498 283.597 824.319 286.47 823.085 289.704C813.333 315.263 793.472 326.456 767.534 327.766C741.781 329.067 722.791 317.122 710.677 294.683C706.338 286.646 703.512 277.793 699.549 268.236C673.69 266.34 647.319 266.286 620.316 267.051C616.568 275.72 620.201 284.261 618.473 294.047C617.304 295.506 615.704 295.862 615.704 295.862C613.078 287.02 610.451 278.178 607.398 267.9C579.539 264.581 551.054 267.369 522.73 266.115C494.208 264.853 465.586 265.838 436.826 265.838C431.113 272.721 435.389 279.928 435.257 289.876C433.485 294.043 432.083 295.2 430.682 296.357C427.402 286.383 424.121 276.409 420.724 266.08C294.359 264.419 167.902 262.758 40.6825 261.086C37.8107 264.509 34.9496 269.072 31.0207 272.358C23.443 278.695 12.4137 277.643 5.65225 270.703C-1.7623 263.091 -1.89853 251.239 5.34049 243.625C12.0417 236.577 23.1303 235.298 30.6955 241.467C34.6916 244.726 37.6379 249.272 40.9706 253.135C168.439 251.286 295.623 249.441 423.906 247.581C425.78 243.279 427.715 238.546 429.88 233.921C440.299 211.667 458.21 200.738 482.558 201.995C494.638 202.619 506.337 205.334 517.242 210.61C528.02 215.823 538.431 221.793 549.211 227.002C559.968 232.2 570.888 237.09 581.916 241.687C589.349 244.785 597.216 245.352 604.99 244.057C613.17 207.64 613.17 207.64 631.84 173.126C624.944 162.951 614.084 159.932 602.853 158.154C591.928 156.425 582.94 163.3 570.999 169.297C586.875 142.578 607.951 141.635 644.089 163.277C655.439 154.554 668.312 147.913 682.631 144.255C703.881 138.827 724.872 140.153 745.791 146.124C751.408 147.727 756.82 151.324 765.606 148.863C768.991 150.04 769.872 151.065 770.518 153.511C771.714 156.29 772.964 157.93 774.599 158.964C799.68 174.831 816.372 196.86 824.123 225.623C824.943 228.664 826.82 231.42 828.867 235.683C836.918 201.053 854.529 175.109 883.555 157.218C884.99 156.333 885.635 154.167 886.911 150.902C887.296 148.069 887.418 146.932 887.54 145.794ZM912.385 164.182C910.313 164.325 908.242 164.469 903.28 164.311C901.325 164.533 899.096 164.22 897.454 165.058C868.397 179.87 850.132 203.189 843.102 235.072C842.315 238.639 842.995 242.528 842.995 246.157C868.099 248.383 931.363 247.872 945.911 245.382C948.618 232.46 943.359 220.682 940.392 208.539C940.117 207.411 942.026 205.75 945.943 202.798C956.142 215.33 953.462 231.833 958.419 245.629C981.094 249.087 1005.17 248.737 1017.47 244.641C997.706 223.824 993.585 199.763 1003.56 173.223C976.917 152.979 948.301 150.381 917.997 157.794C916.725 158.105 916.312 161.925 912.385 164.182ZM738.479 165.614C740.094 163.683 742.652 162.014 740.373 159.002C703.861 149.28 676.981 154.057 652.383 174.849C653.946 180.976 656.267 187.234 656.97 193.668C657.606 199.483 657.202 205.652 655.929 211.37C654.504 217.767 651.67 223.864 649.293 230.032C647.024 235.92 640.047 239.218 638.855 246.862C659.171 246.862 678.162 246.862 697.797 246.862C698.582 242.229 698.996 238.347 699.924 234.593C701.993 226.227 704.214 217.893 706.7 209.645C706.947 208.826 709.443 208.684 714.604 210.261C713.409 221.912 707.402 233.121 711.679 246.958C722.357 247.839 733.528 247.289 744.647 247.377C756.586 247.471 768.531 247.599 780.466 247.34C791.463 247.101 802.604 248.528 813.465 246.258C810.865 208.012 786.011 174.769 753.24 164.595C749.223 166.795 745.243 169.074 741.122 171.056C740.769 171.225 739.468 169.418 738.479 165.614ZM888.852 267.273C873.715 267.393 858.559 267.002 842.742 267.554C842.319 286.143 849.308 299.604 863.9 308.406C897.238 328.517 936.969 308.285 941.997 269.003C940.833 268.482 939.674 267.52 938.505 267.508C923.276 267.351 908.045 267.329 888.852 267.273ZM777.333 313.811C802.949 305.394 812.522 293.185 812.688 268.72C791.805 266.243 728.397 266.714 714.194 269.481C714.194 271.352 713.707 273.41 714.266 275.13C723.905 304.821 742.797 317.238 777.333 313.811ZM534.773 233.989C519.752 225.534 504.588 217.565 487.211 214.808C466.53 211.526 450.683 218.632 440.607 236.8C438.955 239.78 439.112 243.764 438.397 247.472C487.746 249.964 535.228 249.057 552.894 245.076C547.062 241.539 542.149 238.559 534.773 233.989ZM1196.38 218.185C1181.34 211.413 1166.24 213.37 1151.89 219.524C1137.29 225.788 1123.32 233.554 1109.19 240.872C1107.22 241.889 1103.84 242.747 1105.27 246.486C1129.44 248.958 1200.58 248.857 1218.53 246.172C1215.56 234.608 1209.34 225.868 1196.38 218.185ZM1018.68 225.51C1022.24 229.34 1025.6 233.393 1029.45 236.912C1031.59 238.864 1034.31 241.385 1038.24 237.935C1036.65 222.978 1031.95 208.848 1023.69 195.97C1021.42 192.426 1020.16 187.204 1014.2 187.704C1009.1 202.907 1009.16 203.66 1018.68 225.51ZM621.521 221.375C619.569 227.295 617.131 233.211 620.216 239.936C642.393 225.345 648.404 209.97 641.268 186.749C630.266 194.82 626.628 206.803 621.521 221.375Z" fill="black"/>
<path d="M877.571 135.245C878.771 132.617 878.32 130.586 876.235 128.321C866.749 118.014 865.702 106.182 870.072 93.2598C872.176 87.0405 873.911 80.6226 875.028 74.1592C877.061 62.3853 875.032 51.8218 864.375 44.3787C861.705 42.5134 859.446 40.0588 856.6 35.8479C857.627 32.9819 859.054 32.1433 860.48 31.3047C862.83 32.4539 865.286 33.4285 867.513 34.7798C885.216 45.5183 889.999 61.6475 886.401 81.0425C885.195 87.5444 883.075 93.8784 881.901 100.385C879.52 113.578 884.502 120.802 897.481 122.97C907.413 124.628 915.889 121.651 922.075 113.495C927.321 106.578 927.076 99.9844 921.758 93.583C917.045 87.9109 913.175 87.3767 904.08 91.2595C902.875 91.7734 901.891 92.8181 900.677 93.292C899.551 93.7317 898.254 93.7371 896.892 93.9563C893.398 91.1028 895.207 87.9861 897.216 85.665C906.907 74.4695 919.759 73.772 930.261 83.5925C938.752 91.5322 941.527 103.75 936.907 114.621C931.178 128.101 920.567 135.602 906.186 136.202C898.438 136.525 890.579 134.187 880.552 134.085C878.334 135.121 877.571 135.245 877.571 135.245Z" fill="black"/>
<path d="M795.009 40.5889C792.653 42.9241 790.193 45.1638 787.961 47.6121C780.69 55.5894 778.27 64.9104 780.922 75.3669C782.557 81.8118 784.881 88.0876 786.393 94.5569C794.358 128.628 770.809 138.053 749.636 136.456C732.282 135.148 718.857 122.741 717.077 106.683C715.762 94.8259 721.765 83.7568 732.094 78.6606C737.811 75.8403 743.704 75.3586 749.474 77.7773C755.765 80.4143 761.07 84.332 761.717 91.9893C761.758 92.4783 761.056 93.0303 759.923 94.6936C757.431 93.2688 754.944 91.52 752.21 90.3445C743.865 86.7568 738.371 87.5703 734.099 92.7146C728.814 99.0798 728.948 108.189 734.424 114.686C743.131 125.017 760.615 126.662 770.304 117.634C772.522 115.567 774.196 112.012 774.482 108.987C774.911 104.442 774.173 99.7151 773.413 95.1514C772.652 90.5779 771.142 86.1345 770.159 81.5913C766.119 62.9265 770.361 47.29 789.418 36.4062C792.92 37.9026 793.965 39.2456 795.009 40.5889Z" fill="black"/>
<path d="M811.731 71.9995C810.038 69.8591 809.289 68.761 808.535 67.6609C808.684 66.5366 808.474 65.1641 809.048 64.3311C815.393 55.1147 821.86 45.9822 828.319 36.791C834.87 46.8008 841.033 56.2183 847.6 66.252C841.547 75.5774 835.148 85.437 828.206 96.1333C822.939 88.3018 817.807 80.6716 811.731 71.9995Z" fill="black"/>
<path d="M430.743 297.762C432.084 295.198 433.485 294.042 435.549 291.645C437.555 292.568 438.966 294.695 440.232 296.904C448.961 312.124 461.365 321.384 481.526 322.171C484.462 324.446 485.452 325.825 486.441 327.205C460.658 332.223 443.104 320.911 430.743 297.762Z" fill="black"/>
<path d="M875.643 135.867C877.57 135.247 878.333 135.122 878.397 134.984C877.583 139.886 882.18 140.862 886.15 144.564C887.418 146.931 887.296 148.069 885.588 150.465C869.652 142.962 855.301 134.199 841.875 124.82C843.237 123.606 843.675 123.008 844.113 122.41C853.98 127.103 863.847 131.795 875.643 135.867Z" fill="black"/>
<path d="M1216.72 295.262C1218.7 295.873 1219.59 297.37 1221.6 299.549C1216.86 314.783 1205.3 322.383 1190.73 326.08C1189.29 326.447 1187.39 325.049 1185.71 324.47C1186.55 322.984 1187.06 320.659 1188.3 320.144C1200.19 315.24 1209.83 307.925 1216.72 295.262Z" fill="black"/>
<path d="M806.605 125.819C809.692 123.633 812.843 121.531 815.846 119.235C818.529 117.183 820.091 114.625 818.613 109.926C820.316 108.461 821.75 108.201 823.183 107.941C825.012 108.571 827.168 110.155 828.61 109.66C834.23 107.731 836.422 109.177 836.842 115.224C836.965 117 840.459 118.541 843.261 121.3C843.675 123.008 843.238 123.606 840.534 124.532C834.808 123.136 831.347 121.41 828.381 119.931C820.595 124.2 813.65 128.008 806.629 130.317C806.569 127.819 806.587 126.819 806.605 125.819Z" fill="black"/>
<path d="M487.831 327.152C485.451 325.826 484.461 324.447 483.111 322.295C499.898 317.338 508.713 305.239 513.417 289.121C514.755 307.865 506.416 320.311 487.831 327.152Z" fill="black"/>
<path d="M805.216 126.438C806.587 126.816 806.569 127.816 805.486 131.064C793.197 139.571 781.975 145.83 770.752 152.088C769.872 151.063 768.991 150.038 767.223 148.479C778.832 140.983 791.329 134.021 805.216 126.438Z" fill="black"/>
<path d="M796.335 40.2969C793.965 39.2446 792.921 37.9016 790.696 35.9873C797.788 30.0173 806.06 24.6184 816.301 19.4473C818.801 20.2502 819.332 20.8257 819.864 21.4014C814.817 30.4124 805.31 34.1008 796.335 40.2969Z" fill="black"/>
<path d="M818.515 16.1282C821.423 11.1602 824.332 6.19214 827.957 0C831.944 5.60986 835.397 10.4683 838.556 17.4971C837.552 20.2041 836.842 20.7412 836.132 21.2781C832.538 19.7524 830.27 14.3901 823.296 17.6716C820.653 17.0535 819.656 16.4683 818.515 16.1282Z" fill="black"/>
<path d="M1153.31 310.039C1161.09 316.727 1169.75 320.988 1180.36 320.572C1183.03 320.467 1186.13 321.74 1184.88 325.026C1184.25 326.688 1181.09 328.15 1178.95 328.34C1170.63 329.079 1163.42 325.781 1156.86 320.998C1154.74 319.454 1152.99 317.418 1151.4 313.564C1152.25 311.027 1152.78 310.533 1153.31 310.039Z" fill="black"/>
<path d="M859.677 30.1863C859.053 32.1448 857.627 32.9834 855.574 34.8987C849.165 31.8379 843.383 27.7002 836.867 22.4207C836.842 20.7422 837.552 20.2051 839.133 18.6523C846.294 21.4463 852.585 25.2561 859.677 30.1863Z" fill="black"/>
<path d="M822.619 106.827C821.75 108.2 820.316 108.459 817.802 108.569C813.476 105.396 810.23 102.374 807.17 97.5964C807.356 95.8408 808.441 94.9609 808.441 94.9609C812.979 98.5452 817.516 102.129 822.619 106.827Z" fill="black"/>
<path d="M1144.53 304.468C1141.2 298.734 1139.79 292.992 1144.03 286.193C1148.38 290.553 1146.67 295.319 1146.96 301.598C1146.34 303.783 1144.53 304.468 1144.53 304.468Z" fill="black"/>
<path d="M1036.47 293.11C1038.19 292.169 1039.06 292.099 1041.23 292.068C1042.5 293.352 1042.92 294.882 1042.34 295.772C1041.39 297.247 1039.81 299.322 1038.47 299.349C1034.9 299.42 1035.33 296.474 1036.47 293.11Z" fill="black"/>
<path d="M1150.91 312.236C1148.61 310.915 1147.12 308.881 1145.08 305.657C1144.53 304.468 1146.34 303.783 1146.7 302.881C1148.7 303.924 1150.36 305.868 1152.66 308.926C1152.78 310.534 1152.25 311.028 1150.91 312.236Z" fill="black"/>
<path d="M802.785 88.3948C804.36 89.9024 805.934 91.41 807.975 93.9395C808.441 94.9615 807.356 95.8414 806.819 96.2923C805.077 94.7088 803.872 92.6744 802.769 89.4524C802.869 88.2647 802.785 88.3948 802.785 88.3948Z" fill="black"/>
<path d="M843.013 100.386C844.228 98.9856 845.192 96.9226 846.719 96.3447C848.872 95.5296 850.121 96.878 847.127 99.9451C844.366 100.487 843.689 100.436 843.013 100.386Z" fill="black"/>
<path d="M817.915 16.4219C819.656 16.4668 820.653 17.052 821.989 18.6106C822.473 19.3384 821.53 20.8276 820.697 21.114C819.332 20.825 818.801 20.2495 817.491 18.7927C816.714 17.9114 817.315 16.7168 817.915 16.4219Z" fill="black"/>
<path d="M802.93 88.2168C802.477 87.7451 801.961 87.3218 801.445 86.8984C801.719 87.0862 801.992 87.2737 802.525 87.9282C802.784 88.395 802.869 88.2649 802.93 88.2168Z" fill="black"/>
<path d="M853.305 91.1387C852.573 91.2678 852.308 90.8994 852.042 90.5312C852.619 90.5679 853.195 90.6045 853.305 91.1387Z" fill="black"/>
<path d="M842.416 101.438C843.69 100.436 844.366 100.486 846.053 100.41C846.337 101.468 845.611 102.652 843.898 104.094C842.913 104.352 843.073 104.563 843.073 104.563C842.655 103.873 842.236 103.182 842.416 101.438Z" fill="black"/>
<path d="M842.832 104.247C841.744 105.232 840.737 106.322 839.729 107.412C840.064 106.121 840.399 104.83 841.903 104.051C843.073 104.563 842.912 104.352 842.832 104.247Z" fill="black"/>
<path d="M615.688 296.915C615.704 295.862 617.304 295.506 618.04 295.867C619.277 299.548 617.915 299.545 615.688 296.915Z" fill="black"/>
<path d="M913.942 164.145C927.806 170.89 935.811 181.684 941.808 195.39C939.839 198.88 938.887 200.382 937.935 201.884C929.223 188.998 920.598 176.036 906.851 165.776C908.242 164.468 910.314 164.324 913.942 164.145Z" fill="black"/>
<path d="M715.907 201.294C714.207 198.802 712.626 196.667 713.12 195.937C717.881 188.909 722.99 182.117 729.449 175.711C733.802 177.45 733.827 179.503 732.277 181.818C731.263 183.333 730.048 184.713 726.837 187.703C724.239 190.517 723.726 191.782 723.213 193.046C721.138 196.132 719.063 199.218 715.907 201.294Z" fill="black"/>
<path d="M712.688 209.03C705.701 204.99 710.339 202.248 713.102 199.768C720.354 203.586 716.858 206.65 712.688 209.03Z" fill="black"/>
<path d="M736.327 173.159C735.164 170.838 735.641 169.272 737.555 167.887C740.812 170.395 740.452 172.34 736.327 173.159Z" fill="black"/>
<path d="M732.323 177.151C729.525 174.297 729.966 172.623 733.498 171.746C736.771 174.426 736.411 176.352 732.323 177.151Z" fill="black"/>
<path d="M724.145 192.551C723.726 191.783 724.239 190.518 725.687 188.758C726.107 189.527 725.592 190.791 724.145 192.551Z" fill="black"/>
<path d="M938.256 203.14C938.886 200.381 939.838 198.879 941.981 196.766C944.066 198.233 944.958 200.313 944.337 203.321C941.407 204.299 939.992 204.348 938.256 203.14Z" fill="black"/>
</svg>
