<svg width="1640" height="207" viewBox="0 0 1640 207" fill="none" xmlns="http://www.w3.org/2000/svg">
<path d="M746.472 119.48C746.371 117.013 745.4 114.139 746.329 112.154C749.31 105.787 747.141 99.9588 746.805 92.5834C749.505 91.1544 750.922 91.1166 753.032 92.4251C757.249 94.3211 760.774 94.8707 765.423 95.5958C764.103 92.1515 762.91 90.3893 762.871 88.6014C762.817 86.2086 762.86 82.6493 764.295 81.651C766.641 80.0187 770.452 78.8954 773.096 79.6048C779.598 81.3492 782.721 86.9068 782.555 93.1876C782.382 99.7228 781.454 106.01 783.089 112.676C784.38 117.936 781.473 123.077 776.843 126.344C773.463 128.729 769.384 129.74 765.706 127.172C761.699 124.374 762.222 120.66 764.53 116.765C765.281 115.498 765.103 113.681 765.464 111.386C761.265 111.616 758.049 111.791 754.564 111.982C748.639 133.662 765.37 144.184 775.164 159.545C777.997 155.416 779.704 152.69 781.73 150.225C782.045 149.842 783.816 150.658 785.768 152.342C782.391 169.865 789.635 181.097 802.791 188.742C816.565 196.746 831.036 196.318 844.288 187.365C857.048 178.745 862.855 166.856 859.229 151.186C862.187 151.11 863.37 151.101 865.203 152.482C867.478 154.648 870.322 156.364 870.556 156.061C876.625 148.22 882.751 140.381 888.099 132.048C890.142 128.863 890.693 124.518 891.204 120.607C891.733 116.568 891.086 112.043 886.458 110.913C883.941 110.298 880.841 112.067 877.517 112.88C881.152 117.942 883.597 122.305 878.753 126.101C874.556 129.391 868.246 127.818 864.853 122.881C863.062 120.276 861.571 116.993 861.313 113.901C860.713 106.716 860.744 99.4584 860.895 92.2379C861.037 85.4386 864.488 80.369 870.761 78.9698C873.528 78.3526 877.351 79.5111 879.711 81.2215C880.961 82.1283 880.384 85.9747 880.105 88.4342C879.9 90.2386 878.838 91.9461 877.924 94.2992C881.56 94.2992 885.402 95.4261 887.773 94.0389C891.469 91.8751 891.366 87.441 890.527 83.2694C887.506 68.2516 877.752 58.0072 867.006 48.0401C864.513 53.7381 862.463 58.6012 860.162 63.3424C859.983 63.712 858.049 63.2298 855.388 61.9305C855.044 56.9547 856.585 53.2628 857.377 49.4164C859.771 37.7987 855.122 28.6554 846.342 21.5204C834.548 11.9349 820.986 10.204 807.153 15.5353C793.171 20.9242 784.428 31.0655 782.765 47.0394C779.385 47.2838 777.455 47.4527 774.629 48.4798C766.832 59.2425 759.932 69.1468 751.639 78.9769C748.234 77.1881 746.222 75.4728 744.209 73.7574C751.017 64.025 757.824 54.2926 765.718 43.006C759.838 41.3729 755.532 40.5267 751.49 38.9869C740.938 34.9659 737.362 25.0157 742.438 14.5477C743.104 13.1747 743.103 13.1747 752.183 10.8583C751.552 14.4144 750.638 17.3548 750.589 20.3097C750.484 26.5692 754.659 30.3553 760.587 29.8268C768.827 29.0924 775.92 25.5531 782.245 20.4847C785.351 17.9967 787.923 14.8553 790.908 12.202C808.685 -3.60048 832.69 -4.10634 851.035 10.9901C854.108 13.5184 856.714 16.6056 859.694 19.2569C865.31 24.255 871.857 27.263 879.378 28.1598C889.074 29.316 892.267 26.0011 891.101 15.8382C890.894 14.0294 890.752 12.2135 890.595 10.5555C895.973 7.72544 898.845 10.8182 900.372 14.4938C905.268 26.2809 900.402 35.6336 887.927 38.7804C884.76 39.5792 881.349 39.4064 876.712 39.7909C885.602 56.3636 896.361 70.514 910.332 81.6376C923.614 92.2137 940.167 92.7577 951.266 84.6478C960.178 78.1366 963.57 69.1671 961.802 58.3448C960.175 48.3929 955.007 41.1854 945.176 37.7438C937.37 35.0111 931.756 36.9359 926.754 44.8211C925.983 46.0362 927.062 48.4242 927.362 50.9098C932.305 50.6051 936.843 49.8441 941.304 50.1637C947.942 50.639 950.995 58.4337 946.927 63.6849C941.837 70.255 933.469 72.7652 925.419 70.1354C917.425 67.524 912.207 60.5033 912.082 52.192C911.832 35.5272 925.959 23.0917 942.352 26.4151C947.979 27.5555 953.792 30.3023 958.329 33.8412C975.125 46.9386 976.9 84.9837 950.046 95.8063C945.936 97.4625 941.866 99.2169 938.123 100.782C938.54 108.057 943.892 106.251 947.139 107.397C960.262 112.025 967.978 121.284 971.065 134.581C974.955 151.338 964.603 171.587 949.352 177.365C932.91 183.595 915.993 174.127 912.949 156.991C911.474 148.689 915.078 140.289 922.439 136.751C930.033 133.101 937.814 132.719 945.01 138.144C948.99 141.144 950.525 146.51 948.362 150.517C946.214 154.498 942.648 155.778 938.263 155.013C935.187 154.475 932.104 153.984 927.254 153.179C928.029 157.334 927.669 160.534 929.068 161.821C931.813 164.346 935.416 167.158 938.879 167.471C953.524 168.794 966.011 153.158 963.177 137.807C960.803 124.946 949.633 115.284 936.486 115.064C925.32 114.877 915.434 118.836 907.447 126.414C895.887 137.382 886.59 150.173 878.19 164.2C897.193 168.588 902.93 172.709 904.031 182.123C904.743 188.202 901.908 192.091 892.441 196.791C892.67 192.98 893.008 189.947 893.002 186.915C892.986 179.659 888.775 176.001 881.735 177.148C873.66 178.464 866.492 181.855 860.382 187.291C857.401 189.942 854.842 193.072 851.828 195.681C835.506 209.808 812.025 210.501 794.749 197.23C790.546 194.001 787.282 189.461 782.887 186.594C777.972 183.387 772.469 180.601 766.832 179.143C762.718 178.08 757.971 179.463 752.436 179.826C752.436 186.536 752.436 192.113 752.436 198.996C744.583 196.136 741.598 191.465 741.422 185.062C741.244 178.617 743.902 173.062 749.893 170.399C754.649 168.285 760.001 167.514 766.037 165.892C760.369 152.359 749.885 142.297 741.354 129.576C745.771 126.382 750.443 125.286 746.472 119.48ZM928.832 99.0262C919.33 94.9427 909.828 90.859 899.422 86.3868C895.833 97.9056 895.097 108.713 900.047 119.097C910.675 114.337 920.262 110.176 929.679 105.66C930.858 105.093 931.135 102.645 928.832 99.0262Z" fill="black"/>
<path d="M1596.72 106.364C1565.46 107.122 1534.2 108.201 1502.94 108.578C1413.11 109.661 1323.28 110.811 1233.45 111.256C1164.89 111.597 1096.33 110.912 1027.77 110.663C1007.18 110.588 986.685 109.257 963.18 106.081C967.766 103.054 969.828 100.721 972.223 100.305C978.095 99.2863 984.113 98.8661 990.085 98.706C1033.98 97.528 1077.88 95.7572 1121.78 95.5346C1201.66 95.1293 1281.54 95.0858 1361.41 95.9767C1438.58 96.8373 1515.74 99.0661 1594.56 102.06C1596.46 104.394 1596.62 105.373 1596.72 106.364Z" fill="black"/>
<path d="M668.787 106.412C629.733 110.844 590.491 110.956 551.284 110.95C444.217 110.933 337.148 110.81 230.083 110.108C178.903 109.773 127.732 108.031 74.8091 105.511C73.031 102.65 72.9998 101.204 72.9688 99.7573C110.859 98.9734 148.745 97.7524 186.639 97.4849C312.348 96.5974 438.059 95.76 563.771 95.5654C598.986 95.511 634.204 97.7373 670.588 100.18C670.766 103.099 669.777 104.756 668.787 106.412Z" fill="black"/>
<path d="M734.777 124.881C727.313 122.165 720.041 118.484 712.341 116.951C699.524 114.4 685.3 124.521 681.976 137.298C678.578 150.367 686.467 165.025 699.232 169.356C708.153 172.383 714.584 168.062 716.788 157.512C713.489 153.252 709.734 156.538 706.121 156.845C701.943 157.2 698.075 156.416 696.301 151.973C694.545 147.573 696.258 142.363 700.107 139.608C707.729 134.15 716.577 134.221 724.239 139.8C731.634 145.184 734.068 153.817 730.672 162.808C726.866 172.885 720.154 180.317 709.11 181.037C697.206 181.812 687 177.25 680.041 166.934C670.553 152.868 670.695 135.129 679.807 121.95C687.178 111.288 705.924 103.175 722.762 110.397C727.012 112.22 731.096 114.428 735.656 119.158C735.631 122.865 735.204 123.873 734.777 124.881Z" fill="black"/>
<path d="M673.365 58.9683C675.256 43.8784 682.664 33.2371 697.573 28.3523C715.668 22.4234 731.629 38.8511 730.958 54.7134C730.657 61.8194 727.191 67.5344 720.526 70.4138C713.523 73.439 706.345 73.51 699.646 69.211C695.668 66.6577 693.585 60.9148 695.056 57.1521C696.624 53.1441 700.679 51.1602 706.566 51.9314C709.091 52.2622 711.527 53.2691 713.769 53.9026C718.443 48.9046 716.787 44.909 712.548 41.8689C706.218 37.3279 698.587 37.1892 692.402 42.5266C688.071 46.2642 685.201 51.6948 679.91 57.688C676.549 58.9937 674.957 58.981 673.365 58.9683Z" fill="#1C1C1C"/>
<path d="M672.862 60.1716C674.957 58.9807 676.549 58.9934 679.334 58.959C680.631 59.5623 680.849 60.2175 680.823 60.8625C680.368 72.1934 683.734 81.6538 694.062 87.6033C704.856 93.8213 715.778 92.3655 726.072 86.825C731.737 83.7761 736.492 79.0361 742.934 74.408C746.222 75.4727 748.234 77.188 751.734 80.4854C752.927 85.0713 752.633 88.075 752.339 91.0786C750.922 91.1165 749.506 91.1543 747.027 91.1545C744.657 89.7712 743.347 87.3486 742.044 87.3518C740.395 87.3557 738.782 89.3833 737.099 90.4519C734.293 92.2341 731.531 94.1135 728.598 95.6641C701.571 109.951 668.628 93.2605 672.862 60.1716Z" fill="black"/>
<path d="M1598.53 106.683C1596.62 105.372 1596.46 104.392 1596.31 102.684C1610.78 102.217 1625.16 102.491 1639.54 102.766C1626.69 107.339 1613.47 106.638 1598.53 106.683Z" fill="black"/>
<path d="M41.196 106.488C16.9028 108.265 10.4866 107.669 0 102.663C0.752197 101.82 1.46826 100.294 2.27124 100.246C12.7546 99.6306 23.2502 99.2246 35.7271 100.15C38.873 103.186 40.0344 104.837 41.196 106.488Z" fill="black"/>
<path d="M42.9575 106.551C40.0344 104.836 38.873 103.185 37.5176 100.544C48.0273 99.4048 58.731 99.2571 71.2017 99.4332C72.9993 101.203 73.0305 102.65 73.0176 105.18C63.5554 106.381 54.1372 106.498 42.9575 106.551Z" fill="black"/>
<path d="M670.038 106.687C669.776 104.756 670.766 103.099 672.188 100.578C675.349 99.0558 678.574 99.4008 678.588 102.377C678.609 106.61 674.444 106.494 670.038 106.687Z" fill="black"/>
<path d="M734.814 124.824C735.204 123.873 735.631 122.865 736.518 120.281C739.145 119.575 741.312 120.445 744.975 120.397C750.444 125.286 745.772 126.382 740.713 128.414C739.545 128.924 739.666 128.85 739.497 127.564C737.872 125.796 736.415 125.313 734.958 124.831C734.958 124.831 734.852 124.768 734.814 124.824Z" fill="black"/>
<path d="M782.766 47.0391C787.086 52.6506 789.956 58.3381 792.357 65.7388C790.908 68.5608 789.927 69.6689 788.947 70.7771C780.486 66.5679 780.182 57.3601 775.96 48.9546C777.456 47.4524 779.385 47.2834 782.766 47.0391Z" fill="black"/>
<path d="M859.229 151.187C855.97 149.177 854.485 147.102 853.88 143.599C855.594 140.802 856.427 139.433 857.26 138.064C859.718 141.532 862.176 145 864.594 149.78C863.371 151.101 862.188 151.111 859.229 151.187Z" fill="black"/>
<path d="M849.169 133.212C847.498 135.801 846.094 137.488 844.747 137.444C841.678 137.344 838.637 136.395 834.487 135.573C835.226 142.639 836.59 148.271 836.17 153.767C835.755 159.196 836.92 164.007 838.089 169.101C838.509 170.93 836.5 174.761 834.762 175.401C825.452 178.825 815.951 180.734 807.186 173.55C808.048 161.629 808.879 150.134 809.781 137.659C801.995 135.699 797.213 140.175 790.456 143.427C788.247 141.454 786.888 139.371 787.439 138.51C792.046 131.303 799.421 127.472 807.4 127.741C817.808 128.094 828.123 128.074 838.515 127.654C842.106 127.509 845.81 130.154 849.169 133.212ZM824.642 152.681C824.21 150.083 823.778 147.485 823.195 143.984C819.127 148.395 819.083 151.617 824.642 152.681Z" fill="black"/>
<path d="M789.889 72.0516C789.927 69.6695 790.907 68.5614 792.922 66.9955C797.675 67.9044 801.35 69.4215 805.143 70.5358C806.148 70.8307 807.517 69.8866 809.569 69.2465C808.49 57.8365 807.392 46.2284 806.19 33.5238C815.151 26.7977 825.187 28.6676 836.387 31.8487C835.463 44.7894 834.556 57.4706 833.643 70.2526C836.389 70.2526 838.33 70.2526 842.79 70.6483C846.436 72.2201 847.563 73.3961 848.689 74.5721C843.81 78.4374 837.932 80.1498 832.184 78.7648C818.55 75.4791 803.377 84.2108 789.889 72.0516ZM823.262 62.5143C823.963 60.7235 825.462 58.785 825.165 57.1793C824.788 55.1476 822.949 53.3871 821.742 51.5094C820.318 53.3751 818.233 55.0751 817.709 57.1661C817.372 58.5131 819.327 60.4342 823.262 62.5143Z" fill="#111111"/>
<path d="M849.898 74.4365C847.563 73.3955 846.436 72.2195 844.201 70.4746C845.536 67.7463 847.979 65.5874 852.005 63.9375C854.825 65.3423 856.061 66.2378 857.298 67.1333C855.234 69.5227 853.171 71.9121 849.898 74.4365Z" fill="black"/>
<path d="M786.866 142.342C792.553 146.071 788.728 148.394 786.296 151.069C778.956 147.807 782.76 144.798 786.866 142.342Z" fill="black"/>
<path d="M856.011 137.453C856.426 139.432 855.593 140.801 853.644 142.659C852.029 142.391 851.528 141.634 851.978 139.903C853.539 138.234 854.151 137.538 856.011 137.453Z" fill="black"/>
<path d="M858.008 66.0567C856.062 66.2391 854.826 65.3436 853.111 63.3831C853.455 61.8848 854.277 61.4512 856.013 62.0684C857.525 63.7388 858.121 64.3587 858.008 66.0567Z" fill="black"/>
<path d="M853.615 137.429C850.75 140.694 848.92 140.368 848.186 136.486C851.089 133.31 852.872 133.652 853.615 137.429Z" fill="black"/>
</svg>
