<svg width="1412" height="259" viewBox="0 0 1412 259" fill="none" xmlns="http://www.w3.org/2000/svg">
<path d="M311.857 68.8921C317.2 72.75 322.13 77.4604 327.972 80.2874C339.909 86.0641 350.795 86.3969 363.237 77.8447C391.83 58.1911 424.111 47.8651 459.208 49.3189C486.662 50.4561 511.311 59.5502 531.586 78.7695C544.706 91.205 549.147 99.1058 557.202 123.723C564.827 123.723 572.714 123.723 582.111 123.723C593.78 112.856 606.362 101.138 619.558 88.8466C637.011 97.7053 654.086 106.372 672.388 115.661C675.373 112.028 677.946 108.401 681.03 105.279C684.269 101.999 687.998 99.2031 692.545 95.313C683.929 78.3087 675.302 61.2828 666.234 43.3861C677.523 27.7113 692.414 15.4566 705.871 0C720.223 14.2654 733.839 27.6528 746.65 42.9506C737.801 60.3345 729.096 77.4353 720.666 93.9973C728.005 100.349 734.972 106.377 743.675 113.909C757.604 106.827 774.624 98.1748 792.48 89.0966C806.423 99.2224 817.152 112.99 830.99 123.954C838.641 123.954 846.553 123.954 854.197 123.954C855.296 122.66 856.587 121.813 856.87 120.708C866.745 82.1376 894.048 62.3721 930.476 52.637C953.667 46.4396 976.676 48.6758 999.5 55.0192C1018.91 60.4122 1037.26 68.2511 1053.44 80.2736C1060.83 85.7646 1068.05 85.7875 1076.03 83.5589C1087.9 80.244 1097.95 74.0735 1106.75 61.7556C1106.33 79.6165 1097.61 90.9471 1089 102.967C1095.03 110.591 1104.27 112.965 1112.05 117.501C1120.18 122.237 1128.53 126.439 1140.06 123.549C1145.39 116.201 1151.06 106.795 1163.53 106.868C1175.12 106.936 1181.6 113.966 1186.06 122.627C1197.44 126.854 1206.13 123.583 1214.31 116.616C1220.37 111.459 1227.07 107.054 1234.47 101.589C1264.04 105.798 1294.32 109.808 1324.5 114.49C1353.72 119.022 1383.18 122.329 1411.96 131.209C1391.29 134.341 1370.63 137.539 1349.95 140.59C1315.7 145.642 1281.41 150.404 1247.21 155.738C1238.77 157.055 1231.61 156.543 1225.12 150.391C1221.28 146.753 1216.41 144.221 1212.43 140.709C1205.29 134.404 1197.23 133.163 1188.59 134.895C1168.31 160.873 1154.23 155.16 1139.03 134.586C1119.22 132.24 1105.34 145.965 1089.51 153.454C1095.15 164.634 1100.36 174.594 1105.15 184.751C1106.49 187.572 1106.58 190.976 1107.97 197.523C1094.86 180.969 1080.23 174.231 1062.67 172.863C1056.97 176.529 1051.5 180.307 1045.79 183.677C1015.88 201.319 983.986 211.569 948.816 208.985C924.163 207.173 902.147 198.579 883.49 182.196C871.787 171.92 862.635 159.833 858.771 144.324C857.998 141.22 856.582 138.276 855.097 134.275C850.008 134.275 845.441 134.516 840.909 134.219C833.739 133.75 828.188 136.308 823.124 141.41C813.772 150.832 803.95 159.786 793.791 169.442C775.496 162.558 759.539 151.555 741.212 143.735C734.75 149.861 728.138 156.13 720.394 163.473C727.754 181.003 738.654 197.578 746.524 215.986C733.593 230.831 720.609 244.801 705.831 258.241C692.266 244.105 679.439 230.738 666.193 216.935C673.34 198.239 684.199 182.204 692.103 164.046C685.799 157.623 679.452 151.155 672.436 144.007C654.75 149.993 639.002 161.512 620.189 169.145C612.834 165.7 607.769 158.462 601.39 152.895C597.883 149.835 594.318 146.735 591.37 143.164C585.816 136.437 579.054 133.362 570.321 134.209C566.399 134.589 562.411 134.273 558.48 134.273C557.221 136.49 555.84 138.065 555.371 139.876C547.317 171 526.038 189.806 497.426 201.295C469.052 212.69 440.1 211.515 411.206 203.178C393.197 197.982 375.953 190.708 360.865 179.525C352.406 173.257 344.532 172.293 334.862 175.755C327.203 178.496 320.076 181.656 311.729 188.289C308.365 189.208 307.418 189.097 306.47 188.987C308.454 176.041 316.408 166.044 324.344 154.746C307.907 145.466 293.824 132.927 274.301 134.462C253.432 158.037 243.433 158.118 225.065 135.506C215.348 132.33 206.611 134.446 199.44 141.478C186.051 154.608 171.527 157.367 152.525 153.973C102.198 144.983 51.3733 138.776 0 131.354C2.27417 125.872 7.0741 126.168 11.1154 125.586C61.0946 118.381 111.089 111.281 161.075 104.125C166.309 103.375 171.515 102.434 177.644 101.433C184.281 106.265 191.576 110.897 198.058 116.475C205.64 123 213.809 126.052 225.391 123.584C230.532 116.195 236.198 106.619 248.643 106.911C259.923 107.175 267.174 113.31 271.4 123.858C277.191 123.858 283.029 125.411 287.446 123.564C300.195 118.233 313.035 112.683 322.62 104.652C317.1 93.0818 312.001 82.3927 307.929 70.3788C309.923 69.0001 310.89 68.9461 311.857 68.8921ZM1057.42 134.034C1046.13 134.034 1034.82 134.451 1023.55 133.928C1009.4 133.272 995.968 135.727 982.575 140.206C965.079 146.057 947.277 150.996 929.945 156.225C923.063 151.416 916.624 147.77 911.218 142.963C899.713 132.732 886.793 132.826 872.871 134.926C873.295 137.522 873.056 139.162 873.764 139.939C891.771 159.689 913.786 172.25 940.145 177.384C972.484 183.683 1003.79 179.222 1033.84 167.219C1052.87 159.618 1070.9 149.496 1089.3 140.345C1090.71 139.647 1091.49 137.683 1092.38 136.53C1091.7 135.352 1091.41 134.369 1091.09 134.364C1081.14 134.195 1071.18 134.122 1057.42 134.034ZM362.578 160.446C383.642 170.928 405.956 177.186 429.326 179.314C470.511 183.064 507.119 173.05 536.485 142.37C538.058 140.727 538.97 138.45 540.865 135.369C524.951 132.6 511.921 133.057 500.491 143.647C495.225 148.527 488.608 151.949 482.388 156.178C463.613 150.492 445.104 145.327 426.911 139.218C415.371 135.342 403.821 133.743 391.715 133.935C369.775 134.284 347.825 134.013 325.88 134.064C323.543 134.069 320.473 133.139 320.111 137.981C332.425 146.219 346.35 152.291 362.578 160.446ZM872.707 121.047C881.906 126.111 895.157 126.303 903.441 120.902C912.312 115.116 920.865 108.844 929.565 102.778C935.295 104.283 940.435 105.472 945.477 106.985C961.385 111.76 977.188 116.898 993.175 121.385C999.473 123.153 1006.14 124.37 1012.65 124.463C1037.27 124.813 1061.89 124.628 1086.51 124.546C1088.84 124.538 1091.95 125.573 1092.9 120.963C1078.74 111.597 1062.92 104.827 1047.55 97.2397C1025.8 86.5037 1002.74 80.8221 978.548 79.2648C937.815 76.6426 902.345 87.8123 872.707 121.047ZM365.891 124.608C371.868 124.608 377.871 124.248 383.817 124.675C401.318 125.933 418.011 122.785 434.534 117.131C450.158 111.785 466.116 107.415 482.693 102.383C491.501 108.563 500.022 114.818 508.829 120.641C517.23 126.196 528.927 126.204 540.514 120.846C522.05 98.9924 498.801 86.1019 471.234 81.0842C449.425 77.1146 427.57 78.4326 405.952 83.152C375.06 89.8962 347.758 104.9 320.791 120.596C320.199 120.941 320.478 122.78 320.273 124.608C334.225 124.608 348.106 124.608 365.891 124.608ZM724.489 139.516C729.035 131.866 728.313 124.432 723.299 117.362C717.319 108.933 705.984 106.101 696.99 110.587C688.739 114.702 683.67 125.183 685.824 133.672C688.46 144.061 696.971 150.398 707.515 149.959C713.835 149.696 718.822 146.935 724.489 139.516Z" fill="black"/>
</svg>
