<svg width="1656" height="326" viewBox="0 0 1656 326" fill="none" xmlns="http://www.w3.org/2000/svg">
<path d="M617.216 153.508C627.092 157.338 636.815 158.216 647.077 154.122C652.972 151.77 659.595 151.247 668.17 149.364C669.908 147.662 669.365 146.496 668.823 145.33C651.336 133.797 656.117 118.411 662.549 101.381C656.942 102.28 652.571 102.808 648.277 103.702C633.736 106.727 619.355 107.872 605.09 102.103C576.484 90.5375 563.805 60.9624 577.02 33.2092C588.343 9.43013 605.658 -2.02349 633.078 0.778025C656.85 3.20698 671.74 35.4182 658.203 56.6118C647.837 72.8405 621.389 72.2182 610.62 55.644C606.643 49.5219 606.556 41.4899 610.42 37.0515C615.078 31.7011 622.504 31.706 629.972 37.2416C632.55 39.1533 634.87 41.4155 638.093 44.1943C640.556 42.2587 643.438 41.1103 644.164 39.1599C645.217 36.33 645.66 32.5961 644.707 29.8154C640.765 18.3132 630.4 12.5139 617.904 14.1198C592.322 17.4079 576.25 47.0686 587.589 70.1975C594.231 83.7465 604.996 91.8027 620.074 93.6489C635.582 95.5473 650.65 94.6035 664.573 86.3945C681.771 76.2539 699.064 66.2761 716.29 56.1833C727.197 49.7924 737.886 43.008 748.972 36.9462C775.247 22.5793 801.1 22.7922 827.029 40.7487C830.591 38.8745 834.567 36.7341 838.585 34.6774C858.192 24.6398 878.299 23.6787 898.232 32.9589C910.259 38.5588 921.676 45.5134 933.18 52.1818C952.757 63.5295 972.146 75.1999 991.689 86.6057C1006.25 95.1061 1022.12 95.9213 1038.22 93.2634C1059.06 89.822 1073.67 70.946 1072.03 50.4321C1070.65 33.2622 1056.33 17.3681 1039.6 14.3207C1027.41 12.1015 1014.01 18.3286 1010.82 30.0849C1009.16 36.216 1010.55 40.4399 1017.5 43.5375C1020.63 41.1166 1024.04 38.1696 1027.75 35.6835C1033.37 31.9223 1039.83 32.2373 1044.35 36.1015C1048.49 39.6318 1049.76 46.8149 1046.97 52.6962C1042.2 62.715 1033.39 67.4938 1023.05 68.4335C1012.54 69.3881 1003.25 65.5839 997.394 56.1564C984.644 35.6174 998.735 2.9438 1025.37 0.268015C1067.73 -3.98882 1093.18 43.446 1080.78 72.6054C1072.02 93.2026 1056.23 103.812 1034.81 105.64C1025.08 106.47 1015.07 103.968 1002.49 102.287C993.926 102.105 993.926 102.105 996.404 107.267C1001.06 122.051 1000.82 135.849 986.627 147.331C998.376 153.425 1010.05 154.379 1021.1 156.852C1025.63 157.863 1031.07 154.76 1038.32 155.281C1041.27 158.121 1041.99 159.21 1042.81 159.965C1042.91 159.631 1043.57 159.83 1042.05 160.463C1039.48 161.393 1038.42 161.691 1037.37 161.988C1039.11 167.053 1036 170.316 1032.02 169.304C1021.2 166.552 1011.69 170.82 999.02 172.629C996.821 168.723 997.365 165.336 998.015 161.291C972.4 155.686 946.769 153.798 920.867 156.519C911.857 157.466 902.224 156.551 893.755 163.442C896.147 164.389 897.703 165.235 899.366 165.629C925.566 171.837 951.97 170.708 978.429 167.787C984.306 167.139 990.258 166.078 996.09 166.473C1000.43 166.766 1000.21 170.64 998.814 174.037C991.319 176.886 989.533 178.787 992.256 182.551C1001.46 195.268 1000.96 208.383 994.238 220.833C997.919 225.766 1001.01 223.148 1003.97 222.499C1017.05 219.625 1030.16 217.444 1043.48 220.971C1063.77 226.346 1077.37 238.564 1082.72 259.301C1090.1 287.909 1064.19 330.573 1024.74 325.059C1000.25 321.636 985.25 294.45 995.838 272.287C1000.59 262.345 1008.67 257.292 1019.66 257.063C1031.22 256.822 1040.47 261.264 1046.24 271.488C1050.88 279.697 1048.26 288.741 1040.39 291.486C1037.54 292.483 1033.88 292.214 1030.87 291.416C1028.49 290.782 1026.38 288.649 1024.46 286.85C1021.52 284.104 1018.85 280.74 1014.28 283.342C1009.91 285.838 1009.01 291.491 1011.73 297.503C1016.33 307.659 1025.75 312.476 1038.04 310.952C1055.1 308.836 1069.9 293.779 1071.91 276.481C1074.02 258.335 1062.92 239.933 1045.53 234.042C1029.16 228.494 1012.59 228.608 996.963 236.504C982.732 243.693 968.874 251.654 955.095 259.693C939.584 268.742 924.529 278.584 908.925 287.463C897.9 293.736 886.169 298.241 873.038 298.391C860.798 298.531 849.192 296.749 838.472 290.56C835.078 288.6 831.626 286.74 828.078 284.766C824.162 286.864 820.696 288.722 817.229 290.578C797.67 301.047 777.503 301.093 757.576 292.549C746.632 287.857 736.403 281.408 726.104 275.324C708.348 264.836 690.983 253.672 673.058 243.49C665.041 238.936 656.249 235.526 647.48 232.572C635.022 228.375 622.323 229.925 610.199 234.12C592.826 240.129 581.819 258.671 584.089 276.716C586.289 294.197 601.012 309.03 618.096 310.978C631.295 312.483 641.329 306.755 644.786 295.369C645.511 292.982 645.317 290.162 644.944 287.63C644.356 283.645 638.764 280.853 635.768 283.02C632.554 285.344 629.8 288.303 626.593 290.641C622.348 293.735 617.953 293.172 613.512 290.635C608.858 287.976 607.096 283.868 607.762 278.912C608.192 275.714 608.998 272.179 610.805 269.622C618.018 259.417 628.251 255.473 640.46 257.478C651.276 259.255 658.185 265.807 661.564 276.289C668.488 297.768 654.956 321.033 632.872 324.711C618.399 327.121 604.753 324.427 593.848 314.102C588.141 308.698 582.699 302.471 578.963 295.62C561.863 264.265 577.931 228.762 612.759 221.134C621.012 219.327 629.918 219.767 638.463 220.247C645.532 220.645 652.513 222.626 661.004 224.174C659.427 215.785 656.409 208.151 657.059 200.844C657.726 193.346 661.981 186.167 665.116 177.619C663.568 176.618 661.693 175.048 659.541 174.122C657.755 173.353 655.619 173.444 653.68 172.978C647.212 171.424 640.749 169.846 634.311 168.172C628.586 166.683 623.11 173.634 616.336 165.52C614.38 161.577 613.408 160.724 612.914 159.731C613.393 159.591 613.681 160.546 614.676 158.842C616.185 155.928 616.7 154.718 617.216 153.508ZM660.188 158.181C658.04 159.175 655.893 160.169 653.745 161.163C654.808 162.522 655.872 163.881 660.243 165.209C683.229 169.281 706.37 170.856 729.698 169.647C740.503 169.087 751.117 167.769 764.397 162.799C757.001 160.494 752.755 158.25 748.385 157.974C731.849 156.928 715.269 155.983 698.71 156.056C686.804 156.108 674.906 157.836 660.188 158.181ZM799.421 248.423C794.919 252.167 790.823 256.67 785.764 259.369C782.739 260.982 777.998 260.58 774.397 259.652C767.871 257.97 765.813 250.241 770.293 245.432C772.519 243.043 775.239 241.064 777.921 239.16C785.79 233.572 785.657 225.649 783.693 217.71C781.888 210.412 775.586 207.579 768.909 206.092C760.658 204.254 753.084 206.061 746.701 211.744C736.556 220.775 732.455 232.075 734.224 245.57C736.444 262.496 746.914 272.659 761.729 279.179C780.145 287.285 800.206 283.085 813.602 268.527C811.6 262.247 809.604 255.986 808.109 246.175C807.852 237.827 807.595 229.478 807.926 218.206C810.528 210.102 813.13 201.999 816.165 192.544C809.132 186.823 802.139 180.863 794.842 175.302C790.447 171.954 785.571 171.258 779.872 172.855C757.293 179.18 734.149 180.787 710.787 180.223C708.55 180.17 706.286 181.265 704.946 181.599C706.344 189.185 708.327 195.577 708.508 202.02C708.739 210.25 703.583 216.438 696.585 218.529C689.484 220.652 682.803 215.138 684.054 207.982C684.795 203.745 686.053 199.599 687.056 195.505C675.681 191.964 670.267 193.59 668.896 201.087C668.102 205.427 668.458 210.417 669.827 214.615C672.326 222.283 677.078 228.813 683.563 233.795C687.239 236.619 691.034 239.373 695.078 241.613C704.217 246.674 712.679 253.104 723.972 257.122C723.972 247.459 723.334 238.998 724.1 230.666C725.861 211.521 741.372 195.77 759.933 193.412C782.633 190.529 792.736 197.29 800.792 224.545C800.738 231.665 800.683 238.784 799.421 248.423ZM857.659 75.1132C863.337 67.843 870.416 63.2665 879.922 65.5158C882.747 66.1843 886.244 68.769 887.179 71.3066C888.08 73.7504 886.77 77.7346 885.142 80.186C883.409 82.7961 880.199 84.4497 877.57 86.4365C870.764 91.5795 870.338 98.7062 871.717 106.152C873.1 113.616 878.612 116.719 885.422 118.785C895.457 121.831 903.679 118.92 910.9 112.129C927.352 96.6557 923.761 72.0837 913.366 59.624C894.68 37.2275 863.408 36.0231 842.15 56.2541C844.307 63.3432 846.422 70.2934 848.023 80.7836C848.167 89.1125 848.31 97.4414 847.853 108.662C845.297 116.148 842.741 123.633 840.071 131.454C845.471 139.292 853.149 144.473 860.718 149.873C866.086 153.701 871.395 154.211 877.61 152.271C895.547 146.672 914.051 145.207 932.753 145.38C939.114 145.438 945.48 145.04 952.081 144.843C950.174 138.036 947.81 132.455 947.182 126.685C946.243 118.062 949.873 111.116 957.905 107.055C961.882 105.045 966.072 105.522 968.796 108.818C970.655 111.067 971.416 114.532 971.807 117.564C972.028 119.284 970.618 121.279 969.755 123.059C968.071 126.531 968.588 129.591 971.717 131.758C975.822 134.602 981.076 133.507 984.123 129.715C988.249 124.58 989.393 118.605 986.899 112.864C984.291 106.862 981.163 100.585 976.659 96.0036C964.49 83.6237 948.944 76.413 932.206 68.5664C932.206 78.0307 932.775 85.8906 932.095 93.6411C930.379 113.191 916.498 128.078 897.08 131.998C878.304 135.788 866.403 129.315 856.198 106.625C852.891 96.934 853.665 87.2263 857.659 75.1132ZM808.097 74.0544C810.111 67.8288 812.125 61.6032 814.1 55.4992C808.014 48.2026 799.759 45.3029 791.434 43.177C765.39 36.5266 737.304 55.2993 733.883 81.2578C731.714 97.7119 741.869 114.496 756.733 119.022C766.422 121.973 779.298 117.52 783.004 109.937C786.943 101.879 784.485 92.2548 776.647 85.2966C775.165 83.9811 773.428 82.9501 771.963 81.6181C768.822 78.7612 766.92 75.2243 768.641 71.0393C770.3 67.0046 773.953 65.0815 778.179 64.968C789.583 64.6611 796.912 70.3764 800.514 84.478C800.561 91.6391 800.608 98.8002 800.053 108.757C790.534 128.332 779.765 134.99 761.618 132.522C739.935 129.574 724.671 112.719 723.699 90.5627C723.554 87.2497 723.914 83.9108 723.707 80.6049C723.484 77.0319 726.001 72.9765 721.133 69.1098C714.087 73.0375 706.631 77.0771 699.295 81.3259C694.708 83.9829 690.132 86.7199 685.852 89.8347C678.153 95.437 672.613 102.869 669.265 111.765C666.3 119.642 667.95 127.536 674.01 131.439C676.329 132.934 680.39 132.958 683.209 132.128C686.715 131.097 687.78 127.649 686.544 124.023C685.906 122.15 684.731 120.449 684.181 118.56C682.953 114.34 683.967 110.732 687.711 108.129C691.912 105.208 696.331 105.427 700.591 108.45C707.272 113.19 709.711 119.912 708.631 127.578C707.822 133.32 705.64 138.869 703.812 145.425C712.248 145.425 720.185 145.51 728.12 145.408C744.16 145.2 760.161 146.653 775.363 151.41C784.837 154.373 792.006 152.937 799.257 147.176C805.444 142.261 811.907 137.66 815.566 131.359C812.75 122.193 810.231 113.993 808.282 102.252C808.063 93.904 807.844 85.5561 808.097 74.0544ZM855.699 246.392C853.442 240.269 849.593 234.554 852.559 227.398C856.333 218.293 856.939 207.518 865.39 200.93C869.452 197.763 874.366 194.836 879.313 193.797C907.239 187.932 931.313 207.224 932.361 235.884C932.603 242.486 932.397 249.105 932.397 256.849C947.842 250.051 962.44 242.445 974.781 231.418C979.553 227.155 982.837 220.916 985.816 215.076C987.511 211.753 987.935 207.362 987.643 203.55C987.28 198.823 985.047 194.01 979.906 193.095C976.483 192.485 972.658 194.125 968.006 194.934C969.323 199.241 970.401 202.267 971.165 205.37C972.809 212.04 971.817 215.22 967.667 217.421C962.9 219.949 956.959 219.034 953.052 215.05C948.045 209.943 946.056 203.672 947.345 196.758C948.279 191.748 950.199 186.923 951.634 182.164C950.71 181.504 950.177 180.791 949.626 180.777C923.753 180.12 897.895 179.589 872.71 172.314C869.949 171.517 865.963 172.547 863.35 174.092C854.271 179.459 845.638 185.525 839.274 195.141C849.537 212.342 850.247 230.781 847.76 252.543C845.78 258.662 843.8 264.781 841.937 270.538C867.259 287.522 890.508 286.775 910.12 269.086C926.074 254.696 925.876 226.281 909.778 212.254C902.742 206.123 894.727 203.935 885.737 206.415C879.104 208.245 873.281 211.458 871.848 219.034C870.436 226.489 870.605 233.625 877.5 238.807C880.14 240.791 882.88 242.722 885.183 245.063C890.044 250.004 888.591 257.186 881.916 259.343C878.394 260.482 873.685 261.048 870.555 259.607C865.297 257.188 860.871 252.961 855.699 246.392ZM822.024 150.42C816.953 154.498 811.883 158.575 806.176 163.165C814.105 168.849 820.973 173.772 828.118 178.894C835.573 173.421 842.228 168.535 850.059 162.787C842.402 157.066 836.198 152.189 829.67 147.793C828.583 147.061 826.086 148.421 822.024 150.42ZM826.219 75.2519C821.412 86.1581 821.76 97.2062 825.526 108.265C825.736 108.882 827.607 108.935 830.036 109.633C834.076 98.1267 834.914 86.8854 826.219 75.2519ZM823.133 239.28C824.452 243.086 822.405 248.906 829.14 249.625C835.112 232.478 834.73 225.717 826.576 214.555C822.638 221.559 823.015 228.703 823.133 239.28Z" fill="black"/>
<path d="M1040.74 152.503C1058.74 142.533 1076.42 131.917 1094.88 122.907C1102.36 119.26 1111.49 117.96 1119.96 117.58C1153.89 116.059 1187.85 114.627 1221.8 114.429C1298.44 113.983 1375.08 113.949 1451.71 114.448C1484.34 114.661 1516.95 116.57 1549.57 117.839C1558.18 118.174 1566.66 119.513 1576.27 123.093C1567.17 128.25 1558.67 128.95 1550.22 129.268C1512.95 130.67 1475.66 133.092 1438.39 132.916C1341.79 132.458 1245.2 130.825 1148.61 129.66C1136.62 129.515 1124.61 129.637 1112.63 129.111C1105.62 128.802 1099.7 130.687 1094.02 134.656C1079.22 144.998 1063.09 152.873 1045.27 160.532C1044.19 161.557 1044.35 161.766 1043.6 161.74C1042.85 161.713 1041.47 161.118 1042.41 160.018C1045.56 155.529 1043.53 153.861 1040.74 152.503Z" fill="black"/>
<path d="M612.027 161.314C594.464 151.934 576.749 142.821 559.433 133.005C554.488 130.201 549.742 129.092 544.329 129.185C489.722 130.123 435.116 131.122 380.507 131.912C289.92 133.223 199.326 135.046 108.798 129.493C99.5201 128.923 90.2912 128.314 79.9331 123.785C88.8234 118.921 97.1372 118.324 105.3 117.975C137.903 116.578 170.514 114.668 203.132 114.453C280.423 113.941 357.721 113.977 435.013 114.432C468.962 114.632 502.9 116.462 536.847 117.407C548.442 117.731 558.831 120.888 568.933 126.893C583.208 135.379 598.257 142.564 612.771 152.155C610.724 157.292 613.114 159.211 614.174 161.595C613.418 161.874 611.811 161.751 611.88 161.65C611.95 161.548 612.027 161.314 612.027 161.314Z" fill="black"/>
<path d="M1567.79 205.056C1531.41 210.173 1494.75 210.25 1458.17 210.266C1354.98 210.312 1251.8 209.812 1148.62 209.21C1134.69 209.129 1120.75 207.325 1106.84 206.098C1103.59 205.811 1100.24 205 1097.28 203.677C1095.94 203.081 1094.31 200.053 1094.78 199.152C1095.71 197.364 1098.01 195.089 1099.74 195.098C1121.62 195.21 1143.51 196.223 1165.38 195.983C1235.26 195.218 1305.13 193.826 1375 193.079C1409.61 192.708 1444.24 192.728 1478.84 193.484C1506.11 194.08 1533.34 196.071 1562.77 198.571C1565.9 201.485 1566.84 203.271 1567.79 205.056Z" fill="black"/>
<path d="M92.2594 197.94C128.725 193.695 165.369 192.898 202.007 193.088C292.608 193.559 383.206 194.44 473.804 195.275C497.112 195.49 520.418 196.107 543.723 196.629C547.486 196.713 551.238 197.266 554.456 197.554C556.494 202.681 554.794 205.21 550.93 205.663C539.695 206.98 528.437 208.553 517.154 208.895C489.189 209.742 461.206 210.367 433.23 210.354C342.616 210.31 252 210.197 161.389 209.517C138.115 209.342 114.857 206.981 90.2109 204.353C89.9728 201.367 91.1161 199.654 92.2594 197.94Z" fill="black"/>
<path d="M1607.99 148.165C1613.71 146.501 1619.37 144.549 1625.17 143.266C1629.65 142.276 1634.34 141.497 1638.88 141.734C1648.18 142.221 1655.29 149.521 1655.76 158.144C1656.25 167.351 1650.64 174.308 1641.13 176.452C1631.73 178.569 1622.75 176.119 1612.8 175.995C1611.88 177.856 1612.32 177.764 1612.98 176.232C1611.77 173.528 1609.9 172.355 1607.28 170.559C1603.74 168.419 1600.93 166.904 1597.08 164.988C1594.57 164.517 1593.1 164.446 1591.63 164.374C1589.19 163.078 1586.75 161.783 1585.58 158.926C1593.9 154.298 1600.95 151.231 1607.99 148.165Z" fill="black"/>
<path d="M40.0369 181.115C38.6291 180.093 37.1249 178.093 35.8303 178.221C30.6214 178.734 25.5078 180.177 20.3011 180.758C14.8066 181.371 9.85651 179.443 5.81055 175.726C0.478062 170.828 -1.19442 164.681 0.835728 157.746C2.64643 151.561 6.87134 146.906 13.1767 146.382C20.9302 145.737 28.8208 146.74 39.3318 148.335C51.864 153.812 61.7166 157.984 71.5691 162.156C70.8784 163.193 70.1877 164.231 68.1172 165.199C66.7374 165.128 66.0258 165.376 64.5563 165.185C58.0358 167.869 52.9846 170.745 46.661 174.105C43.3647 176.681 37.1233 175.317 40.0134 181.346C40.1509 181.373 40.0369 181.115 40.0369 181.115Z" fill="black"/>
<path d="M1598.13 165.389C1600.93 166.904 1603.74 168.42 1606.15 172.157C1607.95 175.507 1610.13 176.636 1612.32 177.765C1612.32 177.765 1611.88 177.857 1611.72 177.699C1613.85 181.465 1616.55 185.213 1618.32 189.358C1620.49 194.451 1619.92 199.623 1616.89 204.474C1612.27 211.858 1601.49 212.817 1597.09 205.361C1590.5 194.185 1585.01 182.36 1578.74 170.214C1581.36 169.685 1583.17 169.319 1588.3 170.051C1596.05 171.797 1599.19 170.962 1598.13 165.389Z" fill="black"/>
<path d="M66.0255 165.375C66.0255 165.375 66.7371 165.128 67.1007 165.226C67.6023 167.01 67.4273 170.043 67.9298 170.16C70.9602 170.864 74.1459 170.901 77.9435 171.216C72.0777 181.904 66.4592 192.246 60.7372 202.529C57.0708 209.119 51.1989 211.117 44.011 210.261C35.1538 209.205 30.401 200.931 34.5658 192.955C36.3488 189.54 39.3815 186.778 40.9416 182.417C40.0366 181.115 40.1506 181.372 41.1483 182.607C44.7734 181.848 47.4008 179.855 51.5141 178.285C57.1522 176.907 61.4621 175.392 65.4105 173.22C69.0766 171.204 68.7245 168.225 66.0255 165.375Z" fill="black"/>
<path d="M41.1772 140.283C38.2469 135.07 35.1497 129.851 36.7052 123.503C38.0271 118.108 40.6594 113.727 46.6031 112.315C51.968 111.04 56.7379 112.71 59.8289 118.475C65.6662 129.362 70.8953 140.576 76.2936 151.695C76.4447 152.006 75.6458 152.778 72.5087 153.026C60.2108 148.573 50.694 144.428 41.1772 140.283Z" fill="black"/>
<path d="M1583.42 151.388C1582.18 150.103 1579.63 148.13 1579.9 147.634C1584.79 138.343 1589.76 129.073 1595.25 120.12C1599.81 112.666 1605.59 110.64 1613.78 112.568C1620.65 114.186 1624.24 121.118 1621.89 127.828C1619.71 134.049 1615.25 137.361 1607.03 140.425C1597.83 145.242 1590.62 148.315 1583.42 151.388Z" fill="black"/>
<path d="M1335.18 175.357C1330.67 174.809 1327.05 174.646 1324.52 172.902C1317.6 168.142 1316.37 158.295 1321.32 151.972C1325.49 146.648 1333.2 144.945 1339.08 148.051C1347.02 152.253 1350 160.379 1345.43 167.886C1343.58 170.934 1339.59 172.682 1335.18 175.357Z" fill="black"/>
<path d="M338.152 166.975C335.136 172.813 331.096 174.985 326.3 175.559C319.118 176.418 313.058 172.374 310.953 165.755C308.517 158.097 311.593 151.173 318.989 147.661C325.221 144.702 332.056 146.525 336.507 152.525C339.433 156.471 340.381 160.885 338.152 166.975Z" fill="black"/>
<path d="M1272.77 158.376C1275.58 154.795 1277.61 151.783 1280.39 150.689C1285.77 148.572 1290.47 151.046 1293.4 156.364C1295.72 160.58 1294.96 165.313 1291.39 168.901C1287.48 172.825 1281.57 173.38 1277.16 170.005C1273.87 167.488 1272 164.128 1272.77 158.376Z" fill="black"/>
<path d="M1422.91 171.671C1418.57 171.042 1414.9 170.612 1412.71 168.585C1408.13 164.358 1408.19 158.716 1411.84 154.314C1415.69 149.668 1421.28 148.792 1426.03 152.087C1431.03 155.552 1432.66 160.351 1429.9 165.848C1428.81 168.014 1426.17 169.403 1422.91 171.671Z" fill="black"/>
<path d="M1385.78 151.726C1391.35 156.547 1393.59 161.501 1389.51 166.482C1387.27 169.212 1383.23 171.312 1379.7 171.924C1375.54 172.644 1371.12 168.094 1369.8 163.585C1368.5 159.156 1370.52 155.764 1373.51 152.986C1376.63 150.077 1380.43 149.218 1385.78 151.726Z" fill="black"/>
<path d="M228.173 168.854C224.563 164.401 223.704 160.673 225.734 156.71C228.091 152.111 232.755 149.492 237.019 150.141C241.217 150.779 245.555 155.023 246.447 159.362C247.308 163.547 244.826 168.066 240.38 170.775C236.383 173.211 232.787 172.034 228.173 168.854Z" fill="black"/>
<path d="M1232.71 161.254C1234.51 157.158 1235.82 153.754 1238.29 151.994C1243.19 148.513 1248.51 149.877 1252.32 154.6C1255.27 158.241 1255.37 163.85 1252.56 167.502C1249.06 172.067 1243.31 173.616 1238.58 170.349C1236.07 168.617 1234.66 165.294 1232.71 161.254Z" fill="black"/>
<path d="M280.924 170.615C273.759 174.162 269.527 171.401 266.138 166.873C262.773 162.378 263.794 156.799 268.311 152.864C272.748 148.999 278.446 148.942 282.56 152.722C287.027 156.827 286.941 160.557 280.924 170.615Z" fill="black"/>
<path d="M364.68 168.797C361.551 164.234 360.164 160.679 362.591 156.608C365.41 151.878 369.627 149.277 373.888 150.219C378.922 151.331 381.982 154.688 383.216 159.561C384.273 163.738 381.589 168.041 376.893 170.861C372.81 173.313 369.263 171.817 364.68 168.797Z" fill="black"/>
<path d="M412.133 172.131C400.489 165.057 398.71 159.939 404.359 153.778C408.323 149.454 414.088 148.939 418.635 152.502C423.397 156.234 424.787 161.581 421.31 166.44C419.534 168.922 416.171 170.268 412.133 172.131Z" fill="black"/>
<path d="M1073.93 178.663C1082.14 183.558 1088.91 187.639 1096.17 192.021C1094.94 194.983 1094.02 197.219 1092.54 200.777C1079.17 193.368 1066.48 186.501 1054.06 179.184C1052.88 178.491 1053.37 174.972 1053.02 172.219C1061.56 170.663 1066.61 175.655 1073.93 178.663Z" fill="black"/>
<path d="M200.624 155.834C203.385 160.21 203.324 163.658 200.744 165.911C198.592 167.791 195.289 169.429 192.562 169.332C188.138 169.173 185.609 165.327 186.001 161.282C186.262 158.58 188.427 154.945 190.738 153.869C193.119 152.76 196.71 154.245 200.624 155.834Z" fill="black"/>
<path d="M1206.48 154.019C1208.74 157.096 1210.67 159.535 1210.49 161.805C1210.16 166.004 1207.46 169.024 1202.89 169.557C1199.01 170.008 1195.09 167.027 1194.32 162.944C1193.49 158.528 1195.17 155.089 1199.36 153.474C1201.07 152.814 1203.23 153.326 1206.48 154.019Z" fill="black"/>
<path d="M1531.72 169.421C1528.44 166.678 1525.72 164.35 1525 161.517C1524.52 159.614 1526.35 156.447 1528.07 154.81C1531.58 151.465 1538.12 152.544 1539.9 156.679C1540.86 158.897 1541.03 161.812 1540.55 164.206C1539.8 167.871 1536.65 169.211 1531.72 169.421Z" fill="black"/>
<path d="M1453.98 163.955C1453.78 160.762 1453.68 158.487 1454.75 157.111C1458.12 152.754 1463.18 151.785 1466.66 154.338C1469.68 156.553 1470.74 161.389 1468.92 165.023C1466.8 169.236 1463.12 170.322 1458.97 169.057C1457.29 168.544 1456.05 166.585 1453.98 163.955Z" fill="black"/>
<path d="M1139.16 161.191C1137.52 164.595 1136.27 167.758 1134.3 168.283C1131.61 169.003 1127.64 168.687 1125.56 167.078C1122.32 164.575 1121.5 159.956 1124.4 156.719C1126.2 154.723 1130.13 153.101 1132.56 153.654C1135.12 154.234 1137.03 157.616 1139.16 161.191Z" fill="black"/>
<path d="M523.639 169.416C516.281 162.147 515.579 157.882 519.822 154.649C523.654 151.729 530.1 152.562 531.773 156.611C532.7 158.856 532.874 161.748 532.405 164.157C531.689 167.832 528.558 169.189 523.639 169.416Z" fill="black"/>
<path d="M461.234 158.418C460.952 162.222 460.91 165.722 459.244 166.875C456.923 168.481 453.208 169.249 450.415 168.704C446.732 167.985 443.948 162.278 445.677 159.268C447.14 156.723 449.872 154.258 452.594 153.255C455.784 152.078 458.984 153.722 461.234 158.418Z" fill="black"/>
<path d="M152.844 165.134C152.919 160.847 153.074 157.294 154.858 155.021C156.077 153.468 159.645 153.012 162.029 153.275C166.844 153.805 169.957 159.343 167.88 163.786C166.872 165.942 164.59 167.918 162.403 169.01C159.047 170.684 156.094 168.861 152.844 165.134Z" fill="black"/>
<path d="M124.225 169.411C119.311 169.244 116.447 167.933 115.302 164.279C113.99 160.09 114.52 155.889 118.691 154.204C121.294 153.153 125.462 153.406 127.798 154.872C131.274 157.054 132.736 161.114 129.885 165.152C128.779 166.719 127.071 167.86 124.225 169.411Z" fill="black"/>
<path d="M1173.52 154.715C1175.22 158.109 1176.56 160.792 1176.1 163.117C1175.25 167.423 1171.77 170.258 1167.47 169.274C1164.73 168.644 1161.41 166.057 1160.36 163.517C1158.77 159.64 1160.4 155.41 1164.72 153.815C1166.96 152.989 1169.79 153.782 1173.52 154.715Z" fill="black"/>
<path d="M490.785 168.612C486.912 168.489 483.952 168.299 482.21 166.744C478.844 163.739 478.37 159.286 481.668 156.242C483.679 154.385 487.676 153.378 490.413 153.905C494.853 154.761 496.613 158.693 495.568 163.101C495.148 164.873 493.394 166.329 490.785 168.612Z" fill="black"/>
<path d="M1490.13 155.442C1493.73 154.119 1496.38 153.215 1498.62 153.83C1502.87 154.999 1505.02 158.737 1503.67 162.714C1502.79 165.317 1499.92 168.228 1497.33 169.044C1493.38 170.287 1489.62 168.115 1488.47 163.861C1487.87 161.632 1488.77 158.999 1490.13 155.442Z" fill="black"/>
<path d="M568.942 195.856C566.478 194.851 563.348 192.837 565.42 190.503C573.373 181.543 584.182 176.941 595.259 173.095C596.099 172.804 598.218 173.889 598.48 174.729C599.005 176.408 599.399 179.44 598.546 180.028C592.155 184.436 585.446 188.385 576.226 191.718C568.247 190.635 567.678 191.232 568.942 195.856Z" fill="black"/>
<path d="M90.8518 197.586C91.116 199.652 89.9728 201.366 88.5873 204.081C87.1555 205.216 85.7526 205.808 84.8252 205.377C83.3882 204.709 81.2989 203.365 81.2748 202.269C81.2452 200.919 82.784 199.069 84.1374 198.282C85.6122 197.426 87.6512 197.541 90.8518 197.586Z" fill="black"/>
<path d="M1042.98 165.559C1044.69 166.27 1046.82 166.584 1047.98 167.814C1048.98 168.862 1049.55 171.253 1049.02 172.513C1048.55 173.648 1046.22 174.832 1044.9 174.646C1039.75 173.92 1034.75 172.563 1037 165.254C1040.89 164.857 1041.94 165.208 1042.98 165.559Z" fill="black"/>
<path d="M569.655 196.344C567.678 191.233 568.247 190.636 574.815 192.008C574.133 194.314 572.251 195.573 569.655 196.344Z" fill="black"/>
<path d="M614.93 161.316C613.114 159.211 610.724 157.291 613.743 153.197C614.919 152.39 616.513 153.006 616.864 153.257C616.701 154.718 616.186 155.929 615.192 158.711C614.714 160.283 614.93 161.316 614.93 161.316Z" fill="black"/>
<path d="M1040.42 152.629C1043.53 153.861 1045.56 155.529 1042.52 159.501C1041.7 160.084 1042.72 160.298 1042.72 160.298C1041.99 159.21 1041.27 158.122 1039.73 155.239C1038.92 153.445 1040.09 152.756 1040.42 152.629Z" fill="black"/>
<path d="M669.336 146.391C669.366 146.497 669.908 147.663 669.806 149.266C669.39 148.951 669.619 148.201 669.336 146.391Z" fill="black"/>
<path d="M615.491 164.365C614.924 165.043 614.22 163.787 612.772 161.922C612.027 161.312 611.95 161.546 611.857 161.119C611.765 160.692 612.436 159.871 612.436 159.871C613.408 160.724 614.381 161.576 615.491 164.365Z" fill="black"/>
<path d="M1042.57 164.315C1041.94 165.208 1040.89 164.857 1038.57 163.446C1037.3 162.385 1037.57 162.236 1037.47 162.112C1038.42 161.691 1039.48 161.393 1042.39 160.888C1044.24 160.68 1044.35 161.765 1044.35 161.765C1044.35 161.765 1044.19 161.556 1044.15 161.433C1043.46 161.897 1042.82 162.484 1042.57 164.315Z" fill="black"/>
<path d="M609.067 170.504C610.2 170.704 610.333 171.904 610.467 173.104C609.667 172.571 608.867 172.037 609.067 170.504Z" fill="black"/>
<path d="M661.596 158.5C661.031 160.16 659.057 161.503 657.01 164.043C655.872 163.882 654.809 162.523 653.745 161.164C655.893 160.17 658.04 159.176 661.596 158.5Z" fill="black"/>
</svg>
