<svg width="1657" height="175" viewBox="0 0 1657 175" fill="none" xmlns="http://www.w3.org/2000/svg">
<path d="M874.373 56.517C877.764 54.4454 880.961 51.9152 884.581 50.3849C897.361 44.9838 908.635 50.0179 913.237 63.1625C914.746 67.4716 915.404 72.078 916.756 77.8453C920.358 75.6549 923.411 73.5865 926.653 71.8761C931.92 69.0963 937.105 65.9567 942.689 64.0179C959.221 58.2782 974.514 61.088 986.752 73.7228C999.775 87.1661 1000.23 103.42 994.204 120.226C990.13 131.592 982.157 138.974 970.617 142.846C951.152 149.377 931.934 136.305 931.263 115.921C930.939 106.078 935.51 99.3863 944.165 95.3773C952.832 91.3634 960.994 92.5182 968.348 98.6559C971.937 101.652 973.561 107.404 972.079 111.286C970.612 115.127 965.783 117.808 960.488 117.138C956.784 116.669 953.172 115.473 949.871 114.685C946.008 120.415 947.584 124.481 951.362 127.935C956.142 132.306 961.787 133.613 968.034 131.662C985.672 126.149 994.211 103.693 984.872 87.4501C978.374 76.1488 965.841 69.8641 952.914 71.7057C941.43 73.3414 931.124 77.701 922.832 86.0502C910.638 98.3268 900.996 112.53 890.143 127.719C897.879 129.518 904.229 130.239 909.952 132.526C916.583 135.176 920.067 140.943 920.376 148.237C920.717 156.302 917.43 161.902 907.656 165.884C908.002 160.271 908.292 156.673 908.433 153.069C908.766 144.619 904.867 140.867 896.472 141.523C886.796 142.278 878.731 146.785 871.353 152.66C868.77 154.716 866.434 157.152 864.286 159.672C848.1 178.659 810.511 179.693 792.247 160.218C785.807 153.351 779.155 146.835 769.903 144.09C765.522 142.79 760.886 141.917 756.331 141.748C751.137 141.555 747.798 145.295 747.795 150.676C747.793 155.039 748.304 159.404 748.71 165.639C739.023 162.181 735.678 156.668 735.905 148.623C736.136 140.485 740.05 134.481 747.716 131.845C753.045 130.012 758.804 129.428 764.517 128.257C756.879 113.946 741.303 93.1871 732.388 84.965C723.733 76.983 713.322 72.8104 701.897 71.441C687.151 69.6742 671.767 80.5077 668.557 94.2689C664.929 109.818 672.068 124.779 685.943 130.706C693.633 133.991 700.204 133.143 705.762 126.722C707.875 124.282 707.777 119.928 709.206 114.455C702.78 115.663 698.569 116.692 694.295 117.194C689.886 117.711 685.762 115.676 684.784 111.645C683.959 108.24 684.514 103.464 686.434 100.635C691.211 93.5936 701.331 91.1805 709.79 94.4132C717.608 97.4005 723.398 102.303 724.742 111.408C727.62 130.909 707.252 150.828 686.049 143.261C662.166 134.736 654.967 110.052 660.248 89.43C665.431 69.1915 687.722 57.0194 709.235 62.6539C715.566 64.3116 721.543 67.5548 727.441 70.5463C731.501 72.6049 735.145 75.482 739.212 78.1495C746.3 47.3578 756.667 41.6757 780.605 55.849C782.073 56.1346 782.049 56.8478 782.152 58.4769C782.466 65.2696 783.795 70.7059 782.618 75.5309C780.974 82.2706 773.733 86.205 767.242 85.629C762.357 85.1954 759.267 80.3146 760.478 75.5211C761.53 71.3583 768.184 69.4051 765.099 63.6903C756.988 61.0355 754.902 61.5638 752.05 66.1988C746.793 74.7433 749.369 83.2328 753.201 90.9098C758.487 101.497 765.977 110.715 775.678 119.946C777.622 115.3 778.996 111.736 780.584 108.27C788.803 90.3331 800.71 82.807 820.117 85.5629C827.006 86.5411 833.208 85.2892 839.716 84.8727C854.447 83.9293 865.426 89.9935 872.761 102.654C874.406 105.495 875.283 108.77 876.756 111.725C878.026 114.275 879.639 116.654 881.785 120.257C888.13 112.075 894.052 105.664 898.481 98.349C902.181 92.2367 904.646 85.2189 906.697 78.3163C908.296 72.9376 906.183 67.7181 902.098 63.8256C898.148 60.0612 894.05 59.7318 889.654 65.7706C891.136 68.0301 893.443 70.3942 894.317 73.2042C895.199 76.0382 895.749 79.8912 894.494 82.2667C892.441 86.1505 887.872 86.5934 883.913 85.2267C877.078 82.8673 872.676 77.8851 872.458 70.5516C872.323 66.0375 873.748 61.4772 874.376 56.7548C874.278 56.5721 874.373 56.517 874.373 56.517ZM803.091 153.144C807.933 155.256 812.598 158.058 817.649 159.356C834.938 163.8 853.206 156.939 863.718 143.099C871.41 132.973 871.795 121.927 867.024 111.095C862.563 100.969 854.442 94.5699 841.461 94.5455C842.361 100.873 843.577 106.528 843.868 112.231C844.196 118.664 841.804 125.139 846.503 131.303C848.372 133.754 844.299 140.293 840.954 140.47C832.45 140.921 823.89 140.935 815.387 140.484C811.959 140.301 807.945 133.985 809.753 131.371C813.595 125.819 812.454 120.163 812.506 114.248C812.562 107.862 813.77 101.485 814.578 94.1813C802.23 95.0092 793.881 100.622 789.203 110.976C784.598 121.168 784.035 131.611 791.324 141.115C794.132 144.776 797.467 148.032 803.091 153.144ZM824.407 113.793C825.813 114.718 827.219 115.642 828.625 116.567C829.845 114.576 831.956 112.62 832.035 110.586C832.114 108.54 830.553 105.001 829.041 104.591C824.624 103.396 824.318 107.256 824.407 113.793Z" fill="black"/>
<path d="M1384.25 166.066C1321.01 165.578 1259.77 165.093 1196.04 164.589C1198.79 160.995 1199.88 158.089 1201.4 157.843C1206.61 157 1211.98 157.002 1217.29 156.833C1309.16 153.92 1401.04 151.247 1492.9 147.999C1520.19 147.034 1547.41 144.371 1574.67 142.685C1583.96 142.11 1593.32 141.694 1602.61 142.069C1608.51 142.306 1614.54 143.543 1620.15 145.419C1625.68 147.267 1628.12 152.161 1628.27 158.002C1628.4 163.279 1625.79 167.541 1621.14 168.95C1613.59 171.24 1605.66 173.583 1597.88 173.598C1573.25 173.643 1548.6 172.915 1523.97 171.944C1484.05 170.371 1444.14 168.354 1404.23 166.562C1398.24 166.293 1392.24 166.229 1384.25 166.066Z" fill="black"/>
<path d="M376.061 155.868C404.607 156.443 431.18 156.877 460.528 157.356C457.571 161.203 456.548 163.911 455.109 164.154C450.557 164.92 445.851 164.902 441.203 164.942C376.55 165.503 311.887 165.509 247.247 166.747C209.297 167.475 171.391 170.333 133.452 171.878C108.819 172.881 84.1603 173.632 59.5122 173.668C51.714 173.679 43.7213 171.649 36.1712 169.378C29.9983 167.521 27.7679 162.838 28.1279 157.081C28.499 151.147 31.3915 146.781 36.9809 145.057C42.0262 143.501 47.344 142.41 52.6037 142.067C59.8993 141.592 67.2703 141.691 74.5786 142.096C121.157 144.67 167.71 147.764 214.305 149.964C257.558 152.005 300.854 153.145 344.131 154.68C354.117 155.033 364.103 155.377 376.061 155.868Z" fill="black"/>
<path d="M808.51 33.2076C808.873 31.6602 810.054 29.6111 809.464 28.6492C806.298 23.4896 803.422 18.4288 803.777 12.013C804.195 4.46442 809.318 -0.415467 816.722 0.355285C818.655 0.556457 820.96 0.785949 822.353 1.91608C826.832 5.55035 830.394 3.7442 834.852 1.53546C839.738 -0.885681 845.242 -0.695985 849.439 3.93365C853.504 8.41974 853.545 14.0191 851.532 18.9105C849.576 23.6639 845.813 27.6739 841.844 33.2093C840.844 34.4085 840.173 34.7349 839.051 35.5267C834.593 39.1575 831.256 41.9966 828.277 44.5313C823.599 41.5452 819.885 39.1754 816.254 36.8943C816.337 36.9832 816.538 37.1172 816.063 35.5923C813.195 32.7623 811.226 28.5369 808.126 33.032C808.251 33.097 808.51 33.2076 808.51 33.2076Z" fill="black"/>
<path d="M971.503 159.449C974.778 159.026 978.05 158.262 981.329 158.23C1040.55 157.647 1099.77 157.102 1159 156.712C1165.51 156.67 1172.31 155.235 1178.9 159.11C1178.29 160.69 1177.84 163.636 1177.01 163.749C1170.48 164.633 1163.89 165.414 1157.32 165.412C1096.75 165.388 1036.19 165.201 973.524 163.876C970.738 161.595 970.763 160.513 971.503 159.449Z" fill="black"/>
<path d="M684.518 164.374C680.548 164.625 676.579 165.085 672.609 165.096C614.729 165.259 556.849 165.385 498.968 165.444C493.009 165.45 487.002 165.31 481.121 164.49C479.58 164.275 478.431 161.253 475.703 157.698C500.486 155.406 523.046 157.25 545.538 157.086C568.148 156.922 590.763 157.575 613.377 157.802C635.993 158.029 658.609 158.172 683.314 159.689C685.029 162.122 684.735 163.237 684.518 164.374Z" fill="black"/>
<path d="M840.173 34.7354C840.173 34.7354 840.844 34.409 840.66 34.3768C841.884 35.4103 843.63 37.6351 844.642 37.3399C848.975 36.0768 852.961 33.5587 857.315 32.4408C866.927 29.974 872.769 34.4835 872.981 44.3492C873.051 47.5892 872.074 50.8517 872.974 55.3102C874.373 56.5165 874.278 56.5716 873.329 55.1698C860.604 59.1415 848.827 64.515 836.385 70.1922C834.49 62.6373 835.821 55.7879 839.089 49.0821C840.799 45.5753 842.554 42.0416 843.666 38.3336C843.9 37.5533 841.408 35.9562 840.173 34.7354Z" fill="black"/>
<path d="M782.049 56.847C782.049 56.847 782.073 56.1338 782.129 56.2872C787.186 53.4581 783.175 49.5811 783.157 46.1312C783.096 34.824 787.323 30.9481 798.804 32.4166C801.304 32.7366 803.665 34.1502 807.3 34.1338C808.51 33.2078 808.251 33.0972 808.135 34.8585C810.737 38.8626 813.361 42.7296 816.538 37.1175C816.538 37.1175 816.337 36.9835 814.653 37.7671C815.084 48.8296 824.666 57.8663 818.955 69.8907C807.557 64.4083 796.989 59.2178 786.265 54.3707C785.408 53.9832 783.48 55.9659 782.049 56.847Z" fill="black"/>
<path d="M1637.13 166.768C1632.39 161.188 1631.6 156.434 1635.61 151.544C1638.82 147.639 1642.87 146.09 1647.85 147.566C1653.3 149.181 1656.66 154.032 1655.96 159.469C1655.32 164.513 1652.61 168.287 1647.54 169.029C1644.51 169.474 1641.23 168.235 1637.13 166.768Z" fill="black"/>
<path d="M11.7521 169.498C7.67382 167.94 4.17495 166.93 2.3821 164.605C-1.33155 159.789 -0.501747 154.301 3.47594 150.445C7.86199 146.193 15.0057 146.048 19.4807 150.119C23.5754 153.844 24.4756 159.224 20.8415 164.18C19.1019 166.553 15.7343 167.731 11.7521 169.498Z" fill="black"/>
<path d="M686.066 164.665C684.735 163.238 685.029 162.123 685.168 160.191C694.706 158.427 704.474 157.442 714.257 156.625C716.187 156.464 718.53 156.37 720.043 157.293C721.989 158.48 723.553 160.584 724.646 162.633C724.863 163.04 722.271 165.957 720.872 166.042C714.387 166.438 707.861 166.409 701.36 166.205C696.769 166.06 692.196 165.39 686.066 164.665Z" fill="black"/>
<path d="M969.826 158.884C970.763 160.512 970.738 161.593 971.661 163.507C962.819 165.313 953.761 166.628 944.659 167.134C940.93 167.341 937.059 165.964 933.357 164.931C932.537 164.702 931.693 162.876 931.709 161.798C931.726 160.689 932.532 158.984 933.432 158.616C935.769 157.66 938.366 156.721 940.827 156.797C949.941 157.081 959.042 157.778 969.826 158.884Z" fill="black"/>
</svg>
