<svg width="1656" height="127" viewBox="0 0 1656 127" fill="none" xmlns="http://www.w3.org/2000/svg">
<path d="M1408.2 28.9575C1410.05 29.6885 1412.33 29.9582 1413.69 31.2219C1427.48 44.0827 1444.15 45.3931 1461.93 44.8484C1486.57 44.0937 1511.24 44.5915 1535.9 44.7671C1539.55 44.7932 1544.01 43.1362 1547.23 48.9189C1530.57 53.3686 1513.98 50.7529 1497.64 51.4082C1481.87 52.0405 1465.97 50.1738 1449 52.9238C1453 62.7656 1459.85 64.7175 1468.13 64.6794C1488.79 64.5842 1509.45 64.6125 1530.11 64.6914C1534.58 64.7085 1539.05 65.1445 1544.92 65.4641C1541.7 73.6015 1536.14 74.9841 1530.37 75.1538C1518.38 75.5061 1506.38 75.2497 1494.39 75.4956C1490.05 75.5847 1485.72 76.3935 1481.43 76.8691C1481.77 79.353 1481.49 81.1855 1482.15 81.6443C1514.86 104.197 1550.77 112.987 1590.14 106.139C1604.22 103.69 1616.9 98.0544 1627.19 87.8931C1641.96 73.3093 1646.44 51.8081 1638.51 34.6521C1632.01 20.5854 1615.87 11.9975 1600.65 14.5063C1588.86 16.4504 1579.46 26.1023 1578.64 37.1199C1577.63 50.478 1588.7 58.6404 1600.8 53.302C1604.43 51.7002 1607.65 49.1743 1611.27 47.5461C1616.38 45.2444 1622.26 50.1628 1621.46 55.8279C1619.74 67.9617 1607.85 77.7514 1594.42 78.0925C1571.58 78.6723 1554.17 55.2253 1560.42 32.3059C1566.1 11.4597 1585.44 -1.72511 1607.43 0.237536C1642.28 3.34935 1664.07 33.4023 1652.61 71.2358C1647.33 88.6858 1635.8 101.285 1619.78 109.728C1605.37 117.323 1589.79 120.556 1573.63 120.988C1536.33 121.986 1502.82 110.796 1472.65 89.1487C1468.86 86.4358 1465.2 83.5322 1461.69 80.4802C1457.42 76.7744 1452.58 75.1794 1446.99 75.4099C1443.67 75.5471 1440.33 75.4304 1437 75.4304C1257.73 75.4304 1078.46 75.7339 899.198 75.1011C872.646 75.0073 853.54 85.9494 836.84 104.596C843.873 111.278 848.592 112.544 851.495 107.379C859.936 92.3569 872.265 90.2952 887.288 94.3696C889.159 94.8767 891.267 94.4931 893.264 94.55C912.135 95.0886 915.97 98.3865 921.016 118.686C918.973 118.484 916.719 118.88 915.192 118.007C906.66 113.128 898.543 114.243 890.681 119.289C881.329 125.291 871.019 127.015 860.147 126.886C848.476 126.747 837.618 124.516 828.427 115.105C817.949 124.468 805.44 127.582 791.699 126.87C783.618 126.452 775.95 125.003 768.555 121.483C752.559 113.872 752.491 114.016 735.983 118.289C733.498 112.766 736.378 108.362 739.089 104.123C742.475 98.8281 747.392 95.2776 753.672 94.6282C763.581 93.6035 773.539 92.9404 783.492 92.478C792.828 92.0442 797.837 98.4741 802.218 105.377C806.445 112.037 811.68 110.928 817.509 108.128C808.846 90.2693 789.087 77.0415 768.962 75.5239C765.647 75.2737 762.301 75.4204 758.969 75.4204C576.37 75.4177 393.77 75.4182 211.171 75.4189C207.846 75.4189 204.52 75.4192 201.123 75.4192C194.049 80.6965 187.236 86.0129 180.187 90.9963C150.367 112.079 117.125 122.145 80.6535 120.937C63.1421 120.356 46.3471 116.494 31.2434 107.006C6.34762 91.3672 -5.00858 63.0171 2.07882 36.4614C9.0776 10.2385 40.4377 -7.49098 69.1921 3.12914C96.7204 13.2966 105.208 49.1555 85.0793 68.5513C72.4172 80.7517 53.7649 81.5442 41.9082 69.8472C38.7526 66.7341 36.3469 62.3271 35.039 58.0713C34.228 55.4326 35.3806 51.468 37.0061 48.9841C39.083 45.81 42.7287 46.4446 45.9128 48.197C49.4072 50.1203 52.8071 52.2637 56.4441 53.8677C61.748 56.2073 66.999 55.7471 71.2783 51.6133C75.7788 47.2663 78.3554 41.9897 76.9995 35.4658C74.6655 24.237 64.9685 15.5989 53.2959 14.3115C34.6543 12.2556 17.3706 25.406 14.384 43.9177C10.8481 65.8337 20.7729 85.9433 41.1198 97.4143C56.6418 106.166 73.6648 109.009 91.2043 108.565C119.792 107.842 146.283 99.8081 170.371 84.2952C172.318 83.0412 175.553 82.2295 175.009 78.1289C174.344 75.0073 171.225 75.6225 168.919 75.5898C155.593 75.4021 142.262 75.5889 128.937 75.3503C120.206 75.1938 120.21 74.9682 110.58 67.0586C113.487 66.1098 115.641 64.8083 117.804 64.7927C140.461 64.6284 163.121 64.5444 185.777 64.73C192.702 64.7864 199.121 64.0268 204.082 58.7244C205.251 57.4744 205.762 55.6074 207.178 52.8528C189.893 50.0915 173.348 52.0974 156.933 51.4187C141.099 50.7639 125.058 53.2058 105.35 48.1426C111.788 46.262 114.444 44.8259 117.109 44.8091C145.763 44.6294 174.435 44.123 203.069 44.8994C216.437 45.262 227.902 42.5095 241.744 33.7749C247.352 34.4409 248.995 34.8599 249.588 36.3618C246.638 39.0022 243.577 39.9016 245.682 44.7666C284.048 44.7666 322.964 44.7666 363.393 45.3218C369.582 46.2136 373.369 45.0271 374.929 40.0268C379.927 41.5662 384.844 43.5422 389.951 44.5027C393.815 45.2297 397.924 44.6672 401.924 44.6672C685.249 44.666 968.573 44.6633 1251.9 44.6611C1254.56 44.6609 1257.36 44.1404 1259.87 44.7529C1267.63 46.6409 1273.3 41.886 1280.77 39.9082C1283.54 45.7663 1286.95 46.6582 1293.35 44.7744C1333.41 44.748 1371.64 44.7085 1410.88 45.0889C1414.92 43.9299 1414.14 42.678 1410.99 40.5422C1407.84 37.7187 1405.25 35.9333 1403.21 32.9526C1405.24 30.8237 1406.72 29.8906 1408.2 28.9575ZM401.547 64.0098C413.438 64.2903 425.33 64.8069 437.222 64.8144C539.056 64.8789 640.889 64.8306 742.722 64.8879C751.365 64.8928 760.098 64.727 768.63 65.8484C786.786 68.2336 803.271 74.383 815.793 88.8479C819.094 92.6609 823.831 95.2302 830.139 100.088C832.431 96.5705 833.859 93.3557 836.167 91.0039C852.805 74.0466 873.16 65.5061 896.871 64.948C902.858 64.8069 908.85 64.8552 914.84 64.855C1019.34 64.8503 1123.83 64.8901 1228.33 64.7681C1235.55 64.7598 1242.78 63.5588 1253.54 64.5493C1256.15 64.9057 1258.77 65.5708 1261.39 65.5737C1317.78 65.6338 1374.18 65.6284 1430.58 65.5918C1432.97 65.5903 1435.35 65.1667 1437.52 64.9599C1437.52 62.4424 1438.01 60.887 1437.45 60.0564C1431.5 51.3689 1422.76 50.2212 1412.99 50.3384C1360.06 50.9746 1307.12 51.2607 1250.52 51.2886C971.776 51.2707 693.035 51.2473 414.294 51.2805C409.028 51.2812 403.754 51.8862 398.511 52.4624C398.157 52.5012 398.039 54.6892 395.292 54.5359C387.702 51.8784 379.953 50.8642 371.853 50.9026C329.21 51.1052 286.565 50.99 243.92 51.0063C239.924 51.0078 235.877 50.7808 231.945 51.3218C225.456 52.2153 222.819 55.0661 219.005 64.5889C221.821 64.7681 224.284 65.0605 226.746 65.0613C280.718 65.0781 334.691 65.0923 388.663 64.9765C391.873 64.9697 395.082 63.8689 401.547 64.0098Z" fill="black"/>
<path d="M1407.33 27.7911C1406.72 29.8899 1405.24 30.823 1401.68 32.8274C1371.9 20.3497 1343.55 19.2623 1314.6 27.6492C1314.69 24.7132 1314.8 23.5416 1314.9 22.3702C1346 11.3206 1376.54 12.2212 1407.33 27.7911Z" fill="black"/>
<path d="M330.312 20.5684C329.494 22.961 327.781 25.0374 326.556 24.7808C300.91 19.4114 276.626 23.4395 251.979 35.0562C248.995 34.8594 247.352 34.4405 243.227 33.4659C260.802 17.7769 283.907 14.0946 308.157 15.4937C315.366 15.9095 322.484 17.8978 330.312 20.5684Z" fill="black"/>
<path d="M363.393 45.3213C361.191 42.6187 361.146 39.3562 359.7 38.5217C354.275 35.3918 348.259 33.3 342.757 30.2839C340.89 29.2605 339.891 26.6531 339.601 23.3164C351.767 27.1472 362.83 32.4314 374.41 38.8706C373.369 45.0266 369.582 46.2131 363.393 45.3213Z" fill="black"/>
<path d="M1313.46 22.4141C1314.8 23.5427 1314.69 24.7144 1313.6 28.3301C1306.69 33.3582 1300.6 35.6475 1294.93 38.7051C1293.21 39.6338 1292.63 42.6836 1291.53 44.762C1286.95 46.6587 1283.54 45.7668 1282.33 39.186C1283.47 31.3447 1289.68 33.4153 1293.1 31.2708C1298.95 27.6016 1305.67 25.3206 1313.46 22.4141Z" fill="black"/>
<path d="M339.134 21.6857C341.648 24.7751 340.708 26.9479 337.607 26.9626C335.169 26.974 332.726 25.9924 330.424 23.6217C332.84 21.6945 335.118 21.5976 339.134 21.6857Z" fill="black"/>
<path d="M1410.88 45.0879C1409.87 43.9983 1409.87 43.3289 1410.71 42.1191C1414.14 42.677 1414.92 43.929 1410.88 45.0879Z" fill="black"/>
</svg>
