<svg width="1643" height="122" viewBox="0 0 1643 122" fill="none" xmlns="http://www.w3.org/2000/svg">
<path d="M682.368 54.7197C683.764 50.3291 684.473 45.5552 686.67 41.6104C700.032 17.6211 732.349 13.8638 750.945 34.0542C754.398 37.8037 757.127 42.2202 760.923 47.3111C771.702 18.5987 790.493 0.021993 821.526 2.00363e-05C852.451 -0.021952 871.634 18.0283 882.685 48.1831C890.379 35.1289 898.419 24.8843 912.304 22.271C921.573 20.5264 930.802 20.5762 939.538 25.0113C949.516 30.0767 956.324 37.8057 959.122 51.4155C959.678 57.02 960.714 59.7686 961.75 62.5176C960.348 81.082 950.862 93.7554 933.044 98.8404C916.224 103.641 901.548 99.0044 890.349 85.1509C887.871 82.0855 885.962 78.5601 883.156 74.2769C880.924 78.8086 879.049 82.7915 877.024 86.6958C865.289 109.314 846.619 121.745 821.198 121.637C796.569 121.532 778.43 109.279 766.834 87.543C765.594 85.2183 764.973 82.5689 763.82 80.189C762.966 78.4278 761.713 76.8599 760.344 74.7525C757.583 78.6812 755.312 82.5459 752.441 85.8975C732.631 109.017 698.168 104.413 685.134 76.8638C683.473 73.3506 682.944 69.3008 682.791 63.478C685.932 58.6841 685.099 56.5156 682.368 54.7197Z" fill="#050505"/>
<path d="M680.743 55.2196C685.099 56.5146 685.932 58.683 682.801 61.9872C676.659 62.872 671.274 62.5971 666.178 63.6796C634.355 70.4389 602.638 77.6981 570.791 84.3319C562.433 86.0727 553.691 87.2401 545.203 86.8739C500.056 84.9281 454.934 82.4052 409.802 80.0922C378.606 78.4936 347.411 76.8612 316.211 75.3314C249.828 72.0761 183.44 68.912 117.057 65.6322C99.7991 64.7792 82.5556 63.6356 64.1069 61.4159C63.8887 58.5605 64.8691 56.9145 65.8494 55.2685C84.42 54.0155 102.977 52.4975 121.564 51.5575C188.016 48.1972 254.485 45.1654 320.935 41.7563C383.393 38.5526 445.836 35.0282 508.285 31.6479C508.949 31.6112 509.617 31.6356 510.281 31.5951C555.128 28.8529 555.097 28.9901 604.982 40.1459C629.623 45.6562 654.401 50.5487 680.743 55.2196Z" fill="#0C0C0C"/>
<path d="M963.362 62.2133C960.714 59.77 959.678 57.0214 959.092 52.7563C962.156 54.7011 965.244 56.1279 969.831 55.1001C984.764 51.7539 999.795 48.8462 1014.76 45.643C1032.98 41.7436 1051.29 38.207 1069.32 33.5683C1081.15 30.5258 1092.89 29.7856 1104.94 30.4287C1172.78 34.0468 1240.62 37.5815 1308.47 41.124C1337.74 42.6518 1367.01 44.1484 1396.28 45.6211C1454.16 48.5327 1512.04 51.3847 1569.91 54.3759C1574.67 54.622 1580.39 53.0713 1584.7 60.3344C1580.65 61.3447 1577.86 62.5229 1575.01 62.6826C1529.12 65.2548 1483.23 67.7607 1437.34 70.1548C1364.17 73.9707 1291.01 77.7407 1217.84 81.4336C1179.25 83.3818 1140.66 85.0849 1102.07 86.9873C1091.36 87.5156 1080.98 86.5337 1070.43 84.0551C1039.34 76.75 1008.07 70.2441 976.841 63.5224C972.95 62.6845 968.933 62.4316 963.362 62.2133Z" fill="#0C0C0C"/>
<path d="M50.0376 62.3114C34.0289 64.266 18.3436 61.9832 0 60.6707C3.55222 57.932 4.40222 56.7083 5.32773 56.6483C20.3354 55.6737 35.3528 54.8475 51.3963 55.2035C51.629 58.3831 50.8333 60.3475 50.0376 62.3114Z" fill="black"/>
<path d="M1613.12 55.5705C1630.48 54.2648 1630.48 54.2648 1642.09 58.7663C1641.92 59.3054 1641.79 60.2956 1641.57 60.3185C1633.3 61.1682 1625.02 61.9284 1615.04 61.2429C1613.27 58.3801 1613.19 56.9753 1613.12 55.5705Z" fill="black"/>
<path d="M1611.32 55.4501C1613.19 56.975 1613.27 58.3798 1613.34 60.8407C1603.61 62.1942 1593.87 63.1532 1584.87 62.4706C1582.22 57.1073 1584.27 54.912 1587.91 54.8207C1595.11 54.6396 1602.31 55.1225 1611.32 55.4501Z" fill="black"/>
<path d="M51.5392 62.4166C50.8333 60.3477 51.629 58.3834 53.2195 55.63C56.9914 54.7593 59.9684 54.6783 64.3972 54.9337C64.8687 56.9156 63.8884 58.5616 62.4504 61.0538C59.0087 62.107 56.0247 62.314 51.5392 62.4166Z" fill="black"/>
</svg>
