<svg width="1651" height="80" viewBox="0 0 1651 80" fill="none" xmlns="http://www.w3.org/2000/svg">
<path d="M125.243 38.0479C177.146 36.4124 229.047 34.6937 280.954 33.1585C404.766 29.4964 528.581 25.9114 652.395 22.334C659.012 22.1429 665.639 22.3096 672.496 22.3096C674.036 26.9949 675.422 31.2132 677.042 36.1431C707.381 29.6568 735.83 18.3223 765.769 12.3018C771.926 19.0491 777.556 25.2181 783.454 31.6817C801.633 -6.00849 841.98 -14.8156 867.225 31.5069C872.553 25.4627 877.773 19.5413 884.016 12.4598C913.578 17.6944 941.98 29.4295 972.874 36.1294C974.348 32.219 975.885 28.1456 977.642 23.4852C978.972 23.0904 980.771 22.056 982.541 22.105C1009.83 22.8626 1037.11 23.8594 1064.4 24.6102C1184.23 27.9065 1304.06 31.1199 1423.89 34.4112C1456.51 35.3072 1489.12 36.3699 1523.86 38.6197C1527.03 41.5171 1528.07 43.1509 1529.11 44.7845C1476.54 46.4385 1423.97 48.1731 1371.39 49.7305C1247.57 53.3987 1123.75 56.9937 999.924 60.5738C992.634 60.7847 985.333 60.6009 977.409 60.6009C976.614 55.7835 975.868 51.2593 974.896 45.3621C970.642 45.6956 966.086 45.3521 961.94 46.4966C942.066 51.9852 922.313 57.9102 902.494 63.6026C896.8 65.2378 891.031 66.6133 884.82 68.2322C878.837 61.5845 873.105 55.2154 866.528 47.907C864.57 51.1192 862.704 53.6187 861.415 56.3868C854.196 71.8917 841.556 80.0772 825.034 80.0059C808.545 79.9349 795.862 71.7935 788.841 56.1627C787.779 53.7984 786.477 51.5423 784.484 47.6844C777.637 55.0013 771.569 61.4856 765.254 68.2339C735.41 60.8965 706.629 50.9932 676.385 43.5909C675.152 50.0972 674.321 54.483 673.534 58.6324C672.177 59.4537 671.126 60.6458 670.093 60.6304C655.456 60.4156 640.821 60.0892 626.188 59.6888C538.305 57.2845 450.421 54.9036 362.54 52.4192C283.32 50.18 204.103 47.8187 123.549 44.2647C123.223 41.3611 124.233 39.7046 125.243 38.0479ZM826.686 14.8565C821.641 16.3055 816.044 16.8143 811.662 19.3904C801.006 25.6548 797.373 39.7991 802.643 50.9647C807.205 60.6316 818.767 66.7459 829.051 64.9307C841.338 62.7623 850.334 51.8777 849.84 39.4083C849.319 26.2718 841.786 18.8702 826.686 14.8565Z" fill="black"/>
<path d="M33.725 45.085C22.3575 45.4532 10.8693 47.2303 0.0277464 43.5133C-0.297846 38.6197 2.2981 37.8509 4.87134 37.7713C13.3379 37.5094 21.8128 37.5152 31.8403 38.8587C33.5057 41.8944 33.6153 43.4898 33.725 45.085Z" fill="black"/>
<path d="M69.3136 38.0321C80.1516 37.7338 90.9896 37.4355 103.102 38.4005C103.416 41.4274 102.457 43.1908 101.497 44.9545C90.6802 45.0839 79.8634 45.2135 67.644 44.1664C67.2654 41.3373 68.2895 39.6847 69.3136 38.0321Z" fill="black"/>
<path d="M1616.5 38.0045C1627.93 37.1786 1639.4 35.8786 1650.35 39.2619C1650.78 43.9257 1648.47 44.9899 1645.76 45.078C1637.3 45.3536 1628.82 45.4022 1618.75 44.1329C1616.94 41.1527 1616.72 39.5787 1616.5 38.0045Z" fill="black"/>
<path d="M1584.98 44.7896C1574.16 45.1019 1563.34 45.4144 1550.49 44.3543C1547.33 41.284 1546.2 39.586 1545.08 37.888C1555.92 37.7549 1566.76 37.6219 1579.84 38.6238C1583.04 41.4356 1584.01 43.1126 1584.98 44.7896Z" fill="black"/>
<path d="M67.5438 37.7676C68.2898 39.6861 67.2657 41.3387 65.8756 43.8926C56.0819 44.8538 46.6543 44.9139 35.476 45.0303C33.6157 43.4917 33.506 41.8963 33.6533 39.1214C44.5314 37.795 55.1525 37.6485 67.5438 37.7676Z" fill="black"/>
<path d="M1586.74 45.0715C1584.01 43.113 1583.04 41.436 1581.62 38.8962C1591.78 38.0188 1602.4 38.0039 1614.75 37.9961C1616.72 39.5774 1616.94 41.1514 1616.95 43.9014C1607.32 45.1689 1597.91 45.261 1586.74 45.0715Z" fill="black"/>
<path d="M103.148 45.1583C102.457 43.1913 103.416 41.4279 104.878 38.7775C110.915 37.7167 116.45 37.5431 123.613 37.7086C124.232 39.7047 123.222 41.3612 121.798 43.901C115.856 44.9762 110.328 45.1688 103.148 45.1583Z" fill="black"/>
<path d="M1543.43 37.6837C1546.2 39.587 1547.33 41.285 1548.71 43.9693C1543.43 45.1195 1537.9 45.2833 1530.74 45.1155C1528.07 43.1507 1527.03 41.5169 1525.62 38.9822C1530.76 37.8802 1536.27 37.6793 1543.43 37.6837Z" fill="black"/>
</svg>
