<svg width="1654" height="267" viewBox="0 0 1654 267" fill="none" xmlns="http://www.w3.org/2000/svg">
<path d="M324.706 136.308C325.181 133.686 325.386 130.981 326.173 128.456C333.415 105.235 326.709 84.6317 312.538 66.6434C278.139 22.9772 221.397 20.4437 184.51 62.0011C158.161 91.6874 146.786 134.495 172.452 178.553C185.211 200.454 203.579 216.437 225.102 229.289C233.072 234.048 240.65 235.289 249.669 231.963C279.007 221.144 308.484 210.688 338.053 200.516C366.352 190.78 394.622 180.864 423.282 172.289C473.504 157.263 525.023 151.706 577.35 154.585C588.861 155.218 599.635 153.895 610.691 150.504C638.18 142.075 666.308 136.897 695.266 137.567C743.636 138.686 786.829 153.04 822.398 187.058C823.795 188.394 825.683 189.216 827.741 190.533C856.626 161.65 891.877 145.814 931.831 139.798C959.209 135.675 986.33 138.199 1013.32 143.31C1017.9 144.177 1022.64 144.755 1026.93 146.437C1047.86 154.652 1069.53 155.163 1091.65 154.403C1157.19 152.151 1219.96 166.12 1281.22 188.252C1318.13 201.591 1354.98 215.138 1392.01 228.157C1417.5 237.119 1417.68 236.827 1439.67 221.736C1464.61 204.617 1483.33 182.584 1491.41 152.95C1507.03 95.6329 1464.81 39.7426 1417.62 32.7489C1403.18 30.6097 1389.63 32.6971 1376.68 38.3463C1347.9 50.8973 1329.26 71.8901 1324.14 103.711C1322.38 114.643 1325.4 124.843 1327.8 135.2C1328.63 138.805 1326.49 139.692 1323.61 139.932C1316.14 128.562 1313.07 116.015 1314.63 102.906C1322.01 40.9219 1395.71 -4.23834 1457.16 35.5261C1500.21 63.3807 1524.62 123.041 1496.14 179.895C1486.41 199.298 1472.45 215.242 1455.34 228.467C1450.69 232.055 1445.9 235.453 1441.42 238.758C1442.39 244.099 1446.41 243.912 1449.13 244.512C1479.81 251.273 1510.82 255.9 1542.29 253.585C1557.48 252.468 1572.66 249.785 1587.58 246.588C1608.41 242.125 1626.02 231.931 1638.25 213.797C1641.24 209.353 1644.32 209.399 1647.78 213.942C1642.2 229.896 1629.53 239.359 1615.55 247.401C1601.52 255.471 1586.04 259.434 1570.25 262.324C1533.03 269.14 1495.94 267.182 1458.98 260.289C1447.21 258.094 1435.62 254.958 1423.85 252.726C1420.18 252.028 1415.81 251.859 1412.43 253.176C1363.6 272.195 1314.58 268.677 1265.27 255.399C1236.24 247.584 1208.45 236.597 1181.1 224.326C1150.13 210.432 1119.21 196.441 1088.22 182.597C1082.15 179.886 1075.81 177.806 1069.7 175.168C1060.88 171.354 1052.03 171.07 1042.43 172.196C999.828 177.193 958.837 188.394 918.841 203.388C911.604 206.101 903.238 206.145 895.369 210.406C893.469 207.798 893.325 206.56 893.182 205.321C911.774 193.843 931.964 185.66 952.446 178.599C972.339 171.741 992.932 166.91 1014.6 160.798C951.196 137.098 863.144 162.766 834.817 200.535C835.679 202.27 836.563 204.051 837.448 208.43C836.268 212.042 835.088 213.056 833.907 214.069C832.906 213.112 831.905 212.155 829.917 209.292C825.698 205.75 822.466 204.114 819.234 202.477C819.503 196.064 814.305 193.391 810.355 190.184C787.214 171.391 760.477 160.412 731.459 154.596C702.349 148.762 673.439 150.342 641.818 157.217C636.798 158.087 634.649 158.854 632.5 159.621C632.576 160.297 632.653 160.974 632.73 161.65C635.694 161.847 638.658 162.044 641.622 162.241C681.23 170.564 719.729 182.064 754.862 203.994C753.509 206.914 752.599 207.776 751.689 208.639C723.403 198.837 695.479 187.827 666.001 181.914C647.082 178.119 628.083 174.703 609.071 171.406C601.098 170.024 593.336 170.715 585.63 174.139C564.962 183.324 544.009 191.863 523.274 200.898C493.376 213.925 463.753 227.601 433.668 240.177C408.436 250.724 382.139 258.005 355.115 262.62C314.173 269.612 274.139 267.852 237.776 251.744C212.08 256.159 188.58 260.838 164.886 264.114C131.539 268.725 98.3934 266.475 65.7393 258.143C48.7259 253.801 32.9083 246.765 20.127 234.478C3.84262 218.823 -4.94864 200.264 2.92392 175.741C6.55722 174.645 7.75644 174.826 8.95566 175.008C3.57236 197.797 12.5157 215.272 29.6454 229.36C43.3678 240.646 59.88 245.992 76.9652 249.338C120.931 257.948 164.378 253.78 207.468 243.151C209.094 242.749 210.543 241.626 213.704 240.002C207.904 235.813 203.078 232.552 198.493 228.98C174.223 210.076 156.307 186.839 148.402 156.514C133.473 99.2443 168.223 47.8261 207.405 29.3803C262.701 3.34894 326.233 41.2465 336.831 96.8118C339.623 111.446 337.906 125.99 329.25 140.184C326.433 139.263 325.569 137.786 324.706 136.308ZM328.957 219.338C307.821 228.262 285.237 233.544 262.914 244.185C283.338 252.099 302.62 251.35 321.73 250.893C356.67 250.057 390.309 241.74 422.334 228.584C464.663 211.194 506.152 191.76 547.941 173.066C548.385 172.868 547.996 170.81 547.996 168.945C509.847 169.32 472.243 172.998 435.844 184.118C400.973 194.772 366.552 206.902 328.957 219.338ZM1201.05 217.107C1217.86 223.376 1234.51 230.138 1251.52 235.81C1286.55 247.49 1322.48 253.427 1359.55 250.626C1369.23 249.895 1378.9 249.112 1389.06 244.068C1385.86 242.256 1383.78 240.643 1381.42 239.797C1343.88 226.333 1306.42 212.64 1268.71 199.658C1218.18 182.26 1166.66 169.495 1112.77 169.018C1109.81 168.992 1106.85 169.351 1104.04 169.521C1104.04 171.445 1103.82 172.592 1104.07 172.708C1135.47 187.096 1166.9 201.408 1201.05 217.107Z" fill="black"/>
<path d="M805.223 91.0388C803.044 78.5846 800.543 66.1758 798.778 53.6633C797.087 41.68 797.57 29.6722 801.649 18.1106C805.692 6.65231 813.891 0.587672 825.493 0.0403696C837.948 -0.547154 847.088 5.27706 851.581 17.5923C853.372 22.5015 854.31 27.9227 854.547 33.1602C855.242 48.5036 854.753 63.8162 849.882 81.7316C847.897 91.8139 846.728 98.9552 844.373 106.864C842.473 111.014 839.507 114.643 844.932 117.897C845.324 113.824 845.677 110.149 847.315 105.932C851.501 97.5819 854.402 89.7747 857.302 81.9673C861.673 76.1539 865.395 69.6728 870.55 64.6682C880.836 54.6827 894.69 55.0198 906.584 64.5341C918.253 73.8687 921.113 85.1714 914.602 97.9079C912.512 101.996 909.79 105.86 906.831 109.387C893.282 125.537 862.259 145.297 838.082 153.049C838.082 150.141 838.082 147.654 839.091 142.536C841.326 134.276 843.715 128.686 839.741 120.641C837.202 128.874 832.746 134.448 833.351 141.964C831.685 145.403 830.019 148.842 827.88 153.258C826.054 151.331 824.508 149.699 822.547 145.607C819.802 137.087 817.471 131.027 814.89 123.558C813.662 119.704 812.685 117.259 811.708 114.815C810.825 115.073 809.944 115.331 809.062 115.589C809.84 119.695 810.618 123.801 811.516 129.24C812.823 135.713 814.01 140.853 815.197 145.993C814.288 153.107 810.735 155.69 806.078 152.643C800.587 149.051 795.016 145.578 789.589 141.892C778.618 134.44 767.317 127.39 756.946 119.173C750.814 114.314 745.676 107.921 741.032 101.534C734.705 92.8297 733.324 82.7299 739.096 73.4221C745.314 63.3947 754.457 57.0844 767.135 57.4991C774.308 57.7338 780.359 60.6831 784.441 66.0472C790.018 73.3757 794.502 81.5362 800.147 91.7077C802.209 96.998 803.577 99.9206 805.056 104.203C805.936 107.112 806.707 108.661 807.478 110.21C808.053 110.11 808.628 110.01 809.203 109.91C808.848 106.777 808.492 103.644 808.149 99.4942C807.182 95.9978 806.202 93.5183 805.223 91.0388ZM856.834 134.499C868.815 126.335 881.308 118.808 892.568 109.749C898.509 104.968 902.688 97.7604 906.854 91.1398C908.359 88.7478 908.489 84.5472 907.562 81.7252C902.609 66.6469 885.038 62.5061 874.8 74.1354C870.505 79.0141 867.059 84.8768 864.249 90.7786C857.992 103.917 853.387 117.673 850.614 133.781C851.012 134.816 851.411 135.851 851.81 136.886C852.546 136.108 853.282 135.33 856.834 134.499ZM835.668 101.249C837.134 95.4624 838.851 89.7259 840.015 83.8792C842.993 68.9197 846.552 53.9746 845.614 38.5752C845.256 32.7028 844.378 26.6597 842.471 21.1314C839.563 12.7044 834.096 9.55563 825.771 9.90719C818.095 10.2312 812.005 14.5565 810.288 22.8955C808.698 30.6173 807.943 38.7182 808.276 46.5905C809.35 71.9818 816.048 96.3097 823.717 120.37C824.262 122.082 826.2 123.351 828.209 125.648C830.489 118.028 832.547 111.15 835.668 101.249ZM801.141 134.977C800.846 112.418 792.086 92.8758 779.602 74.6755C778.863 73.5988 777.86 72.6778 776.878 71.7977C769.404 65.0988 762.321 65.0666 753.628 71.6526C745.307 77.9571 742.717 85.8747 747.755 94.0854C751.502 100.192 756.135 106.305 761.761 110.593C773.285 119.376 785.741 126.934 801.141 134.977Z" fill="black"/>
<path d="M9.72314 174.01C7.75586 174.825 6.55664 174.643 3.54297 174.334C5.96436 156.874 17.7383 147.665 34.6223 144.727C57.3909 140.764 71.1106 157.901 71.4062 175.836C71.4893 180.885 69.2822 185.973 66.6724 191.071C64.4734 190.679 63.7271 190.259 62.9805 189.839C66.6973 184.569 66.4487 178.625 65.4412 172.767C62.6167 156.352 46.8853 147.586 31.4087 153.31C21.5454 156.958 15.0632 163.899 9.72314 174.01Z" fill="black"/>
<path d="M1334.21 148.777C1336.48 151.083 1338.83 153.314 1341.01 155.706C1357.44 173.791 1377.18 180.848 1403.88 174.124C1407.53 175.497 1408.46 176.579 1409.39 177.661C1377.35 189.715 1355.01 183.773 1331.25 154.79C1332.69 151.509 1333.45 150.143 1334.21 148.777Z" fill="black"/>
<path d="M323.62 137.189C325.57 137.784 326.433 139.262 328.392 141.415C316.243 171.555 293.527 184.989 259.556 180.854C257.818 177.84 257.847 176.336 257.875 174.833C288.648 178.797 309.26 164.889 323.62 137.189Z" fill="black"/>
<path d="M256.595 174.196C257.847 176.337 257.818 177.84 257.836 180.471C222.9 173.3 208.938 153.081 215.535 115.988C218.453 114.29 219.452 114.097 220.452 113.904C214.512 142.111 222.493 158.632 248.025 170.812C250.36 171.927 252.881 172.652 256.595 174.196Z" fill="black"/>
<path d="M1593.69 150.201C1604.73 140.624 1616.96 141.613 1629.07 147.118C1641.84 152.923 1650.08 163.01 1653.27 176.853C1653.52 177.94 1652.95 179.582 1652.18 180.432C1651.44 181.244 1649.94 181.359 1647.8 182.129C1645.22 177.134 1642.87 171.815 1639.84 166.918C1635.13 159.303 1628.14 154.212 1619.64 151.613C1611.62 149.161 1603.87 150.133 1595.48 154.474C1593.9 152.494 1593.79 151.348 1593.69 150.201Z" fill="black"/>
<path d="M1410.74 177.473C1408.46 176.579 1407.53 175.496 1405.63 173.869C1408.5 170.785 1412.49 168.472 1416.11 165.669C1430.75 154.331 1439.05 140.172 1436.44 119.692C1438.56 118.551 1439.61 118.628 1440.67 118.704C1446.25 145.601 1434.63 164.107 1410.74 177.473Z" fill="black"/>
<path d="M818.24 203.465C822.466 204.114 825.698 205.75 829.403 208.386C825.161 208.912 822.868 212.232 820.547 215.42C816.38 221.145 812.277 226.917 806.506 234.955C805.178 220.871 812.248 213.036 818.24 203.465Z" fill="black"/>
<path d="M1592.38 150.658C1593.79 151.347 1593.9 152.494 1594.18 155.358C1589.18 166.11 1583.75 175.087 1586.93 188.188C1585.83 190.707 1585.22 191.267 1584.62 191.827C1575.58 176.486 1579.84 163.249 1592.38 150.658Z" fill="black"/>
<path d="M65.7217 192.282C65.1582 202.144 59.344 205.73 51.5071 206.105C43.8667 206.47 37.7307 203.46 33.5664 194.233C36.5828 194.871 38.0522 194.975 39.3479 195.506C41.1357 196.238 42.7009 197.705 44.5266 198.105C46.9976 198.648 49.6848 198.866 52.1653 198.483C53.9236 198.212 55.6812 196.935 57.0947 195.709C58.5471 194.45 59.5811 192.709 61.8896 190.508C63.728 190.258 64.4744 190.679 65.7217 192.282Z" fill="black"/>
<path d="M1587.51 189.549C1598.78 201.218 1598.78 201.218 1614.77 199.864C1602.96 210.353 1596.54 209.21 1584.92 193.215C1585.22 191.267 1585.83 190.707 1587.51 189.549Z" fill="black"/>
<path d="M834.241 215.37C835.088 213.054 836.268 212.04 837.986 209.961C845.551 215.285 847.183 223.818 846.795 233.545C842.722 227.921 838.648 222.297 834.241 215.37Z" fill="black"/>
<path d="M221.229 113.071C219.452 114.097 218.452 114.29 215.926 114.532C216.184 104.083 222.276 96.4496 232.328 90.4727C234.087 90.6648 234.983 91.7576 234.983 91.7576C230.657 98.5843 226.331 105.411 221.229 113.071Z" fill="black"/>
<path d="M1440.71 117.325C1439.61 118.628 1438.56 118.551 1435.95 118.127C1431.08 111.32 1427.76 104.86 1424.75 96.5754C1425.06 94.7504 1426.38 93.418 1426.38 93.418C1434.29 98.9352 1438.02 107.122 1440.71 117.325Z" fill="black"/>
<path d="M761.694 206.129C765.209 208.098 768.723 210.066 772.238 212.035C771.965 212.912 771.693 213.788 771.42 214.665C768.518 214.417 765.616 214.168 762.093 211.608C761.545 208.239 761.62 207.184 761.694 206.129Z" fill="black"/>
<path d="M892.017 205.777C893.325 206.559 893.469 207.798 893.819 210.895C890.632 214.097 887.238 215.439 883.329 216.985C880.835 209.16 888.075 209.297 892.017 205.777Z" fill="black"/>
<path d="M1652.09 182.41C1653.68 186.888 1653.65 190.079 1653.07 193.167C1652.92 193.987 1651.03 195.053 1650.01 194.985C1648.86 194.909 1646.95 193.787 1646.83 192.921C1646.24 188.569 1644.6 183.692 1652.09 182.41Z" fill="black"/>
<path d="M1652.55 201.391C1650.93 206.424 1649.29 209.076 1646.35 213.834C1644.85 209.264 1642.9 206.445 1643.46 204.268C1644.26 201.144 1645.09 196.224 1650.76 198.181C1651.37 198.394 1651.94 198.731 1652.55 201.391Z" fill="black"/>
<path d="M233.631 90.1251C234.076 88.7189 234.843 87.5182 235.919 87.0831C236.903 86.6851 238.222 87.1146 239.394 87.1795C238.6 88.4105 237.807 89.6417 235.998 91.315C234.983 91.7572 234.087 90.6644 233.631 90.1251Z" fill="black"/>
<path d="M1413.74 86.1165C1412.59 86.0724 1411.38 86.245 1410.32 85.9106C1409.58 85.6743 1409.05 84.7513 1408.42 84.1349C1409.41 83.8846 1410.38 83.5012 1411.37 83.4423C1411.84 83.4147 1412.34 84.0108 1413.26 85.2518C1413.68 86.1794 1413.74 86.1165 1413.74 86.1165Z" fill="black"/>
<path d="M761.107 205.528C761.62 207.183 761.545 208.238 761.415 210.88C758.857 211.685 756.354 210.903 752.77 209.38C752.599 207.775 753.509 206.913 755.924 204.921C758.613 203.751 759.644 204.13 761.107 205.528Z" fill="black"/>
<path d="M1326.68 145.181C1326.88 144.048 1328.08 143.915 1329.28 143.781C1328.75 144.581 1328.21 145.381 1326.68 145.181Z" fill="black"/>
<path d="M1332.38 148.312C1333.45 150.142 1332.68 151.508 1330.92 153.494C1327.91 151.801 1328.15 149.715 1332.38 148.312Z" fill="black"/>
<path d="M1424.34 95.3556C1423.01 94.5336 1422.4 93.1067 1421.79 91.6798C1422.88 91.6349 1423.96 91.5901 1425.72 92.4817C1426.38 93.4183 1425.06 94.7507 1424.34 95.3556Z" fill="black"/>
<path d="M1413.65 86.2068C1414.67 86.9531 1415.72 87.6717 1416.77 88.3903C1415.82 88.3527 1414.87 88.3153 1413.83 87.197C1413.74 86.1163 1413.68 86.1792 1413.65 86.2068Z" fill="black"/>
</svg>
