<svg width="1645" height="305" viewBox="0 0 1645 305" fill="none" xmlns="http://www.w3.org/2000/svg">
<path d="M753.617 238.908C747.852 239.954 742.07 241.95 736.324 241.851C723.808 241.635 714.744 230.151 716.233 217.58C717.377 207.921 726.392 200.086 735.39 201.992C739.597 202.884 743.879 205.514 747.096 208.476C751.493 212.523 750.715 217.987 748.642 222.684C744.313 223.608 739.815 224.998 732.069 227.392C741.484 231.043 746.834 231.393 751.059 224.627C758.858 220.379 760.034 213.436 757.622 205.951C755.233 198.536 749.896 193.695 741.816 192.477C732.972 191.145 724.545 192.147 716.881 197.042C707.92 202.763 699.066 208.653 690.111 214.383C682.836 219.038 675.82 224.275 668.085 228C652.008 235.742 635.587 232.653 624.038 220.694C612.638 208.888 610.274 192.255 618.635 176.45C621.678 170.699 626.284 165.696 630.616 160.736C633.078 157.915 636.429 155.87 640.784 152.337C636.505 149.015 633.559 146.728 629.008 144.268C627.402 144.095 627.678 144.238 627.678 144.238C624.091 138.035 619.7 132.154 617.063 125.57C608.361 103.837 617.485 82.674 638.145 74.9641C648.058 71.2648 657.827 71.8073 667.098 76.3972C674.195 79.9099 680.885 84.2922 687.571 88.5764C697.062 94.6574 706.263 101.194 715.821 107.163C721.466 110.689 727.645 112.994 734.578 112.946C741.436 112.898 747.893 111.953 752.84 106.729C758.287 100.977 760.184 94.278 756.351 84.4782C754.157 81.4914 753.049 80.6149 751.263 78.5456C746.116 74.4113 741.521 71.9704 736.067 74.7434C732.46 76.5773 729.203 78.6965 732.438 83.7316C737.688 80.8376 743.021 79.0148 748.708 83.6682C748.955 84.1603 750.034 84.3801 750.034 84.3801C751.282 92.8493 747.823 98.6369 739.847 101.497C727.085 106.073 714.965 96.7307 716.101 83.342C717.087 71.7282 724.885 63.4499 736.573 62.6286C741.09 62.3117 745.729 63.7258 752.949 65.3752C761.872 65.2023 759.254 61.7834 757.536 58.5891C756.547 50.0573 754.378 41.4699 754.781 33.0046C756.267 1.71113 787.304 -7.25127 808.436 5.78584C813.412 8.85615 817.579 13.2355 822.961 17.7136C826.365 14.736 829.67 11.7482 833.079 8.88398C840.527 2.62617 849.058 -0.122856 858.861 0.266792C876.092 0.951364 889.432 12.2936 890.86 29.6286C891.553 38.0441 889.543 46.6823 887.921 58.0598C887.377 66.9777 887.377 66.9777 892.764 64.5339C898.655 63.8854 904.608 62.3605 910.424 62.7727C922.202 63.6066 930.99 74.4943 929.681 86.2668C928.927 93.0466 926.222 99.069 918.852 101.577C911.962 103.922 905.416 103.084 900.419 98.0075C897.904 95.4528 897.222 91.0939 897.214 85.5832C903.674 77.6711 910.261 84.9919 916.197 82.7072C914.435 75.4343 910.237 72.6662 904.618 73.2858C898.057 74.0085 891.998 76.3928 890.372 84.0925C885.371 90.9885 886.506 97.7126 891.096 104.216C895.209 110.045 901.042 112.447 908.079 112.895C916.369 113.422 923.84 111.139 930.644 106.811C941.237 100.072 951.492 92.8015 962.1 86.0871C968.215 82.216 974.467 78.3186 981.137 75.6154C996.598 69.3493 1012.18 73.0402 1022.75 84.9289C1033.59 97.1301 1035.02 111.082 1028.45 125.513C1025.5 131.99 1020.36 137.443 1016.55 143.57C1015.31 145.561 1015.13 148.215 1016.42 151.421C1018.36 152.276 1018.27 151.448 1018.27 151.448C1014.91 152.731 1012.3 154.953 1014.3 158.61C1015.84 161.433 1019.17 163.244 1020.89 166.008C1024.38 171.579 1028.4 177.165 1030.25 183.331C1034.54 197.669 1032.31 211.214 1020.84 221.779C1008.98 232.709 995.027 235.294 980.193 228.853C972.951 225.709 966.28 221.161 959.561 216.916C949.457 210.531 939.853 203.284 929.414 197.531C923.822 194.449 917.025 192.891 910.597 192.148C902.246 191.182 894.906 194.054 890.187 201.793C885.363 209.702 886.757 216.953 894.299 225.826C901.507 229.687 906.673 232.975 912.098 226.215C906.555 224.642 901.881 223.317 897.207 221.99C895.188 217.426 894.642 212.554 898.421 209.027C901.664 205.999 905.779 203.129 909.983 202.067C918.895 199.817 928.245 207.553 929.602 217.279C931.354 229.846 922.286 241.603 909.632 241.784C902.541 241.885 895.421 239.907 887.268 238.712C887.576 241.84 887.798 244.885 888.189 247.91C889.202 255.739 891.424 263.599 891.148 271.375C890.059 302.113 859.361 312.369 837.962 299.234C832.965 296.166 828.763 291.801 823.145 287.167C820.058 289.77 816.704 292.633 813.314 295.453C805.912 301.607 797.559 304.866 787.758 304.63C770.651 304.218 757.345 292.916 754.979 275.976C753.389 264.589 755.002 253.503 760.652 241.222C761.906 239.593 762.274 238.304 762.701 237.794C763.779 236.466 763.816 235.619 764.258 233.858C765.165 231.492 765.053 230.013 764.94 228.534C764.08 229.316 763.19 230.068 762.373 230.892C761.965 231.304 761.691 231.849 760.501 232.432C758.669 233.237 758.041 234.176 756.845 235.663C754.612 236.523 753.842 237.5 753.617 238.908ZM883.024 230.428C881.872 230.484 880.72 230.539 879.568 230.595C880.848 231.25 882.128 231.904 882.865 235.373C884.339 235.42 885.813 235.467 887.288 235.514C885.859 234.658 884.43 233.801 883.024 230.428ZM710.667 183.663C711.461 180.113 713.691 174.455 709.481 173.872C703.597 173.058 707.781 179.272 706.514 182.084C706.275 182.614 706.439 183.328 704.252 184.513C703.7 185.013 703.147 185.513 699.245 185.941C693.988 185.029 690.913 181.816 690.465 176.622C690.082 172.18 690.386 167.678 690.386 162.363C683.003 161.524 675.492 161.761 668.723 159.637C659.058 156.605 651.644 159.982 644.914 165.692C639.918 169.931 635.033 174.774 631.583 180.278C619.093 200.203 634.311 217.612 651.778 219.714C663.012 221.067 674.843 212.212 676.876 201.514C678.419 193.392 674.235 184.73 666.95 181.804C663.047 180.237 659.069 180.676 655.933 183.9C652.627 187.298 652.89 191.114 655.471 194.685C656.995 196.793 659.743 198.166 660.811 200.407C661.784 202.448 662.189 205.85 661.098 207.492C659.876 209.333 656.668 210.847 654.366 210.791C647.749 210.626 643.275 206.722 641.093 200.568C635.299 184.229 647.607 168.851 664.625 171.126C673.912 172.367 680.705 177.229 684.172 186.015C685.998 190.642 687.102 195.554 688.935 201.683C694.303 198.104 698.607 195.234 705.057 191.646C706.32 189.801 707.584 187.957 710.667 183.663ZM939.253 181.691C938.973 178.792 938.692 175.893 938.086 169.639C933.913 177.606 932.162 181.834 938.965 187.401C943.388 194.362 949.844 198.25 957.705 200.684C959.07 195.437 959.752 190.784 961.482 186.561C965.962 175.627 974.971 170.218 986.675 170.977C993.715 171.433 999.675 173.961 1002.74 180.839C1006.41 189.067 1008.31 197.529 1002.11 205.326C1000.2 207.732 996.846 209.848 993.876 210.309C991.049 210.746 987.127 209.665 985.016 207.77C982.335 205.363 983.164 201.779 985.941 199.062C987.82 197.224 989.91 195.458 991.269 193.266C994.207 188.525 990.79 181.99 985.158 181.17C980.924 180.553 977.258 181.841 974.299 184.895C967.357 192.06 966.717 202.63 972.81 210.288C977.457 216.13 989.47 222.48 999.745 218.57C1010.77 214.375 1018.44 205.581 1018.9 195.424C1019.68 178.156 998.323 160.626 987.113 158.395C985.862 158.147 984.474 158.438 983.171 158.625C974.042 159.933 964.917 161.28 954.974 162.736C955.177 165.742 955.473 168.209 955.489 170.678C955.577 184.167 953.626 185.804 939.253 181.691ZM766.628 74.2541C765.607 74.6525 764.586 75.051 763.564 75.4494C764.814 75.737 766.064 76.0241 766.246 79.7355C766.779 82.3342 767.572 84.9099 767.804 87.5349C769.857 110.742 757.161 124.302 734.169 123.369C730.417 123.217 726.697 122.286 723 121.72C721.525 129.388 720.302 135.745 718.892 143.074C728.901 144.476 739.106 148.443 748.202 146.681C771.456 142.181 793.35 133.252 813.762 117.792C805.175 110.651 797.485 104.534 790.115 98.0515C782.247 91.1296 774.683 83.862 766.628 74.2541ZM848.412 175.413C843.297 179.12 838.182 182.827 832.888 186.663C846.572 199.136 859.258 210.79 872.09 222.28C873.72 223.739 876.121 224.337 878.964 225.723C874.905 190.909 886.293 179.803 922.804 181.761C924.241 175.554 925.705 169.228 927.169 162.902C899.305 156.284 899.307 156.289 874.886 164.443C871.733 165.495 868.585 166.621 865.349 167.311C864.817 167.425 863.841 165.458 861.739 161.427C866.647 158.563 871.556 155.698 877.503 152.227C858.109 142.39 840.186 133.3 822.875 124.52C804.788 133.771 787.366 142.68 770.031 151.546C770.199 152.481 770.107 153.547 770.463 153.727C788.066 162.629 805.707 171.455 823.812 180.524C829.892 177.207 836.161 173.611 842.645 170.456C843.528 170.027 845.486 171.807 848.412 175.413ZM767.124 53.6979C780.388 75.6281 801.463 95.57 824.393 107.743C840.203 96.904 854.909 84.5485 867.743 70.0324C873.967 62.9924 879.274 55.3791 881.113 45.902C885.325 24.1955 869.569 7.84101 848.972 13.2394C843.512 14.6701 838.513 18.7272 833.928 22.3679C829.989 25.4958 826.944 29.7497 824.23 32.7136C817.729 27.0964 812.539 22.0241 806.766 17.7346C790.054 5.31708 769.389 12.9616 765.486 33.2653C764.408 38.8757 765.896 44.9802 767.124 53.6979ZM878.513 250.112C865.05 227.193 844.614 211.604 823.826 196.779C804.921 207.988 783.826 225.85 774.016 240.149C769.973 246.042 766.293 252.839 764.871 259.725C762.62 270.624 765.328 281.247 774.821 288.205C783.644 294.672 793.693 294.33 803.038 289.137C807.559 286.625 811.21 282.509 815.153 279.005C817.914 276.55 820.502 273.9 823.316 271.195C829.449 277.307 834.009 283.187 839.797 287.368C856.731 299.6 877.069 291.351 880.499 270.86C881.445 265.209 879.903 259.142 878.513 250.112ZM892.091 145.559C904.207 150.086 915.113 143.286 927.165 142.953C925.652 135.468 924.37 129.13 922.968 122.196C917.634 122.644 912.461 123.716 907.376 123.391C887.638 122.128 874.808 108.165 877.785 89.0134C878.34 85.444 879.058 81.9001 880.395 74.507C873.091 81.6628 868.624 86.2453 863.931 90.5832C858.564 95.5432 852.9 100.181 847.546 105.153C842.785 109.573 835.766 111.683 833.369 118.945C850.22 131.261 869.12 139.094 892.091 145.559ZM783.816 169.404C773.797 165.958 763.841 162.307 753.725 159.174C750.036 158.031 745.863 157.33 742.089 157.814C734.289 158.816 726.609 160.748 718.587 162.357C720.253 169.248 721.77 175.523 723.387 182.209C729.009 181.896 734.185 181.112 739.297 181.411C757.491 182.475 768.297 194.282 768.335 212.45C768.344 216.585 766.194 220.894 768.449 226.947C776.907 219.054 784.089 212.494 791.105 205.762C798.047 199.102 807.107 194.678 813.548 185.401C803.941 180.206 795.236 175.499 783.816 169.404ZM995.504 94.4719C1000.07 96.3185 1003.22 99.507 1004.82 104.203C1008.63 115.383 1002.78 129.547 993.076 132.613C979.776 136.817 967.256 131.454 961.74 118.709C959.752 114.114 958.869 109.04 957.355 103.74C950.608 106.755 944.428 108.805 942 115.079C946.748 118.714 952.497 121.016 954.372 125.098C956.585 129.914 955.447 136.269 955.784 142.367C965.047 143.538 973.552 144.925 982.114 145.55C985.92 145.827 990.346 145.532 993.61 143.819C1003.16 138.807 1011.05 131.74 1015.89 121.789C1021.73 109.799 1018.66 97.7873 1007.84 90.2243C996.405 82.2321 982.392 83.5998 973.565 93.5695C965.382 102.813 967.628 116.818 978.213 122.54C982.426 124.818 987.762 123.868 990.733 120.016C993.636 116.253 992.547 112.527 989.868 109.154C987.537 106.217 985.007 103.437 981.469 99.3083C986.143 96.9548 989.392 95.3185 995.504 94.4719ZM674.855 97.0754C670.848 93.7263 667.287 89.486 662.742 87.2131C653.158 82.4206 641.656 85.5305 633.675 93.968C626.483 101.572 625.09 111.728 630.023 121.706C634.923 131.617 642.799 138.669 652.315 143.916C654.559 145.153 657.515 146.265 659.894 145.884C670.14 144.244 680.86 145.042 690.385 141.647C690.67 139.013 691.159 137.665 690.889 136.492C688.545 126.332 691.863 119.667 702.341 117.028C702.978 116.867 703.216 115.12 703.905 113.475C701.937 111.866 700.051 110.033 697.887 108.629C695.14 106.846 692.166 105.411 688.599 103.445C687.241 108.536 686.484 113.068 684.832 117.246C679.816 129.94 669.875 135.372 656.188 133.342C648.095 132.142 642.967 126.83 640.674 117.271C638.498 108.201 640.745 100.422 647.679 96.1462C650.225 94.5764 654.146 93.7331 656.921 94.4821C659.437 95.1613 661.248 98.4558 663.928 101.16C660.319 105.027 657.445 107.686 655.093 110.746C652.865 113.644 652.635 117.404 655.384 119.8C657.665 121.787 661.406 123.885 663.954 123.348C667.501 122.598 671.328 120.06 673.615 117.165C677.47 112.287 678.458 106.307 674.855 97.0754ZM694.463 156.302C697.731 156.248 701.011 156.34 704.266 156.092C707.022 155.883 709.249 154.794 708.856 150.575C702.307 147.717 695.641 147.904 688.037 150.885C689.449 152.91 690.451 154.346 694.463 156.302ZM937.012 153.929C950.86 157.168 950.86 157.168 957.647 150.868C950.385 148.071 943.753 147.087 937.012 153.929ZM937.055 121.28C933.344 124.934 932.671 128.53 938.663 133.208C938.835 129.314 938.957 126.543 937.055 121.28ZM708.914 131.988C712.928 128.509 712.995 124.994 708.142 120.555C707.531 124.136 707.043 127 708.914 131.988Z" fill="#1C1C1C"/>
<path d="M627.341 143.952C626.114 146.428 624.949 149.046 623.51 152.278C599.971 157 575.371 156.816 550.865 156.782C415.928 156.592 280.991 156.281 146.055 155.6C112.846 155.432 79.644 153.726 44.8117 151.621C43.1849 150.516 43.1807 148.929 43.1807 148.929C77.0129 147.657 110.839 145.527 144.678 145.269C261.683 144.374 378.692 144.03 495.699 143.709C526.941 143.623 558.189 144.138 589.424 144.84C601.347 145.108 613.24 146.671 626.413 145.941C627.678 144.237 627.402 144.095 627.341 143.952Z" fill="#171717"/>
<path d="M1020.11 152.193C1018.27 151.447 1018.36 152.275 1018.29 152.5C1019.87 149.284 1023.01 148.36 1026.41 148.092C1041 146.939 1055.59 144.953 1070.19 144.898C1176.74 144.495 1283.29 143.928 1389.83 144.543C1462.38 144.962 1534.92 147.207 1609.24 149.697C1611.01 150.758 1611.08 152.475 1611.08 152.475C1551.16 153.941 1491.25 156.099 1431.33 156.707C1343.39 157.599 1255.45 157.521 1167.51 157.571C1129.54 157.593 1091.57 157.135 1053.6 156.384C1043.03 156.174 1032.49 154.138 1020.11 152.193Z" fill="#171717"/>
<path d="M1612.36 153.068C1611.08 152.476 1611.01 150.759 1610.94 149.902C1622.04 149.077 1633.21 149.109 1644.39 149.141C1644.41 150.063 1644.42 150.984 1644.44 151.905C1634.17 152.49 1623.91 153.074 1612.36 153.068Z" fill="#171717"/>
<path d="M23.3715 152.136C15.581 152.136 7.7905 152.136 0 152.136C6.42352 147.784 13.2722 147.879 21.665 149.254C23.2097 150.537 23.3715 152.136 23.3715 152.136Z" fill="#171717"/>
<path d="M25.0117 152.324C23.3715 152.137 23.2097 150.538 23.237 149.736C28.8139 148.682 34.3636 148.43 41.5471 148.554C43.1811 148.93 43.1853 150.516 43.1687 151.309C37.6521 152.239 32.152 152.375 25.0117 152.324Z" fill="#171717"/>
<path d="M862.015 163.066C862.59 166.104 862.661 168.577 861.702 169.077C858.956 170.509 855.791 171.143 851.854 170.334C851.703 162.499 857.016 162.984 862.015 163.066Z" fill="#1C1C1C"/>
<path d="M849.585 167.98C852.913 170.723 852.565 172.6 848.551 173.329C845.345 170.437 845.687 168.747 849.585 167.98Z" fill="#1C1C1C"/>
</svg>
