<svg width="1656" height="286" viewBox="0 0 1656 286" fill="none" xmlns="http://www.w3.org/2000/svg">
<path d="M766.096 239.615C761.116 236.58 756.137 233.545 749.762 231.479C748.366 232.447 748.416 232.042 748.416 232.042C750.245 227.548 746.071 226.677 743.897 224.672C731.204 212.97 717.774 201.965 706.019 189.391C699.397 182.307 694.395 173.126 690.644 164.069C684.007 148.046 688.49 134.07 702.068 123.314C711.094 116.164 721.717 112.277 732.596 109.048C737.65 107.548 742.79 106.336 748.642 104.796C753.174 83.3717 764.115 66.7303 784.962 58.7143C786.09 53.1514 786.995 48.651 787.916 44.1538C789.935 34.2957 793.267 24.9887 799.126 16.6792C814.99 -5.82207 853.235 -6.6978 867.463 21.0645C870.165 26.3364 872.093 32.0907 873.701 37.8128C875.309 43.5373 876.068 49.5004 877.449 56.6567C895.583 66.0697 910.31 79.6658 912.877 103.466C918.403 105.162 924.153 106.5 929.565 108.68C939.375 112.631 949.685 115.977 958.517 121.578C973.143 130.853 977.798 145.327 971.834 161.576C968.916 169.525 964.394 177.333 958.934 183.798C950.82 193.405 941.226 201.762 932.267 210.656C928.556 214.34 924.857 218.037 922.347 223.093C923.541 224.459 923.926 224.297 922.906 222.808C914.954 222.748 909.962 226.978 905.627 232.526C905.428 232.61 905.377 232.679 905.377 232.679C897.206 237.372 889.035 242.065 878.26 245.76C874.804 243.786 873.952 242.81 874.017 240.871C890.118 228.161 905.797 216.988 920.32 204.473C930.791 195.45 940.221 185.06 949.134 174.455C953.679 169.046 956.829 162.092 959.218 155.343C961.849 147.907 959.663 140.826 953.135 135.841C941.444 126.913 928.341 122.075 913.383 121.48C912.231 126.671 911.422 130.514 910.524 134.335C903.301 165.078 888.904 192.602 871.512 218.547C866.446 226.105 860.369 232.997 855.533 241.746C853.722 243.092 852.754 243.971 850.899 244.43C849.091 243.202 848.442 242.16 848.44 239.799C849.666 236.547 850.555 234.42 851.567 232.271C851.69 232.249 851.587 232.022 852.284 231.62C853.771 230.357 854.038 229.355 854.549 226.971C865.642 205.741 876.79 186.123 885.981 165.626C891.344 153.667 893.738 140.347 897.094 127.541C897.829 124.735 896.977 121.513 896.816 117.482C888.484 117.482 881.439 117.482 873.409 117.482C867.408 155.217 857.532 191.606 845.788 228.755C844.442 233.363 844.127 236.999 843.913 240.693C844.015 240.75 843.935 240.531 842.789 240.546C840.994 241.933 840.344 243.303 838.135 244.559C835.536 244.374 834.496 244.305 833.69 242.586C843.838 199.941 854.441 159.076 858.831 117.016C833.658 112.569 813.799 113.298 801.181 118.989C802.934 131.996 804.268 145.206 806.561 158.247C811.613 186.967 817.15 215.601 821.357 244.153C818.247 242.99 816.27 241.945 813.59 239.409C801.678 198.37 792.545 158.354 786.938 117.085C781.197 117.085 776.639 116.856 772.119 117.175C769.602 117.353 767.15 118.442 764.877 119.064C762.829 127.145 764.774 134.214 766.309 141.355C770.39 160.339 777.548 178.213 785.986 195.583C793.231 210.495 800.935 225.185 808.706 241.422C809.853 246.642 810.731 250.413 810.678 253.457C808.041 251.202 806.334 249.675 804.022 246.931C791.94 226.358 779.962 207.278 769.125 187.571C757.928 167.208 752.624 144.618 747.859 120.887C740.379 122.845 734.024 124.182 727.902 126.221C723.538 127.674 719.291 129.741 715.334 132.107C701.931 140.124 698.03 150.292 705.159 163.889C710.317 173.726 716.995 183.247 724.809 191.106C738.783 205.161 754.125 217.856 768.752 232.376C768.627 234.473 768.645 235.315 767.989 236.998C766.908 238.431 766.502 239.023 766.096 239.615ZM833.634 65.7561C822.385 65.4863 811.397 66.7023 800.404 70.4172C799.819 80.4923 798.641 89.5307 801.166 99.181C821.023 99.181 840.091 99.181 859.577 99.181C862.561 89.2336 864.188 79.6953 860.781 68.8161C852.796 67.8472 844.934 66.8935 833.634 65.7561ZM805.184 37.8918C804.523 42.3009 803.863 46.7099 803.135 51.5667C822.376 51.5667 840.648 51.5667 858.922 51.5667C858.835 38.5512 856.347 31.1691 850.865 24.1637C841.593 12.3137 822.57 13.9257 815.51 21.9732C812.085 25.8781 809.577 30.5882 805.184 37.8918ZM878.947 100.475C884.521 100.619 890.277 103.451 896.243 99.3404C895.288 91.7045 891.561 85.6939 886.011 80.9318C883.891 79.1124 880.659 78.5887 876.446 76.8663C876.446 85.161 876.446 91.6762 878.947 100.475ZM773.011 85.3634C771.118 88.8183 768.948 92.1605 767.472 95.7851C766.904 97.179 767.915 99.2163 768.356 101.857C773.954 101.236 779.04 100.672 784.258 100.093C784.258 93.362 784.348 87.482 784.152 81.6116C784.126 80.815 782.666 80.0664 781.232 78.6785C779.312 80.1082 777.289 81.6146 773.011 85.3634Z" fill="black"/>
<path d="M687.896 216.039C662.014 210.715 637.609 215.631 614.256 227.001C593.566 237.074 573.03 247.463 552.168 257.842C555.315 263.249 559.637 261.476 563.06 261.487C609.713 261.636 656.366 261.574 703.02 261.614C708.339 261.619 713.739 261.451 718.932 262.348C720.698 262.653 723.067 265.976 723.09 267.945C723.112 269.756 720.508 272.992 718.791 273.184C712.204 273.92 705.509 273.793 698.854 273.794C484.915 273.813 270.975 273.81 57.0357 273.81C49.7221 273.81 42.4085 273.81 35.6405 273.81C34.0551 275.014 32.7253 275.605 32.0272 276.628C29.4367 280.424 27.5963 285.729 21.9286 284.826C17.5674 284.132 13.3835 281.882 9.33298 279.892C7.65109 279.065 6.397 277.212 5.17181 275.651C3.55258 273.586 2.15286 271.35 0 268.233C2.1488 265.11 4.13885 261.823 6.51846 258.848C10.432 253.956 15.4619 250.789 21.9327 250.856C28.4825 250.924 29.7415 257.382 33.7201 261.165C166.013 261.165 298.555 261.165 430.804 261.165C432.902 257.34 430.183 256.336 428.083 254.927C420.912 250.114 413.146 245.962 406.734 240.286C386.001 221.934 378.93 193.931 388.049 169.39C398.512 141.23 431.887 127.731 458.969 140.705C475.302 148.53 485.375 165.279 484.192 182.646C482.727 204.157 463.994 219.879 443.336 216.937C428.284 214.793 417.808 202.092 419.294 187.789C419.925 181.714 426.036 178.8 430.961 182.458C434.149 184.826 436.895 187.78 439.909 190.392C450.193 199.305 463.622 191.261 464.859 179.351C465.973 168.627 460.223 158.303 450.085 153.305C434.248 145.498 413.921 151.4 404.79 167.161C395.763 182.742 396.019 198.9 404.156 214.854C410.45 227.197 420.595 235.678 432.723 241.862C458.477 254.994 485.84 258.629 514.266 254.84C532.893 252.357 550.492 246.384 567.398 238.213C581.775 231.264 596.113 224.198 610.756 217.849C634.448 207.577 658.982 202.675 686.301 210.033C687.841 213.092 687.869 214.565 687.896 216.039Z" fill="black"/>
<path d="M968.155 209.372C993.047 202.798 1017.1 206.22 1040.34 216.173C1056.84 223.242 1073.04 231.035 1089.3 238.665C1105.67 246.345 1122.61 252.078 1140.56 254.679C1166.89 258.496 1192.32 255.334 1216.83 244.968C1227.41 240.495 1236.71 234.165 1244.34 225.525C1256.81 211.395 1260.28 194.967 1255.46 177.058C1249.58 155.204 1226.49 144.107 1206.62 153.017C1196.09 157.739 1189.74 167.662 1190.82 178.4C1191.45 184.647 1194.08 189.867 1200.22 192.698C1206.45 195.573 1211.82 194.187 1216.65 189.669C1218.59 187.85 1220.44 185.929 1222.44 184.173C1225.59 181.399 1229.73 178.916 1233.02 182.164C1235.42 184.532 1236.9 189.208 1236.63 192.682C1235.1 211.771 1212.99 222.932 1194.05 214.559C1175.5 206.36 1166.92 185.604 1173.97 166.026C1182.57 142.174 1208.74 130.247 1234.81 138.295C1260.88 146.341 1276.03 173.159 1270.67 201.739C1267.03 221.121 1256.56 236.015 1240.57 247.141C1235.16 250.904 1229.34 254.082 1221.91 258.633C1225.42 259.964 1227.44 261.221 1229.56 261.424C1233.53 261.803 1237.55 261.589 1241.55 261.59C1364.17 261.593 1486.78 261.594 1609.4 261.594C1613.39 261.594 1617.37 261.594 1621.47 261.594C1622.91 259.966 1624.15 258.528 1625.43 257.123C1631.42 250.558 1636.5 249.123 1642.43 252.991C1648.02 256.647 1652.74 261.291 1655.52 268.934C1652.47 272.546 1649.26 276.664 1645.72 280.478C1642.34 284.107 1637.65 286.257 1633.1 284.739C1629.77 283.633 1627.28 279.994 1624.45 277.451C1623.5 276.591 1622.63 275.627 1620.66 273.638C1392.59 273.638 1163.48 273.638 934.619 273.638C932.357 263.805 933.073 262.164 939.673 261.789C944.988 261.488 950.329 261.602 955.658 261.601C998.308 261.589 1040.96 261.617 1083.61 261.567C1090.04 261.559 1096.46 261.212 1103.11 261.016C1102.51 258.942 1102.53 257.229 1101.85 256.888C1081.04 246.43 1060.4 235.583 1039.23 225.909C1017.72 216.085 995.269 210.313 969.794 214.872C968.225 212.316 968.19 210.844 968.155 209.372Z" fill="black"/>
<path d="M792.175 248.254C795.404 250.02 798.634 251.786 803.537 255.219C807.148 257.6 809.085 258.313 811.023 259.027C811.218 257.413 811.413 255.799 811.608 254.185C810.731 250.414 809.853 246.642 810.17 241.65C812.341 240.586 813.316 240.744 814.292 240.901C816.27 241.946 818.247 242.991 821.986 245.263C825.341 249.539 822.947 254.305 828.819 256.561C830.417 252.314 831.937 248.275 833.456 244.236C834.496 244.305 835.536 244.375 838.768 245.315C844.959 245.882 844.398 243.181 843.934 240.531C843.934 240.531 844.015 240.75 844.958 241.171C846.635 241.369 847.369 241.148 848.102 240.926C848.442 242.161 849.091 243.202 851.361 244.341C852.673 244.63 853.612 244.582 852.742 245.554C850.199 249.501 848.527 252.476 846.161 255.932C845.625 257.376 845.782 258.34 845.939 259.303C846.671 258.497 847.403 257.69 849.384 256.738C853.851 254.06 857.07 251.529 861.177 248.712C862.066 248.425 863.931 248.32 864.414 249.395C866.183 251.359 867.468 252.248 868.752 253.136C858.087 259.211 847.459 265.353 836.742 271.335C830.556 274.788 824.264 274.52 818.076 271.149C808.358 265.857 798.642 260.561 789.172 253.601C790.337 250.708 791.256 249.481 792.175 248.254Z" fill="black"/>
<path d="M689.217 216.672C687.868 214.568 687.841 213.094 687.85 210.516C705.191 211.56 719.581 220.21 733.632 229.73C737.722 232.501 741.028 237.4 747.782 233.871C748.416 232.043 748.366 232.448 748.577 232.412C745.947 233.001 743.51 234.804 745.22 237.55C748.218 242.367 752.131 246.615 755.128 251.83C734.549 238.347 715.209 222.788 689.217 216.672Z" fill="black"/>
<path d="M966.64 209.25C968.19 210.843 968.225 212.314 968.211 214.889C947.454 221.939 928.618 231.507 909.493 245.191C906.232 245.101 905.349 244.931 904.465 244.761C905.953 241.893 907.441 239.025 907.152 234.418C905.376 232.679 905.428 232.609 906.39 234.471C916.133 236.805 921.416 232.46 923.926 224.296C923.926 224.296 923.541 224.459 923.48 224.257C925.208 227.325 927.326 225.644 929.615 224.631C941.425 219.403 953.283 214.285 966.64 209.25Z" fill="black"/>
<path d="M903.365 245.122C905.349 244.931 906.233 245.101 908.306 245.91C907.023 250.974 904.003 254.432 896.098 253.465C898.835 249.922 900.549 247.702 903.365 245.122Z" fill="black"/>
<path d="M869.748 252.996C867.468 252.247 866.183 251.358 864.914 248.629C865.852 245.885 866.959 245.423 869.58 246.597C871.794 248.592 872.678 249.392 873.562 250.192C872.623 251.08 871.683 251.969 869.748 252.996Z" fill="black"/>
<path d="M776.296 236.691C777.095 237.202 777.895 237.713 778.322 239.598C775.626 246.757 772.227 244.083 767.507 240.869C766.503 239.025 766.909 238.432 769.246 237.164C772.883 236.556 774.59 236.624 776.296 236.691Z" fill="black"/>
<path d="M791.294 247.252C791.256 249.479 790.337 250.706 788.373 252.472C786.579 251.901 785.831 250.792 786.436 248.203C788.665 246.566 789.539 246.408 791.294 247.252Z" fill="black"/>
<path d="M876.84 246.304C877.366 248.878 876.464 249.602 874.439 250.105C872.679 249.391 871.795 248.591 870.238 245.81C870.744 243.163 871.922 242.498 873.1 241.832C873.952 242.809 874.804 243.785 876.84 246.304Z" fill="black"/>
<path d="M775.709 235.638C774.589 236.623 772.883 236.556 769.92 236.324C768.645 235.317 768.627 234.475 768.752 232.377C770.971 232.276 773.047 233.43 775.709 235.638Z" fill="black"/>
</svg>
