<svg width="1656" height="202" viewBox="0 0 1656 202" fill="none" xmlns="http://www.w3.org/2000/svg">
<path d="M798.379 181.876C795.821 181.169 793.028 180.9 790.748 179.676C782.941 175.487 775.897 177.054 767.947 180.23C735.6 193.153 702.237 202.032 667.016 201.032C659.135 200.808 651.04 199.675 643.504 197.423C627.347 192.594 622.656 184.937 623.742 167.858C623.867 165.887 624.174 163.927 624.548 160.625C618.312 161.323 612.546 162.087 606.758 162.596C585.567 164.459 564.379 167.461 543.171 167.623C528.752 167.734 514.187 164.381 499.919 161.452C493.614 160.158 487.34 156.853 481.986 153.122C461.354 138.745 460.692 110.767 480.4 95.1138C490.536 87.0627 502.536 82.9398 515.106 80.7928C526.836 78.7893 538.697 77.5464 552.066 75.7595C550.061 72.7616 548.362 70.291 546.733 67.7752C535.148 49.8863 538.967 32.6128 557.275 22.0555C567.796 15.9889 579.446 13.3016 591.544 12.2776C622.312 9.6734 652.839 11.8336 682.893 18.3328C703.65 22.8214 724.21 28.5296 744.446 34.9827C753.948 38.0125 762.32 38.5595 773.509 35.1168C776.643 37.2404 777.289 38.1794 777.055 39.9139C774.21 41.7647 772.244 42.8202 770.279 43.8757C771.672 45.1245 772.914 46.632 774.499 47.5496C776.1 48.4769 778.039 48.82 779.136 50.4981C776.98 52.4661 775.519 53.3551 772.684 53.9825C766.904 52.4648 762.498 51.2086 757.865 49.8874C722.223 65.6567 684.9 76.4693 646.171 82.4485C646.504 83.7626 646.528 84.8899 646.85 84.9825C677.913 93.9148 708.999 102.768 742.021 112.179C754.632 106.133 768.936 99.274 784.154 92.8951C785.986 94.3649 786.902 95.3551 786.763 97.2264C776.461 105.626 764.104 108.633 755.049 118.04C760.084 120.859 763.987 123.044 767.278 126.303C765.259 128.232 763.852 129.087 760.926 129.656C755.034 127.811 750.763 125.711 746.256 124.861C742.548 124.161 738.2 123.968 734.758 125.237C719.907 130.714 705.286 136.812 687.842 143.778C696.792 145.514 702.948 147.076 709.201 147.852C727.74 150.151 745.804 154.458 763.398 160.585C771.52 163.413 779.662 165.052 789.469 165.587C790.394 168.936 789.611 171.122 793.2 172.579C797.953 174.509 802.271 177.509 804.665 180.45C801.162 181.193 799.77 181.534 798.379 181.876ZM588.221 89.9994C574.278 89.8054 560.255 88.6039 546.414 89.7014C532.623 90.7948 518.873 93.6063 505.389 96.845C499.168 98.3392 492.924 101.783 487.907 105.845C475.065 116.244 475.931 134.071 489.977 142.783C497.141 147.227 505.549 150.468 513.823 152.154C530.758 155.603 548.011 156.627 565.369 155.333C616.008 151.557 665.045 140.432 712.853 123.584C716.104 122.438 719.148 120.706 724.452 118.24C718.304 115.902 714.72 114.267 710.981 113.159C672.039 101.622 632.275 94.3281 588.221 89.9994ZM727.54 39.9806C693.479 30.2109 658.745 24.4604 623.329 23.4595C607.376 23.0088 591.315 23.2474 575.892 28.2956C570.89 29.933 565.692 31.7733 561.437 34.7441C549.497 43.0814 549.932 56.4271 562.146 64.0536C565.48 66.1352 569.253 67.9483 573.063 68.7419C581.491 70.4979 590.031 72.2563 598.596 72.7233C628.783 74.3691 658.324 69.5132 687.532 62.45C704.789 58.2769 722.137 54.2513 738.499 46.6982C737.494 41.799 733.962 41.6267 727.54 39.9806ZM720.115 183.775C733.196 179.508 747.633 179.229 761.122 169.94C750.474 167.321 741.586 164.706 732.527 162.995C712.245 159.165 691.821 155.765 671.093 157.437C662.572 158.125 654.033 160.06 645.814 162.484C640.778 163.97 636.081 167.393 636.028 173.759C635.975 180.155 640.409 183.337 645.738 184.813C652.09 186.572 658.633 188.055 665.182 188.609C682.565 190.081 699.691 187.362 720.115 183.775Z" fill="black"/>
<path d="M1196.14 116.055C1194.4 116.511 1192.08 116.445 1191.09 117.561C1189.96 118.824 1189.64 121.146 1189.63 123.011C1189.51 143.612 1176.92 154.458 1159.35 160.565C1136.97 168.342 1113.66 169.391 1090.27 167.375C1075.03 166.062 1059.89 163.677 1044.71 161.79C1040.8 161.304 1036.88 160.885 1031.76 160.296C1032.1 165.007 1032.37 168.68 1032.64 172.352C1033.52 184.011 1027.24 191.24 1017.43 195.724C1008.87 199.632 999.695 200.972 990.231 201.244C961.175 202.077 933.387 195.695 905.965 187.068C900.261 185.274 894.359 183.63 889.172 180.78C880.164 175.832 871.466 176.091 860.552 177.329C861.052 172.641 863.438 170.837 861.781 167.118C861.612 166.736 863.218 165.565 865.071 163.208C873.119 164.242 879.576 164.987 887.261 162.184C907.915 154.651 929.309 149.592 951.246 147.075C955.893 146.542 960.436 145.105 968.075 143.406C955.564 138.736 945.641 136.389 937.131 131.554C922.528 123.257 908.396 122.946 892.498 129.348C890.298 127.571 889.205 126.371 889.287 124.442C893.666 121.902 896.87 120.092 901.545 117.451C889.587 109.923 878.91 103.202 868.729 95.5859C870.372 93.9564 871.519 93.2222 874.038 92.8284C888.818 100.344 902.142 107.706 916.263 112.62C945.644 102.18 974.805 93.372 1004.8 87.5006C1006.73 87.1235 1008.28 84.8095 1011.03 82.5547C975.643 77.3275 942.919 68.7368 911.69 55.4381C900.494 50.6707 890.675 48.3862 879.96 55.2698C879.27 55.7134 877.114 53.8765 874.982 52.009C876.449 48.9175 878.827 47.1114 880.577 44.8247C881.306 43.8718 880.699 41.8957 881.899 39.1221C883.896 37.0162 884.694 36.1728 885.492 35.3294C893.765 38.3929 901.562 38.49 910.324 35.383C954.413 19.7499 999.772 10.587 1046.8 11.3619C1060.09 11.581 1073.41 12.0822 1086.09 16.6754C1091.05 18.4713 1096.08 20.4705 1100.49 23.2935C1116.57 33.5869 1120.23 50.1655 1110.22 66.2861C1108.57 68.9534 1106.25 71.2108 1104.43 73.4215C1106.43 78.5132 1110.29 76.6316 1113.15 77.1229C1125.54 79.256 1138.16 80.3895 1150.35 83.3475C1168.54 87.7654 1183.61 96.7024 1189.43 116.289C1189.7 117.206 1191.56 117.652 1194.37 117.542C1196.07 116.767 1196.14 116.055 1196.14 116.055ZM1035.15 148.424C1052.27 150.576 1069.39 152.804 1086.53 154.86C1104.5 157.015 1122.4 155.787 1140.09 152.524C1147.19 151.216 1154.25 148.854 1160.83 145.874C1169.65 141.879 1176.28 135.65 1176.64 124.844C1177.04 113.302 1170.66 105.983 1161.28 101.319C1154.22 97.8123 1146.58 94.8279 1138.87 93.4377C1126.5 91.2067 1113.87 89.4586 1101.33 89.3041C1045.7 88.6188 991.765 99.2421 938.713 115.09C936.895 115.634 935.36 117.127 932.607 118.863C938.028 121.125 942.583 123.242 947.286 124.953C974.794 134.963 1003.15 141.885 1035.15 148.424ZM1007.16 24.9549C965.844 28.9587 928.531 37.7359 917.328 46.465C919.948 47.6436 922.138 48.8016 924.444 49.6395C956.443 61.2681 989.506 68.547 1023.29 71.9208C1042.4 73.8293 1061.88 75.1621 1080.66 69.1979C1086.8 67.2473 1093.05 64.2698 1097.99 60.2241C1104.81 54.6462 1104.9 45.38 1098.88 38.9384C1095.79 35.6368 1091.83 32.4541 1087.65 31.0204C1079.55 28.246 1071.09 25.4429 1062.66 24.9944C1045.46 24.0798 1028.18 24.719 1007.16 24.9549ZM970.22 157.158C945.231 158.672 920.586 162.023 896.203 169.899C897.391 171.469 897.681 172.285 898.209 172.489C929.573 184.622 962.018 190.487 995.655 188.336C1001.47 187.964 1007.43 186.004 1012.82 183.638C1021.82 179.69 1022.49 170.092 1014.36 164.933C1011.06 162.845 1007.26 160.954 1003.48 160.369C993.674 158.854 983.752 158.116 970.22 157.158Z" fill="black"/>
<path d="M1196.7 118.099C1196.14 116.055 1196.07 116.767 1196.11 116.941C1197.67 115.2 1198.91 112.02 1200.76 111.624C1205.24 110.659 1210.01 110.818 1214.66 110.817C1336.63 110.786 1458.59 110.786 1580.56 110.815C1585.21 110.816 1590.07 110.414 1594.41 111.658C1596.5 112.255 1597.6 116.262 1599.28 118.926C1591.42 124.093 1583.89 122.05 1576.8 122.059C1466.83 122.203 1356.86 122.16 1246.88 122.16C1234.89 122.16 1222.89 122.338 1210.9 122.065C1206.34 121.961 1201.8 120.815 1196.7 118.099Z" fill="black"/>
<path d="M264.017 122.158C200.727 122.158 139.438 122.181 78.1492 122.12C72.1886 122.114 66.2 121.822 60.292 121.106C59.0905 120.96 57.3976 118.313 57.3772 116.799C57.356 115.237 58.8648 112.538 60.1113 112.276C64.5867 111.337 69.233 110.864 73.8169 110.848C104.461 110.737 135.106 110.79 165.75 110.79C256.352 110.79 346.953 110.778 437.554 110.818C443.527 110.821 449.563 110.775 455.45 111.602C459.557 112.18 459.867 115.808 458.962 119.376C457.939 120.101 456.894 121.49 455.842 121.495C392.567 121.788 329.292 121.968 264.017 122.158Z" fill="black"/>
<path d="M24.007 127.895C18.7525 128.143 13.4519 128.925 8.258 128.475C3.98526 128.105 0.338624 122.863 0.0252394 118.444C-0.30017 113.856 2.54608 108.7 7.1131 107.687C12.7277 106.442 18.5782 106.26 25.3704 105.503C24.8762 102.149 24.1544 98.5875 23.8723 94.9914C23.5329 90.6651 25.1649 86.9875 29.3951 85.4667C33.826 83.8735 37.3525 86.2083 39.2117 89.9831C42.3881 96.4322 44.9418 103.188 45.2158 109.928C39.7375 109.715 36.8005 109.389 32.7222 108.937C36.8461 114.108 40.3498 115.852 44.8287 112.15C44.9188 114.347 45.0089 116.544 43.7155 119.799C39.4741 121.167 36.5771 121.415 35.9544 125.021C36.1072 125.039 36.1938 124.743 34.8649 124.47C30.3596 125.429 27.1833 126.662 24.007 127.895Z" fill="black"/>
<path d="M1610.64 129.34C1607.15 126.768 1606.29 123.923 1609.07 120.111C1609.7 119.237 1608.83 117.259 1610.48 114.469C1620.52 113.704 1627.2 109.832 1633.79 105.692C1638.33 105.285 1642.95 104.144 1647.37 104.661C1652.74 105.287 1656.18 110.868 1655.79 116.336C1655.43 121.22 1652.51 125.086 1647.41 125.962C1642.35 126.832 1637.14 126.815 1630.6 127.288C1631.11 130.907 1631.72 134.503 1632.1 138.124C1632.56 142.512 1630.66 146.017 1626.79 147.79C1622.4 149.792 1619.32 147.091 1617.66 141.781C1621.45 137.043 1626.75 135.546 1623.67 129.34C1619.35 129.34 1614.99 129.34 1610.64 129.34Z" fill="black"/>
<path d="M1632.35 104.207C1627.2 109.83 1620.52 113.702 1611.04 112.907C1608.87 110.957 1606.75 108.685 1607.25 107.635C1610.3 101.111 1613.64 94.6689 1617.49 88.5902C1620.07 84.5347 1625.72 83.5416 1629.96 85.4165C1633.62 87.032 1634.94 91.5043 1633.27 97.2434C1632.71 99.137 1631.71 100.9 1632.35 104.207Z" fill="black"/>
<path d="M44.8756 122.918C45.9838 124.28 48.33 126.232 48.006 126.913C45.2379 132.733 42.2865 138.518 38.7894 143.925C35.5976 148.859 29.4532 150.384 25.1855 147.377C20.9262 144.375 19.9968 140.151 24.9681 134.089C29.9829 130.019 33.0884 127.381 36.1938 124.744C36.1938 124.744 36.1072 125.039 37.5384 124.985C40.9383 124.26 42.9069 123.589 44.8756 122.918Z" fill="black"/>
<path d="M849.501 14.4316C858.421 19.4844 867.342 24.5371 874.931 31.2405C872.141 33.2569 870.682 33.6226 867.975 33.7303C859.6 28.3689 852.473 23.2654 846.455 17.3069C848.209 15.7785 848.855 15.105 849.501 14.4316Z" fill="black"/>
<path d="M833.263 194.533C833.356 192.508 834.204 188.906 836.46 187.369C843.352 182.67 850.785 178.766 859.08 175.844C860.03 178.673 860.431 181.217 859.704 181.595C851.456 185.888 843.036 189.849 833.263 194.533Z" fill="black"/>
<path d="M787.566 26.1619C792.067 23.1547 796.568 20.1476 804.142 17.1055C808.497 17.3245 809.78 17.5786 810.122 18.8966C802.167 24.3638 795.153 28.767 788.035 31.4148C787.81 28.4936 787.688 27.3277 787.566 26.1619Z" fill="black"/>
<path d="M804.665 180.451C813.934 182.168 819.773 186.135 824.095 193.756C816.2 191.471 808.226 187.771 799.315 182.974C799.77 181.535 801.161 181.193 804.665 180.451Z" fill="black"/>
<path d="M1610.92 130.603C1614.99 129.34 1619.35 129.34 1623.67 129.34C1626.75 135.546 1621.45 137.043 1617.39 140.295C1614.55 137.828 1612.88 134.847 1610.92 130.603Z" fill="black"/>
<path d="M811.062 17.833C809.779 17.579 808.497 17.325 805.278 16.7611C809.36 12.0593 815.378 7.66748 822.683 4.05664C823.97 4.83765 823.931 4.79657 823.733 5.99133C819.377 10.735 815.219 14.284 811.062 17.833Z" fill="black"/>
<path d="M831.956 4.93244C833.624 4.73768 835.732 3.80176 836.88 4.48334C840.743 6.77765 844.264 9.64759 848.708 13.3648C848.855 15.1057 848.209 15.7792 845.296 16.9514C839.391 13.229 835.753 9.00788 832.079 4.82416C832.043 4.86158 831.956 4.93244 831.956 4.93244Z" fill="black"/>
<path d="M786.373 26.5938C787.688 27.3284 787.81 28.4943 787.211 32.2833C783.639 36.3104 780.787 37.7145 777.935 39.1187C777.289 38.1796 776.642 37.2405 775.171 34.803C777.958 31.2114 781.569 29.1182 786.373 26.5938Z" fill="black"/>
<path d="M34.8648 124.469C33.0883 127.38 29.9829 130.017 25.64 132.948C24.3711 132.348 24.3398 131.454 24.1577 129.227C27.1832 126.661 30.3595 125.428 34.8648 124.469Z" fill="black"/>
<path d="M823.931 4.82765C821.789 1.40535 824.94 0.0509189 826.756 0.00135886C828.862 -0.0561981 831.018 1.72267 832.554 3.81807C831.956 4.93172 832.043 4.86086 830.716 4.70223C827.57 4.62813 825.75 4.71266 823.931 4.79714C823.931 4.79714 823.97 4.83821 823.931 4.82765Z" fill="black"/>
<path d="M44.6891 112.233C40.3498 115.852 36.8461 114.108 32.7222 108.938C36.8005 109.389 39.7375 109.715 43.7225 111.296C44.7706 112.552 44.5496 112.315 44.6891 112.233Z" fill="black"/>
<path d="M869.223 33.989C870.682 33.6233 872.141 33.2576 875.782 32.3164C880.021 32.371 882.076 33.001 884.812 34.4803C884.694 36.1729 883.896 37.0162 880.574 38.8939C875.108 37.9484 872.165 35.9687 869.223 33.989Z" fill="black"/>
<path d="M44.9763 122.737C42.9071 123.587 40.9384 124.258 37.3857 124.966C36.5772 121.414 39.4742 121.166 43.6187 121.522C44.9052 122.186 45.077 122.558 44.9763 122.737Z" fill="black"/>
<path d="M779.136 50.498C789.093 54.1022 798.402 58.6944 807.594 63.5112C811.547 65.5826 814.669 68.2058 820.102 66.4219C825.078 64.7879 821.385 69.348 821.871 71.0475C823.582 77.0265 824.267 77.3322 834.893 76.5706C831.665 80.3137 826.524 80.9062 821.343 78.4531C817.167 76.476 813.658 77.8207 808.938 78.2927C807.853 73.753 807.814 70.6564 804.098 69.0093C794.722 64.8536 785.418 60.5341 775.072 55.2621C775.519 53.3551 776.98 52.4661 779.136 50.498Z" fill="black"/>
<path d="M805.18 147.755C790.931 143.354 777.664 137.701 763.42 130.995C763.851 129.087 765.258 128.232 767.277 126.303C781.979 129.923 794.976 136.583 805.18 147.755Z" fill="black"/>
<path d="M784.154 92.8955C790.624 87.2525 798.009 82.0893 806.762 76.8066C808.411 78.2145 809.444 80.636 808.856 81.1308C802.882 86.1569 796.644 90.869 789.149 96.0073C786.902 95.3556 785.985 94.3654 784.154 92.8955Z" fill="black"/>
<path d="M892.499 129.347C880.674 136.328 867.741 142.733 853.348 149.099C848.981 146.587 850.595 144.502 852.854 143.225C863.589 137.156 874.443 131.299 886.684 125.268C889.206 126.37 890.299 127.57 892.499 129.347Z" fill="black"/>
<path d="M850.873 81.9291C859.882 80.7017 864.529 87.4043 871.87 91.3754C871.519 93.2215 870.372 93.9556 868.73 95.5852C862.11 92.0123 855.986 87.5444 850.873 81.9291Z" fill="black"/>
<path d="M835.718 156.617C835.718 156.617 836.168 154.863 837.256 152.891C838.853 149.136 839.361 147.353 839.869 145.57C843.222 145.68 846.575 145.79 851.007 147.337C854.422 152.759 856.757 156.744 857.621 161.849C853.352 161.763 850.638 160.249 847.729 159.435C844.92 158.65 841.91 158.586 837.871 158.017C836.754 157.829 835.718 156.617 835.718 156.617Z" fill="black"/>
<path d="M821.631 147.728C820.986 149.72 820.342 151.711 818.843 155.176C817.219 156.85 816.45 157.051 815.681 157.251C812.611 158.304 809.541 159.357 805.14 158.96C803.738 156.399 803.667 155.288 803.596 154.176C802.875 152.998 802.764 151.765 803.651 149.602C805.883 144.463 809.133 147.558 814.953 147.148C819.325 147.269 820.478 147.498 821.631 147.728Z" fill="black"/>
<path d="M788.743 166.571C788.862 158.911 794.063 159.059 799.261 159.327C798.979 166.603 794.591 167.826 788.743 166.571Z" fill="black"/>
<path d="M859.386 165.874C857.953 159.638 859.061 158.983 864.398 162.898C863.113 165.462 862.064 166.091 859.386 165.874Z" fill="black"/>
<path d="M802.125 154.957C803.667 155.289 803.738 156.401 803.907 159.18C803.337 161.329 802.67 161.81 800.949 161.649C798.026 158.943 798.263 157.185 802.125 154.957Z" fill="black"/>
<path d="M846.903 67.3893C847.683 72.7051 848.447 76.0673 852.111 79.6374C850.618 81.3525 848.798 82.3924 847.586 81.9086C844.581 80.7089 841.855 78.813 837.462 77.1489C832.609 72.9697 834.529 69.9946 838.346 67.9889C840.518 66.8473 843.165 66.6074 846.903 67.3893Z" fill="black"/>
<path d="M835.898 143.411C831.709 145.216 827.408 145.717 821.575 145.461C825.255 136.196 826.59 135.976 835.898 143.411Z" fill="black"/>
<path d="M874.89 51.5684C875.713 54.4739 876.007 56.9614 875.226 57.3633C867.189 61.5024 858.977 65.3041 849.364 69.1452C847.729 67.6144 846.946 65.1056 847.448 64.8156C856.159 59.776 865.028 55.0088 874.89 51.5684Z" fill="black"/>
</svg>
