<svg width="1654" height="396" viewBox="0 0 1654 396" fill="none" xmlns="http://www.w3.org/2000/svg">
<path d="M744.405 336.363C752.56 354.645 747.448 370.451 734.117 383.662C721.091 396.572 705.119 398.63 687.827 393.107C670.746 387.652 659.645 376.007 652.784 359.955C644.559 340.714 645.178 321.071 650.82 301.324C651.532 298.832 652.579 296.436 653.946 292.692C633.988 284.876 613.329 279.074 596.168 264.67C585.354 267.224 574.337 269.645 563.51 263.862C553.032 258.264 546.652 249.052 540.551 238.593C535.268 238.264 530.058 237.657 524.848 237.655C378.322 237.604 231.796 237.614 85.27 237.614C84.604 237.614 83.926 237.696 83.2734 237.602C65.0679 234.985 59.4583 244.5 56.7258 262.051C56.0535 266.371 56.6257 270.884 56.6257 275.643C40.9258 268.13 40.5503 267.177 44.1323 244.313C29.3 242.194 13.7954 241.692 0 230.616C13.3191 220.378 27.7695 218.162 44.01 218.716C44.4138 209.453 38.4448 200.515 44.9128 193.065C47.7771 189.766 51.8044 187.478 57.3872 183.095C55.3523 199.436 57.4905 212.152 68.0928 222.076C87.9597 224.463 157.161 224.069 172.276 221.305C171.544 218.882 171.379 216.213 170.073 214.338C155.918 194.013 154.74 173.171 169.544 153.168C184.753 132.62 206.018 124.793 231.196 129.494C251.698 133.322 268.074 144.378 280.554 160.971C288.153 171.074 295.092 181.671 302.578 191.861C313.618 206.888 328.439 216.566 346.249 221.765C355.604 224.496 358.994 224.267 370.796 220.496C372.074 216.004 368.225 214.846 365.667 213.402C353.942 206.786 343.582 198.505 334.759 188.397C317.021 168.075 307.212 144.738 307.842 117.349C308.466 90.2052 319.997 68.4171 340.874 51.8893C377.054 23.2467 431.588 38.2584 446.837 80.5128C451.317 92.9259 451.037 105.246 444.623 117.982C441.606 116.73 440.539 115.061 439.472 113.392C440.633 104.815 441.573 96.4015 438.866 87.7443C428.039 53.1144 385.001 37.7916 354.04 57.7911C327.463 74.9591 314.685 108.816 323.402 140.008C332.425 172.3 353.592 194.122 383.604 207.758C411.731 220.537 441.44 222.578 471.594 218.702C490.769 216.237 509.352 210.911 527.062 202.948C536.152 198.86 544.507 193.926 552.161 187.135C574.173 167.603 601.709 167.033 625.198 184.697C629.441 187.888 633.557 191.359 637.205 195.202C641.734 199.973 645.775 205.217 649.918 210.344C654.022 215.422 658.133 220.506 661.978 225.779C665.782 230.998 672.627 233.745 671.174 241.564C659.868 237.881 654.397 230.606 648.258 223.646C639.076 213.233 628.822 203.535 617.911 194.944C607.942 187.095 596.181 182.662 582.74 186.393C581.585 191.919 580.617 196.394 579.719 200.883C576.326 217.834 581.66 232.215 592.325 245.269C596.144 249.944 600.276 248.878 605.605 248.251C606.99 249.315 607.58 249.692 607.78 251.367C605.729 256.384 607.244 258.628 610.448 260.767C626.235 271.306 644.022 276.386 660.002 280.068C674.168 274.396 686.405 269.496 700.06 264.416C702.874 261.935 704.27 259.633 705.665 257.331C717.682 259.176 729.698 261.021 744.596 263.933C750.703 265.81 753.904 266.756 757.165 267.393C760.783 268.1 763.655 266.831 766.537 263.557C768.616 263.126 769.626 262.635 770.637 262.144C768.867 261.378 767.097 260.612 765.328 259.989C765.329 260.132 765.615 260.137 765.868 258.861C764.59 257.016 763.059 256.447 761.443 255.999C761.357 256.12 761.543 255.882 761.42 254.614C757.296 250.298 753.295 247.25 747.666 242.627C742.701 239.71 740.37 240.73 739.512 242.806C738.789 238.824 736.99 237.292 733.808 238.352C733.788 238.079 733.398 237.627 733.398 237.627C735.528 235.871 737.44 233.594 735.7 230.992C732.035 225.514 727.845 220.389 723.912 215.088C702.447 186.162 689.749 153.854 687.449 117.831C685.67 89.9679 690.99 63.6222 707.617 40.5421C731.218 7.78038 773.643 -1.05751 808.394 19.3561C810.473 20.5768 811.789 23.0943 810.774 27.1144C805.709 28.0411 803.362 26.7906 800.945 25.694C765.82 9.74523 731.192 21.0084 712.184 54.6017C702.081 72.4566 697.874 91.9542 699.055 112.131C703.242 183.69 756.074 251.348 826.629 274.755C891.139 246.339 935.233 199.473 948.17 127.198C952.834 101.147 949.312 75.4025 935.511 52.0265C920.083 25.8951 894.165 14.1901 864.316 19.6627C858.494 20.7306 852.796 22.4747 847.103 23.8917C846.387 22.4215 845.805 21.2262 845.222 20.0309C845.804 18.5416 845.977 16.1852 847.026 15.6905C876.068 2.005 908.699 7.33165 931.67 29.3746C941.897 39.1891 948.956 51.0143 953.951 64.232C964.959 93.3575 963.645 122.704 955.675 152.134C949.908 173.427 940.52 193.072 927.708 211.055C923.865 216.449 919.998 221.826 916.602 229.666C918.774 237.878 924.361 235.94 928.094 237.682C920.104 244.343 912.115 251.005 904.327 257.5C905.021 261.726 907.959 260.963 910.42 261.068C938.356 262.259 960.851 251.288 979.038 230.512C987.813 220.487 996.498 210.354 1005.77 200.806C1012.24 194.147 1019.12 187.629 1026.74 182.394C1048.02 167.772 1075.36 167.623 1093.37 184.671C1110.2 200.593 1130.26 208.056 1151.4 213.76C1186.2 223.152 1221.17 223.797 1255.61 211.615C1282.31 202.169 1303.74 185.888 1317.15 160.534C1332.37 131.759 1332.91 103.16 1313.57 75.7794C1304.45 62.8693 1292.23 54.0851 1276.66 50.0968C1256.27 44.8732 1239.27 53.545 1222.33 62.7843C1214.58 75.2159 1206.58 87.5851 1208.04 103.237C1208.41 107.208 1209.25 111.136 1209.46 117.973C1207.74 121.971 1206.42 123.081 1205.11 124.191C1191.41 100.233 1197.47 76.0914 1214.63 57.9899C1229.92 41.858 1251.14 33.671 1274.74 37.5636C1302.77 42.1866 1321.55 59.0953 1333.32 83.9581C1344.13 106.789 1343.84 130.321 1334.85 153.868C1326.25 176.386 1311.77 194.155 1291.97 207.704C1286.67 211.334 1281.23 214.777 1276.4 217.949C1276.58 222.76 1279.24 223.246 1281.88 223.36C1306.25 224.418 1325.88 214.35 1341.7 196.658C1348.77 188.754 1354.29 179.488 1360.75 171.018C1365.99 164.149 1371.17 157.148 1377.11 150.914C1387.99 139.501 1401.65 132.551 1417.03 129.566C1442.28 124.665 1463.3 132.624 1478.95 152.818C1491.97 169.634 1493.38 188.134 1483.24 207.132C1480.82 211.667 1478.13 216.057 1475.38 220.826C1490.63 224.338 1539.4 225.091 1579.56 222.694C1592.68 208.961 1593.34 207.207 1593.47 185.746C1609.45 193.112 1609.6 193.459 1607.09 217.906C1612.18 218.321 1617.33 218.426 1622.36 219.236C1627.59 220.076 1632.82 221.225 1637.82 222.926C1642.78 224.613 1647.44 227.158 1653.16 229.745C1639.17 241.399 1623.43 242.679 1607.63 243.334C1604.29 247.36 1608.03 250.847 1608 254.446C1607.96 258.924 1607.6 263.826 1605.72 267.752C1603.44 272.52 1599.17 276.007 1593.03 275.432C1593.51 258.557 1592.45 253.56 1587.1 245.15C1584.01 240.302 1580.04 237.354 1574.04 237.615C1570.71 237.76 1567.37 237.617 1564.04 237.617C1418.06 237.614 1272.08 237.615 1126.1 237.614C1120.81 237.614 1115.53 237.614 1109.99 237.614C1096.39 259.217 1080.82 275.975 1055.05 265.292C1034 275.297 1014.95 284.349 995.025 293.817C1001.39 307.49 1002.48 321.91 1001.57 336.574C1000.81 348.795 996.991 360.006 990.398 370.323C981.183 384.746 967.755 392.876 951.151 395.124C933.051 397.574 918.292 390.964 908.366 375.436C905.22 370.512 903.791 364.49 902.903 357.47C905.868 356.049 907.506 356.129 909.144 356.21C910.163 358.667 911.115 361.153 912.21 363.575C924.417 390.572 953.761 388.363 969.138 375.339C974.566 370.742 979.542 364.698 982.52 358.291C992.015 337.864 991.833 317.334 980.312 296.269C968.277 297.966 956.584 299.564 944.907 301.272C908.76 306.559 873.194 303.508 838.216 293.438C829.035 290.796 820.481 290.155 811.065 293.12C768.172 306.627 724.611 306.665 680.789 298.173C677.561 297.547 674.33 296.937 670.135 296.134C667.991 299.329 665.037 302.206 663.904 305.677C657.902 324.068 658.173 342.38 666.671 360.022C671.448 369.939 679.089 377.15 689.384 381.49C710.78 390.51 731.817 381.018 738.579 358.82C739.896 354.496 739.606 349.682 740.699 342.588C742.362 338.843 743.384 337.603 744.405 336.363ZM905.592 237.625C904.644 238.573 903.883 239.653 901.509 241.713C901.509 241.713 900.296 243.292 897.585 244.083C894.236 247.84 887.933 249.638 888.174 256.436C895.176 257.683 898.405 253.972 903.43 248.654C904.398 247.48 905.366 246.304 908.341 244.721C909.224 243.719 910.108 242.717 913.593 240.07C913.498 238.488 914.025 236.268 913.185 235.449C911.019 233.338 908.967 234.698 905.592 237.625ZM1073.05 188.195C1071.65 188.796 1070.25 189.397 1068.85 189.997C1069.98 191.075 1071.11 192.152 1072.86 196.301C1082.45 217.628 1073.86 236.276 1063.31 254.856C1066.12 255.432 1068.02 256.118 1069.94 256.133C1071.89 256.15 1073.99 255.849 1075.78 255.1C1101.88 244.169 1106.41 210.931 1084.1 193.713C1081.54 191.74 1078.25 190.72 1073.05 188.195ZM238.524 192.165C239.249 192.202 239.973 192.24 241.278 195.287C240.139 199.728 239.508 204.387 237.723 208.551C235.754 213.143 232.726 217.281 229.899 222.056C254.333 224.676 301.497 224.258 317.517 221.36C311.021 215.474 304.317 210.204 298.613 204.013C292.343 197.207 286.948 189.587 281.256 182.257C277.188 177.019 273.51 171.459 269.219 166.417C257.597 152.76 242.892 144.357 225.078 141.713C206.951 139.023 187.02 148.732 177.533 164.482C172.057 173.573 171.089 183.238 173.684 193.237C177.073 206.298 189.505 218.128 201.39 218.713C214.409 219.354 224.239 212.969 231.085 202.082C233.171 198.765 234.667 195.077 238.524 192.165ZM1473.69 197.35C1479.37 185.331 1477.17 174.005 1470.41 163.251C1460.6 147.663 1440.31 138.715 1422.07 141.904C1405.04 144.878 1390.79 152.955 1379.69 166.189C1374.14 172.805 1369.19 179.92 1364 186.835C1355.2 198.572 1346.21 210.102 1333.5 218.06C1332.35 218.776 1332.14 220.984 1331.37 222.798C1368.84 224.964 1401.87 224.344 1416.2 221.347C1412.91 212.958 1409.32 204.625 1406.47 196.042C1405.48 193.048 1406.17 189.324 1410.76 189.196C1413.47 194.58 1415.5 200.337 1418.92 205.08C1431.57 222.586 1451.77 223.845 1466.79 208.328C1469.07 205.972 1470.63 202.922 1473.69 197.35ZM1062.69 185.432C1049.23 183.731 1037.84 188.681 1027.7 196.855C1020.98 202.27 1014.64 208.171 1008.41 214.151C1002.17 220.135 996.502 226.706 990.206 232.618C983.436 238.977 976.604 245.395 969.093 250.804C962.694 255.411 955.291 258.624 948.344 262.447C961.736 268.482 974.336 274.16 987.861 280.255C1006.05 275.308 1025.13 270.177 1041.03 258.05C1040.27 253.591 1039.68 250.138 1038.95 245.868C1043.95 247.376 1047.56 248.469 1051.51 249.661C1066.39 234.616 1072.7 217.576 1067.23 196.892C1066.39 193.712 1066.04 190.402 1062.69 185.432ZM753.743 276.628C742.51 276.204 731.237 275.014 720.054 275.586C710.259 276.087 700.553 278.497 690.834 280.216C688.032 280.711 686.136 282.324 686.963 286.118C719.422 292.954 752.027 293.488 784.641 286.063C785.316 285.91 785.586 283.978 786.402 282.018C776.591 280.335 766.964 278.683 753.743 276.628ZM576.677 193.796C576.677 192.06 576.677 190.324 576.677 188.277C556.354 196.649 546.608 210.091 549.86 225.434C551.99 235.486 557.216 244.088 565.382 250.408C570.634 254.473 576.451 258.116 584.68 254.411C573.749 236.36 566.307 217.58 576.677 193.796ZM961.521 282.807C953.51 277.389 944.345 276.334 935.039 275.754C912.333 274.339 889.973 277.215 867.748 281.385C865.984 281.716 864.605 284.1 862.277 286.237C903.967 293.21 922.55 293.148 961.521 282.807ZM515.271 224.11C522.377 224.007 529.634 225.421 537.415 222.536C537.22 218.402 537.053 214.846 536.813 209.755C527.422 214.224 517.65 214.289 515.271 224.11ZM1120.14 224.329C1125.01 224.047 1129.88 223.766 1138.37 223.275C1128.46 216.664 1121.21 213.24 1112.8 211.378C1110.41 217.63 1110.34 222.129 1120.14 224.329ZM883.567 256.707C883.251 257.556 882.936 258.405 882.62 259.255C883.504 258.993 884.388 258.731 883.567 256.707Z" fill="#171717"/>
<path d="M731.709 236.928C733.398 237.627 733.788 238.08 733.134 239.595C731.1 242.318 729.72 243.525 728.34 244.732C719.956 237.253 710.83 230.444 703.348 222.151C689.11 206.37 675.809 189.744 662.125 173.465C653.572 163.289 645.301 152.859 636.394 143.005C629.724 135.626 622.481 128.716 615.075 122.061C588.372 98.068 557.157 91.0456 522.354 97.9924C517.229 99.0148 512.057 99.7995 503.356 101.311C507.534 96.5768 509.009 93.547 511.387 92.4186C536.76 80.3747 562.637 79.9797 588.683 90.1227C605.031 96.4889 619.48 106.184 631.404 118.83C645.965 134.275 659.722 150.524 673.161 166.969C685.772 182.4 697.277 198.731 709.742 214.286C715.955 222.039 723.227 228.942 731.709 236.928Z" fill="#1C1C1C"/>
<path d="M928.045 237.592C924.36 235.941 918.773 237.878 916.978 232.052C925.414 230.346 930.541 223.958 935.519 217.874C946.027 205.03 956.076 191.808 966.223 178.671C981.65 158.698 996.543 138.293 1014.88 120.756C1025.99 110.138 1037.9 100.607 1051.65 93.6799C1077.96 80.4158 1105.13 79.3215 1132.7 89.2634C1136.7 90.7058 1140.09 93.8332 1143.9 96.2644C1141.23 101.583 1137.71 99.5657 1134.96 99.2815C1123.76 98.1272 1112.63 96.1331 1101.42 95.4788C1082.19 94.3562 1064.33 99.8113 1048.96 111.033C1036.69 119.982 1024.98 130.019 1014.49 140.971C1001.64 154.368 990.526 169.4 978.297 183.405C963.025 200.895 947.38 218.06 930.182 235.211C927.974 235.016 927.48 234.975 926.987 234.934C927.368 235.833 927.75 236.732 928.131 237.631C928.131 237.631 927.996 237.502 928.045 237.592Z" fill="#212121"/>
<path d="M659.528 92.3717C658.398 95.8976 657.269 99.4234 655.766 104.111C653.646 102.734 650.987 101.173 648.507 99.3673C632.629 87.8082 614.826 80.7628 595.766 76.5372C591.259 75.5382 586.676 74.4547 582.474 72.6192C577.369 70.3888 574.291 64.4879 574.846 59.7638C575.561 53.6871 580.259 48.7257 586.472 47.7862C597.448 46.1271 607.702 48.7867 617.345 53.7652C629.446 60.0118 638.785 69.3795 646.485 80.5323C649.791 85.3214 653.518 89.8204 658.365 93.1925C659.676 91.9337 659.528 92.3717 659.528 92.3717Z" fill="#111111"/>
<path d="M1032.92 82.2833C1018.62 89.4957 1005.74 96.0245 992.45 102.759C991.377 95.8956 996.029 90.7741 999.168 85.4757C1008.52 69.6945 1020.75 56.7516 1038.68 50.8283C1044.86 48.7863 1051.57 47.6925 1058.08 47.4611C1067.29 47.1334 1072.87 51.9415 1073.68 59.3541C1074.49 66.7135 1070.26 72.2814 1061.37 75.046C1058.22 76.0216 1054.82 76.1251 1051.61 76.924C1045.82 78.3654 1040.09 80.0294 1032.92 82.2833Z" fill="#171717"/>
<path d="M986.518 84.0436C985.321 86.3995 984.608 87.4523 983.893 88.5035C974.254 65.0807 974.918 40.5475 985.853 20.965C990.465 12.7062 996.218 5.41907 1005.01 1.23548C1010.05 -1.16052 1015.96 0.00745392 1019.66 4.05384C1023.53 8.28968 1025.29 13.1705 1022.36 18.629C1020.49 22.1124 1018.53 25.6705 1015.96 28.6398C1002.25 44.528 992.811 62.6491 986.518 84.0436Z" fill="#111111"/>
<path d="M661.901 83.7802C656.5 63.7084 647.16 45.7216 633.731 29.81C630.784 26.3173 627.998 22.4643 626.147 18.3261C623.814 13.1059 624.968 7.98723 629.275 3.851C633.324 -0.0381649 638.768 -1.11238 643.891 1.33976C651.283 4.87785 656.529 10.7944 660.871 17.539C669.422 30.8241 671.859 45.6879 671.47 61.123C671.338 66.3818 670.259 71.6166 668.41 78.9106C665.438 81.8988 663.669 82.8398 661.901 83.7802Z" fill="#111111"/>
<path d="M438.592 114.49C440.539 115.061 441.607 116.73 443.906 119.226C434.5 144.59 421.624 152.505 391.554 150.998C391.309 148.354 392.285 146.953 393.261 145.553C400.408 144.275 407.944 144.023 414.616 141.493C426.468 137 433.579 127.413 438.592 114.49Z" fill="black"/>
<path d="M1293.63 109.859C1295.28 131.887 1283.25 144.179 1262.5 149.866C1260.81 147.338 1260.71 146.329 1260.6 145.319C1276.79 139.763 1288.29 130.086 1290.72 110.68C1291.39 109.522 1292.46 110.065 1292.46 110.065L1293.63 109.859Z" fill="black"/>
<path d="M909.421 354.672C907.506 356.13 905.868 356.05 902.999 356.014C898.719 345.466 902.671 336.516 908.694 328.277C912.6 322.934 917.547 318.878 925.706 318.924C926.097 325.625 919.972 326.068 917.868 329.459C915.784 332.816 912.872 335.875 911.674 339.51C910.259 343.802 910.293 348.571 909.421 354.672Z" fill="black"/>
<path d="M391.903 144.958C392.285 146.954 391.309 148.355 389.936 150.513C370.74 148.031 359.372 137.148 356.544 117.551C358.414 116.759 359.424 116.779 360.434 116.799C364.375 132.647 374.661 141.563 391.903 144.958Z" fill="black"/>
<path d="M1205.22 125.6C1206.42 123.082 1207.74 121.972 1209.66 119.688C1217.2 128.899 1224.35 139.013 1236.6 143.989C1237.62 144.402 1237.74 147.037 1238.27 148.64C1236.6 149.196 1234.71 150.561 1233.3 150.181C1220.49 146.749 1211.68 138.333 1205.22 125.6Z" fill="black"/>
<path d="M728.991 245.969C729.72 243.525 731.1 242.318 733.153 239.868C736.99 237.293 738.789 238.825 740.526 243.538C742.406 246.445 743.768 247.386 745.825 249.579C749.226 252.624 751.748 254.889 754.704 256.046C756.662 256.814 759.242 255.993 761.543 255.883C761.543 255.883 761.357 256.121 760.921 257.304C762.195 259.037 763.905 259.587 765.615 260.138C765.615 260.138 765.329 260.133 765.422 260.9C765.516 261.668 765.468 263.497 765.468 263.497C763.655 266.832 760.783 268.101 757.165 267.394C753.904 266.757 750.703 265.811 746.14 264.393C747.796 262.031 747.368 259.817 745.083 258.098C740.052 254.313 734.803 250.819 728.991 245.969Z" fill="black"/>
<path d="M815.863 44.3929C818.175 38.7195 814.993 35.077 811.282 29.8289C812.86 27.1058 815.199 25.1517 815.641 25.514C820.882 29.8069 826.071 29.6692 831.717 26.4393C832.502 25.9896 834.171 27.0838 835.52 29.8089C832.331 35.949 829.087 39.7493 833.058 47.097C831.609 50.2518 830.454 51.1907 828.693 51.6185C825.954 50.138 823.822 49.1688 820.845 47.9285C818.622 46.5692 817.243 45.4813 815.863 44.3929Z" fill="#171717"/>
<path d="M700.06 264.417C697.479 263.232 696.565 261.455 695.109 260.575C689.527 257.203 683.772 254.12 678.473 249.2C679.769 246.177 680.673 244.882 681.578 243.588C688.975 247.652 696.373 251.717 704.718 256.557C704.27 259.634 702.874 261.936 700.06 264.417Z" fill="black"/>
<path d="M744.271 335.003C743.383 337.604 742.362 338.845 740.735 341.142C735.966 336.604 731.8 331.01 726.525 323.146C725.417 319.829 725.419 318.781 725.421 317.732C734.248 319.99 739.712 326.205 744.271 335.003Z" fill="#171717"/>
<path d="M724.251 316.969C725.419 318.78 725.417 319.828 725.408 322.449C718.141 323.275 710.792 322.09 703.019 328.168C701.148 328.209 699.527 327.548 699.527 327.548C704.622 318.043 712.535 314.392 724.251 316.969Z" fill="#171717"/>
<path d="M1294.62 108.596C1293.63 109.858 1292.46 110.064 1292.46 110.064C1292.46 110.064 1291.39 109.521 1290.88 109.211C1288.82 101.919 1287.25 94.939 1285.59 87.502C1293.68 92.8359 1293.68 92.8359 1294.62 108.596Z" fill="black"/>
<path d="M360.703 115.117C359.424 116.779 358.414 116.758 356.071 116.014C352.897 100.583 352.897 100.583 360.973 93.6113C360.973 100.427 360.973 106.931 360.703 115.117Z" fill="black"/>
<path d="M1258.87 145.347C1260.71 146.328 1260.81 147.337 1261.09 149.858C1254.25 153.506 1247.26 153.839 1238.79 150.858C1240.72 148.631 1241.94 145.884 1243.53 145.654C1247.98 145.007 1252.59 145.396 1258.87 145.347Z" fill="black"/>
<path d="M944.362 329.028C938.473 326.505 932.584 323.981 926.772 321.491C926.213 316.711 929.81 315.354 932.759 316.357C937.489 317.967 941.717 321.053 946.096 325.47C945.476 327.96 944.919 328.494 944.362 329.028Z" fill="#0C0C0C"/>
<path d="M946.928 326.689C951.092 330.376 954.275 334.814 949.937 342.98C947.77 337.875 946.399 334.646 944.695 330.223C944.919 328.494 945.477 327.959 946.928 326.689Z" fill="#0C0C0C"/>
<path d="M701.661 328.919C701.822 333.799 700.436 337.559 698.971 342.238C693.747 336.838 696.644 332.866 698.627 328.223C699.527 327.548 701.148 328.209 701.661 328.919Z" fill="#171717"/>
<path d="M843.34 19.4121C850.496 24.5195 845.067 25.6631 840.98 28.1064C835.453 24.1807 836.95 21.1704 843.34 19.4121Z" fill="#171717"/>
<path d="M679.869 241.972C680.673 244.883 679.769 246.177 677.777 248.005C675.308 247.694 673.928 246.848 671.773 245.043C672.232 240.623 674.607 239.357 679.869 241.972Z" fill="#171717"/>
<path d="M928.623 237.457C927.75 236.731 927.368 235.833 926.987 234.934C927.481 234.974 927.974 235.015 928.924 235.667C929.379 236.277 929.114 237.284 928.623 237.457Z" fill="#171717"/>
<path d="M1073.05 192.274C1071.11 192.152 1069.98 191.075 1068.85 189.997C1070.25 189.396 1071.65 188.795 1074.18 188.727C1074.82 189.945 1074.34 190.632 1073.05 192.274Z" fill="black"/>
<path d="M748.323 81.7177C753.293 76.4789 758.271 74.9135 763.79 74.9994C771.827 75.1244 777.808 78.7968 781.299 86.0629C784.827 93.4062 783.517 102.453 777.726 108.236C774.478 111.48 770.466 113.958 766.712 116.848C758.992 113.833 749.772 112.793 745.688 103.719C742.457 96.5419 742.88 89.5175 748.323 81.7177Z" fill="#0C0C0C"/>
<path d="M904.813 89.8014C906.957 107.553 895.646 112.64 883.306 116.86C879.529 114.367 875.326 112.268 871.962 109.237C863.859 101.936 863.023 91.0329 869.406 82.5836C875.894 73.9972 888.531 72.1364 897.453 79.0426C900.413 81.3341 902.172 85.1769 904.813 89.8014Z" fill="#111111"/>
<path d="M814.69 45.4062C817.242 45.481 818.621 46.5688 820.392 49.4082C811.92 66.4419 809.409 82.7759 811.61 100.065C809.089 100.055 807.649 100.049 806.209 100.043C801.553 81.2021 804.136 63.3481 814.69 45.4062Z" fill="black"/>
<path d="M860.991 139.479C850.461 141.599 840.516 140.591 830.822 135.372C826.561 133.078 821.339 132.571 815.851 131.06C816.194 129.021 816.598 126.625 817.831 121.533C819.311 118.206 819.961 117.573 821.499 117.561C824.661 116.481 827.418 115.154 829.093 112.99C831.317 110.116 832.696 106.589 835.988 103.516C838.571 103.803 839.604 103.917 840.637 104.032C837.396 111.115 834.154 118.198 830.381 126.441C838.105 133.463 847.299 136.957 859.634 136.152C860.929 137.811 860.96 138.645 860.991 139.479Z" fill="black"/>
<path d="M841.263 102.567C839.604 103.917 838.571 103.803 836.32 101.823C840.268 83.1543 834.846 67.6348 829.3 52.1304C830.454 51.1914 831.609 50.2524 833.296 48.2988C845.156 63.9302 847.142 81.9746 841.263 102.567Z" fill="black"/>
<path d="M806.224 101.377C807.65 100.049 809.09 100.056 812.184 101.28C816.096 107.311 818.354 112.126 820.612 116.94C819.961 117.573 819.311 118.205 817.685 119.785C813.219 114.725 809.729 108.719 806.224 101.377Z" fill="black"/>
<path d="M789.035 133.976C797.218 138.498 805.14 130.794 814.658 132.817C808.315 141.232 800.505 140.184 791.411 138.307C789.577 135.732 789.306 134.854 789.035 133.976Z" fill="black"/>
<path d="M862.197 139.518C860.96 138.644 860.929 137.81 861.149 135.747C862.969 133.409 864.538 132.3 867.949 131.914C870.365 133.232 870.94 133.827 871.515 134.421C868.811 136.133 866.107 137.846 862.197 139.518Z" fill="#0C0C0C"/>
<path d="M788.043 133.086C789.306 134.853 789.577 135.731 789.805 137.986C787.932 138.86 785.935 138.663 784.314 137.777C782.253 136.65 779.091 135.279 781.658 132.264C782.424 131.363 785.197 132.171 788.043 133.086Z" fill="#0C0C0C"/>
<path d="M772.506 129.004C771.541 128.152 770.042 127.457 769.736 126.412C769.286 124.878 769.689 123.094 769.728 121.416C771.277 122.247 772.826 123.079 774.219 125.703C773.544 127.999 773.025 128.501 772.506 129.004Z" fill="#0C0C0C"/>
<path d="M868.954 131.724C868.986 129.925 869.708 128.718 870.762 128.231C872.259 127.541 874.782 126.507 875.502 127.149C878.374 129.713 875.462 131.297 872.681 133.706C870.94 133.828 870.365 133.233 868.954 131.724Z" fill="#0C0C0C"/>
<path d="M880.416 121.324C880.401 122.509 879.562 122.795 878.722 123.08C879.012 122.195 879.301 121.31 880.416 121.324Z" fill="#0C0C0C"/>
<path d="M774.903 126.812C776.62 127.551 777.496 128.973 778.372 130.396C776.882 130.653 775.392 130.911 773.204 130.086C773.025 128.501 773.543 127.998 774.903 126.812Z" fill="#0C0C0C"/>
<path d="M605.606 248.252C605.901 246.813 606.99 246.06 608.078 245.307C608.388 246.268 608.698 247.23 608.589 249.13C607.58 249.692 606.99 249.316 605.606 248.252Z" fill="#171717"/>
</svg>
