<svg width="90" height="90" viewBox="0 0 90 90" fill="none" xmlns="http://www.w3.org/2000/svg">
<path d="M46.6802 17.3687C47.4672 18.5257 47.6402 20.9227 48.0762 21.5597C48.4592 22.1187 49.3642 22.3327 49.9012 21.4337C50.2452 20.8587 49.9602 20.1167 49.5552 19.5047C49.0582 18.7527 47.8952 17.5897 46.6802 17.3687Z" fill="black"/>
<path d="M50.5274 16.4618C49.9314 16.3138 48.2734 17.0688 47.1924 16.8058C48.0024 17.6588 48.8824 18.1748 49.5804 18.3338C50.1474 18.4628 50.7444 18.1518 51.0124 17.6488C51.2464 17.2118 51.0504 16.5918 50.5274 16.4618Z" fill="black"/>
<path d="M45.2813 20.4648C45.2833 21.0268 45.7873 21.5338 46.2223 21.5398C46.7223 21.5468 47.1233 21.1428 47.1313 20.5388C47.1413 19.7958 47.0413 18.6028 46.2973 17.4868C46.2973 18.6458 45.2793 19.8238 45.2813 20.4648Z" fill="black"/>
<path d="M42.9282 7.51169C42.9572 7.08969 43.1912 5.81971 43.5192 5.34271C43.2452 6.30971 43.2562 8.2057 43.2962 9.0817C43.3042 9.2577 43.3122 9.43569 43.3162 9.61469C43.4012 9.61269 43.4902 9.60371 43.5822 9.58371C44.0382 9.48471 44.3132 8.98971 44.4032 8.53171C44.4932 8.07371 44.4202 7.60171 44.3552 7.13971C44.2792 6.59571 44.2142 6.05071 44.1812 5.50171C44.1542 5.04371 44.1532 4.56771 44.3392 4.14771C43.9322 4.42971 43.4742 4.62569 43.0362 4.85669C42.5982 5.08769 42.1702 5.3647 41.8772 5.7627C41.5822 6.1637 41.4442 6.6707 41.4552 7.1687C41.4652 7.6667 41.6182 8.15569 41.8562 8.59369C42.0282 8.90969 42.2522 9.20771 42.5522 9.40671C42.6262 9.45571 42.7682 9.52871 42.9542 9.57471C42.9392 8.88671 42.8812 8.19869 42.9282 7.51169Z" fill="black"/>
<path d="M40.1212 13.5657C40.0582 13.5857 39.3022 13.7887 39.3052 13.8067V13.8077C39.3242 13.8537 40.2122 13.6657 40.2842 13.6487C40.6602 13.5607 41.0272 13.4387 41.3792 13.2797C42.0922 12.9567 42.7002 12.4247 43.0132 11.6957C43.2952 11.0407 43.3322 10.3227 43.3152 9.61469C43.1832 9.61669 43.0612 9.60071 42.9542 9.57471C42.9592 9.77271 42.9602 9.9707 42.9542 10.1687C42.9302 11.0077 42.7442 11.8397 42.1372 12.4567C41.5932 13.0117 40.8522 13.3337 40.1212 13.5657Z" fill="black"/>
<path d="M29.1864 19.0267C28.6624 18.4687 28.1714 17.8797 27.6934 17.2817C27.2874 16.7737 26.8784 16.2477 26.3284 15.8997C25.7784 15.5517 25.0134 15.3567 24.4754 15.7237C24.3664 15.7977 24.2714 15.8787 24.1894 15.9637C24.3664 16.1387 24.5394 16.3177 24.7104 16.4947C25.5604 17.3747 27.4714 19.2027 28.7144 19.8517C27.9164 19.7277 26.4054 18.7488 25.9484 18.3728C25.2064 17.7618 24.5644 17.0437 23.8834 16.3687C23.7504 16.6007 23.6894 16.8147 23.6674 16.9367C23.5804 17.4317 23.6684 17.9427 23.8244 18.4207C24.0394 19.0817 24.3894 19.7057 24.8844 20.1927C25.3794 20.6807 26.0244 21.0267 26.7144 21.1117C27.3994 21.1967 28.0904 21.0277 28.7434 20.8057C29.3964 20.5837 30.0344 20.3067 30.7104 20.1647C30.1064 19.9507 29.6244 19.4927 29.1864 19.0267Z" fill="black"/>
<path d="M21.7893 14.2757C20.7513 13.8957 19.6283 14.0017 18.6173 14.4147C18.1183 14.6187 17.6443 14.8746 17.1943 15.1706C17.1083 15.2276 16.0673 15.9477 16.0953 16.0107C16.1103 16.0317 17.0403 15.4607 17.1213 15.4157C18.0563 14.8977 19.0933 14.4547 20.1783 14.4327C21.3853 14.4087 22.4063 15.0177 23.2803 15.7977C23.4863 15.9817 23.6863 16.1727 23.8823 16.3677C23.9583 16.2347 24.0583 16.0947 24.1873 15.9627C23.4873 15.2677 22.7243 14.6177 21.7893 14.2757Z" fill="black"/>
<path d="M44.8504 15.4575C43.6294 14.2165 41.5764 13.8505 39.9424 14.0725C37.8114 14.3615 35.8414 15.3385 33.6824 15.5055C32.5964 15.5895 31.5204 15.4695 30.4674 15.2045C30.3164 15.1625 28.9104 14.6805 28.8954 14.7105C28.8414 14.8225 30.4124 15.4505 30.5674 15.5055C31.6584 15.8915 32.8214 16.0625 33.9774 16.0215C36.7554 15.9225 39.6514 14.2275 42.4114 15.1355C43.5184 15.4965 44.8304 16.2465 44.7034 17.5965C44.6054 18.6415 43.5174 19.9385 42.3474 19.4155C41.8734 19.2245 41.8774 18.4815 42.2854 18.4125C42.4484 18.3845 42.7204 18.8125 42.8004 18.9225C43.0744 19.2995 44.1184 19.0945 43.6084 17.8245C43.1174 16.5995 41.4484 16.4865 40.6444 17.6505C38.8764 20.2105 41.9914 21.8065 44.0594 20.2865C45.5704 19.1765 46.2464 16.8755 44.8504 15.4575Z" fill="black"/>
<path d="M63.2896 5.02061C61.5346 5.25861 59.9116 6.0636 58.1346 6.2006C57.2406 6.2696 56.3546 6.17062 55.4866 5.95362C55.3626 5.91962 54.2046 5.52161 54.1916 5.54661C54.1466 5.63961 55.4406 6.15561 55.5686 6.20161C56.4676 6.51961 57.4246 6.66063 58.3766 6.62663C60.6646 6.54563 63.0496 5.14962 65.3216 5.89762C66.2336 6.19462 67.3136 6.81262 67.2096 7.92362C67.1286 8.78462 66.2336 9.85161 65.2696 9.42161C64.8796 9.26461 64.8826 8.65262 65.2186 8.59562C65.3526 8.57262 65.5766 8.9256 65.6426 9.0156C65.8686 9.3266 66.7276 9.1576 66.3086 8.1106C65.9036 7.1016 64.5296 7.00862 63.8676 7.96662C62.4116 10.0746 64.9766 11.3896 66.6796 10.1376C67.9226 9.22361 68.4796 7.32862 67.3306 6.16062C66.3256 5.13862 64.6356 4.83761 63.2896 5.02061Z" fill="black"/>
<path d="M33.0251 16.9417C31.0061 15.8417 29.1991 16.0517 26.7241 14.2107C28.2601 16.8167 32.3971 16.5637 34.4781 19.4227C35.2111 20.4287 35.8591 21.9117 34.8941 22.9947C34.1481 23.8327 32.3891 24.2607 31.7121 23.0697C31.4251 22.6047 31.8981 21.9677 32.2951 22.1657C32.4531 22.2447 32.4161 22.7867 32.4151 22.9317C32.4121 23.4307 33.4411 23.9147 33.8071 22.4967C34.1591 21.1307 32.7941 19.9757 31.3641 20.4687C28.2191 21.5537 29.8921 24.9027 32.6361 24.9027C34.6391 24.9027 36.6791 23.3487 36.3751 21.2427C36.1111 19.4007 34.5741 17.7857 33.0251 16.9417Z" fill="black"/>
<path d="M52.4312 5.41456C50.5822 5.19856 48.6262 6.27055 47.4132 7.55055C45.8322 9.21955 45.5722 11.0206 43.1572 12.9406C46.0702 12.1246 46.8862 8.06154 50.1832 6.78254C51.3442 6.33254 52.9432 6.08655 53.7422 7.29655C54.3612 8.23255 54.3242 10.0425 52.9982 10.3915C52.4752 10.5495 51.9802 9.92857 52.2742 9.59657C52.3912 9.46457 52.9052 9.63855 53.0452 9.67655C53.5262 9.80755 54.2592 8.93655 52.9822 8.21955C51.7522 7.52855 50.2862 8.55256 50.3962 10.0606C50.6382 13.3786 54.3042 12.6206 55.0082 9.96757C55.5242 8.03157 54.5452 5.66156 52.4312 5.41456Z" fill="black"/>
<path d="M48.0353 13.7726C48.3643 14.6236 49.4273 14.8036 49.9203 14.1096C50.4313 13.3896 49.8073 13.1036 49.5793 13.2996C49.5123 13.3566 49.2773 13.5836 49.1793 13.5426C48.9333 13.4376 49.0433 12.9716 49.3693 12.9226C50.1823 12.7706 50.6693 13.7476 50.5733 14.4176C50.4493 15.2836 49.5143 15.5556 48.7653 15.6156C46.8983 15.7696 45.3363 14.2706 43.6093 13.7916C42.8903 13.5916 42.1353 13.5246 41.3933 13.6026C41.2873 13.6136 40.2073 13.7706 40.2253 13.8496C40.2303 13.8706 41.1843 13.7796 41.2853 13.7766C41.9853 13.7696 42.6783 13.8556 43.3473 14.0716C44.6763 14.5006 45.7643 15.4096 47.0573 15.9116C48.0483 16.2966 49.3913 16.3766 50.3433 15.7816C51.4323 15.1016 51.3543 13.5576 50.5743 12.6346C49.5053 11.3686 47.3113 11.9006 48.0353 13.7726Z" fill="black"/>
<path d="M35.2664 12.8936C31.7984 14.2786 27.9474 12.3346 24.3744 12.4286C22.8874 12.4676 21.4094 12.7806 20.0404 13.3626C19.8454 13.4456 17.8794 14.3766 17.9584 14.5156C17.9794 14.5536 19.7464 13.8226 19.9354 13.7566C21.2664 13.3336 22.6364 13.0936 24.0364 13.1146C26.8194 13.1566 29.4254 14.2526 32.1824 14.4546C34.2964 14.6096 36.9014 13.9766 38.3694 12.2866C40.0474 10.3556 38.9964 7.45761 36.9714 6.15361C34.1964 4.36761 30.3274 6.66363 32.7994 9.80763C33.9234 11.2366 36.0554 10.9586 36.5884 9.34761C37.1414 7.67661 35.7854 7.49661 35.4634 8.00261C35.3694 8.15061 35.0544 8.72163 34.8434 8.69863C34.3134 8.64163 34.2504 7.68963 34.8424 7.40663C36.3024 6.64263 37.8014 8.21963 38.0104 9.55263C38.2814 11.2756 36.6574 12.3426 35.2664 12.8936Z" fill="black"/>
<path d="M23.4123 11.0956C22.6743 11.2946 21.9283 11.4726 21.2093 11.7326C20.6633 11.9296 20.1363 12.1866 19.6173 12.4446C18.6943 12.9036 17.8263 13.4606 17.0263 14.1076C16.9823 14.1436 15.9103 15.0945 15.7313 15.2825C15.4693 15.5415 15.2093 15.8026 14.9433 16.0576C14.6693 16.3206 13.5843 17.5636 13.5513 17.6046C12.8963 18.4116 12.3333 19.2865 11.8693 20.2185C11.6113 20.7385 11.3543 21.2646 11.1573 21.8106C10.8973 22.5306 10.7193 23.2766 10.5203 24.0136C10.1703 25.3116 9.73333 27.2406 8.29233 27.7496C7.49733 28.0306 6.53233 27.8455 6.14133 27.0285C5.71233 26.1315 6.17233 25.1156 7.04633 24.7146C7.47333 24.5426 7.98433 24.5236 8.39033 24.7666C8.73233 24.9716 8.96733 25.4015 8.89233 25.8045C8.81133 26.2395 8.35133 26.5135 7.92733 26.4805C7.71333 26.4635 7.53733 26.3656 7.41033 26.1946C7.40633 26.1886 7.39733 26.1666 7.38933 26.1476C7.53133 26.1146 7.66033 26.0276 7.72933 25.8856C7.85233 25.6356 7.74933 25.3346 7.49933 25.2116C7.24933 25.0896 6.94833 25.1916 6.82533 25.4416C6.70233 25.6916 6.80633 25.9926 7.05533 26.1156C7.14533 26.1596 7.24033 26.1656 7.33333 26.1546C7.36533 26.2386 7.39633 26.3125 7.40633 26.3255C7.62633 26.6065 7.99933 26.6776 8.33633 26.6006C9.06133 26.4326 9.33233 25.6755 9.03333 25.0325C8.71433 24.3475 7.89133 24.1056 7.19233 24.2476C6.49733 24.3886 5.88733 24.9045 5.61833 25.5585C5.07833 26.8715 5.95533 28.3516 7.36833 28.4846C8.92533 28.6306 9.97733 27.4935 10.5523 26.1745C11.1143 24.8855 11.3303 23.4876 11.7803 22.1616C12.1013 21.2156 12.5773 20.2905 13.0973 19.4385C13.6003 18.6126 14.1883 17.8456 14.8323 17.1256C15.1273 16.7916 15.4263 16.4616 15.7153 16.1226C15.9873 15.8856 16.2553 15.6446 16.5263 15.4046C17.2463 14.7596 18.0133 14.1726 18.8393 13.6696C19.6913 13.1506 20.6163 12.6736 21.5623 12.3536C22.8883 11.9036 24.2863 11.6876 25.5753 11.1256C26.8933 10.5506 28.0313 9.49857 27.8853 7.94157C27.7523 6.52957 26.2733 5.65257 24.9593 6.19157C24.3053 6.46057 23.7893 7.07055 23.6483 7.76555C23.5063 8.46555 23.7483 9.28755 24.4333 9.60655C25.0763 9.90555 25.8333 9.63456 26.0013 8.90956C26.0793 8.57356 26.0073 8.19957 25.7263 7.97957C25.7133 7.97057 25.6393 7.93857 25.5553 7.90657C25.5663 7.81357 25.5603 7.71856 25.5163 7.62956C25.3933 7.37956 25.0923 7.27655 24.8423 7.39955C24.5923 7.52255 24.4893 7.82356 24.6123 8.07356C24.7353 8.32356 25.0363 8.42657 25.2863 8.30357C25.4273 8.23357 25.5153 8.10554 25.5483 7.96354C25.5673 7.97154 25.5893 7.98057 25.5953 7.98457C25.7663 8.11157 25.8653 8.28657 25.8813 8.50157C25.9143 8.92557 25.6403 9.38556 25.2053 9.46656C24.8033 9.54156 24.3723 9.30755 24.1683 8.96455C23.9253 8.55855 23.9443 8.04756 24.1163 7.62056C24.5173 6.74656 25.5333 6.28556 26.4303 6.71556C27.2473 7.10756 27.4323 8.07157 27.1513 8.86757C26.6393 10.3086 24.7103 10.7456 23.4123 11.0956Z" fill="black"/>
<path d="M13.4973 40.5447C13.2753 42.1787 13.6413 44.2317 14.8823 45.4527C16.3003 46.8487 18.6013 46.1727 19.7113 44.6627C21.2313 42.5947 19.6353 39.4797 17.0753 41.2477C15.9113 42.0517 16.0253 43.7197 17.2493 44.2117C18.5203 44.7217 18.7253 43.6777 18.3473 43.4037C18.2373 43.3237 17.8093 43.0507 17.8373 42.8887C17.9073 42.4797 18.6493 42.4767 18.8403 42.9507C19.3633 44.1217 18.0663 45.2087 17.0213 45.3067C15.6713 45.4337 14.9213 44.1217 14.5603 43.0147C13.6523 40.2557 15.3473 37.3587 15.4463 34.5807C15.4873 33.4247 15.3163 32.2617 14.9303 31.1707C14.8753 31.0157 14.2473 29.4447 14.1353 29.4987C14.1053 29.5137 14.5873 30.9197 14.6293 31.0707C14.8933 32.1237 15.0133 33.1997 14.9293 34.2857C14.7633 36.4427 13.7873 38.4137 13.4973 40.5447Z" fill="black"/>
<path d="M7.64436 65.2506C6.73236 65.8806 6.82136 67.1875 7.78136 67.5725C8.77736 67.9725 8.93736 67.1545 8.64236 66.9395C8.55636 66.8765 8.22036 66.6636 8.24236 66.5356C8.29736 66.2156 8.87836 66.2125 9.02836 66.5845C9.43836 67.5015 8.42236 68.3535 7.60336 68.4305C6.54636 68.5295 5.95836 67.5016 5.67536 66.6346C4.96436 64.4726 6.29236 62.2036 6.36936 60.0266C6.40136 59.1206 6.26736 58.2096 5.96536 57.3546C5.92236 57.2326 5.43036 56.0016 5.34236 56.0446C5.31836 56.0566 5.69636 57.1576 5.72936 57.2766C5.93636 58.1016 6.03036 58.9445 5.96436 59.7955C5.83336 61.4865 5.06836 63.0306 4.84236 64.6996C4.66836 65.9796 4.95436 67.5886 5.92736 68.5446C7.03836 69.6376 8.84136 69.1085 9.71036 67.9255C10.9004 66.3055 9.64936 63.8656 7.64436 65.2506Z" fill="black"/>
<path d="M19.8942 31.9676C19.4012 33.3976 20.5552 34.7626 21.9222 34.4106C23.3402 34.0446 22.8553 33.0156 22.3563 33.0186C22.2103 33.0196 21.6693 33.0556 21.5903 32.8986C21.3913 32.5026 22.0293 32.0286 22.4943 32.3166C23.6863 32.9936 23.2583 34.7526 22.4193 35.4986C21.3363 36.4626 19.8533 35.8156 18.8473 35.0826C15.9883 33.0006 16.2413 28.8636 13.6353 27.3286C15.4763 29.8036 15.2653 31.6096 16.3663 33.6296C17.2103 35.1786 18.8253 36.7156 20.6683 36.9816C22.7743 37.2856 24.3283 35.2456 24.3283 33.2426C24.3273 30.4956 20.9792 28.8226 19.8942 31.9676Z" fill="black"/>
<path d="M9.84532 51.5765C8.33332 51.5985 7.44132 53.1485 8.23732 54.3135C9.06332 55.5225 9.86632 54.7165 9.69432 54.2485C9.64432 54.1115 9.42532 53.6145 9.54732 53.4865C9.85232 53.1645 10.5143 53.6035 10.4023 54.1385C10.1703 55.4895 8.37132 55.6845 7.38432 55.1505C6.10932 54.4605 6.21432 52.8455 6.56132 51.6495C7.54732 48.2535 11.5233 47.0845 12.0823 44.1125C10.3803 46.6845 8.61032 47.1015 7.08532 48.8225C5.91632 50.1425 5.01932 52.1845 5.39632 54.0075C5.82632 56.0915 8.27332 56.8596 10.1563 56.1786C12.7373 55.2456 13.1723 51.5285 9.84532 51.5765Z" fill="black"/>
<path d="M13.4944 43.9476C13.2784 43.2796 13.1914 42.5866 13.1994 41.8866C13.2024 41.7856 13.2934 40.8316 13.2724 40.8266C13.1944 40.8096 13.0364 41.8896 13.0254 41.9946C12.9474 42.7366 13.0154 43.4916 13.2154 44.2106C13.6954 45.9376 15.1944 47.4996 15.0394 49.3666C14.9794 50.1156 14.7064 51.0506 13.8414 51.1746C13.1714 51.2706 12.1944 50.7836 12.3464 49.9706C12.3954 49.6446 12.8614 49.5346 12.9664 49.7806C13.0084 49.8786 12.7804 50.1136 12.7234 50.1806C12.5284 50.4096 12.8134 51.0336 13.5344 50.5216C14.2284 50.0296 14.0484 48.9656 13.1974 48.6366C11.3254 47.9126 10.7934 50.1066 12.0584 51.1746C12.9814 51.9546 14.5264 52.0316 15.2054 50.9436C15.8004 49.9906 15.7204 48.6486 15.3354 47.6576C14.8334 46.3656 13.9244 45.2766 13.4944 43.9476Z" fill="black"/>
<path d="M12.5413 24.6387C12.5203 23.2387 12.7604 21.8677 13.1834 20.5377C13.2484 20.3477 13.9804 18.5817 13.9424 18.5607C13.8024 18.4817 12.8724 20.4487 12.7894 20.6427C12.2074 22.0127 11.8943 23.4897 11.8553 24.9767C11.7613 28.5487 13.7053 32.4006 12.3203 35.8686C11.7693 37.2606 10.7023 38.8837 8.98035 38.6137C7.64735 38.4047 6.07035 36.9057 6.83435 35.4457C7.11735 34.8527 8.07035 34.9167 8.12635 35.4467C8.14835 35.6577 7.57735 35.9727 7.43035 36.0667C6.92435 36.3887 7.10435 37.7437 8.77535 37.1907C10.3864 36.6577 10.6643 34.5267 9.23535 33.4017C6.09135 30.9287 3.79535 34.7987 5.58135 37.5737C6.88435 39.5987 9.78335 40.6497 11.7143 38.9717C13.4043 37.5037 14.0363 34.8987 13.8823 32.7847C13.6793 30.0277 12.5823 27.4217 12.5413 24.6387Z" fill="black"/>
<path d="M20.9854 48.6787C20.3484 48.2427 17.9514 48.0697 16.7944 47.2827C17.0154 48.4987 18.1784 49.6607 18.9314 50.1587C19.5434 50.5637 20.2844 50.8487 20.8604 50.5047C21.7574 49.9657 21.5434 49.0617 20.9854 48.6787Z" fill="black"/>
<path d="M16.2304 47.7949C16.4934 48.8759 15.7384 50.5339 15.8864 51.1299C16.0154 51.6529 16.6364 51.8489 17.0734 51.6149C17.5764 51.3469 17.8864 50.7499 17.7574 50.1829C17.6004 49.4849 17.0834 48.6039 16.2304 47.7949Z" fill="black"/>
<path d="M19.9624 47.7338C20.5664 47.7258 20.9704 47.3248 20.9634 46.8248C20.9574 46.3898 20.4514 45.8848 19.8884 45.8838C19.2474 45.8818 18.0694 46.9008 16.9094 46.9008C18.0264 47.6448 19.2194 47.7438 19.9624 47.7338Z" fill="black"/>
<path d="M6.56426 44.9576C7.02626 45.0226 7.49826 45.0946 7.95626 45.0056C8.41426 44.9166 8.90926 44.6406 9.00826 44.1846C9.02826 44.0926 9.03826 44.0036 9.03926 43.9186C8.86026 43.9146 8.68226 43.9066 8.50626 43.8986C7.63026 43.8586 5.73426 43.8476 4.76626 44.1216C5.24326 43.7936 6.51326 43.5586 6.93526 43.5306C7.62226 43.4836 8.31026 43.5416 8.99826 43.5576C8.95326 43.3716 8.88026 43.2296 8.83126 43.1556C8.63226 42.8556 8.33526 42.6316 8.01826 42.4596C7.58026 42.2216 7.09127 42.0686 6.59327 42.0586C6.09527 42.0486 5.58826 42.1856 5.18726 42.4806C4.78826 42.7736 4.51227 43.2016 4.28127 43.6396C4.05027 44.0776 3.85427 44.5356 3.57227 44.9426C3.99227 44.7566 4.46827 44.7576 4.92627 44.7846C5.47527 44.8166 6.02126 44.8816 6.56426 44.9576Z" fill="black"/>
<path d="M11.1202 43.6167C11.8482 43.3037 12.3812 42.6957 12.7042 41.9827C12.8632 41.6307 12.9852 41.2637 13.0732 40.8877C13.0902 40.8157 13.2782 39.9277 13.2322 39.9087H13.2312C13.2132 39.9057 13.0102 40.6617 12.9902 40.7247C12.7582 41.4547 12.4362 42.1967 11.8822 42.7417C11.2652 43.3487 10.4332 43.5337 9.59425 43.5587C9.39625 43.5647 9.19824 43.5637 9.00024 43.5587C9.02624 43.6657 9.04325 43.7877 9.04025 43.9197C9.74725 43.9357 10.4652 43.8987 11.1202 43.6167Z" fill="black"/>
<path d="M18.3964 7.75668C17.9334 8.64968 17.5634 10.5087 17.4274 11.3757C17.4004 11.5497 17.3714 11.7257 17.3404 11.9017C17.4234 11.9177 17.5134 11.9257 17.6074 11.9247C18.0734 11.9187 18.4434 11.4897 18.6224 11.0587C18.8014 10.6277 18.8254 10.1507 18.8544 9.6857C18.8894 9.1377 18.9344 8.58969 19.0124 8.04669C19.0774 7.59269 19.1724 7.12571 19.4384 6.75171C18.9834 6.94571 18.4954 7.04569 18.0204 7.18469C17.5454 7.32369 17.0704 7.5087 16.7034 7.8407C16.3334 8.1747 16.0974 8.6437 16.0074 9.1337C15.9174 9.6237 15.9684 10.1337 16.1144 10.6107C16.2194 10.9547 16.3784 11.2917 16.6334 11.5467C16.6964 11.6097 16.8204 11.7097 16.9944 11.7917C17.1164 11.1147 17.1974 10.4287 17.3814 9.76569C17.4944 9.35469 17.9784 8.15868 18.3964 7.75668Z" fill="black"/>
<path d="M7.18129 18.9986C7.58229 18.5806 8.77929 18.0977 9.18729 17.9847C9.85129 17.8007 10.5363 17.7187 11.2143 17.5967C11.1323 17.4237 11.0323 17.2986 10.9693 17.2356C10.7143 16.9816 10.3783 16.8226 10.0343 16.7166C9.55829 16.5706 9.04829 16.5197 8.55729 16.6097C8.06629 16.6997 7.59829 16.9356 7.26429 17.3056C6.93229 17.6726 6.7473 18.1477 6.6083 18.6227C6.4693 19.0977 6.36929 19.5867 6.17529 20.0407C6.54929 19.7747 7.01629 19.6796 7.47029 19.6146C8.01429 19.5366 8.56129 19.4906 9.10929 19.4566C9.57529 19.4276 10.0513 19.4036 10.4823 19.2246C10.9133 19.0446 11.3423 18.6766 11.3483 18.2096C11.3493 18.1156 11.3413 18.0256 11.3253 17.9426C11.1493 17.9746 10.9733 18.0026 10.7993 18.0296C9.93429 18.1656 8.07429 18.5356 7.18129 18.9986Z" fill="black"/>
<path d="M11.2144 17.5956C11.2614 17.6956 11.3024 17.8116 11.3264 17.9416C12.0234 17.8166 12.6584 17.5316 13.3044 17.2276C13.8174 16.9856 14.5864 16.3436 15.2134 15.6146C15.8584 15.0246 16.4064 14.3446 16.6264 13.8786C16.9304 13.2326 17.2144 12.5976 17.3404 11.9006C17.2104 11.8766 17.0944 11.8356 16.9944 11.7886C16.9594 11.9836 16.9274 12.1796 16.8754 12.3706C16.4914 13.7676 15.8024 14.7696 14.6664 15.8776C13.7914 16.6566 12.9234 17.1666 11.7974 17.4756C11.6054 17.5296 11.4094 17.5606 11.2144 17.5956Z" fill="black"/>
<path d="M15.3243 26.9298C15.6723 27.4798 16.1983 27.8889 16.7063 28.2949C17.3043 28.7729 17.8933 29.2638 18.4513 29.7878C18.9173 30.2258 19.3753 30.7078 19.5893 31.3108C19.7313 30.6358 20.0083 29.9978 20.2303 29.3438C20.4523 28.6908 20.6213 27.9998 20.5363 27.3148C20.4503 26.6248 20.1043 25.9799 19.6163 25.4849C19.1283 24.9899 18.5053 24.6398 17.8443 24.4248C17.3663 24.2698 16.8553 24.1818 16.3603 24.2678C16.2383 24.2888 16.0243 24.3508 15.7923 24.4838C16.4683 25.1648 17.1863 25.8069 17.7963 26.5489C18.1713 27.0049 19.1513 28.5158 19.2753 29.3138C18.6263 28.0708 16.7983 26.1588 15.9183 25.3098C15.7413 25.1388 15.5633 24.9658 15.3873 24.7888C15.3033 24.8718 15.2213 24.9669 15.1473 25.0749C14.7813 25.6149 14.9763 26.3798 15.3243 26.9298Z" fill="black"/>
<path d="M15.2222 23.8828C14.4422 23.0088 13.8332 21.9878 13.8572 20.7808C13.8792 19.6958 14.3222 18.6588 14.8402 17.7238C14.8852 17.6428 15.4572 16.7128 15.4372 16.6978C15.3742 16.6698 14.6532 17.7108 14.5962 17.7968C14.3002 18.2468 14.0442 18.7208 13.8402 19.2198C13.4272 20.2308 13.3212 21.3528 13.7012 22.3908C14.0432 23.3258 14.6932 24.0888 15.3892 24.7898C15.5212 24.6608 15.6602 24.5608 15.7932 24.4848C15.5972 24.2888 15.4062 24.0898 15.2222 23.8828Z" fill="black"/>
<path d="M70.9054 3.48769C63.1694 3.32469 55.4324 3.2267 47.6964 3.1487C47.6784 3.1447 47.6574 3.15369 47.6604 3.12969C47.6514 3.03769 47.6034 2.93968 47.5734 2.85668C47.2734 2.05168 46.7504 1.35567 46.0684 0.817674C45.7254 0.550674 45.3364 0.324676 44.9004 0.175676C44.4694 0.0276758 43.9734 -0.0343067 43.5064 0.0186933C42.5654 0.119693 41.7284 0.593673 41.0994 1.23567C40.7834 1.55867 40.5144 1.92968 40.3074 2.34068C40.1974 2.57868 40.1264 2.81869 40.0274 3.05669C40.0254 3.05569 40.0234 3.05567 40.0214 3.05467C37.2744 2.87667 34.5124 2.85568 31.7604 2.85268C29.2154 2.84968 26.4634 2.65268 23.9494 3.13268C23.5504 3.22368 23.2074 3.38969 22.8844 3.58269C22.3434 3.91169 21.7924 4.3607 21.5034 4.9287C21.4994 4.9257 21.4734 4.84868 21.4774 4.85768C21.2304 4.48268 20.9674 4.11569 20.5834 3.86269C20.2964 3.65769 19.9684 3.51467 19.6324 3.42467C19.2924 3.34267 18.9484 3.32867 18.6164 3.35567C18.2884 3.39967 17.9674 3.4687 17.6764 3.5927C17.0854 3.8227 16.5864 4.18367 16.1634 4.58867C15.3164 5.40567 14.7704 6.40567 14.4104 7.40767C14.3114 7.69767 14.2164 7.98567 14.1414 8.28267C14.1424 8.27867 14.1384 8.29467 14.1414 8.28267C14.1004 8.48667 14.0724 8.69368 14.0584 8.90068C14.0514 8.89468 13.5924 8.19769 13.1124 7.84169C11.9464 6.97769 10.4824 6.7247 9.12638 6.3467C8.27238 6.1517 6.37138 4.3127 7.56238 3.1227C8.75238 1.9317 8.76138 4.70369 9.72538 4.87969C11.4984 5.20269 11.0354 2.89868 10.6844 2.43968C10.4904 2.15268 10.2314 1.86868 9.88438 1.65468C9.54238 1.43868 9.11138 1.29169 8.64338 1.29769C7.70038 1.29969 6.71538 1.96267 6.24338 2.98967C5.82838 3.91067 5.89638 4.76869 6.39538 5.63069C6.58138 5.89869 6.81138 6.14068 7.07138 6.34868C7.59838 6.75868 8.22338 7.02767 8.86338 7.23067C10.1024 7.62767 11.5714 7.69968 12.6444 8.49968C13.6814 9.26868 14.0304 10.7927 14.4574 11.9367C14.4834 11.8647 14.5154 11.7907 14.5334 11.7157C14.7764 9.87668 14.9434 8.06167 15.9694 6.46367C16.2304 6.06067 16.5354 5.68268 16.8884 5.36168C17.2394 5.04168 17.6404 4.77268 18.0694 4.62068C18.2824 4.53368 18.5024 4.4987 18.7184 4.4717C18.9344 4.4617 19.1474 4.47467 19.3484 4.52867C19.5464 4.58967 19.7354 4.67468 19.9034 4.80068C20.9944 5.51568 21.1064 7.73669 21.3654 8.74669C21.8204 7.23369 22.0494 5.53068 23.5304 4.66268C23.7604 4.52968 24.0124 4.41568 24.2484 4.37068C29.7014 3.60968 35.6684 4.15769 41.1474 4.47969C41.2184 3.95669 41.2824 3.42069 41.5114 2.94069C41.6514 2.65769 41.8394 2.3937 42.0594 2.1657C42.4984 1.7067 43.0744 1.39067 43.6474 1.32567C43.9344 1.29167 44.2054 1.32069 44.4874 1.41069C44.7654 1.50169 45.0364 1.65167 45.2824 1.83867C45.7744 2.21367 46.1814 2.7377 46.3984 3.3037C46.4554 3.4567 46.5664 4.34867 46.6894 4.39067C54.7874 4.36467 62.8064 4.24769 70.9054 4.06069C70.8774 3.93169 70.8804 3.60269 70.9054 3.48769Z" fill="black"/>
<path d="M87.7502 2.36974C87.1042 2.06574 86.3852 2.39574 86.3852 2.97274C86.3852 3.22474 86.5822 3.41175 86.8042 3.54275H77.7822C77.8072 3.62075 77.8252 3.70276 77.8252 3.78976C77.8252 3.87676 77.8082 3.95876 77.7822 4.03676H86.7622C86.5442 4.16276 86.3552 4.33776 86.3552 4.57076C86.3552 5.12276 87.1152 5.54274 87.7512 5.20174C88.9452 4.56174 90.0022 3.78676 90.0022 3.78676C90.0022 3.78676 88.9582 2.93774 87.7502 2.36974Z" fill="black"/>
<path d="M3.13128 47.6577C3.15528 47.6547 3.14528 47.6757 3.14928 47.6937C3.22728 55.4307 3.32527 63.1677 3.48827 70.9027C3.60327 70.8777 3.93328 70.8747 4.06028 70.9037C4.24728 62.8047 4.36428 54.7857 4.39028 46.6877C4.34828 46.5647 3.45728 46.4537 3.30328 46.3967C2.73828 46.1797 2.21328 45.7727 1.83828 45.2807C1.65128 45.0337 1.50128 44.7637 1.41028 44.4857C1.32028 44.2037 1.29128 43.9327 1.32528 43.6457C1.39028 43.0727 1.70628 42.4977 2.16528 42.0577C2.39428 41.8377 2.65828 41.6497 2.94028 41.5097C3.42028 41.2807 3.95628 41.2167 4.47928 41.1457C4.15828 35.6667 3.60927 29.6997 4.37027 24.2467C4.41527 24.0107 4.52928 23.7587 4.66228 23.5287C5.53128 22.0477 7.23328 21.8187 8.74628 21.3637C7.73628 21.1037 5.51527 20.9927 4.80027 19.9017C4.67427 19.7337 4.58928 19.5437 4.52828 19.3467C4.47528 19.1457 4.46228 18.9327 4.47128 18.7167C4.49928 18.5007 4.53327 18.2807 4.62027 18.0677C4.77227 17.6377 5.04128 17.2377 5.36128 16.8867C5.68228 16.5337 6.05928 16.2287 6.46328 15.9677C8.06128 14.9417 9.87628 14.7737 11.7153 14.5317C11.7893 14.5137 11.8643 14.4817 11.9363 14.4557C10.7923 14.0287 9.26828 13.6797 8.49928 12.6427C7.69928 11.5697 7.62728 10.1007 7.23028 8.86167C7.02728 8.22067 6.75828 7.59667 6.34828 7.06967C6.13928 6.80967 5.89828 6.57968 5.63028 6.39368C4.76828 5.89468 3.91128 5.82667 2.99028 6.24167C1.96328 6.71367 1.30028 7.69966 1.29828 8.64166C1.29228 9.10966 1.43927 9.54066 1.65527 9.88266C1.86927 10.2297 2.15328 10.4897 2.44028 10.6827C2.89928 11.0327 5.20328 11.4967 4.88028 9.72367C4.70428 8.75967 1.93328 8.75167 3.12328 7.56067C4.31428 6.36967 6.15228 8.27067 6.34728 9.12467C6.72528 10.4807 6.97827 11.9457 7.84227 13.1107C8.19827 13.5907 8.89528 14.0497 8.90028 14.0567C8.69228 14.0707 8.48628 14.0987 8.28228 14.1397C8.29328 14.1357 8.27828 14.1407 8.28228 14.1397C7.98528 14.2147 7.69628 14.3097 7.40728 14.4087C6.40528 14.7687 5.40528 15.3137 4.58828 16.1617C4.18328 16.5847 3.82227 17.0827 3.59227 17.6747C3.46827 17.9647 3.39928 18.2867 3.35528 18.6147C3.32828 18.9467 3.34128 19.2907 3.42428 19.6307C3.51328 19.9667 3.65728 20.2957 3.86228 20.5817C4.11528 20.9657 4.48228 21.2287 4.85728 21.4757C4.84828 21.4717 4.92628 21.4977 4.92828 21.5017C4.36028 21.7917 3.91128 22.3427 3.58228 22.8827C3.38928 23.2057 3.22328 23.5487 3.13228 23.9477C2.65128 26.4617 2.84928 29.2127 2.85228 31.7587C2.85528 34.5107 2.87528 37.2727 3.05428 40.0197C3.05428 40.0217 3.05528 40.0237 3.05628 40.0257C2.81728 40.1247 2.57728 40.1967 2.34028 40.3057C1.92928 40.5137 1.55828 40.7827 1.23528 41.0977C0.593276 41.7267 0.118277 42.5627 0.0182772 43.5037C-0.0337228 43.9707 0.0272749 44.4667 0.175275 44.8977C0.324275 45.3337 0.550277 45.7227 0.817277 46.0657C1.35528 46.7487 2.05227 47.2707 2.85627 47.5707C2.94127 47.6007 3.03928 47.6497 3.13128 47.6577Z" fill="black"/>
<path d="M4.57129 86.3528C4.33829 86.3528 4.16329 86.5418 4.03729 86.7598V77.7798C3.95929 77.8048 3.87729 77.8228 3.79029 77.8228C3.70329 77.8228 3.62129 77.8058 3.54329 77.7798V86.8018C3.41229 86.5798 3.22529 86.3828 2.97329 86.3828C2.39629 86.3828 2.06729 87.1018 2.37029 87.7478C2.93829 88.9558 3.78629 89.9988 3.78629 89.9988C3.78629 89.9988 4.56229 88.9428 5.20229 87.7478C5.54329 87.1128 5.12329 86.3528 4.57129 86.3528Z" fill="black"/>
<path d="M71.9744 2.98682C71.5314 2.98682 71.1714 3.34583 71.1714 3.78983C71.1714 4.23283 71.5304 4.59283 71.9744 4.59283C72.4184 4.59283 72.7774 4.23383 72.7774 3.78983C72.7774 3.34583 72.4174 2.98682 71.9744 2.98682Z" fill="black"/>
<path d="M76.6912 2.98682C76.2482 2.98682 75.8882 3.34583 75.8882 3.78983C75.8882 4.23283 76.2472 4.59283 76.6912 4.59283C77.1342 4.59283 77.4942 4.23383 77.4942 3.78983C77.4942 3.34583 77.1342 2.98682 76.6912 2.98682Z" fill="black"/>
<path d="M74.3251 2.49878C73.6121 2.49878 73.0352 3.07679 73.0352 3.78979C73.0352 4.50279 73.6131 5.0798 74.3251 5.0798C75.0371 5.0798 75.6152 4.50179 75.6152 3.78979C75.6162 3.07679 75.0381 2.49878 74.3251 2.49878Z" fill="black"/>
<path d="M4.59331 71.9729C4.59331 71.5299 4.23331 71.1699 3.79031 71.1699C3.34631 71.1699 2.9873 71.5289 2.9873 71.9729C2.9873 72.4159 3.34731 72.7759 3.79031 72.7759C4.23431 72.7759 4.59331 72.4159 4.59331 71.9729Z" fill="black"/>
<path d="M2.9873 76.6897C2.9873 77.1327 3.34731 77.4927 3.79031 77.4927C4.23331 77.4927 4.59331 77.1337 4.59331 76.6897C4.59331 76.2457 4.23331 75.8867 3.79031 75.8867C3.34731 75.8867 2.9873 76.2467 2.9873 76.6897Z" fill="black"/>
<path d="M5.08125 74.3237C5.08125 73.6107 4.50324 73.0337 3.79124 73.0337C3.07924 73.0337 2.50024 73.6117 2.50024 74.3237C2.50024 75.0367 3.07824 75.6137 3.79124 75.6137C4.50424 75.6137 5.08125 75.0367 5.08125 74.3237Z" fill="black"/>
<path d="M10.9372 12.1408C11.759 12.1408 12.4252 11.4746 12.4252 10.6528C12.4252 9.831 11.759 9.16479 10.9372 9.16479C10.1154 9.16479 9.44922 9.831 9.44922 10.6528C9.44922 11.4746 10.1154 12.1408 10.9372 12.1408Z" fill="black"/>
<path d="M15.0131 14.0118C15.0131 13.4858 14.5871 13.0598 14.0611 13.0598C13.5351 13.0598 13.1091 13.4858 13.1091 14.0118C13.1091 14.5378 13.5351 14.9638 14.0611 14.9638C14.5871 14.9638 15.0131 14.5378 15.0131 14.0118Z" fill="black"/>
</svg>
