<svg width="4063" height="480" viewBox="0 0 4063 480" fill="none" xmlns="http://www.w3.org/2000/svg">
<path d="M1046.36 475.452C1031.76 475.63 1017.16 476.061 1002.56 475.944C861.051 474.817 719.541 473.599 574.857 471.317C561.74 466.562 551.949 466.534 542.364 471.447C527.061 471.62 511.757 472 496.455 471.925C463.818 471.764 431.18 471.486 398.547 470.965C392.301 470.865 384.965 472.51 380.857 464.179C382.79 462.776 384.628 460.494 386.843 460.034C391.356 459.096 396.071 458.863 400.707 458.821C553.226 457.455 705.746 456.146 861.993 455.251C903.779 455.36 941.838 455.046 981.414 454.232C985.583 453.515 988.234 453.127 990.887 453.107C1047.5 452.683 1104.11 452.08 1160.72 451.948C1386.5 451.42 1612.29 451.068 1838.08 450.578C1870.03 450.509 1901.99 450.042 1935.81 450.189C1982.82 450.499 2027.98 450.427 2073.14 450.192C2077.73 450.169 2082.31 449.172 2088.7 448.975C2110.5 449.555 2130.49 449.937 2150.48 449.994C2263.12 450.316 2375.76 450.58 2488.4 450.826C2635.04 451.146 2781.67 451.468 2928.31 451.702C2962.29 451.757 2996.27 451.46 3031.54 451.691C3038.7 452.293 3044.58 452.529 3052.14 453.173C3058.25 453.997 3062.7 454.754 3067.12 454.656C3068.84 454.618 3070.52 452.65 3073.81 450.54C3065.55 446.885 3059.2 447.953 3051.32 448.331C3043.26 448.119 3036.8 447.817 3028.89 446.982C3018.97 444.747 3010.5 443.018 3002.03 441.349C2950.99 431.298 2901.58 415.718 2852.79 397.879C2769.56 367.444 2684.95 342.036 2596.91 329.657C2551.3 323.244 2505.54 320.22 2459.72 327.422C2445.97 329.583 2432.41 332.935 2417.91 336.04C2412.05 339.493 2414.24 341.691 2419.38 344.051C2468.43 373.877 2519.71 394.522 2574.1 408.08C2592.18 412.586 2609.18 413.46 2626.27 405.268C2629.3 403.819 2633.23 404.261 2639.41 403.503C2635.85 410.3 2633.53 414.719 2630.43 420.056C2628.54 423.107 2627.43 425.239 2624.53 427.581C2610.74 426.649 2599.05 427.167 2587.32 430.891C2579.17 433.48 2570.43 434.404 2561.89 435.538C2511.76 442.19 2462.51 436.972 2413.81 424.375C2393.88 419.221 2374.06 413.541 2353.92 409.397C2322.52 402.937 2290.86 400.192 2257.71 407.797C2254.37 407.664 2252.46 407.621 2250.24 406.042C2253.44 381.746 2263.81 369.904 2284.94 365.002C2289.38 363.97 2294.1 363.23 2298.62 363.524C2311.05 364.336 2323.42 366.007 2335.85 366.854C2342.13 367.282 2348.29 371.981 2354.68 367.641C2354.59 367.632 2354.54 367.793 2354.64 369.152C2357.32 370.902 2359.91 371.294 2362.41 371.624C2362.32 371.562 2362.13 371.487 2362.5 371.954C2362.87 372.422 2364.55 372.578 2364.55 372.578C2364.55 372.578 2366.07 371.65 2367.17 371.621C2369.01 371.569 2369.75 371.546 2370.49 371.523C2373.62 373.861 2376.42 377.186 2379.95 378.385C2414.19 390.03 2447.67 404.185 2483.57 410.426C2492.65 412.005 2501.78 413.313 2513.91 415.21C2525.59 416.756 2534.25 417.838 2543.45 418.719C2544.94 417.619 2544.91 416.683 2542.57 415.539C2532.24 412.837 2523.25 410.307 2514.26 407.777C2493.99 399.905 2473.46 392.616 2453.51 384.012C2428.64 373.293 2404.74 360.624 2382.77 340.476C2382.4 335.633 2382.56 334.09 2382.72 332.546C2391.14 323.536 2402.32 319.3 2413.48 315.267C2444.88 303.916 2477.41 299.031 2513.7 300.034C2522.81 304.064 2528.66 303.262 2534.29 299.672C2562.38 297.651 2590.07 301.697 2617.7 305.703C2700.37 317.689 2780.01 341.176 2858.05 370.383C2908.56 389.286 2959.6 406.323 3012.39 417.728C3041.05 423.92 3070 428.106 3099.22 430.348C3120.53 431.984 3141.8 431.004 3162.88 427.318C3176.73 424.895 3189.96 420.519 3202.09 413.224C3211.31 407.678 3219.45 400.872 3225.63 391.988C3238.51 373.503 3240.66 353.99 3230.6 333.588C3228.26 328.843 3225.15 324.478 3223.08 317.676C3226.5 313.934 3229.23 312.454 3231.95 310.975C3261.09 339.921 3258.15 380.937 3236.51 407.981C3225.99 421.128 3213.07 431.351 3197.62 437.759C3187.34 442.02 3176.36 444.574 3162.54 447.746C3154.75 447.745 3150.11 447.65 3145.52 448.133C3143.12 448.386 3139.97 448.815 3141.01 453.576C3148.97 456.991 3157.4 455.223 3165.8 454.109C3182.3 453.896 3198.8 453.413 3215.29 453.525C3252.4 453.779 3289.51 454.327 3329.79 455.854C3342.91 460.66 3352.69 460.66 3362.27 455.741C3366.24 455.486 3370.21 454.978 3374.17 455.014C3506.32 456.232 3638.47 457.502 3772.46 460.495C3774.3 464.959 3774.3 467.693 3774.3 470.426C3744.68 470.945 3715.07 471.525 3685.45 471.956C3670.97 472.166 3656.48 472.096 3638.9 471.149C3628.38 466.779 3621.22 467.353 3614.31 471.606C3589.69 472.144 3565.07 472.965 3540.45 473.173C3402.54 474.335 3264.64 475.732 3126.73 476.334C2832.92 477.616 2539.11 478.984 2245.29 479.333C1956.14 479.676 1666.98 478.946 1377.82 478.386C1277.89 478.192 1177.96 477.095 1074.91 475.33C1063.12 470.66 1054.64 470.922 1046.36 475.452Z" fill="#F7E0B5"/>
<path d="M2370.39 370.078C2369.75 371.546 2369.01 371.57 2366.18 371.588C2364.09 371.584 2362.12 371.487 2362.12 371.487C2362.12 371.487 2362.32 371.562 2361.84 370.521C2359.09 368.918 2356.82 368.356 2354.54 367.794C2354.54 367.794 2354.59 367.633 2353.65 366.536C2337.08 356.83 2320.12 354.363 2302.59 354.789C2260.47 355.815 2218.95 351.888 2178.18 340.752C2170.54 338.666 2162.48 338.149 2153.1 336.391C2144.61 335.875 2137.62 335.875 2130.06 335.875C2130.98 337.505 2131.21 338.465 2131.62 338.558C2139.19 340.238 2146.78 341.815 2155.64 344.061C2189.26 357.078 2215.9 377.23 2237.78 403.922C2240.27 406.959 2243.05 409.82 2246.08 412.297C2246.74 412.834 2249.04 411.368 2249.25 411.877C2250.87 419.906 2253.82 426.881 2257.24 434.952C2246.56 436.127 2237.98 431.975 2229.18 430.017C2203.93 424.401 2178.7 418.992 2152.62 419.763C2136.42 420.243 2121.36 424.182 2107.57 433.206C2100.99 437.513 2093.51 440.432 2084.63 443.876C2080.84 443.942 2078.85 444.114 2076.86 444.279C2058.09 445.833 2041.09 442.552 2027.89 427.48C2025.54 424.796 2021.46 423.631 2017.68 421.484C2017.92 418.957 2017.77 416.257 2018.5 413.823C2019.83 409.377 2021.55 405.029 2023.37 400.75C2025.97 394.626 2029.33 388.773 2031.37 382.48C2032.96 377.546 2034.04 372.037 2033.6 366.932C2032.51 354.131 2023.06 340.894 2009.36 331.792C2005.56 336.101 2001.48 340.371 1997.82 344.974C1988.83 356.263 1986.54 368.784 1991.41 382.518C1994.31 390.673 1997.16 398.846 1999.83 407.076C2001.88 413.397 2003.6 419.821 2001.94 424.589C1996.74 427.905 1992.72 429.885 1989.41 432.69C1979.19 441.332 1967.25 444.601 1954.23 444.567C1947.58 444.549 1940.94 443.986 1933.03 443.075C1925.95 439.343 1919.86 436.615 1914.37 432.987C1901.22 424.296 1886.71 420.074 1871.19 419.92C1859.95 419.809 1848.53 419.95 1837.51 421.832C1816.63 425.397 1796 430.379 1775.22 434.539C1772.37 435.109 1769.26 434.346 1764.87 434.131C1768.16 427.935 1771.01 423.457 1772.89 418.604C1773.67 416.6 1772.37 413.792 1772 411.439C1771.98 411.528 1772.04 411.701 1773.55 411.78C1778.08 409.427 1781.64 407.428 1784.06 404.493C1807.3 376.284 1835.67 355.344 1871.58 342.954C1879.03 341.271 1885.08 339.588 1894.36 337.006C1883.95 334.741 1877.06 334.672 1868.54 336.542C1857.23 338.444 1847.41 339.985 1837.81 342.385C1802.3 351.256 1766.26 355.165 1729.71 354.81C1722.43 354.739 1715.14 354.691 1707.88 355.053C1690.34 355.929 1674.08 360.7 1659.17 371.176C1656.85 369.343 1655.38 368.032 1653.9 366.72C1653.99 366.062 1653.91 365.322 1654.19 364.757C1678.84 314.569 1711.65 270.901 1757.06 237.565C1778.7 221.673 1802.49 209.744 1829.22 205.606C1842.19 203.597 1855.7 203.41 1868.81 204.437C1885.75 205.764 1900.66 213.187 1915.12 226.439C1918.31 228.8 1919.72 229.451 1921.13 230.103C1921.44 229.029 1922.2 227.836 1921.96 226.909C1921.53 225.287 1920.48 223.83 1919.69 222.304C1909.71 181.022 1918.83 143.408 1941.68 108.494C1947.5 99.6097 1953.47 90.8169 1959.7 82.2172C1975.68 60.1375 1990.49 37.3483 2002.88 13.0236C2004.92 9.02243 2007.63 5.36319 2011 0C2013.42 3.23134 2015.17 4.9445 2016.19 7.01801C2029.39 33.9564 2046.88 58.1959 2063.37 83.0966C2073.98 99.0987 2084.08 115.607 2092.57 132.793C2105.86 159.673 2109.95 188.339 2103.63 220.843C2103.28 224.726 2103.51 225.847 2103.74 226.969C2105.02 226.264 2106.31 225.559 2107.6 224.855C2126.5 209.936 2147.7 202.312 2172.06 203.211C2185.46 203.705 2198.4 205.932 2211.13 209.855C2231.63 216.176 2250.12 226.43 2267.4 238.983C2287.94 253.902 2305.74 271.702 2321.54 291.477C2340.63 315.375 2357.6 340.663 2370.39 370.078ZM1918.06 257.182C1916.95 256.389 1915.85 255.597 1913.52 252.445C1910.71 249.608 1908 246.672 1905.09 243.951C1889.26 229.174 1870.71 222.087 1848.84 222.624C1825.54 223.195 1804.41 230.344 1784.5 241.702C1752.16 260.15 1726.34 285.82 1704.12 315.347C1702.68 317.253 1702.25 319.908 1701.17 322.668C1724.46 326.114 1746.64 329.686 1768.91 332.542C1777.43 333.634 1786.25 333.957 1794.79 333.109C1813.94 331.208 1833.08 328.787 1852.09 325.789C1882.68 320.967 1911.64 324.929 1939.15 339.479C1947.27 343.773 1955.93 347.051 1964.82 351.007C1969.95 343.49 1974.02 336.316 1976.59 328.59C1972.43 326.412 1969.56 324.904 1965.77 320.826C1955.25 307.133 1944.74 293.439 1933.72 277.257C1931.76 274.642 1930.36 271.268 1926.11 269.335C1924.76 268.836 1923.42 268.336 1923.32 265.439C1921.77 263.349 1920.22 261.26 1918.06 257.182ZM2088.21 279.339C2087.46 280.642 2086.71 281.944 2083.51 284.352C2074.8 296.663 2066.09 308.974 2055.27 322.86C2052.23 324.492 2049.2 326.124 2045.99 325.358C2044.7 324.838 2043.4 324.318 2042.49 320.434C2041.02 316.01 2039.59 311.671 2041.98 307.007C2045.03 301.086 2047.71 294.981 2050.67 289.022C2057.8 274.714 2065.14 260.512 2072.15 246.148C2087.54 214.613 2086.41 182.873 2071.52 151.744C2064.94 137.994 2056.66 124.968 2048.25 112.212C2038.71 97.7635 2028.21 83.953 2018.01 69.9487C2016.23 67.4976 2013.88 65.4594 2011.98 63.4376C2009.69 64.8577 2008.25 65.2934 2007.53 66.2641C1993.66 85.0043 1979.66 103.654 1966.17 122.669C1960.41 130.788 1954.95 139.319 1950.77 148.319C1938.24 175.281 1934.18 202.837 1946.32 231.388C1955.7 253.445 1964.44 275.777 1973.21 298.089C1976.23 305.784 1978.46 313.79 1981.22 322.148C1989.37 318.245 1991.41 308.725 1999.15 301.954C2000.2 299.798 2001.25 297.642 2002.93 292.775C2005.72 289.398 2008.52 286.022 2012.31 281.438C2016.31 287.966 2019.36 292.951 2022.89 299.42C2023.71 300.736 2024.53 302.052 2026.97 305.514C2032.13 311.487 2037.29 317.46 2042.68 325.748C2043.95 326.301 2045.23 326.853 2046.11 330.276C2049.47 337.236 2052.13 344.603 2057 350.618C2076.58 342.549 2095.39 334.797 2117.48 327.257C2128.46 325.902 2139.43 324.548 2153.73 323.834C2166.24 325.632 2178.85 326.925 2191.24 329.333C2219.03 334.731 2246.71 334.694 2274.57 329.893C2288.29 327.528 2302.21 326.258 2316.02 324.375C2317.75 324.14 2319.37 323.188 2321.56 322.376C2320.66 320.05 2320.34 318.044 2319.26 316.596C2299.25 289.672 2276.02 266.054 2247.79 247.65C2232.07 237.395 2215.3 229.23 2196.86 225.371C2163.38 218.36 2133.26 223.364 2108.02 252.79C2103.49 259.074 2098.97 265.358 2092.16 272.767C2091.61 275.119 2091.06 277.471 2088.21 279.339ZM1824.81 400.413C1826.39 399.705 1827.97 398.996 1832.79 396.837C1837.93 395.536 1843.02 393.965 1848.22 392.985C1864.68 389.886 1881.24 389.247 1897.62 393.076C1911.44 396.305 1923.2 403.468 1933.91 412.855C1946.75 424.098 1962.16 426.902 1978.66 423.688C1983.88 422.67 1988.89 420.64 1990.83 413.029C1985.65 405.048 1978.75 396.742 1974.44 387.257C1968.1 373.277 1956.86 368.7 1943.18 366.292C1931.92 364.311 1920.83 364.087 1909.54 365.648C1889.67 368.398 1870.68 374.078 1852.52 382.473C1844.25 386.298 1834.8 387.991 1826.22 395.006C1824.51 396.073 1822.81 397.139 1819.92 398.946C1819.53 399.819 1819.15 400.692 1818.77 401.566C1820.19 401.19 1821.61 400.814 1824.81 400.413ZM2083.97 416.441C2098.15 403.863 2113.57 393.796 2133.01 391.495C2151.41 389.314 2169.6 391.402 2190.02 395.816C2186.97 392.281 2186.03 390.378 2184.51 389.56C2165.63 379.4 2145.7 372.075 2124.72 367.587C2105.5 363.475 2086.39 363.133 2067.44 369.063C2060.92 371.105 2056 374.446 2052.57 381.117C2048.67 388.717 2042.69 395.243 2037.66 402.273C2035.02 405.978 2032.48 409.76 2029.87 413.535C2034.88 422.038 2042.33 424.172 2050.54 424.764C2061.44 425.55 2071.73 423.305 2083.97 416.441ZM2204.33 401.579C2204.9 401.52 2205.47 401.461 2206.04 401.402C2205.66 401.25 2205.27 401.098 2204.33 401.579ZM2196.18 398.562C2196.57 398.257 2196.97 397.953 2197.36 397.648C2197.04 397.268 2196.75 396.62 2196.39 396.583C2196.04 396.546 2195.62 397.116 2196.18 398.562Z" fill="#F5DEB4"/>
<path d="M1772.04 411.701C1772.04 411.701 1771.98 411.529 1770.29 411.303C1743.35 402.804 1717.52 401.701 1691.57 406.198C1672.57 409.493 1653.79 414.093 1634.96 418.301C1612.22 423.381 1589.73 429.824 1566.78 433.6C1525.75 440.352 1484.41 441.447 1443.61 431.879C1427.09 428.007 1410.86 427.161 1394.17 428.764C1352.89 432.728 1312 429.744 1271.45 421.347C1291.39 421.509 1311.3 422.645 1331.23 422.743C1363.74 422.901 1379.43 420.861 1391.51 416.074C1382.8 408.16 1374.13 400.277 1366.36 391.624C1367.84 390.326 1368.43 389.798 1370.22 389.913C1383.11 398.357 1395.58 404.353 1409 408.72C1420.79 412.558 1432.36 413.329 1444.3 410.217C1453.31 407.871 1462.42 405.887 1471.39 403.42C1517.18 390.832 1560.65 372.759 1601.26 348.042C1604.88 345.836 1610.35 344.697 1609.27 337.27C1603.41 335.463 1597.31 332.724 1590.94 331.779C1570.59 328.755 1550.2 325.09 1529.7 324.041C1480.91 321.542 1432.77 328.172 1385 337.499C1313.68 351.425 1244.43 372.677 1176.31 397.69C1133.19 413.52 1089.61 427.803 1044.67 437.506C1025.19 441.712 1005.47 444.828 985.821 448.202C981.749 448.901 980.238 451.075 979.897 454.733C941.838 455.047 903.779 455.361 863.821 455.552C862.484 453.667 863.046 451.905 863.842 449.408C857.098 447.348 850.794 445.588 844.602 443.499C827.335 437.672 811.736 429.035 798.833 415.922C768.15 384.738 766.941 342.52 796.031 310.017C800.45 305.08 805.413 300.526 810.608 296.404C833.773 278.026 866.463 277.379 890.247 294.764C892.16 296.162 893.158 298.81 895.721 302.533C891.585 302.533 889.107 303.082 886.995 302.436C878.762 299.916 870.806 296.308 862.451 294.415C847.274 290.976 833.168 294.096 821.601 304.875C814.822 311.191 807.959 317.772 802.738 325.34C785.654 350.104 788.541 378.351 809.573 399.975C820.515 411.225 833.874 418.538 848.732 423.081C866.699 428.574 885.229 430.605 903.947 430.824C935.383 431.19 966.383 427.012 997.203 421.295C1053.69 410.816 1108.22 393.604 1161.86 373.333C1227.97 348.352 1295.32 327.499 1364.66 313.447C1421.03 302.025 1477.86 296.082 1535.43 299.482C1563.48 301.139 1590.96 306.021 1617.36 315.957C1633.72 322.116 1639.16 325.787 1650.85 337.591C1646.26 345.192 1638.43 349.176 1631.37 353.789C1604.51 371.362 1575.7 385.103 1545.66 396.316C1537.56 399.342 1529.28 401.922 1521.21 405.02C1518.39 406.099 1515.94 408.121 1510.65 411.339C1515.98 412.595 1518.27 413.789 1520.37 413.527C1543.55 410.64 1566.31 405.572 1588.51 398.389C1605.6 392.859 1622.29 386.087 1639.35 380.443C1645.69 378.344 1649.62 374.695 1652.86 367.707C1655.38 368.032 1656.86 369.344 1660.98 371.221C1674.69 369.677 1685.67 366.854 1696.83 365.646C1709.29 364.295 1722 363.267 1734.46 364.176C1749.58 365.28 1762.78 371.786 1770.44 385.84C1774.86 393.957 1778.99 402.632 1772.04 411.701ZM1507.96 410.566C1504.65 411.289 1501.35 412.013 1497.11 412.942C1502.33 416.544 1506.16 416.356 1507.96 410.566Z" fill="#F2DBB1"/>
<path d="M3776.15 470.735C3774.3 467.693 3774.3 464.96 3774.3 460.86C3778.93 459.241 3783.56 458.733 3788.19 458.775C3852.77 459.363 3917.35 460.026 3983.7 461.784C3985.64 464.3 3985.81 465.703 3985.99 467.106C3916.66 468.418 3847.33 469.73 3776.15 470.735Z" fill="#F5DEB4"/>
<path d="M218.406 461.366C228.986 460.936 239.563 460.244 250.146 460.123C285.277 459.719 320.41 459.432 355.543 459.334C361.168 459.318 367.821 457.72 371.216 465.685C368.625 467.121 366.019 469.52 363.113 469.968C357.922 470.768 352.547 470.569 347.254 470.479C305.501 469.769 263.75 468.986 220.176 466.848C218.371 464.104 218.388 462.735 218.406 461.366Z" fill="#F7E0B5"/>
<path d="M3139.4 341.22C3136.13 335.893 3134.44 330.398 3136.98 324.183C3140.46 315.666 3149.54 310.521 3157.79 312.576C3166.75 314.807 3172.33 322.598 3171.64 331.894C3170.96 341.182 3164.36 347.897 3154.7 348.032C3150.95 348.084 3147.16 346.122 3142.46 343.711C3141.15 341.217 3140.44 340.842 3139.4 341.22Z" fill="#F2DBB1"/>
<path d="M879.645 315.418C883.564 318.731 887.107 321.176 888.548 324.526C892.413 333.512 887.195 343.327 877.763 346.247C870.32 348.551 861.334 344.203 858.417 336.884C854.723 327.619 859.004 318.036 868.677 315.081C871.625 314.18 875.085 314.954 879.645 315.418Z" fill="#F2DBB1"/>
<path d="M854.185 356.25C858.723 357.164 863.222 358.456 867.805 358.926C890.108 361.214 907.007 338.975 898.95 318.018C897.124 313.269 894.888 308.677 891.455 300.854C897.329 303.709 900.902 304.307 902.496 306.408C912.358 319.399 911.44 336.516 900.638 350.643C891.288 362.872 877.451 366.301 861.573 360.277C859.715 359.572 857.945 358.637 855.102 356.914C854.071 356.02 854.185 356.25 854.185 356.25Z" fill="#DAC5A1"/>
<path d="M114.51 467.082C78.1222 468.3 41.7694 468.063 5.49397 464.486C3.67868 464.307 1.8304 464.463 0 465.353C37.0702 463.655 74.1499 461.516 112.915 463.65C114.527 465.141 114.51 467.082 114.51 467.082Z" fill="#C7B393"/>
<path d="M116.366 467.267C114.512 467.082 114.528 465.141 114.455 464.173C147.829 462.342 181.275 461.48 216.564 460.992C218.389 462.736 218.372 464.104 218.33 466.5C197.385 467.642 176.464 467.831 155.543 467.847C143.102 467.856 130.661 467.593 116.366 467.267Z" fill="#F2DBB1"/>
<path d="M3987.84 467.476C3985.81 465.702 3985.64 464.299 3985.52 461.836C4011.21 460.776 4036.84 460.776 4062.47 460.776C4038.5 466.834 4014.15 467.856 3987.84 467.476Z" fill="#AE9C81"/>
<path d="M3122.53 339.483C3117.12 319.13 3121.3 306.19 3137.5 294.873C3141.76 291.895 3146.78 289.988 3153.32 289.458C3155.49 292.614 3155.78 293.902 3156.08 295.19C3152.03 297.312 3147.83 299.19 3143.97 301.602C3131.21 309.561 3123.85 320.191 3126.66 337.646C3124.56 339.32 3123.55 339.401 3122.53 339.483Z" fill="#F5DEB4"/>
<path d="M3157.75 295.209C3155.78 293.903 3155.49 292.615 3154.75 289.394C3174.85 279.189 3194.56 279.617 3213.68 295.895C3214.12 302.267 3213.93 305.78 3213.73 309.293C3211.06 307.437 3208.23 305.766 3205.73 303.692C3194.4 294.27 3181.43 291.586 3167.15 293.919C3164.57 294.341 3162 294.79 3157.75 295.209Z" fill="#F7E0B5"/>
<path d="M3122.61 340.898C3123.55 339.401 3124.56 339.32 3127.09 339.183C3130.97 340.44 3133.33 341.752 3137.55 342.142C3140.44 340.842 3141.15 341.217 3141.38 342.669C3138.07 347.826 3139.52 351.705 3143.91 354.729C3152.5 360.641 3161.62 358.334 3172.59 356.168C3174.48 356.099 3174.28 355.95 3174.28 355.95C3165.91 364.072 3155.71 365.341 3145.09 362.661C3134.26 359.929 3126.87 352.719 3122.61 340.898Z" fill="#C7B393"/>
<path d="M3360.86 455.353C3352.69 460.661 3342.9 460.66 3331.63 456.24C3340.02 455.34 3349.73 455.153 3360.86 455.353Z" fill="#F5DEB4"/>
<path d="M543.771 471.84C551.949 466.534 561.74 466.563 573.016 470.943C564.628 471.849 554.903 472.041 543.771 471.84Z" fill="#F2DBB1"/>
<path d="M2542.91 418.919C2534.25 417.838 2525.59 416.756 2515.51 415.181C2514.13 413.153 2514.17 411.618 2514.24 408.93C2523.25 410.307 2532.24 412.837 2542.17 416.297C2543.11 417.226 2542.91 418.919 2542.91 418.919Z" fill="#766759"/>
<path d="M1047.71 475.848C1054.64 470.923 1063.12 470.66 1073.06 474.956C1065.92 475.855 1057.49 476.05 1047.71 475.848Z" fill="#F2DBB1"/>
<path d="M3164.99 453.126C3157.4 455.223 3148.97 456.991 3141.01 453.576C3139.97 448.815 3143.12 448.386 3145.52 448.133C3150.1 447.65 3154.75 447.745 3160.98 447.639C3163.12 449.166 3163.66 450.654 3164.99 453.126Z" fill="#F5DEB4"/>
<path d="M3615.61 471.937C3621.22 467.353 3628.38 466.78 3637.04 470.819C3631.16 471.751 3624.04 472.009 3615.61 471.937Z" fill="#F5DEB4"/>
<path d="M3214.2 310.332C3213.92 305.78 3214.12 302.267 3214.38 296.996C3219.89 299.683 3225.32 304.128 3231.36 309.774C3229.23 312.455 3226.5 313.934 3222.58 316.416C3219.15 315.404 3216.91 313.388 3214.2 310.332Z" fill="#F5DEB4"/>
<path d="M2533.08 299.31C2528.65 303.262 2522.81 304.064 2515.52 300.333C2520.2 299.433 2526.04 299.19 2533.08 299.31Z" fill="#F5DEB4"/>
<path d="M3178.98 351.716L3179.49 350.531C3179.49 350.531 3178.77 350.753 3178.75 351.174C3178.74 351.596 3178.98 351.716 3178.98 351.716Z" fill="#C7B393"/>
<path d="M2381.69 332.938C2382.56 334.09 2382.39 335.634 2381.97 339.491C2377.16 339.503 2376.99 336.655 2381.69 332.938Z" fill="#F5DEB4"/>
<path d="M853.951 355.972C853.832 355.924 853.991 355.133 853.991 355.133C853.991 355.133 853.524 356.172 853.855 356.211C854.186 356.25 854.071 356.019 853.951 355.972Z" fill="#DAC5A1"/>
<path d="M3174.54 356.21C3175.41 355.129 3176.21 353.937 3178 352.231C3178.98 351.716 3178.74 351.596 3178.68 351.485C3177.72 352.455 3176.82 353.535 3175.1 355.283C3174.28 355.951 3174.48 356.099 3174.54 356.21Z" fill="#C7B393"/>
<path d="M2630.43 420.057C2659.76 420.372 2688.29 421.988 2716.85 422.664C2729.25 422.957 2741.69 421.316 2754.16 421.349C2712.98 429.998 2671.47 432.793 2627.94 427.816C2627.43 425.239 2628.54 423.107 2630.43 420.057Z" fill="#F5DEB4"/>
<path d="M3052.94 448.241C3059.2 447.953 3065.55 446.885 3073.81 450.541C3070.52 452.65 3068.84 454.618 3067.12 454.656C3062.7 454.754 3058.25 453.997 3052.54 452.408C3052.09 450.385 3052.64 449.388 3052.94 448.241Z" fill="#F5DEB4"/>
<path d="M3051.32 448.331C3052.64 449.387 3052.09 450.385 3050.86 451.999C3044.58 452.529 3038.7 452.293 3031.54 451.691C3030.25 451.326 3030.31 449.421 3030.33 448.468C3036.8 447.817 3043.26 448.119 3051.32 448.331Z" fill="#766759"/>
<path d="M2417.91 336.041C2418.34 337.495 2417.91 339.248 2417.76 342.339C2414.24 341.692 2412.05 339.493 2417.91 336.041Z" fill="#F5DEB4"/>
<path d="M2251.42 411.875C2250.07 411.064 2250.01 410.351 2250.25 408.609C2252.46 407.622 2254.36 407.664 2257.7 407.798C2257 409.25 2254.86 410.612 2251.42 411.875Z" fill="#F5DEB4"/>
<path d="M2354.63 369.152C2356.82 368.355 2359.09 368.917 2361.93 370.583C2359.91 371.294 2357.32 370.902 2354.63 369.152Z" fill="#AE9C81"/>
<path d="M2543.45 418.72C2542.91 418.92 2543.11 417.227 2543.51 416.469C2544.91 416.683 2544.94 417.62 2543.45 418.72Z" fill="#F5DEB4"/>
<path d="M2362.5 371.955C2362.12 371.488 2364.09 371.584 2365.08 371.617C2366.07 371.651 2364.55 372.578 2364.55 372.578C2364.55 372.578 2362.87 372.422 2362.5 371.955Z" fill="#AE9C81"/>
<path d="M1998.46 302.545C1993.25 301.728 1989.48 299.665 1987.41 294.882C1982.69 283.912 1977.64 273.076 1972.64 262.225C1962.93 241.142 1963.68 219.719 1970.67 198.171C1972.31 193.144 1974.65 188.331 1976.85 183.508C1986.79 161.795 1996.77 140.103 2006.82 118.443C2007.61 116.734 2009.05 115.324 2010.17 113.799C2015.14 113.469 2015.12 117.755 2016.28 120.223C2025.3 139.439 2033.89 158.853 2042.91 178.064C2048.87 190.747 2053.61 203.692 2056.05 217.588C2058.31 230.396 2057.49 242.977 2053.4 254.959C2047.6 271.928 2039.48 287.887 2026.35 302.41C2024.53 302.051 2023.71 300.736 2022.3 296.926C2024.28 284.824 2026.33 275.046 2029.51 265.646C2036.29 245.558 2034.14 226.289 2025.48 207.4C2023.53 203.169 2021.39 199.015 2019.07 194.977C2016.94 191.26 2015.78 186.495 2010.04 184.833C2007.2 189.076 2004.57 192.812 2002.15 196.68C1989.45 216.95 1985.84 238.446 1992.63 261.71C1995.6 271.899 1997.21 282.483 1999.62 292.845C1999.86 293.877 2001.37 294.613 2002.29 295.486C2001.25 297.642 2000.2 299.798 1998.46 302.545Z" fill="#F3DCB2"/>
<path d="M2204.61 401.263C2205.27 401.098 2205.66 401.25 2206.04 401.402C2205.47 401.461 2204.9 401.52 2204.61 401.263Z" fill="#AE9C81"/>
<path d="M2106.72 224.023C2106.31 225.56 2105.02 226.264 2103.74 226.969C2103.51 225.847 2103.28 224.726 2103.55 222.588C2104.64 222.111 2105.24 222.651 2106.72 224.023Z" fill="#554842"/>
<path d="M2195.7 397.991C2195.62 397.116 2196.04 396.546 2196.39 396.583C2196.75 396.619 2197.04 397.268 2197.36 397.648C2196.97 397.952 2196.57 398.257 2195.7 397.991Z" fill="#AE9C81"/>
<path d="M1508.85 411.66C1506.16 416.356 1502.33 416.544 1497.11 412.941C1501.35 412.012 1504.65 411.289 1508.85 411.66Z" fill="#554842"/>
<path d="M2657.86 387.173C2662.41 382.187 2666.96 377.2 2673.24 372.164C2674.97 372.114 2676.3 373.328 2676.3 373.328C2672.45 379.049 2668.6 384.77 2663.11 390.151C2660.26 388.931 2659.06 388.052 2657.86 387.173Z" fill="#AE9C81"/>
<path d="M2656.85 387.782C2659.06 388.053 2660.26 388.932 2661.99 390.809C2660.39 393.916 2658.26 396.023 2654.31 397.781C2651.36 396.549 2650.23 395.668 2649.1 394.787C2651.35 392.655 2653.6 390.523 2656.85 387.782Z" fill="#DAC5A1"/>
<path d="M2648.04 396.5C2650.23 395.668 2651.36 396.549 2653.26 398.172C2651.49 400.577 2649.15 400.329 2648.04 396.5Z" fill="#F5DEB4"/>
<path d="M2680.2 361.908C2680.29 362.073 2680.11 361.743 2680.2 361.908Z" fill="#AE9C81"/>
<path d="M2674.31 371.493C2674.52 370.162 2675.39 369.452 2676.25 368.742C2676.57 369.766 2676.88 370.79 2676.75 372.571C2676.3 373.329 2674.97 372.115 2674.31 371.493Z" fill="#AE9C81"/>
<path d="M1360.15 387.757C1359.02 387.653 1358.21 387.088 1358.29 384.254C1359.35 381.721 1359.86 380.995 1360.36 380.27C1362.15 381.892 1363.94 383.514 1364.6 386.402C1362.37 387.697 1361.26 387.727 1360.15 387.757Z" fill="#C7B393"/>
<path d="M1351.77 373.232C1352.68 373.148 1353 373.56 1353.31 373.972C1352.6 373.891 1351.88 373.809 1351.77 373.232Z" fill="#C7B393"/>
<path d="M1358.06 383.521C1353.84 379.69 1353.84 379.69 1359.37 379.511C1359.86 380.996 1359.35 381.722 1358.06 383.521Z" fill="#C7B393"/>
<path d="M1360.86 388.729C1361.26 387.727 1362.37 387.697 1365.12 387.492C1366.78 387.317 1368.14 388.015 1368.58 388.643C1368.42 389.798 1367.84 390.326 1366.36 391.624C1364.16 391.497 1362.87 390.599 1360.86 388.729Z" fill="#F2DBB1"/>
<path d="M2000.21 357.34C2006.59 352.486 2012.09 351.869 2017.64 355.836C2022.52 359.332 2023.25 364.485 2022.65 369.91C2022.04 375.375 2017.82 379.593 2012.49 380.53C2006.29 381.622 2000.51 378.641 1997.79 373.294C1995.07 367.938 1996.48 363.131 2000.21 357.34Z" fill="#EFD8AF"/>
<path d="M1921.45 267.121C1923.13 268.59 1923.84 269.702 1925.5 271.141C1928.29 274.245 1930.14 277.022 1933.25 279.6C1932.45 287.308 1938.87 292.14 1941.34 298.41C1943.07 302.832 1948.32 306.381 1943.57 312.61C1934.79 305.412 1927.42 297.804 1920.14 290.113C1909.36 278.729 1896.79 270.62 1878.32 267.909C1874.1 267.393 1872.5 267.388 1870.9 267.383C1857.96 270.238 1845.03 273.093 1829.87 276.44C1833 280.61 1834.31 283.522 1836.55 285.155C1850.78 295.514 1866.54 301.972 1884.13 304.457C1900.62 306.785 1917.01 310.145 1931.7 318.659C1934.81 320.462 1937.39 323.167 1941.61 326.576C1937.55 326.576 1935.47 327.055 1933.71 326.502C1917.01 321.238 1899.89 319.407 1882.45 319.696C1863.53 320.011 1845.23 316.219 1827.97 308.885C1807.04 299.989 1786.06 291.919 1762.74 291.894C1763.36 289.481 1763.26 287.679 1764.01 287.196C1790.55 270.173 1818.97 257.549 1849.84 250.6C1871.54 245.714 1892.17 247.998 1913.02 259.644C1914.44 260.134 1914.8 261.57 1915.41 261.994C1917.5 263.867 1918.98 265.316 1921.45 267.121Z" fill="#F2DBB1"/>
<path d="M1871.97 268.531C1872.5 267.387 1874.1 267.392 1876.91 267.451C1875.45 269.451 1875.76 271.355 1877.66 273.856C1879.93 276.85 1882.53 280.021 1883.43 283.517C1884.46 287.487 1882.51 291.705 1878.37 293.043C1875.63 293.929 1871.92 293.665 1869.25 292.504C1865.26 290.766 1863.54 286.325 1865.01 282.568C1866.83 277.934 1870.3 273.946 1871.97 268.531Z" fill="#EFD8AF"/>
<path d="M2087.14 285.946C2088.34 283.516 2089.23 282.528 2090.14 280.509C2091.59 277.617 2093.01 275.755 2094.29 272.661C2100.51 266.949 2106.89 262.469 2114.1 256.965C2140.77 244.876 2166.89 246.145 2192.44 255.983C2212.17 263.58 2231.21 272.987 2250.45 281.824C2253.82 283.372 2256.65 286.079 2262.25 290.022C2257.13 291.203 2254.94 292.011 2252.71 292.171C2236 293.376 2220.04 297.335 2204.94 304.667C2188.67 312.57 2171.23 316.436 2151.99 319.776C2139.32 320.174 2128.2 320.247 2115.59 320.857C2106.29 322.344 2098.49 323.294 2087.1 324.681C2091.77 320.099 2093.54 317.323 2096.08 316.041C2109.88 309.047 2124.98 306.403 2140.07 304.181C2156.88 301.705 2171.88 295.199 2185.57 285.417C2187.56 284.001 2189.08 281.946 2190.97 280.033C2163.85 262.866 2131.85 264.107 2109.6 283.338C2099.58 291.996 2090.54 301.783 2079.78 311.479C2075.85 310.227 2076.1 308.005 2077.34 305.62C2080.49 299.539 2083.66 293.464 2087.14 285.946Z" fill="#F3DCB2"/>
<path d="M2059.99 391.745C2064.73 388.185 2068.51 388.206 2071.89 390.746C2075.91 393.773 2076.98 398.035 2075.25 402.79C2073.73 406.955 2070.42 408.591 2066.18 408.544C2061.13 408.488 2058.12 405.957 2057.38 400.233C2057.08 397.864 2058.32 395.296 2059.99 391.745Z" fill="#EFD8AF"/>
<path d="M1957.38 400.952C1953.84 405.205 1950.56 407.267 1946.31 405.871C1941.69 404.357 1938.86 400.1 1939.21 395.41C1939.53 391.025 1942.11 388.297 1946.15 387.011C1950.78 385.535 1955.13 387.196 1957.44 391.99C1958.46 394.109 1957.86 397.012 1957.38 400.952Z" fill="#EFD8AF"/>
<path d="M2149.66 290.073C2146.2 292.816 2143.4 295.151 2140.54 295.214C2135.48 295.326 2132.01 291.434 2131.47 286.717C2130.94 282.179 2133.9 277.514 2138.22 276.05C2142.72 274.53 2147.13 276.161 2149.52 281.067C2150.57 283.209 2150.09 286.094 2149.66 290.073Z" fill="#EFD8AF"/>
<path d="M2085.03 326.134C2084.07 326.079 2083.87 325.361 2083.67 324.643C2084.38 324.919 2085.09 325.195 2085.03 326.134Z" fill="#F3DCB2"/>
<path d="M2075.25 315.518C2074.78 314.239 2075.36 312.551 2077.33 311.222C2077.91 312.757 2077.1 313.933 2075.25 315.518Z" fill="#F3DCB2"/>
<path d="M2070.97 320.034C2070.82 319.311 2071.51 317.739 2073.44 315.773C2073.72 316.648 2072.77 317.917 2070.97 320.034Z" fill="#F3DCB2"/>
<path d="M2076.98 329.856C2077.23 329.685 2076.73 330.027 2076.98 329.856Z" fill="#F3DCB2"/>
<path d="M2023.25 235.729C2023.01 239.306 2023.14 241.541 2022.2 243.15C2017.34 251.444 2009.25 253.867 2002.35 249.374C1994.88 244.5 1993.73 233.367 2000.03 226.86C2005.49 221.225 2014.63 221.876 2020.9 228.638C2022.15 229.982 2022.4 232.254 2023.25 235.729Z" fill="#EFD8AF"/>
</svg>
