<svg width="4054" height="440" viewBox="0 0 4054 440" fill="none" xmlns="http://www.w3.org/2000/svg">
<path d="M419.672 152.771C407.896 145.464 395.721 141.893 381.693 146.269C358.035 153.647 347.694 172.88 356.392 196.183C365.009 219.268 380.778 235.556 404.549 243.515C428.456 251.518 452.95 251.978 477.68 249.352C520.936 244.759 563.056 234.588 604.155 220.875C666.048 200.222 727.512 178.277 789.064 156.613C841.203 138.262 893.086 119.155 946.687 105.316C982.318 96.1179 1018.42 90.5268 1055.35 91.2783C1073.46 91.6469 1091.24 94.3178 1108.43 99.8664C1147.77 112.561 1174.6 138.685 1189.14 177.244C1206.52 223.327 1176.09 270.647 1134.78 281.246C1121.84 284.568 1108.47 286.343 1096.87 274.929C1096.84 273.413 1097.1 273.095 1097.1 273.095C1110.05 280.159 1122.83 277.37 1135.44 272.2C1165.4 259.916 1191.71 218.158 1167.75 177.017C1150.15 146.801 1124.65 128.968 1090.3 123.088C1063.61 118.518 1037.2 121.172 1010.82 125.326C971.833 131.465 934.594 144.014 897.58 157.117C834.226 179.545 771.189 202.876 707.752 225.062C655.584 243.306 602.644 259.122 548.197 269.178C510.794 276.085 473.206 280.872 435.038 275.582C420.418 273.556 406.339 269.959 392.902 263.853C367.166 252.157 350.371 232.49 341.373 205.936C340.1 202.176 339.015 198.283 338.452 194.364C335.151 171.39 343.097 153.357 360.885 142.957C381.427 130.948 402.535 132.832 421.385 150.157C421.059 151.929 419.672 152.771 419.672 152.771Z" fill="#F5DEB4"/>
<path d="M2915.62 273.596C2916.44 276.766 2914.69 278.285 2912.11 279.621C2902.02 284.852 2891.26 284.474 2880.87 282.036C2832.86 270.775 2809.9 220.852 2821.58 183.937C2833.56 146.123 2857.19 118.882 2894 103.651C2913.92 95.4078 2934.92 91.9173 2956.41 91.3426C2998.8 90.2088 3039.95 97.7837 3080.56 109.145C3136.42 124.772 3190.78 144.85 3245.27 164.543C3303.52 185.595 3361.54 207.316 3421.01 224.8C3458.12 235.71 3495.58 244.975 3534.13 249.252C3555.5 251.621 3576.73 251.473 3597.74 246.66C3624.09 240.628 3643.67 225.879 3654.39 200.706C3656.94 194.713 3658.44 187.991 3658.99 181.483C3660.11 168.275 3653.98 158.153 3642.81 151.533C3627.29 142.328 3611.45 141.057 3593.73 151.82C3591.69 152.093 3590.29 151.038 3590.29 151.038C3590.48 150.4 3590.49 149.593 3590.89 149.149C3606.07 132.494 3624.62 132.173 3643.92 139.332C3662.31 146.153 3673.46 159.671 3674.75 179.639C3676.41 205.269 3665.41 226.265 3648.21 244.12C3629.32 263.735 3604.79 271.564 3578.58 275.474C3548.59 279.948 3518.77 277.598 3489.08 273.259C3426.3 264.082 3365.7 246.128 3305.95 225.392C3242.5 203.367 3179.49 180.069 3116.21 157.513C3085.51 146.569 3054.64 136.004 3022.68 129.315C2990.04 122.481 2957.2 117.608 2923.67 122.951C2886.02 128.949 2858.96 148.923 2842.01 183.028C2821.23 224.833 2854.4 269.875 2889.28 276.071C2897.37 277.509 2905.13 277.283 2914.5 274.36C2916.06 273.617 2915.62 273.596 2915.62 273.596Z" fill="#F5DEB4"/>
<path d="M1890.47 306.838C1843.95 297.414 1799.47 281.369 1754.99 265.305C1735.61 258.309 1716.24 251.313 1696.96 244.35C1670.43 260.523 1642.61 271.436 1613.42 278.913C1563.05 291.811 1512.13 295.339 1460.81 286.186C1421.48 279.172 1382.36 270.951 1343.12 263.398C1333.11 261.47 1324.22 257.575 1316.12 251.25C1308.79 245.52 1300.69 240.77 1293.07 235.387C1289.94 233.175 1287.19 230.437 1283.93 227.659C1290.52 224.381 1317.6 215.612 1321.72 216.018C1326.3 216.469 1330.85 217.662 1335.27 218.986C1381.26 232.749 1427.9 243.773 1474.97 253.104C1532.58 264.521 1589.02 259.303 1644.71 242.151C1650.25 240.444 1655.46 237.666 1663.74 234.147C1657.77 231.39 1654.68 229.548 1651.34 228.487C1624.64 220.006 1597.64 212.768 1569.78 209.139C1532.19 204.243 1496.63 208.587 1465.13 231.821C1463.56 232.977 1461.6 233.609 1459.11 234.839C1448.15 231.811 1436.74 228.659 1425.93 225.673C1424.36 220.159 1427.83 218.504 1430.38 216.787C1447.01 205.591 1464.51 195.909 1483.32 188.902C1505.58 180.61 1528.68 178.829 1552.22 180.967C1582.94 183.756 1612.62 191.091 1641.63 201.31C1657.94 207.055 1674.1 213.202 1689.9 219.011C1713.59 211.045 1741.77 171.195 1745.94 146.963C1750.1 122.827 1741.42 105.495 1719.09 94.6844C1706.17 88.4297 1692.79 85.1187 1676.67 88.2518C1674.77 85.7684 1674.68 84.6229 1674.59 83.4771C1697.9 74.0923 1719.28 79.8572 1738.79 93.2127C1758.31 106.585 1764.34 126.539 1761.46 149.321C1759.78 162.622 1755.73 175.465 1748.73 186.897C1742.16 197.629 1734.41 207.646 1726.98 217.837C1724.31 221.506 1721.07 224.765 1718.04 228.265C1735.63 241.324 1818.21 275.297 1889.12 300.058C1890.57 303.489 1890.52 305.163 1890.47 306.838Z" fill="#F4DDB3"/>
<path d="M2333.1 88.5985C2315.74 85.378 2300.02 89.7662 2285.57 99.2449C2272.33 107.934 2265.36 120.23 2266.08 136.292C2266.32 141.58 2266.67 147.047 2268.18 152.063C2276.61 179.938 2294.14 200.924 2317.76 218.115C2326.65 214.819 2334.71 211.867 2342.75 208.846C2377.76 195.685 2413.34 184.951 2450.81 181.212C2482.11 178.091 2511.98 182.131 2540.04 196.692C2550.67 202.209 2561 208.311 2571.34 214.379C2574.71 216.356 2577.64 219.071 2582.08 222.438C2579.04 224.426 2577.24 226.272 2575.08 226.909C2565.52 229.727 2555.86 232.198 2546.45 234.739C2544.24 233.729 2542.24 233.2 2540.7 232.048C2511.84 210.481 2478.94 204.795 2444.07 208.147C2413.44 211.089 2383.79 218.839 2354.61 228.407C2352.22 229.192 2350.18 231.069 2347.23 232.9C2358.74 240.509 2371.08 243.403 2383.13 246.66C2440.17 262.077 2497.6 263.653 2555.14 249.724C2595.9 239.857 2636.55 229.53 2677.1 218.829C2685.8 216.533 2693.69 215.7 2702.34 218.622C2710.49 221.376 2719.08 222.838 2728.99 225.234C2726.8 228.13 2725.44 231.136 2723.12 232.816C2712.32 240.621 2701.46 248.369 2690.21 255.488C2685.25 258.621 2679.51 261.014 2673.8 262.368C2623.22 274.365 2572.36 285.797 2520.53 289.783C2449.96 295.21 2382.54 282.376 2320.4 246.787C2318.12 245.485 2315.76 244.328 2312.7 242.708C2299.14 247.632 2285.42 252.618 2271.7 257.599C2227.89 273.507 2184.18 289.746 2138.98 301.441C2135.12 302.44 2131.17 303.133 2124.5 303.563C2119.35 301.972 2116.98 300.786 2114.62 299.6C2175.25 280.13 2233.6 255.038 2291.66 228.965C2291.47 221.692 2286.4 218.814 2283.17 214.993C2270.15 199.599 2259.74 182.782 2254.31 163.223C2239.42 109.593 2279.36 68.7786 2333.93 81.8053C2334.57 81.9586 2335.17 82.2547 2336.24 83.9393C2335.49 86.4622 2334.29 87.5303 2333.1 88.5985Z" fill="#F5DEB4"/>
<path d="M2370.34 155.011C2396.56 128.514 2386.61 93.5422 2369.72 73.5217C2351.58 52.0105 2327.63 44.0254 2300.28 45.2405C2285.58 45.8938 2271.29 49.2854 2257.66 54.9929C2216.11 72.3982 2178.92 96.5813 2145.97 127.29C2145.05 128.15 2144.56 129.472 2143.78 130.707C2143.29 136.152 2148.08 138.383 2150.96 141.728C2158.32 150.301 2166.52 158.245 2173.15 167.344C2178.56 174.773 2183.16 183.136 2186.38 191.737C2193.23 210.023 2187.85 225.755 2173.59 238.519C2164.52 246.628 2153.61 251.563 2142.24 255.629C2120.16 263.533 2097.15 267.207 2074.06 270.22C2057.58 272.372 2040.94 273.435 2024.36 274.741C2020.58 275.038 2016.72 274.327 2011.63 273.998C2027.89 215.244 2057.42 165.499 2099.09 121.279C2095.84 116.753 2093.17 112.385 2089.87 108.571C2075.48 91.9494 2061.25 75.216 2050.1 56.1623C2047.91 52.4258 2044.18 48.5188 2049.06 42.646C2062.04 50.7678 2068.92 64.9106 2080 74.8025C2090.89 84.521 2101.15 94.9468 2110.86 104.274C2119.39 104.579 2122.83 98.9414 2127.23 95.2485C2158.58 68.9272 2193.19 48.0246 2231.01 32.4336C2255.97 22.1445 2281.8 16.6233 2308.94 18.9016C2335.93 21.1682 2359.03 31.7815 2377.38 51.8823C2389.33 64.9709 2396.97 80.2778 2399.35 98.0146C2402.56 121.987 2397.38 142.992 2375.74 158.853C2372.5 157.488 2371.42 156.249 2370.34 155.011ZM2151.15 217.37C2161.14 211.425 2162.68 202.351 2157.46 193.329C2150.16 180.732 2141.38 168.978 2132.86 157.123C2130.77 154.205 2127.27 152.294 2123.88 149.478C2111.24 162.16 2100.95 175.213 2091.87 189.114C2082.64 203.248 2071.76 216.668 2067.28 235.369C2096.05 233.037 2123.1 230.693 2151.15 217.37Z" fill="#F6DFB5"/>
<path d="M1637.21 160.25C1612.22 144.765 1607.14 109.441 1616.97 83.2122C1631.86 43.4946 1662.1 23.5076 1703.18 19.0686C1728.11 16.3753 1752.21 21.0694 1775.55 30.094C1814.4 45.1109 1849.79 65.9649 1881.94 92.3819C1887.04 96.5674 1892.18 100.698 1898.18 105.572C1902.12 102.64 1906.15 100.399 1909.21 97.2329C1924.95 80.9959 1940.39 64.468 1956.08 48.1819C1958.56 45.6028 1961.79 43.739 1964.77 41.4722C1968.68 47.625 1965.75 51.7261 1963.12 55.3228C1950.94 71.9478 1938.53 88.4097 1926.07 104.832C1922.13 110.035 1917.78 114.932 1913.08 120.611C1954.74 164.728 1984.48 214.441 2000.75 272.543C1998.51 273.506 1996.85 274.878 1995.28 274.796C1956.68 272.789 1918.19 269.57 1880.85 258.857C1870.69 255.944 1860.69 251.793 1851.41 246.762C1844.55 243.045 1838.12 237.713 1833 231.794C1824.29 221.706 1821.49 209.66 1824.87 196.31C1827.9 184.405 1833.68 174.008 1841.42 164.743C1850.36 154.034 1859.83 143.765 1869.84 132.436C1867.69 129.626 1865.81 126.195 1863.06 123.726C1832.62 96.3728 1798.83 74.0791 1761.35 57.5911C1737.76 47.2158 1713.27 41.7266 1687.44 47.1487C1664.76 51.9104 1646.77 63.9993 1635.62 84.4251C1622.74 108.006 1621.55 131.369 1640.9 154.988C1639.77 158.156 1638.49 159.203 1637.21 160.25ZM1860.28 183.174C1858.25 187.326 1855.77 191.323 1854.27 195.659C1850.64 206.216 1852.72 211.805 1861.87 217.506C1864.1 218.9 1866.48 220.153 1868.93 221.107C1893.25 230.559 1918.63 233.719 1944.87 235.14C1938.25 210.488 1906.7 164.681 1886.37 150.117C1877.08 159.297 1869.23 169.81 1860.28 183.174Z" fill="#F6DFB5"/>
<path d="M1354.92 175.687C1334.81 191.72 1313.82 202.9 1290.22 209.062C1277.78 212.309 1265.21 212.906 1252.55 211.335C1241.62 209.98 1232.09 205.513 1224.73 197.111C1223.6 195.817 1223.28 193.813 1222.45 191.801C1249.73 196.406 1262.47 193.803 1286.6 178.1C1302.23 167.927 1316.74 156.346 1329.94 141.47C1321.7 132.482 1311 131.141 1301.05 129.384C1290.63 127.545 1279.83 126.599 1269.29 127.117C1259.45 127.599 1249.19 129.15 1240.11 132.732C1230.41 136.556 1221.86 143.31 1211.6 149.519C1212.34 145.983 1212.59 142.875 1213.65 140.082C1218.87 126.443 1228.68 116.608 1240.75 108.981C1281.9 82.9605 1349.02 84.1138 1386.48 129.025C1387.31 130.012 1387.67 131.378 1388.66 133.401C1381.15 149.42 1369.81 163.038 1354.92 175.687Z" fill="#F6DFB5"/>
<path d="M2792.63 192.742C2774.18 214.811 2749.73 215.652 2725 209.44C2681.3 198.462 2646.39 174.578 2623.49 133.4C2632.6 120.065 2644.53 109.912 2659.16 103.284C2696.1 86.5458 2732.75 87.7394 2768.47 106.966C2782.89 114.726 2794.11 125.927 2799.73 141.802C2800.52 144.048 2800.51 146.581 2801.27 151.616C2784.19 135.699 2766.51 127.544 2745.62 126.885C2724.15 126.208 2703.33 128.285 2682.76 139.61C2685.13 142.877 2686.64 145.594 2688.73 147.739C2701.35 160.647 2715.49 171.673 2730.88 181.068C2749.06 192.16 2768.1 198.65 2790.86 192.166C2792.19 192.861 2792.63 192.742 2792.63 192.742Z" fill="#F6DFB5"/>
<path d="M1216.8 240.122C1212.46 240.819 1209.52 239.475 1212.02 236.472C1219.96 226.954 1231.24 225.134 1242.84 225.461C1254.38 225.786 1265.23 229.152 1274.84 235.575C1302.62 254.139 1321.83 278.663 1326.89 312.58C1328.44 322.953 1331.71 333.299 1328.93 344.746C1315.66 348.12 1302.35 347.052 1289.22 346.586C1266.42 345.776 1244.28 341.39 1223.42 331.667C1211.8 326.247 1201.28 319.277 1193.54 308.873C1183.61 295.514 1181.5 281.065 1188.81 265.753C1189.29 264.748 1190.92 264.291 1192.01 263.581C1192.42 263.938 1193.16 264.263 1193.19 264.654C1195.17 285.909 1208.26 295.799 1227.97 299.841C1244.4 303.214 1260.81 304.277 1277.79 302.93C1278.22 300.604 1279.23 298.586 1278.79 296.966C1273.91 279.135 1263.9 264.333 1250.65 251.781C1241.62 243.234 1230.88 238.289 1216.8 240.122Z" fill="#F6DFB5"/>
<path d="M2734.26 300.555C2754.26 305.599 2773.25 302.942 2791.96 297.954C2809.4 293.301 2818.75 281.513 2819.37 261.076C2822.54 264.845 2824.89 266.5 2825.61 268.693C2830.79 284.463 2828.11 298.88 2817.18 311.519C2809.67 320.212 2800.3 326.42 2790.01 331.388C2771.78 340.19 2752.28 344.256 2732.36 346.114C2716.56 347.587 2700.69 347.332 2683.69 345.656C2681.17 330.639 2684.58 317.038 2687.61 303.784C2694.68 272.883 2713.9 250.572 2740.38 234.239C2753.28 226.284 2767.49 223.593 2782.54 226.498C2790.48 228.032 2797.41 231.216 2802.23 238.334C2800.49 239.373 2799.38 240.613 2798.53 240.451C2779.84 236.843 2766.32 245.58 2755.09 259.01C2745.23 270.788 2736.7 283.436 2734.26 300.555Z" fill="#F6DFB5"/>
<path d="M2922.51 346.922C2918.77 348.696 2918.91 352.166 2919.05 355.419C2919.84 373.755 2912.5 389.248 2901.66 403.179C2895.14 411.554 2887.58 419.138 2880.23 426.838C2876.2 431.062 2871.65 434.788 2866.61 439.404C2842.72 418.635 2825.41 395.058 2819.72 364.218C2817.26 350.92 2817.7 337.622 2822.76 324.887C2828.74 309.842 2839.12 299.683 2855.03 295.92C2858.96 300.387 2855.43 302.874 2853.87 305.207C2845.71 317.338 2845.46 330.011 2850.25 343.354C2854.54 355.316 2860.49 366.241 2868.92 376.908C2895.87 361.945 2897.45 338.679 2892.26 313.21C2904.31 312.052 2904.14 326.951 2915.34 328.789C2918.7 335.395 2920.61 341.159 2922.51 346.922Z" fill="#F4DDB3"/>
<path d="M1102.24 330.548C1108.94 319.069 1108.94 319.069 1118.88 313.095C1118.46 356.082 1119.13 357.977 1141.88 376.492C1153.87 367.303 1158.61 353.729 1163.43 340.175C1168.87 324.893 1164.54 311.47 1155.15 299.87C1158.16 294.635 1161.3 296.919 1164.11 298.004C1177.41 303.139 1185.69 313.104 1190.42 326.2C1195.07 339.037 1195.36 352.19 1192.73 365.504C1186.8 395.561 1169.8 418.594 1146.26 439.305C1126.96 422.387 1108.88 405.372 1098.48 381.653C1094.06 371.575 1093.41 361.113 1095.3 347.671C1098.39 340.15 1100.31 335.349 1102.24 330.548Z" fill="#F6DFB5"/>
<path d="M1100.93 329.801C1100.31 335.348 1098.39 340.149 1095.65 345.96C1091.5 349.965 1087.9 352.703 1084.9 355.999C1071.75 370.478 1055.31 378.166 1036.03 379.846C1017.37 381.473 999.045 379.679 980.604 373.457C977.482 364.039 981.216 355.006 982.811 346.218C987.42 320.818 998.39 298.36 1017.26 280.301C1025.57 272.348 1034.98 266.204 1047.13 266.383C1049.61 266.419 1052.08 267.255 1056.64 268.116C1032.96 286.077 1031.7 311.453 1026.47 336.486C1041.91 341.179 1055.04 338.798 1067.7 332.323C1080.04 326.014 1085.98 313.823 1093.25 301.657C1101.71 310.573 1096.13 320.846 1100.93 329.801Z" fill="#F6DFB4"/>
<path d="M2922.84 348.248C2920.61 341.159 2918.71 335.395 2916.09 327.922C2915.22 320.894 2915.07 315.577 2916.92 308.85C2919.93 307.352 2920.94 307.265 2921.94 307.176C2924.6 310.993 2927.13 314.911 2929.94 318.609C2943.44 336.339 2960.77 341.969 2985.71 336.171C2981.85 312.06 2979.71 287.476 2958.83 270.11C2959.98 265.272 2963.93 266.41 2966.78 266.446C2978.14 266.586 2987 272.473 2994.97 279.809C3010.06 293.682 3019.76 311.022 3026.04 330.264C3030.37 343.553 3032.54 357.345 3033.36 372.455C3029.03 373.891 3024.89 376.01 3020.55 376.559C3008.05 378.144 2995.45 380.215 2982.92 380.059C2958.3 379.754 2937.62 370.439 2922.84 348.248Z" fill="#F7E0B5"/>
<path d="M984.974 181.731C993.629 179.471 1000.62 177.251 1007.79 176.011C1020.98 173.728 1034.18 173.156 1046.95 178.532C1058.67 183.47 1066.94 191.151 1068.54 205.775C1059.14 207.051 1050.2 200.322 1041.35 205.24C1036.81 207.76 1031.93 209.649 1026.64 212.081C1029.26 229.544 1039.86 240.548 1054.51 250.754C1049.66 253.015 1046.96 255.043 1044.01 255.527C1022.97 258.98 1006.41 250.218 992.712 235.28C980.816 222.307 974.105 206.523 969.965 190.126C972.509 183.237 978.551 183.814 984.974 181.731Z" fill="#F6DFB5"/>
<path d="M3026.55 227C3018.36 238.832 3008.82 246.785 2996.98 252.12C2987.53 256.381 2977.77 257.438 2967.78 255.288C2964.92 254.672 2962.45 252.251 2958.51 249.883C2973.83 241.101 2982.03 228.903 2986.94 214.415C2970.49 202.958 2970.26 202.911 2944.34 205.427C2945.24 193.577 2951.41 185.36 2961.41 180.787C2968.49 177.55 2976.51 175.485 2984.27 174.815C3004.58 173.062 3023.19 180.315 3041.84 186.146C3040.01 202.452 3038.31 206.972 3026.55 227Z" fill="#F6DFB5"/>
<path d="M3422.44 173.725C3466.93 173.998 3509.42 174.241 3551.91 174.497C3555.89 174.521 3559.88 174.465 3563.85 174.724C3572.58 175.294 3573.09 176.085 3573.19 188.701C3568.91 189.281 3564.5 190.371 3560.08 190.402C3499 190.826 3437.91 190.797 3376.84 191.674C3364.33 191.854 3357.69 184.886 3348.55 175.929C3353.15 174.591 3355.93 173.085 3358.7 173.09C3379.28 173.124 3399.86 173.458 3422.44 173.725Z" fill="#F2DBB1"/>
<path d="M646.847 173.723C652.23 173.982 656.08 174.243 660.88 174.568C648.465 185.749 636.112 191.066 622.043 190.989C574.895 190.73 527.747 190.319 480.6 189.879C471.356 189.793 462.116 189.323 451.803 188.996C451.803 184.476 451.803 180.957 451.803 176.026C473.545 174.105 494.716 175.017 515.821 174.683C537.732 174.337 559.649 174.358 581.564 174.203C602.814 174.053 624.064 173.885 646.847 173.723Z" fill="#EFD8AF"/>
<path d="M1980.09 110.551C1987.65 96.0247 1998.4 89.692 2013.22 90.6798C2030.72 91.8458 2043.5 106.239 2043.07 124.146C2042.66 141.081 2029.99 154.477 2013.27 155.67C1995.27 156.955 1980.05 145.105 1978.25 127.751C1977.71 122.599 1978.98 117.259 1980.09 110.551Z" fill="#F7E0B5"/>
<path d="M4006.44 183.139C3949.27 184.431 3892.11 185.907 3834.93 186.951C3796.36 187.655 3757.79 187.757 3719.21 188.106C3712.63 188.165 3706.04 188.114 3699.61 188.114C3698.26 178.262 3699.13 176.311 3705 175.997C3710.31 175.713 3715.64 175.844 3720.96 175.918C3814.72 177.214 3908.48 178.529 4004.07 180.736C4005.89 181.633 4006.44 183.139 4006.44 183.139Z" fill="#EFD8AF"/>
<path d="M74.832 180.04C142.597 179.142 210.361 178.236 278.126 177.357C289.413 177.211 300.707 176.946 311.986 177.216C317.057 177.337 318.765 180.568 316.785 185.401C297.843 189.244 191.309 188.421 76.4641 182.561C74.8206 181.565 74.832 180.04 74.832 180.04Z" fill="#DAC5A1"/>
<path d="M392.752 199.929C381.853 200.527 376.385 195.75 374.886 186.547C373.608 178.709 378.645 171.645 386.045 170.278C394.892 168.642 402.108 173.492 403.475 182.243C404.737 190.323 402.501 196.705 392.752 199.929Z" fill="#F3DCB2"/>
<path d="M3628.58 170.762C3634.99 173.915 3637.88 178.121 3638.08 183.922C3638.36 191.832 3633.21 198.53 3625.97 199.912C3618.59 201.32 3612.2 197.965 3609.87 191.466C3607.24 184.117 3609.37 175.661 3615.81 172.197C3619.03 170.469 3623.4 170.894 3628.58 170.762Z" fill="#F2DBB1"/>
<path d="M2304.8 121.102C2302.83 114.888 2304.4 110.542 2307.17 106.703C2311.06 101.292 2318.73 99.8931 2325.03 103.06C2330.75 105.942 2333.24 112.924 2331.13 120.236C2329.17 127.071 2322.89 131.405 2316.12 130.26C2311.34 129.451 2307.52 126.983 2304.8 121.102Z" fill="#EFD8AF"/>
<path d="M2902.57 255.098C2894.04 252.324 2890.15 247.492 2890.37 239.834C2890.63 230.386 2898.89 222.891 2907.33 224.338C2915.59 225.753 2920.71 233.35 2919.17 242.244C2917.71 250.602 2912.7 255.077 2902.57 255.098Z" fill="#EFD8AF"/>
<path d="M1117.74 228.709C1119.97 232.789 1122.01 235.692 1122.25 238.738C1122.97 247.793 1117.41 254.476 1109.35 255.202C1101.12 255.943 1094.41 250.147 1093.45 241.451C1092.49 232.692 1097.24 225.47 1105.79 224.515C1109.27 224.126 1113.07 226.488 1117.74 228.709Z" fill="#EFD8AF"/>
<path d="M1704.53 105.442C1708.35 111.111 1710.2 115.874 1707.82 121.422C1705.09 127.762 1698.21 131.58 1691.79 130.098C1685.38 128.619 1680.83 122.58 1680.73 115.426C1680.64 108.925 1684.31 103.857 1690.41 102.053C1695.2 100.635 1699.55 101.638 1704.53 105.442Z" fill="#EFD8AF"/>
<path d="M2734.23 155.756C2735.75 145.87 2740.61 141.365 2749.23 141.756C2754.95 142.015 2759.26 144.851 2761.34 150.382C2763.73 156.718 2761.5 163.869 2755.9 167.925C2751.14 171.376 2746.17 171.428 2741.1 168.504C2736.76 166.001 2734.44 162.282 2734.23 155.756Z" fill="#F2DBB1"/>
<path d="M1250.76 152.669C1253.61 148.377 1255.69 144.47 1258.9 142.954C1266.33 139.445 1274.12 142.729 1277.24 149.588C1280.54 156.862 1278.23 164.725 1271.65 168.553C1264.81 172.537 1257.67 170.905 1252.93 163.521C1251.27 160.94 1251.27 157.298 1250.76 152.669Z" fill="#EFD8AF"/>
<path d="M2113.02 299.57C2116.98 300.787 2119.35 301.972 2122.96 303.664C2102.77 311.613 2080.69 315.173 2056.55 314.67C2055.04 313.796 2054.97 312.436 2054.97 312.436C2073.79 308.137 2092.61 303.838 2113.02 299.57Z" fill="#DAC5A1"/>
<path d="M72.9595 179.703C74.8326 180.04 74.8212 181.564 74.636 182.304C58.7377 187.079 42.9751 184.201 27.2538 183.218C18.1808 182.65 9.15433 181.34 0 181.129C23.6955 180.541 47.3909 179.954 72.9595 179.703Z" fill="#AE9C81"/>
<path d="M1891.89 307.481C1890.52 305.162 1890.57 303.487 1890.5 300.561C1904.2 302.356 1918.02 305.438 1931.85 308.433C1936.89 309.524 1941.98 310.409 1948.62 312.669C1950.19 313.951 1950.46 315.764 1950.46 315.764C1930.9 317.007 1912.1 312.596 1891.89 307.481Z" fill="#C7B393"/>
<path d="M1229.86 263.35C1241.96 263.447 1245.82 266.225 1245.94 273.467C1246.02 278.141 1242.74 282.431 1238.23 283.557C1232.64 284.952 1227.43 282.131 1225.88 276.699C1224.54 272.005 1224.95 267.596 1229.86 263.35Z" fill="#EFD8AF"/>
<path d="M2785.07 280.232C2781.13 282.131 2777.91 283.861 2775.01 283.443C2769.19 282.607 2766.18 277.647 2766.95 272C2767.76 266.113 2771.68 262.337 2777.28 262.047C2782.89 261.756 2786.8 265.095 2787.44 271.52C2787.68 273.97 2786.48 276.564 2785.07 280.232Z" fill="#EFD8AF"/>
<path d="M1053.71 301.558C1059.86 298.946 1063.88 300.535 1066.7 304.782C1068.99 308.208 1069.58 311.979 1067.25 315.818C1064.92 319.661 1060.02 321.354 1055.31 319.878C1050.91 318.497 1048.93 314.984 1049.17 310.953C1049.35 308.002 1051.39 305.164 1053.71 301.558Z" fill="#EFD8AF"/>
<path d="M2961.14 303.246C2962.6 306.706 2963.73 309.254 2963.55 311.706C2963.25 315.828 2961.22 319.101 2956.68 320.085C2951.64 321.176 2947.27 319.271 2945.12 315.101C2943.07 311.094 2943.98 307.373 2946.49 304.144C2950.33 299.224 2955.07 298.734 2961.14 303.246Z" fill="#EFD8AF"/>
<path d="M1147.62 341.873C1145.02 342.798 1143.67 343.409 1142.44 343.224C1134.88 342.091 1131.73 339.675 1130.95 334.733C1130.24 330.294 1132.24 326.911 1135.62 324.536C1139.96 321.492 1146.83 322.064 1150.22 325.646C1154.54 330.206 1154.42 335.026 1150.29 339.744C1149.85 340.24 1149.39 340.709 1147.62 341.873Z" fill="#EFD8AF"/>
<path d="M1637.99 161.41C1638.49 159.203 1639.77 158.156 1641.77 156.102C1654.97 160.979 1667.45 166.865 1681.39 173.446C1665.17 173.535 1651.16 171.358 1637.99 161.41Z" fill="#C7B393"/>
<path d="M2368.98 155.506C2371.42 156.248 2372.5 157.486 2374.55 159.486C2363.84 172.464 2348.33 172.157 2329.26 174.601C2344.55 167.19 2356.09 161.596 2368.98 155.506Z" fill="#C7B393"/>
<path d="M2878.13 325.346C2883.13 331.169 2883.1 335.966 2878.63 340.43C2874.84 344.206 2870.27 343.995 2865.73 342.121C2861.43 340.347 2858.49 335.021 2859.58 330.829C2860.63 326.78 2862.98 323.34 2867.5 323.075C2870.67 322.888 2873.91 323.9 2878.13 325.346Z" fill="#EFD8AF"/>
<path d="M1673.19 83.5742C1674.68 84.6218 1674.77 85.7673 1675 88.6316C1672.93 91.7717 1670.79 93.3169 1668.51 94.5938C1657.26 100.874 1650.21 110.208 1648.64 123.699C1643.59 113.237 1646.83 104.712 1653.27 97.9214C1658.56 92.3352 1665.56 88.3608 1673.19 83.5742Z" fill="#C7B393"/>
<path d="M1044.46 222.04C1045.1 218.926 1045.41 216.685 1046.69 215.434C1051.41 210.806 1056.73 210.352 1060.47 213.817C1064.84 217.863 1065.12 225.889 1061.03 229.657C1057.49 232.923 1051.6 232.67 1047.02 228.591C1045.7 227.413 1045.36 225.139 1044.46 222.04Z" fill="#EFD8AF"/>
<path d="M2948.97 219.527C2951.34 213.486 2954.82 210.883 2960.05 211.684C2964.29 212.336 2966.97 215.161 2967.99 219.328C2969.09 223.812 2966.68 229.151 2962.92 230.944C2958.8 232.902 2953.66 232.084 2950.67 228.143C2949.23 226.255 2949.23 223.28 2948.97 219.527Z" fill="#EFD8AF"/>
<path d="M4007.89 183.826C4006.44 183.139 4005.89 181.633 4005.9 180.83C4019.73 179.895 4033.55 179.708 4047.36 179.705C4048.89 179.705 4050.42 180.755 4053.57 181.91C4050.19 183.142 4048.52 184.257 4046.83 184.283C4034.33 184.482 4021.83 184.463 4007.89 183.826Z" fill="#AE9C81"/>
<path d="M2334.12 89.5056C2334.29 87.5305 2335.49 86.4624 2337.44 84.4629C2349.47 85.7573 2356.93 93.1199 2362.68 102.354C2366.49 108.469 2368.91 115.109 2364.09 124.388C2361.14 105.767 2350.5 95.894 2334.12 89.5056Z" fill="#C7B393"/>
<path d="M1965.97 34.9932C1970.03 23.852 1974.08 12.7107 1978.4 0.818359C1981.39 12.5042 1978.87 22.9998 1972.05 34.2815C1968.32 35.156 1967.15 35.0747 1965.97 34.9932Z" fill="#DAC5A1"/>
<path d="M2039.79 35.5017C2033.09 20.1924 2033.09 20.1924 2033.48 0C2038.17 11.7595 2042.21 21.8882 2044.78 33.6423C2042.13 35.3462 2040.96 35.4238 2039.79 35.5017Z" fill="#DAC5A1"/>
<path d="M2053.38 312.318C2054.97 312.436 2055.04 313.797 2054.75 314.414C2045.06 321.705 2034.91 318.004 2024.89 316.802C2033.86 315.269 2042.82 313.734 2053.38 312.318Z" fill="#AE9C81"/>
<path d="M1951.75 316.568C1950.46 315.765 1950.19 313.952 1950.18 313.035C1960.21 313.601 1970.25 315.084 1980.29 316.567C1980.21 317.33 1980.13 318.093 1980.05 318.856C1971.05 318.361 1962.05 317.867 1951.75 316.568Z" fill="#AE9C81"/>
<path d="M428.657 159.197C433.398 166.537 431.482 174.174 429.979 182.251C424.877 180.205 427.461 175.887 426.478 172.903C425.26 169.204 424.6 165.32 424.834 159.991C426.865 158.709 427.761 158.953 428.657 159.197Z" fill="#AE9C81"/>
<path d="M3586.63 161.485C3586.29 168.477 3585.95 175.469 3585.4 186.938C3580.55 175.63 3580.75 168.376 3584.23 160.376C3585.83 159.806 3586.63 161.485 3586.63 161.485Z" fill="#AE9C81"/>
<path d="M2921.98 306.31C2920.93 307.266 2919.93 307.354 2917.4 307.557C2916.49 306.022 2917.08 304.372 2917.68 302.723C2919.12 303.629 2920.56 304.536 2921.98 306.31Z" fill="#F4DDB3"/>
<path d="M2915.9 273.451C2916.2 273.583 2916.72 274.203 2917.11 274.126C2920.23 273.507 2917.04 273.331 2916.31 273.252C2915.61 273.596 2916.06 273.618 2915.9 273.451Z" fill="#F5DEB4"/>
<path d="M1097.04 273.436C1096.74 273.193 1096.23 272.706 1095.74 272.731C1095.35 272.752 1094.99 273.391 1094.61 273.755C1095.12 273.893 1095.62 274.031 1096.61 273.632C1097.1 273.095 1096.84 273.413 1097.04 273.436Z" fill="#F5DEB4"/>
<path d="M3585 159.401C3585.43 156.731 3586.7 154.464 3589.13 151.617C3590.29 151.036 3591.69 152.091 3592.38 152.642C3591.59 155.38 3590.11 157.568 3587.63 160.62C3586.63 161.483 3585.83 159.804 3585 159.401Z" fill="#F5DEB4"/>
<path d="M428.03 158.038C427.761 158.954 426.865 158.71 424.58 158.559C422.348 157.377 421.506 156.102 420.167 153.799C419.671 152.771 421.058 151.93 421.765 151.533C424.116 153.051 425.759 154.965 428.03 158.038Z" fill="#F5DEB4"/>
<path d="M1652.83 133.06C1653.07 132.914 1652.59 133.205 1652.83 133.06Z" fill="#C7B393"/>
<path d="M2352.39 137.123C2352.49 137.117 2352.29 137.128 2352.39 137.123Z" fill="#C7B393"/>
<path d="M1660.48 137.167C1660.58 137.177 1660.38 137.157 1660.48 137.167Z" fill="#C7B393"/>
<path d="M2360.01 132.887C2360.14 133.145 2359.88 132.629 2360.01 132.887Z" fill="#C7B393"/>
<path d="M2040.79 37.396C2040.96 35.4246 2042.13 35.3469 2045.07 35.1465C2047.71 37.2876 2048.79 39.8386 2045.84 41.1328C2044.94 41.5286 2043.17 39.9592 2040.79 37.396Z" fill="#F6DFB5"/>
<path d="M1965.26 37.0461C1967.15 35.0761 1968.32 35.1574 1971.26 35.3535C1972.43 36.5544 1971.91 37.696 1971.22 38.7158C1969.19 41.717 1966.98 42.6313 1965.26 37.0461Z" fill="#F6DFB5"/>
<path d="M2792.41 192.952C2792.64 193.041 2791.34 192.035 2791.34 192.035C2791.34 192.035 2791.62 192.124 2792.13 192.434C2792.63 192.743 2792.19 192.862 2792.41 192.952Z" fill="#F6DFB5"/>
</svg>
