<svg width="4018" height="530" viewBox="0 0 4018 530" fill="none" xmlns="http://www.w3.org/2000/svg">
<path d="M1935.11 371.007C1925.67 383.022 1917.37 396.178 1906.59 406.834C1877.33 435.762 1841.54 447.331 1800.64 442.373C1794.85 441.671 1789.23 439.602 1783.63 435.77C1789.02 435.635 1794.4 435.345 1799.79 435.388C1881.14 436.032 1946.04 343.052 1906.66 261.651C1899.33 246.495 1889.78 232.953 1878.04 220.991C1849.25 191.672 1814.61 172.622 1774.54 163.997C1740.65 156.703 1709.75 165.246 1681.79 184.794C1665.24 196.367 1655.47 212.997 1651.05 232.431C1644.98 259.137 1662 294.264 1686.44 307.145C1695 311.658 1704.03 313.11 1713.53 311.518C1729.51 308.839 1738.58 295.438 1735.17 279.374C1734.07 274.198 1732.46 269.129 1731.55 262.29C1732.02 260.568 1731.98 260.237 1731.98 260.237C1733.4 261.803 1734.82 263.37 1737.42 263.691C1738.61 262.446 1738.29 262.436 1738.29 262.436C1737.64 263.451 1736.23 264.754 1736.48 265.43C1737.41 267.895 1739.06 270.076 1740.14 272.496C1748.53 291.301 1746.02 304.915 1731.32 319.56C1714.31 336.511 1693.47 340.985 1670.61 336.891C1644.91 332.286 1624.87 318.07 1611.89 295.876C1586.81 252.993 1582.22 208.343 1604.55 162.538C1607.45 156.589 1610.4 150.667 1611.88 143.754C1610.44 142.776 1610.27 143.047 1610.27 143.047C1611.16 143.761 1612.77 145.182 1612.86 145.089C1616.14 141.822 1619.41 138.534 1622.4 135.005C1652.54 99.4184 1691.35 79.271 1736.63 70.4162C1769.37 64.0146 1801.65 66.9704 1833.69 74.7588C1840.13 76.323 1846.48 78.5725 1852.55 81.24C1881.46 93.9499 1907.71 110.812 1930.58 132.689C1950.12 151.375 1965.29 173.027 1974.62 198.575C1975.73 201.628 1977.3 204.515 1978.73 207.648C1984.09 206.135 1983.83 201.5 1984.97 198.404C1995.57 169.492 2013.63 145.941 2036.48 125.804C2056.62 108.052 2078.99 93.5161 2103.53 82.7932C2134.66 69.1948 2167.67 64.9988 2201.32 67.5683C2235.04 70.1428 2266.63 80.1748 2295.34 98.4228C2317.01 112.197 2335.52 129.332 2348.84 151.433C2377.36 198.755 2375.3 246.616 2349 293.781C2336.09 316.931 2315.81 331.906 2289.3 336.811C2265.58 341.197 2244.24 336.281 2227.02 318.277C2213.56 304.198 2211.27 290.503 2219.35 272.632C2220.45 270.215 2221.93 267.977 2222.74 264.121C2222.25 262.586 2222.29 262.879 2222.29 262.879C2223.75 263.958 2225.21 265.036 2227.32 266.59C2228.72 270.676 2225.24 274.46 2224.25 278.75C2220.64 294.478 2229.55 308.464 2245.22 311.367C2260.06 314.116 2273.06 309.824 2283.78 299.625C2308.53 276.089 2322.02 240.509 2295.16 202.717C2290.24 195.787 2284.02 189.213 2277.07 184.385C2249.74 165.391 2219.44 156.807 2186.32 163.745C2142.72 172.877 2105.51 193.899 2075.8 227.295C2055.33 250.311 2043.42 276.974 2041.25 308.257C2037.54 361.864 2082.47 434.754 2160.03 435.361C2165.33 435.403 2170.64 435.366 2176.74 435.366C2171.98 441.351 2165.69 441.574 2159.84 442.312C2119.83 447.361 2084.79 436.346 2055.03 409.108C2048.67 403.285 2043.03 396.678 2035.7 390.442C2034.36 390.453 2034.51 390.705 2034.92 389.632C2034.93 387.905 2034.53 387.252 2033.83 385.317C2029.69 378.181 2025.85 372.326 2021.63 365.085C2006.75 333.91 2003.46 302.81 2010.53 270.551C2015.72 246.825 2025.86 225.297 2040.57 206.054C2073.77 162.624 2117.73 135.826 2170.54 123.034C2205.6 114.542 2239.07 119.428 2271.23 135.241C2305.18 151.936 2329 177.116 2338.01 216.469C2338.41 231.113 2338.98 243.949 2339.63 258.425C2347.68 241.423 2348.32 235.678 2344.69 213.368C2338.25 176.17 2318.42 149.591 2289.65 129.128C2258.33 106.852 2222.95 95.0583 2184.84 95.5342C2100.08 96.5925 2037.82 135.987 1997.99 210.619C1989.18 227.118 1982.89 244.667 1982.15 263.739C1982.12 264.549 1980.81 265.31 1980.12 266.076C1979.46 265.669 1978.59 265.442 1978.43 264.968C1977.77 263.099 1977 261.176 1976.86 259.23C1975.48 240.915 1968.98 224.152 1960.42 208.283C1923.82 140.375 1866.93 101.978 1790.07 95.8589C1742.61 92.0805 1699.05 105.508 1661.53 135.569C1637.4 154.897 1620.75 179.193 1615.23 211.879C1614.74 222.923 1614.84 232.524 1614.77 243.095C1615.22 245.126 1615.84 246.186 1616.46 247.247C1616.96 245.595 1617.46 243.943 1618.07 240.671C1619.41 229.502 1620.64 219.954 1622.42 209.052C1628.28 192.525 1635.01 177.965 1646.35 166.405C1680.43 131.679 1721.74 115.021 1770.49 120.194C1785.51 121.79 1800.64 125.667 1814.89 130.814C1864.56 148.76 1905.16 178.804 1931.44 225.426C1956.02 269.057 1960.1 314.544 1939.48 361.189C1938.15 364.207 1937.21 367.4 1935.95 370.695C1935.82 370.879 1935.11 371.007 1935.11 371.007ZM2317.13 306.768C2318.16 305.962 2318.97 304.969 2320.93 302.028C2320.67 296.07 2317.86 299.043 2314.13 301.672C2313.23 302.522 2312.47 303.48 2310.55 305.652C2309.7 306.428 2308.95 307.285 2306.47 309.51C2305.1 311.201 2303.73 312.893 2301.54 314.89L2301.79 316.008C2301.79 316.008 2302.18 314.414 2304.67 314.695C2306.83 313.576 2308.99 312.457 2312.88 310.532C2313.98 309.82 2314.84 308.893 2317.13 306.768ZM2331.4 275.247C2331.4 277.389 2331.4 279.532 2331.4 284.756C2334.27 280.086 2335.49 278.107 2337.76 274.241C2337.56 272.522 2337.37 270.803 2337.18 269.084C2335.73 270.481 2334.28 271.878 2331.4 275.247ZM1627.46 274.541C1626.5 273.727 1625.55 272.912 1624.6 272.097C1624 273.601 1623.03 275.081 1622.93 276.616C1622.87 277.721 1623.98 278.898 1625.17 282.294C1626.34 284.285 1627.5 286.275 1630.22 289.979C1636.32 290.694 1633.49 287.263 1631.88 282.569C1630.75 280.55 1629.63 278.531 1627.46 274.541ZM1650.47 312.892C1655.44 313.21 1653.01 310.95 1650.53 306.937C1647.09 303.291 1643.64 299.645 1638.41 294.575C1632.35 294.72 1635.51 297.667 1638.01 302.162C1641.73 305.364 1645.44 308.566 1650.47 312.892ZM2328.62 291.624C2328.11 290.274 2327.6 288.924 2327.09 287.574C2325.88 288.853 2324.67 290.131 2323.46 291.41C2324.64 292.072 2325.81 292.735 2328.62 291.624ZM1621.72 262.865C1621.26 261.194 1620.79 259.522 1620.32 257.851C1619.82 259.451 1619.22 261.033 1618.89 262.667C1618.82 263.005 1619.71 263.542 1621.72 262.865Z" fill="#F6DFB4"/>
<path d="M3922.06 301.904C3827.5 303.83 3732.96 306.422 3638.39 307.535C3473.22 309.479 3308.03 310.415 3142.85 311.983C3081.58 312.564 3020.32 313.75 2959.05 314.621C2950.43 314.743 2941.82 314.637 2932.7 314.637C2929.15 306.049 2925.2 298.564 2926 288.219C2932.23 287.975 2938.05 287.506 2943.86 287.554C3033.77 288.293 3123.68 289.171 3213.6 289.867C3310.84 290.62 3408.09 290.994 3505.34 291.938C3633.88 293.186 3762.42 294.811 3890.96 296.337C3900.28 296.447 3909.59 297.062 3920.46 298.725C3922.02 300.007 3922.06 301.904 3922.06 301.904Z" fill="#F2DBB1"/>
<path d="M1514.12 334.184C1501.83 347.679 1485.68 355.137 1469.73 363.077C1431.02 382.343 1391.82 400.488 1351.48 416.127C1289.11 440.31 1224.8 445.27 1159.21 434.431C1121.44 428.189 1088.32 412.067 1062.37 383.109C1049.76 369.042 1040.03 353.391 1037.06 334.21C1034.09 315.04 1039.11 298.37 1053.21 285.179C1071.7 267.874 1092.89 258.557 1119.44 267.69C1119.07 269.95 1118.04 270.951 1117.01 271.952C1097.1 268.655 1080.34 275.185 1065.93 288.614C1049.34 304.083 1045.83 322.124 1055.36 342.912C1060.13 353.298 1067.06 362.181 1075.16 370.192C1099.34 394.095 1129.04 406.496 1162.26 410.174C1223.54 416.961 1282.87 409.133 1339.47 383.784C1382.56 364.489 1424.69 343.269 1465.16 318.975C1478.75 310.812 1492.55 305.86 1508.33 306.206C1514.92 306.351 1521.51 306.23 1528.67 306.23C1528.67 308.172 1528.67 310.03 1529.42 313.121C1530.17 314.356 1530.39 314.343 1528.65 314.593C1525.23 317.399 1520.75 319.734 1526.34 322.729C1526.4 322.595 1526.61 322.387 1525.04 321.586C1521.34 322.411 1520.87 324.421 1522.2 326.683C1522.3 326.547 1522.57 326.356 1521.12 325.868C1519.13 327.179 1518.6 328.977 1518.17 330.64C1518.27 330.506 1518.54 330.316 1517.19 330.122C1515.24 331.53 1514.63 333.13 1514.03 334.591C1514.04 334.451 1514.12 334.184 1514.12 334.184Z" fill="#F5DEB4"/>
<path d="M2838.61 267.307C2867.85 257.255 2890.84 268.645 2910.22 289.402C2924.72 304.937 2926.04 324.089 2920.44 343.755C2915.98 359.422 2906.93 372.598 2895.96 384.484C2870.07 412.544 2837.47 428.287 2800.38 434.414C2734.74 445.261 2670.38 440.282 2607.95 416.048C2568.21 400.618 2529.5 382.897 2491.41 363.787C2484.27 360.206 2477.18 356.499 2469.9 353.229C2463.07 350.16 2457.15 346.098 2451.27 337.944C2444.86 329.776 2439.89 323.679 2433.49 316.635C2431.42 316.631 2430.78 317.577 2430.3 318.601C2430.47 318.68 2430.74 318.912 2430.74 318.912C2431.49 317.444 2432.91 315.943 2432.84 314.518C2432.71 312.139 2431.64 309.808 2430.55 305.984C2452.98 306.089 2473.26 305.889 2492.87 317.971C2533.69 343.109 2576.67 364.401 2620.47 383.951C2677.2 409.275 2736.66 417.048 2798.03 410.108C2831.29 406.347 2861.02 393.757 2885.04 369.59C2895 359.566 2902.95 348.316 2907.3 334.578C2911.95 319.917 2909.45 306.535 2899.75 295.26C2884.6 277.657 2866.15 267.045 2840.17 271.681C2838.64 269.428 2838.63 268.368 2838.61 267.307Z" fill="#F6DFB4"/>
<path d="M578.328 308.34C510.374 307.479 444.413 306.75 378.456 305.75C324.494 304.93 270.536 303.82 216.578 302.733C211.493 302.631 206.423 301.775 199.57 301.091C202.344 298.405 203.538 296.21 204.928 296.078C212.196 295.387 219.511 294.953 226.813 294.909C356.076 294.14 485.34 293.565 614.601 292.689C743.86 291.813 873.117 290.638 1002.37 289.641C1010.2 289.581 1018.12 288.971 1027.08 291.016C1026.47 298.369 1026.07 304.669 1021.52 311.543C972.535 311.706 923.34 310.99 874.149 310.784C825.508 310.58 776.867 310.343 728.227 309.938C678.925 309.527 629.624 308.892 578.328 308.34Z" fill="#EFD8AF"/>
<path d="M2387.85 259C2391.69 267.354 2399.39 270.02 2407.39 270.382C2416.61 270.8 2426.17 270.678 2435.12 268.698C2456.75 263.913 2476.66 254.517 2495.41 242.783C2497.49 241.48 2498.9 239.098 2501.49 236.262C2477.9 217.984 2452.23 208.373 2423.28 208.5C2411.24 208.553 2399.41 211.094 2388.81 220.298C2388.05 221.538 2388.27 221.955 2388.27 221.955C2385.24 217.528 2385.67 213.499 2388.97 209.224C2400.18 194.741 2415.42 186.643 2432.82 183.47C2466.29 177.371 2497.86 182.918 2526.32 202.341C2541.52 212.719 2552.52 226.717 2560.83 244.498C2552.15 255.278 2541.61 264.211 2529.59 271.364C2500.79 288.504 2469.7 296.78 2436.07 294.857C2421.79 294.04 2408.34 290.401 2396.96 281.53C2390.83 276.76 2383.99 271.691 2386.93 260.72C2387.73 259.418 2387.85 259 2387.85 259Z" fill="#F7E0B5"/>
<path d="M1576.89 217.02C1573.74 216.915 1570.05 217.848 1567.52 216.543C1545.16 205.011 1522.45 206.944 1499.58 214.219C1484.92 218.884 1471.13 225.312 1458.39 236.593C1460.82 239.122 1462.54 241.809 1464.99 243.32C1481.48 253.505 1498.93 261.608 1517.61 267.003C1536.73 272.525 1555.48 274.291 1572.77 261.985C1576.66 265.83 1573.93 268.654 1572.27 271.198C1564.1 283.755 1551.56 289.827 1537.59 292.833C1487.36 303.646 1420.95 277.108 1399.08 243.418C1417.27 206.304 1448.03 187.02 1488.43 182.189C1498.26 181.014 1508.45 181.176 1518.31 182.275C1541.82 184.899 1561.79 194.303 1575.62 216.162C1576.5 217.024 1576.89 217.02 1576.89 217.02Z" fill="#F7E0B5"/>
<path d="M2362.28 82.9394C2365.6 81.0346 2369.29 79.5688 2372.2 77.1572C2400.75 53.4477 2433.28 45.8679 2469.47 52.6733C2475.27 53.7644 2481.04 55.0004 2488.01 56.4079C2487.56 60.8417 2487.55 64.6557 2486.74 68.2895C2482.23 88.4824 2476.46 108.261 2466.78 126.701C2459.61 140.351 2451.15 153.041 2439.92 163.743C2431.59 171.689 2422.14 177.765 2410.92 180.721C2396.24 184.586 2384.07 180.338 2369.67 167.808C2377.07 167.572 2380.04 167.215 2382.96 167.429C2396.49 168.42 2406.4 162.122 2412.77 151.047C2418.71 140.721 2423.64 129.72 2428.01 118.622C2430.87 111.346 2434.6 103.98 2433.6 94.5302C2430.63 94.0805 2427.52 93.06 2424.48 93.2487C2412.41 93.999 2400.95 97.3015 2389.78 101.947C2371.31 109.629 2357.95 121.284 2356.81 145.256C2353.61 141.27 2351.29 139.263 2350.09 136.723C2344.49 124.801 2348.69 113.239 2351.18 100.156C2350.47 98.6303 2350.29 98.7893 2351.9 98.4821C2354.94 95.6262 2358.4 93.299 2354.24 90.2951C2354.1 90.4365 2353.91 90.779 2355.38 91.2138C2357.43 89.8386 2358.01 88.0288 2358.43 86.3493C2358.26 86.4799 2358 86.8203 2359.39 87.0368C2361.38 85.6279 2361.98 84.0024 2362.47 82.5002C2362.37 82.6235 2362.28 82.9394 2362.28 82.9394Z" fill="#F6DFB4"/>
<path d="M1530.07 314.402C1530.86 315.945 1531.34 318.331 1533.92 316.63C1540.54 312.244 1546.72 306.942 1553.81 303.545C1568.12 296.694 1582.8 294.731 1597.15 304.125C1595.11 309.629 1590.27 308.096 1586.8 308.986C1578.77 311.051 1572.18 315.163 1566.6 321.103C1553.85 334.673 1545.27 360.347 1546.43 382.557C1549.44 382.557 1552.75 383.294 1555.57 382.429C1567.6 378.727 1579.73 375.139 1591.39 370.418C1610.69 362.6 1624.23 350.164 1621.01 327.342C1625.28 324.837 1626.64 327.834 1627.92 329.782C1636.79 343.243 1636.59 357.267 1629.86 371.453C1624.93 381.851 1617.8 390.794 1608.52 397.361C1597.72 404.997 1586.54 412.38 1574.69 418.167C1553.8 428.372 1531.35 433.729 1507.2 436.964C1499.62 407.566 1499.08 379.753 1510.6 352.288C1512.89 346.819 1515.09 341.309 1515.72 335.001C1514.12 334.184 1514.04 334.451 1515.56 335.435C1519.13 334.757 1519.62 332.724 1518.54 330.316C1518.54 330.316 1518.27 330.506 1519.59 331.044C1521.47 329.841 1522.02 328.098 1522.57 326.356C1522.57 326.356 1522.3 326.547 1523.52 326.787C1525.37 325.48 1525.99 323.933 1526.61 322.386C1526.61 322.386 1526.4 322.594 1527.93 322.175C1530.6 319.387 1536.18 317.571 1530.39 314.343C1530.39 314.343 1530.17 314.355 1530.07 314.402Z" fill="#F6DFB5"/>
<path d="M1610.58 142.69C1608.29 142.603 1605.87 142.603 1603 142.603C1601.41 121.465 1588.35 109.487 1569.84 101.994C1556.32 96.5182 1542.62 92.0736 1527.29 93.6959C1526.74 96.143 1525.68 98.0924 1526.03 99.7367C1529.69 116.73 1535.79 132.842 1544.56 147.861C1552.13 160.815 1562.47 169.184 1578.62 167.312C1580.55 167.088 1582.55 167.381 1584.5 167.588C1584.9 167.63 1585.23 168.358 1586.28 169.55C1582.94 175.61 1576.75 177.811 1570.65 180.088C1563.56 182.734 1556.36 182.727 1549.1 180.855C1537.87 177.961 1528.41 171.991 1520.05 164.114C1509.8 154.441 1501.78 143.07 1494.96 130.809C1482.86 109.076 1476.46 85.382 1471.21 61.3122C1470.96 60.1867 1471.82 58.8212 1472.41 56.6435C1514.16 44.6588 1553.25 48.4171 1587.93 77.6837C1590.46 79.8195 1593.14 81.7738 1597.06 83.1486C1598.38 82.4848 1598.13 82.244 1597.42 83.5019C1598.6 86.8224 1600.48 88.8849 1602.27 90.7751C1602.18 90.6022 1601.91 90.3175 1602.16 91.5646C1603.79 93.4906 1605.16 94.1696 1606.4 94.7174C1606.27 94.5861 1605.93 94.4396 1605.93 94.4396C1606.06 96.3344 1605.65 98.4906 1606.41 100.083C1612.61 113.034 1613.02 126.329 1609.78 141.504C1610.27 143.048 1610.44 142.777 1610.58 142.69Z" fill="#F6DFB4"/>
<path d="M2442.95 339.423C2458.78 368.244 2461.33 398.738 2454.32 430.402C2453.91 432.253 2452.81 433.952 2451.51 436.927C2414.27 431.168 2379.02 421.034 2349.51 396.164C2340.77 388.806 2333.46 380.235 2328.89 369.572C2321.88 353.184 2324.28 339.292 2337.38 325.261C2337.86 328.426 2338.62 330.757 2338.49 333.039C2337.66 348.274 2345.77 357.972 2357.95 365.346C2371.49 373.541 2394.32 381.05 2413.87 383.277C2416.36 365.187 2409.53 349.415 2401.89 334.099C2394.06 318.413 2386.96 313.702 2363.41 305.675C2364.19 300.698 2368.78 300.253 2372.07 299.435C2386.42 295.856 2399.85 298.959 2412.06 306.947C2417.61 310.573 2422.6 315.034 2429.29 319.014C2430.74 318.911 2430.47 318.68 2429.92 319.631C2429.8 321.174 2430.24 321.765 2431.03 323.502C2435.24 329.572 2439.1 334.498 2442.95 339.423Z" fill="#F7E0B5"/>
<path d="M1936.85 372.716C1935.11 371.008 1935.82 370.88 1936.17 372.711C1940.48 375.602 1942.52 372.928 1944.73 370.443C1947.97 366.792 1950.82 362.506 1956.73 361.077C1950.6 392.177 1950.06 400.071 1955.34 418.683C1960.56 437.085 1968.06 454.452 1982.66 469.737C1985.93 465.561 1988.66 462.821 1990.51 459.581C1995.76 450.385 2001.28 441.26 2005.56 431.608C2014.35 411.815 2014.54 391.813 2005.08 371.975C2003.57 368.824 1999.81 365.891 2003.34 361.07C2006.68 363.103 2009.98 365.113 2013.76 368.289C2018.8 375.218 2023.38 380.982 2028.71 388.191C2030.7 392.045 2032.39 392.4 2034.51 390.705C2034.51 390.705 2034.36 390.453 2034.33 390.309C2033.39 391.703 2031.41 393.535 2031.74 394.736C2040.37 426.302 2032.73 455.27 2017.91 483.104C2009.17 499.53 1999.02 515.041 1988.08 529.173C1982.13 530.37 1980.18 526.259 1977.59 523.543C1965.62 510.989 1954.51 497.753 1946.47 482.242C1930.19 450.823 1924.15 418.427 1937.05 384.155C1938.18 381.144 1938.11 377.678 1936.85 372.716Z" fill="#F5DEB4"/>
<path d="M2807.13 301.619C2807.71 304.821 2808.28 308.022 2808.81 310.962C2803.03 315.666 2796.8 314.158 2791.03 314.194C2751.8 314.434 2712.56 314.403 2673.32 314.461C2629.42 314.526 2585.52 314.075 2541.64 314.917C2524.27 315.25 2509.36 309.547 2493.93 302.444C2506.43 292.718 2520.03 286.643 2530.75 286.662C2621.2 286.824 2711.65 287.111 2803.71 288.975C2805.92 294.267 2806.53 297.943 2807.13 301.619Z" fill="#F4DDB3"/>
<path d="M1429.09 314.404C1338.82 313.958 1250.4 313.517 1161.98 312.999C1160.79 312.991 1159.61 312.015 1157.39 311.034C1155.47 304.464 1157.7 297.573 1158.3 289.314C1163.21 288.792 1167.61 287.935 1172.01 287.913C1253.13 287.506 1334.24 287.422 1415.35 286.7C1433.36 286.539 1448.59 294.609 1467.09 299.2C1456.19 311.079 1444.75 315.514 1429.09 314.404Z" fill="#EFD8AF"/>
<path d="M1742.04 390.495C1741.57 392.987 1740.4 395.586 1740.76 397.953C1742.62 410.197 1740.22 421.893 1736.38 433.314C1730.17 451.77 1719.16 467.586 1708.45 485.044C1674.61 467.795 1649.21 444.904 1639.59 408.13C1636.18 395.097 1636.22 381.63 1642.41 369.031C1647.11 359.446 1653.38 351.433 1665.04 348.303C1657.83 383.292 1667.73 406.022 1696.69 422.619C1714.46 401.343 1715.14 395.418 1704.27 356.606C1713.6 358.001 1713.6 358.001 1726.43 370.098C1730.56 377.063 1733.63 381.693 1737.48 387.467C1739.67 389.345 1741.09 390.079 1742.42 390.686C1742.34 390.56 1742.04 390.495 1742.04 390.495Z" fill="#F6DFB4"/>
<path d="M2233.86 369.716C2238.77 362.24 2245.7 357.654 2254.4 354.369C2256.89 361.681 2252.59 366.559 2250.68 371.804C2243.46 391.599 2249.21 408.001 2263.12 423.576C2279.39 413.155 2290.62 399.533 2296.61 382.183C2298.67 376.219 2297.79 369.079 2297.47 362.515C2297.28 358.754 2295.52 355.07 2293.81 349.018C2298.69 350.775 2301.87 351.169 2304.09 352.843C2316.07 361.9 2321.34 374.526 2322.04 389.179C2322.73 403.551 2318.5 416.795 2311.98 429.405C2298.88 454.735 2277.62 471.165 2253.29 484.199C2227.24 456.653 2215.52 422.351 2219.27 387.763C2218.09 386.37 2217.81 386.822 2219.3 386.864C2222.05 385.386 2223.33 383.866 2225.31 381.635C2228.63 377.188 2231.25 373.452 2233.86 369.716Z" fill="#F6DFB5"/>
<path d="M2233.01 368.177C2231.25 373.452 2228.63 377.188 2223.97 382.134C2220.55 384.503 2219.18 385.662 2217.81 386.821C2217.81 386.821 2218.09 386.369 2218.26 386.16C2214.99 387.941 2211.54 389.909 2208.12 391.929C2195.74 399.246 2182.3 402.583 2168 401.997C2145.55 401.077 2125.5 392.993 2105.64 381.162C2115.45 347.313 2132.31 319.599 2162.14 301.24C2168.77 297.158 2176.75 295.008 2184.35 292.833C2190.86 290.974 2197.3 292.324 2203.28 296.271C2178.85 315.398 2167.17 332.866 2162.28 357.274C2188.42 369.87 2203.87 366.093 2233.19 339.614C2238.33 349.033 2232.47 357.778 2233.01 368.177Z" fill="#F5DEB4"/>
<path d="M1736.7 386.322C1733.63 381.692 1730.56 377.062 1727.16 371.465C1725.79 360.739 1724.74 350.982 1723.69 341.157C1731.29 339.387 1733.08 345.868 1736.65 349.062C1755.04 365.52 1772.8 368.196 1797.03 357.664C1793.63 334.497 1779.05 312.627 1756.93 297.545C1767.52 291.523 1767.66 291.527 1776.04 292.792C1785.44 294.214 1793.78 298.195 1801.51 303.508C1817.09 314.218 1829.74 327.779 1838.62 344.431C1844.52 355.487 1849.19 367.197 1854.79 379.47C1850.94 382.223 1848.17 385.109 1844.78 386.464C1833.12 391.133 1821.46 396.047 1809.39 399.429C1789.36 405.043 1769.94 402.411 1751.69 392.176C1749.37 390.88 1746.98 389.721 1743.34 389.496C1742.04 390.494 1742.34 390.559 1742.46 389.018C1740.62 387.092 1738.66 386.707 1736.7 386.322Z" fill="#F3DCB2"/>
<path d="M2222.51 242.922C2222.79 241.304 2223.89 239.044 2223.21 238.176C2219.61 233.585 2214.08 232.645 2208.81 232.778C2202.94 232.927 2197.1 234.342 2190.92 235.255C2187.11 247.257 2192.12 256.711 2196.86 266.011C2199.17 270.537 2202.6 274.492 2206.31 279.832C2197.32 283.713 2189.94 282.577 2182.5 279.468C2167.66 273.266 2157.24 262.48 2150.13 248.297C2143.02 234.125 2140.54 221.554 2140.42 198.902C2143.85 198.116 2147.55 196.517 2151.24 196.553C2165.2 196.691 2179.19 196.857 2193.08 197.994C2203.23 198.823 2212.26 203.488 2220.07 210.047C2228.67 217.26 2233.19 226.289 2232.33 238.564C2228.3 238.858 2225.18 239.085 2222.14 241.093C2222.21 242.873 2222.51 242.922 2222.51 242.922Z" fill="#F5DEB4"/>
<path d="M1738.81 236.323C1735.77 237.516 1732.74 238.709 1728.27 240.463C1727.8 236.831 1726.71 233.807 1727.16 231.034C1728.72 221.426 1733.79 213.621 1741.85 208.321C1747.32 204.719 1753.32 201.581 1759.51 199.487C1773.84 194.644 1800.79 194.797 1819.01 199.191C1820.42 219.376 1816.07 238.381 1805.26 255.64C1798.07 267.118 1788.06 275.757 1774.99 280.273C1768.15 282.636 1761.29 283.813 1752.9 279.376C1763.19 266.731 1771.08 254.029 1770.56 237.397C1760.9 232.718 1751.66 230.84 1740.34 235.598C1738.97 236.649 1738.81 236.323 1738.81 236.323Z" fill="#F5DEB4"/>
<path d="M1598.45 82.6414C1598.94 81.572 1599.98 80.1792 1599.7 79.1443C1592.2 51.5505 1601.85 26.7476 1611.35 1.94922C1642.02 5.24097 1669.7 28.52 1676.37 56.1067C1679.43 68.7698 1677.9 73.8105 1667.99 83.6936C1658.09 56.6003 1653.15 51.4197 1630.78 44.6221C1620.61 60.7231 1619.86 73.0803 1627.57 97.4392C1625.28 101.471 1621.88 99.752 1619.06 98.6067C1615.39 97.1165 1612 94.9458 1607.21 93.7537C1605.93 94.4392 1606.27 94.5857 1606.6 93.1951C1605.74 89.677 1604.07 89.1833 1601.91 90.3171C1601.91 90.3171 1602.18 90.6018 1603.32 89.5454C1603.08 85.6685 1602.14 82.3962 1598.13 82.2437C1598.13 82.2437 1598.38 82.4844 1598.45 82.6414Z" fill="#F4DDB3"/>
<path d="M2350.59 98.6318C2349.32 97.8379 2347.76 96.1738 2346.55 96.4019C2342.23 97.2222 2338.03 98.6814 2331.39 100.585C2333.17 94.1799 2334.58 90.0588 2335.42 85.8245C2336.32 81.2871 2337.17 76.6389 2337.14 72.0459C2337.1 67.4424 2336.22 62.7859 2335.21 58.2659C2334.21 53.8406 2332.58 49.5581 2330.94 44.2603C2307.42 48.3999 2296.53 63.0171 2292.79 85.145C2282.03 78.5977 2281.03 69.0022 2282.7 58.9265C2284.58 47.5642 2289.6 37.3298 2297.35 28.8018C2310.66 14.1707 2327.58 5.7666 2347.2 0C2357.88 26.4465 2367.66 51.6934 2361.06 81.4153C2362.28 82.939 2362.37 82.623 2361.05 81.9314C2359.16 83.0999 2358.58 84.96 2358 86.8198C2358 86.8198 2358.26 86.4795 2357.19 86.4636C2355.38 87.8916 2354.64 89.335 2353.91 90.7786C2353.91 90.7786 2354.1 90.436 2352.79 91.0608C2350.46 93.9468 2345.11 95.4839 2350.29 98.7888C2350.29 98.7888 2350.47 98.6299 2350.59 98.6318Z" fill="#F4DDB3"/>
<path d="M4.07449 295.817C1.54373 295.826 -1.54492 294.841 0.880461 298.143C52.0519 293.722 103.358 295.082 154.62 294.622C160.583 294.569 166.574 294.96 172.5 295.613C173.757 295.751 174.789 297.934 177.26 300.635C172.72 301.546 169.779 302.718 166.874 302.633C115.581 301.136 64.2923 299.507 13.0059 297.805C10.3915 297.718 7.80759 296.715 4.07449 295.817Z" fill="#C7B393"/>
<path d="M1707.62 295.185C1700.29 299.203 1694.91 297.658 1690.12 293.443C1685.78 289.622 1685.09 284.491 1685.84 279.072C1686.82 272.084 1691.94 267.188 1698.8 266.576C1706.16 265.92 1712.87 271.049 1714.26 278.576C1715.42 284.8 1713.94 290.234 1707.62 295.185Z" fill="#EFD8AF"/>
<path d="M2245.4 285.064C2245.5 281.065 2245.23 278.218 2246.24 275.947C2249.7 268.235 2256.6 264.859 2263.55 266.961C2269.69 268.816 2274.16 275.057 2274.22 281.864C2274.29 289.458 2269.15 296.337 2261.89 297.323C2253.56 298.454 2248.23 294.321 2245.4 285.064Z" fill="#EFD8AF"/>
<path d="M2439.07 250.174C2431.71 252.621 2425.6 252.81 2421.57 247.336C2419.42 244.422 2418.25 240.148 2418.19 236.462C2418.07 229.373 2423.57 223.919 2430.33 223.159C2437.66 222.334 2444.54 227.771 2445.76 235.385C2446.68 241.129 2444.44 245.678 2439.07 250.174Z" fill="#F2DBB1"/>
<path d="M1518.49 248.685C1513.45 243.262 1513.15 238.089 1514.59 232.774C1516.17 226.988 1522.11 222.853 1528.02 222.994C1534.67 223.151 1540.53 228.346 1541.7 235.14C1542.91 242.079 1539.32 249.56 1532.92 250.84C1528.71 251.681 1524.03 250.18 1518.49 248.685Z" fill="#EFD8AF"/>
<path d="M3923.92 302.259C3922.06 301.904 3922.02 300.007 3922.15 299.067C3927.49 297.57 3932.72 296.408 3937.91 296.558C3964.31 297.322 3990.82 296.769 4016.56 303.251C4018.69 298.18 4015.43 297.848 4013.13 298.258C3984.19 303.414 3954.94 302.003 3923.92 302.259Z" fill="#C7B393"/>
<path d="M2873.21 299.072C2871.88 304.143 2871.09 308.32 2868.68 311.068C2864.28 316.081 2855.91 316.245 2850.75 312.386C2845.88 308.752 2844.05 301.01 2846.52 294.492C2848.63 288.925 2854.23 285.834 2860.76 286.451C2867.66 287.101 2871 291.559 2873.21 299.072Z" fill="#F2DBB1"/>
<path d="M1108 312.934C1102.77 313.885 1098.58 314.975 1095.12 313.841C1087.9 311.471 1084.75 303.55 1087.05 296.056C1089.09 289.399 1095.21 285.526 1102.3 286.41C1109.24 287.276 1113.87 292.391 1114.38 299.754C1114.72 304.679 1112.96 308.747 1108 312.934Z" fill="#EFD8AF"/>
<path d="M1554.63 133.828C1553.89 126.174 1556.94 122.447 1562.78 120.88C1567.71 119.558 1571.98 120.883 1575.11 124.855C1577.74 128.201 1578.32 131.964 1575.9 135.834C1573.22 140.127 1569.17 142.895 1564.39 141.636C1560.96 140.731 1558.14 137.482 1554.63 133.828Z" fill="#DAC5A1"/>
<path d="M2401.97 138.6C2398.43 140.383 2395.86 142.006 2393.51 141.729C2386.16 140.862 2382.07 136.331 2382.35 130.391C2382.62 124.548 2388.34 119.975 2394.8 120.423C2401.07 120.857 2405.15 125.136 2405.39 132.248C2405.45 133.993 2403.86 135.795 2401.97 138.6Z" fill="#DAC5A1"/>
<path d="M2185.74 336.222C2188.4 332.986 2190.54 330.018 2193.27 329.302C2198.33 327.975 2202.56 330.685 2204.43 335.007C2206.52 339.845 2204.27 345.567 2199.22 348.263C2195.25 350.381 2190.27 349.392 2187.16 344.995C2185.79 343.069 2185.99 340.036 2185.74 336.222Z" fill="#EFD8AF"/>
<path d="M2371.64 334.309C2383.87 335.894 2387.07 339.003 2385.93 346.389C2385.06 352.022 2380.59 355.666 2374.95 355.33C2370.05 355.038 2366.42 351.809 2365.69 346.812C2364.98 342.009 2365.78 337.661 2371.64 334.309Z" fill="#EFD8AF"/>
<path d="M2280.88 376.133C2279.75 388.368 2276.72 391.609 2269.23 390.754C2263.95 390.151 2259.24 385.125 2259.4 380.271C2259.54 376.033 2263.35 371.607 2267.86 370.65C2272.72 369.619 2276.94 370.725 2280.88 376.133Z" fill="#EFD8AF"/>
<path d="M1677.98 379.013C1680.12 372.734 1683.54 370.302 1688.7 370.334C1695.32 370.376 1700.11 374.995 1699.78 381.116C1699.46 387.156 1694.15 391.401 1687.55 390.753C1681.45 390.155 1678.38 386.507 1677.98 379.013Z" fill="#EFD8AF"/>
<path d="M1739.13 236.57C1738.64 237.645 1737.99 238.799 1736.75 241.02C1740.95 241.328 1744.66 241.386 1748.3 241.916C1753.76 242.712 1757 245.928 1757.58 250.611C1758.24 256.049 1755.16 260.418 1748.88 261.804C1746.45 262.338 1743.7 261.375 1739.69 261.766C1738.29 262.437 1738.61 262.447 1738.64 262.606C1738.13 254.677 1737.79 246.619 1740.47 237.787C1738.81 236.323 1738.96 236.65 1739.13 236.57Z" fill="#EFD8AF"/>
<path d="M1579.55 354.289C1576.69 350.852 1574.34 348.171 1574.05 345.287C1573.41 338.665 1576.47 334.793 1581.86 333.767C1586.58 332.868 1591.37 335.146 1593.26 339.189C1595.48 343.958 1594.55 350.203 1590.12 353.124C1587.71 354.707 1584.07 354.405 1579.55 354.289Z" fill="#EFD8AF"/>
<path d="M2808.37 301.396C2806.53 297.943 2805.92 294.267 2805.48 289.469C2808.8 289.225 2812 290.152 2814.21 286.586C2819.5 278.056 2826.32 271.268 2837.22 267.424C2838.63 268.367 2838.65 269.427 2838.5 272.071C2821.43 284.523 2821.43 284.523 2815.32 301.174C2813.47 301.174 2811.54 301.174 2808.37 301.396Z" fill="#C7B393"/>
<path d="M1754.25 338.882C1756.05 334.871 1757.32 331.423 1759.77 330.01C1764.92 327.039 1770.69 328.973 1773.23 333.5C1775.47 337.483 1774.91 342.76 1771.9 346.186C1768.31 350.276 1763.07 350.797 1758.07 346.856C1756.23 345.408 1755.49 342.57 1754.25 338.882Z" fill="#DAC5A1"/>
<path d="M1118.03 272.86C1118.04 270.95 1119.07 269.95 1120.9 268.23C1130.73 269.187 1137.17 274.786 1141.97 282.049C1147.92 291.059 1149.14 300.332 1139.3 309.58C1137.95 310.288 1137.76 310.329 1137.76 310.329C1141.65 305.444 1143.85 299.718 1141.46 293.919C1139.54 289.281 1136.33 284.742 1132.57 281.419C1128.78 278.062 1123.62 276.255 1118.03 272.86Z" fill="#C7B393"/>
<path d="M2222.4 262.612C2219.98 258.849 2216.86 261.864 2213.96 261.86C2206.53 261.85 2202.34 258.308 2202.13 252.104C2201.92 245.965 2205.79 242.403 2213.54 242.046C2215.4 241.961 2217.3 242.93 2220.85 243.168C2222.51 242.921 2222.21 242.872 2222.19 242.725C2221.51 248.367 2220.84 254.156 2221.24 261.412C2222.29 262.88 2222.25 262.587 2222.4 262.612Z" fill="#EFD8AF"/>
<path d="M2306.23 86.1369C2306.27 80.3608 2308.24 77.2265 2312.15 75.5544C2316.01 73.905 2319.71 74.3354 2322.92 77.1543C2326.18 80.0153 2327.02 83.7959 2325.66 87.6858C2324.3 91.5813 2321.2 93.9023 2316.97 94.3613C2311.71 94.9306 2308.44 92.3183 2306.23 86.1369Z" fill="#EFD8AF"/>
<path d="M1650.61 77.6885C1654.31 82.4266 1654.54 86.1934 1652.02 89.8924C1649.1 94.1753 1644.37 95.6077 1639.82 93.6712C1635.75 91.9388 1633.67 88.7054 1633.58 84.3382C1633.47 79.4957 1636.56 75.6429 1641.93 74.9043C1644.33 74.5733 1646.97 75.9705 1650.61 77.6885Z" fill="#EFD8AF"/>
<path d="M1732.17 260.644C1731.53 260.447 1730.75 260.174 1729.97 259.9C1729.86 260.388 1729.76 260.875 1729.65 261.363C1730.54 261.498 1731.44 261.633 1732.16 261.002C1731.98 260.237 1732.02 260.568 1732.17 260.644Z" fill="#F6DFB4"/>
<path d="M1576.59 217.152C1576.33 217.382 1575.97 217.485 1576.24 217.304C1576.89 217.02 1576.5 217.024 1576.59 217.152Z" fill="#F7E0B5"/>
<path d="M2388.14 221.737C2387.34 221.375 2386.44 220.836 2385.61 220.207C2385.56 220.171 2386.06 219.414 2386.3 218.992C2386.59 219.466 2386.88 219.939 2387.72 221.184C2388.27 221.956 2388.05 221.538 2388.14 221.737Z" fill="#F7E0B5"/>
<path d="M2387.84 259.219C2387.54 259.428 2387.13 259.834 2386.74 260.254C2386.71 260.288 2386.56 260.428 2387.29 259.758C2387.85 259 2387.73 259.419 2387.84 259.219Z" fill="#F7E0B5"/>
<path d="M1138.01 310.232C1138.08 310.176 1137.15 310.755 1137.15 310.755C1137.15 310.755 1138.29 310.795 1138.02 310.562C1137.76 310.329 1137.95 310.288 1138.01 310.232Z" fill="#C7B393"/>
<path d="M2828.28 316.412C2828.39 316.386 2828.17 316.438 2828.28 316.412Z" fill="#C7B393"/>
<path d="M1660.22 316.786C1660.47 316.655 1659.98 316.916 1660.22 316.786Z" fill="#AE9C81"/>
<path d="M2302.23 314.46C2302.18 314.414 2301.79 316.008 2301.79 316.008C2301.79 316.008 2301.54 314.89 2301.95 314.737C2302.36 314.584 2302.27 314.506 2302.23 314.46Z" fill="#AE9C81"/>
<path d="M1528.65 314.592C1536.18 317.571 1530.6 319.386 1527.87 322.309C1520.75 319.733 1525.23 317.398 1528.65 314.592Z" fill="#554842"/>
<path d="M1525.04 321.586C1525.99 323.933 1525.36 325.479 1523.42 326.922C1520.87 324.42 1521.34 322.411 1525.04 321.586Z" fill="#554842"/>
<path d="M1521.12 325.867C1522.02 328.097 1521.47 329.839 1519.49 331.178C1518.6 328.976 1519.13 327.177 1521.12 325.867Z" fill="#554842"/>
<path d="M1517.19 330.121C1519.62 332.723 1519.13 334.755 1515.55 335.573C1514.63 333.128 1515.24 331.528 1517.19 330.121Z" fill="#554842"/>
<path d="M2351.9 98.4819C2345.11 95.4841 2350.46 93.947 2352.93 90.9199C2358.4 93.2988 2354.94 95.626 2351.9 98.4819Z" fill="#554842"/>
<path d="M2355.38 91.2141C2354.64 89.3357 2355.38 87.8923 2357.36 86.334C2358.01 88.0291 2357.43 89.8389 2355.38 91.2141Z" fill="#554842"/>
<path d="M2359.39 87.0366C2358.58 84.9602 2359.16 83.1001 2361.16 81.8086C2361.98 84.0022 2361.38 85.6277 2359.39 87.0366Z" fill="#554842"/>
<path d="M1597.42 83.5004C1602.14 82.3951 1603.08 85.6674 1603.41 89.7169C1600.48 88.8834 1598.6 86.8209 1597.42 83.5004Z" fill="#554842"/>
<path d="M1602.16 91.5631C1604.07 89.1823 1605.74 89.6759 1606.73 93.3253C1605.16 94.1681 1603.79 93.4891 1602.16 91.5631Z" fill="#554842"/>
<path d="M1737.48 387.468C1738.66 386.709 1740.62 387.094 1742.54 389.147C1741.09 390.079 1739.67 389.346 1737.48 387.468Z" fill="#554842"/>
<path d="M2219.29 386.865C2219.18 385.663 2220.55 384.504 2223.26 382.846C2223.32 383.866 2222.05 385.387 2219.29 386.865Z" fill="#554842"/>
<path d="M1982.46 430.941C1972.21 429.566 1968.34 423.79 1968.07 415.65C1967.87 409.214 1970.89 404.216 1977.05 401.342C1982.62 398.743 1987.71 400.062 1991.93 403.67C1996.8 407.841 1998.81 413.577 1996.79 419.92C1994.83 426.048 1990.82 430.243 1982.46 430.941Z" fill="#EFD8AF"/>
</svg>
