<svg width="4083" height="418" viewBox="0 0 4083 418" fill="none" xmlns="http://www.w3.org/2000/svg">
<path d="M1593.34 112.212C1608.58 105.387 1624.86 102.069 1641.05 98.6447C1703.14 85.5107 1765.42 85.0341 1827.67 97.313C1873.9 106.433 1901.16 118.992 1944.19 149.905C1946.37 146.991 1949.06 144.305 1950.69 141.083C1970.57 101.765 1999.77 69.9902 2031.86 40.5519C2032.8 39.692 2034.2 39.3447 2036.74 38.0918C2071.86 70.3286 2104.18 105.272 2124.17 149.006C2126.85 149.006 2128.46 149.517 2129.16 148.933C2162.23 121.239 2201.01 105.855 2242.7 97.6646C2323.44 81.8035 2403.1 86.05 2481.25 112.731C2483.14 113.375 2484.93 114.283 2488.17 117.19C2489.56 120.379 2489.54 121.444 2489.52 122.51C2409.02 101.022 2328.65 103.144 2248.54 124.446C2223.33 131.149 2199.3 140.984 2177.34 155.365C2163.25 164.589 2150.92 175.616 2141.74 189.914C2138.84 194.427 2136.42 198.832 2136.27 204.574C2135.2 244.47 2116.25 275.607 2087.9 302.025C2084.49 305.2 2081.1 308.392 2077.74 311.618C2077.28 312.059 2077.05 312.742 2075.92 314.652C2075.95 321.2 2080.4 327.076 2084.57 332.917C2095.31 347.937 2109.58 358.777 2126.31 366.176C2168.23 384.725 2210.42 384.502 2252.26 366.107C2260.65 362.416 2268.79 357.142 2275.59 350.986C2300.49 328.433 2298.11 293.069 2270.71 273.503C2255.34 262.523 2237.86 259.456 2219.35 261.6C2213.41 262.288 2207.52 263.457 2200.01 264.413C2198.43 264.419 2198.77 264.422 2198.77 264.422C2213.52 251.131 2231.62 248.208 2250.39 248.668C2268.28 249.107 2284.15 255.696 2297.57 267.689C2323.79 291.129 2329.06 329.463 2310.43 360.595C2301.67 375.242 2289.69 386.871 2274.77 394.777C2216.57 425.635 2158.59 425.346 2101.98 390.91C2076.63 375.492 2059.3 353.068 2051.48 323.973C2050.45 320.131 2049.63 316.199 2049.12 312.256C2044.57 277.14 2054.57 241.004 2079.09 208.407C2071.77 241.004 2061.39 270.53 2071.77 303.008C2074.86 301.12 2076.92 300.048 2078.76 298.671C2079.78 297.898 2080.47 296.647 2081.24 295.568C2118.89 243.313 2120.97 197.075 2084.14 144.501C2070.62 125.188 2052.51 104.727 2035.45 90.2849C2032.25 92.974 2028.61 95.5442 2025.55 98.6864C2009.74 114.946 1994.84 131.979 1982.55 151.123C1974.98 162.926 1968.57 175.283 1964.6 188.849C1958.61 209.297 1958.82 229.663 1965.64 249.751C1972.29 269.345 1981.7 287.449 1997.58 303.632C1999.43 299.655 2001.18 297.058 2001.88 294.203C2006.25 276.216 2003.02 258.438 1999.8 240.733C1998.73 234.862 1996.73 229.161 1996.36 221.809C1998.75 220.3 1999.92 220.364 2001.1 220.427C2012.47 240.27 2020.5 261.184 2022.49 284.221C2026.05 325.396 2011.03 358.452 1979 383.95C1956.57 401.812 1930.58 411.812 1902.37 415.452C1868.58 419.814 1836 414.741 1805.22 399.745C1789.46 392.063 1775.7 381.756 1765.21 367.465C1745.94 341.216 1744.16 309.426 1760.48 283.215C1776.86 256.905 1808.51 243.596 1840.13 249.963C1851.25 252.201 1862.12 255.33 1871.63 263.718C1871.83 265.132 1871.76 265.52 1871.76 265.52C1865.23 264.214 1858.76 262.559 1852.19 261.669C1835.17 259.365 1818.91 262.037 1804.13 271.015C1772.33 290.34 1769.32 329.386 1797.84 353.278C1802.89 357.51 1808.58 361.292 1814.54 364.084C1860.92 385.816 1907.26 385.658 1952.83 361.966C1972.18 351.909 1987.28 337.186 1995.86 315.195C1992.96 311.996 1990.07 308.587 1986.94 305.428C1982.25 300.704 1977.17 296.362 1972.64 291.499C1950.64 267.868 1936.24 240.625 1935.07 207.774C1934.76 199.191 1931.73 192.373 1927.05 185.788C1916.41 170.844 1902.32 159.832 1886.68 150.655C1866.46 138.79 1844.82 130.23 1822.23 124.2C1747.6 104.276 1672.49 101.849 1595.15 117.18C1593.35 114.568 1593.34 113.39 1593.34 112.212Z" fill="#F5DEB4"/>
<path d="M585.326 300.196C578.183 301.427 570.943 304.106 563.915 303.631C537.667 301.857 511.33 283.353 516.396 247.074C520.52 217.543 536.368 195.277 561.828 179.992C576.89 170.95 593.559 166.554 610.826 163.799C642.192 158.794 673.32 161.586 704.354 166.258C767.173 175.716 827.785 193.832 887.569 214.689C950.436 236.621 1012.92 259.635 1075.65 281.977C1106.39 292.927 1137.34 303.36 1169.33 310.078C1200.73 316.671 1232.35 320.903 1264.56 316.487C1301.47 311.425 1329.14 292.985 1346.72 259.99C1359.15 236.684 1358.08 213.5 1343.15 191.973C1328.55 170.93 1308.69 159.029 1281.83 162.706C1280.56 162.88 1279.22 162.543 1276.41 162.329C1279.36 160.18 1281.2 157.89 1283.44 157.381C1293.98 154.981 1304.5 155.252 1315 158.35C1354.62 170.048 1384.4 216.215 1366.96 262.079C1349.29 308.515 1314.94 334.811 1266.82 344.205C1232.23 350.958 1197.79 347.932 1163.48 342.14C1122.63 335.244 1083.19 322.941 1044.2 309.31C977.582 286.016 911.24 261.92 844.665 238.485C800.053 222.781 754.99 208.471 708.689 198.494C680.651 192.452 652.43 187.714 623.556 188.525C608.784 188.939 594.389 191.275 580.49 196.283C559.942 203.688 545.562 217.813 536.589 237.525C523.523 266.227 536.506 290.108 567.654 294.407C572.143 295.027 576.867 293.944 583.27 295.152C585.147 297.836 585.237 299.016 585.326 300.196Z" fill="#F5DEB4"/>
<path d="M2802.73 162.555C2798.13 162.628 2793.33 163.599 2788.96 162.628C2760.11 156.217 2722.98 182.193 2717.17 217.72C2714.85 231.899 2716.59 245.502 2723.38 258.416C2740.73 291.407 2767.73 310.737 2804.59 316.225C2837.39 321.109 2869.68 316.87 2901.71 310.078C2937.59 302.469 2972.15 290.353 3006.61 278.056C3066.14 256.815 3125.44 234.937 3185.1 214.084C3236.63 196.073 3288.87 180.202 3342.68 170.48C3365.56 166.347 3388.75 163.513 3411.92 161.57C3435.93 159.558 3459.88 162.043 3483.09 168.769C3514.27 177.801 3537.32 196.533 3549.51 227.236C3551.7 232.752 3553.24 238.618 3554.34 244.461C3561.1 280.434 3534.49 303.347 3503.91 303.801C3498.71 303.879 3493.48 302.206 3486.75 298.922C3485.46 295.24 3485.67 293.978 3485.88 292.715C3498.02 296.774 3509.6 294.834 3520.59 288.988C3536.37 280.597 3542.95 266.057 3538.25 248.796C3531.52 224.122 3516.25 206.508 3492.4 196.996C3478.06 191.28 3462.95 188.887 3447.49 188.535C3412.54 187.739 3378.6 194.328 3344.9 202.512C3289.19 216.039 3235.23 235.158 3181.28 254.274C3121.07 275.608 3060.91 297.103 3000.51 317.897C2970.3 328.297 2939.49 336.862 2907.88 342.089C2873.58 347.763 2839.19 350.95 2804.6 344.271C2756.51 334.983 2721.98 308.909 2704.29 262.498C2687.98 219.738 2711.7 176.979 2748.06 161.227C2765.51 153.664 2782.95 153.725 2801.46 162.61C2802.75 163.032 2802.73 162.555 2802.73 162.555Z" fill="#F5DEB4"/>
<path d="M2217.25 356.03C2193.75 364.968 2172.56 358.691 2153.17 345.095C2135.77 332.904 2129.97 314.823 2131.34 294.3C2132.33 279.491 2137.04 265.675 2143.98 252.547C2160.12 222.024 2184.47 200.029 2214.8 184.334C2247.68 167.319 2283 158.207 2319.31 152.098C2366.05 144.234 2412.3 148.635 2458.35 157.061C2487.81 162.45 2517.01 169.176 2546.41 174.917C2558.41 177.262 2569.27 181.336 2578.9 189.174C2586.11 195.037 2594.3 199.677 2601.89 205.081C2604.39 206.862 2606.41 209.332 2608.41 211.266C2605.74 216.908 2601.16 215.458 2597.63 216.48C2593.15 217.775 2588.62 218.837 2584.11 220.005C2580.24 221.006 2576.38 222.794 2572.51 222.815C2567.99 222.839 2563.35 221.721 2558.96 220.414C2512.99 206.722 2466.37 195.809 2419.36 186.254C2361.07 174.406 2304.09 179.765 2247.82 197.036C2228.65 202.921 2210.58 211.459 2194.42 223.622C2175.41 237.938 2160.5 255.606 2151.59 277.809C2137.19 313.675 2151.93 341.306 2189.71 350.117C2197.66 351.973 2205.52 352.089 2215.19 351.196C2217.07 353.731 2217.16 354.88 2217.25 356.03Z" fill="#F5DEB4"/>
<path d="M1853.71 349.159C1871.58 354.47 1887.98 350.437 1903.33 340.972C1920.91 330.136 1928.1 313.516 1924.1 293.119C1921.91 281.922 1917.51 271.499 1911.51 261.784C1897.89 239.713 1879.37 222.978 1856.42 210.962C1828.94 196.571 1799.32 189.358 1769.01 184.247C1723.68 176.606 1678.7 179.158 1634.22 189.686C1594.1 199.182 1554.2 209.625 1514.3 220.042C1505.76 222.273 1497.81 223.739 1489.07 220.685C1480.96 217.85 1472.34 216.463 1463.88 214.422C1461.7 210.522 1464.48 208.436 1467.16 206.55C1478.6 198.516 1489.88 190.225 1501.7 182.778C1506.62 179.673 1512.58 177.84 1518.32 176.456C1566.88 164.747 1615.81 154.481 1665.52 149.683C1731.85 143.279 1795.56 154.759 1855.61 184.095C1882.44 197.198 1904.48 216.224 1920.68 241.564C1930.1 256.297 1936.85 272.067 1939.3 289.576C1943.29 318.066 1931 341.106 1904.87 352.781C1889.3 359.74 1873.25 363.163 1855.06 354.734C1853.68 351.348 1853.7 350.253 1853.71 349.159Z" fill="#F5DEB4"/>
<path d="M2667.99 251.195C2660.2 242.19 2649.94 243.623 2640.3 245.73C2632.61 247.41 2625.05 250.597 2618.04 254.277C2599.04 264.253 2582.45 277.59 2567.44 292.878C2566.13 294.217 2565.49 296.223 2564.02 298.846C2575.48 308.157 2589.38 309.727 2602.81 311.545C2615.98 313.327 2629.29 313.075 2642.49 309.912C2656.48 306.557 2668.4 299.79 2680.41 287.527C2680.08 293.05 2680.58 296.08 2679.63 298.561C2675.5 309.408 2668.3 318.088 2659.22 325.165C2615.59 359.174 2537.76 354.272 2504.41 306.253C2508.58 295.545 2515.6 285.999 2523.67 277.291C2546 253.21 2573.31 237.012 2605.19 229.654C2616.61 227.017 2628.98 227.576 2640.85 228.052C2651.06 228.462 2660.17 233.075 2667.07 240.899C2668.53 242.567 2668.42 245.633 2668.43 249.449C2667.83 250.843 2667.99 251.195 2667.99 251.195Z" fill="#F6DFB5"/>
<path d="M1403.37 250.885C1400.77 247.069 1400.94 243.584 1404.33 240.229C1411.74 232.908 1420.68 228.275 1430.93 227.901C1442.18 227.492 1453.95 226.725 1464.67 229.398C1506.27 239.774 1540.38 261.567 1563.25 298.886C1564.61 301.108 1565.53 303.597 1566.86 306.38C1557.96 319.57 1546.06 329.123 1532.05 335.572C1495.14 352.553 1458.39 351.324 1422.53 332.29C1408 324.578 1397.02 313.096 1390.93 297.532C1390.05 295.278 1390.37 292.555 1389.91 287.764C1407.04 304.134 1425.56 311.872 1447.04 312.37C1467.88 312.852 1488.06 310.528 1506.9 299.995C1505.8 297.303 1505.52 295.086 1504.28 293.795C1487.04 275.899 1467.83 260.552 1445 250.403C1432 244.625 1418.51 240.869 1403.85 249.697C1402.98 250.779 1403.37 250.885 1403.37 250.885Z" fill="#F6DFB5"/>
<path d="M2631.92 210.178C2583 187.725 2560.7 142.589 2564.43 95.2078C2565.54 94.5467 2566.61 93.3941 2567.76 93.299C2596.47 90.9324 2624.94 91.9535 2652.64 100.732C2668.63 105.8 2683.82 112.705 2695.38 125.35C2708.53 139.725 2713.39 155.782 2703.92 174.204C2698.89 173.374 2698.65 169.808 2698.09 166.637C2695.71 153.21 2686.73 145.611 2674.6 142.102C2664.46 139.171 2653.86 137.424 2643.34 136.35C2634.19 135.415 2624.86 136.155 2614.23 136.155C2614.44 139.681 2613.94 142.906 2614.92 145.585C2619.77 158.825 2627.01 170.738 2636.37 181.283C2647.53 193.854 2660.56 202.068 2678.42 198.645C2679.35 198.465 2680.53 199.529 2682.58 200.463C2677.23 208.342 2669.72 212.425 2660.94 212.704C2651.77 212.996 2642.53 211.494 2631.92 210.178Z" fill="#F6DFB4"/>
<path d="M1390.19 203.045C1390.52 200.884 1391.77 198.523 1392.54 198.671C1410.45 202.152 1423.46 193.817 1434.62 181.312C1444 170.801 1451.29 158.915 1456.13 145.64C1456.99 143.282 1456.92 140.583 1457.27 138.107C1437.28 133.492 1406.55 136.568 1390.69 144.326C1381.83 148.658 1375.55 155.037 1373.31 164.853C1372.59 168.033 1372.19 171.286 1371.22 176.952C1368.24 173.748 1366.14 172.384 1365.33 170.473C1358.96 155.397 1362.68 141.788 1372.17 129.371C1379.61 119.648 1389.55 113.015 1400.5 107.819C1414.42 101.208 1429.12 97.3426 1444.32 94.8124C1464.79 91.4032 1485.2 91.8686 1504.58 93.4012C1509.48 97.3754 1508.19 101.519 1507.83 105.343C1507.33 110.638 1506.43 115.893 1505.82 121.179C1501.74 156.682 1483.41 183.51 1454.06 202.535C1433.89 215.611 1412.32 220.004 1390.19 203.045Z" fill="#F6DFB4"/>
<path d="M1272.52 87.2372C1270.46 73.4684 1274 60.8877 1280.55 48.9044C1289.03 33.3822 1307.53 13.0734 1325.05 0.464844C1348.45 21.1128 1366.18 45.1169 1371.3 77.0552C1372.91 87.1111 1372.62 96.8911 1370.18 106.72C1365.47 125.694 1354.53 138.509 1335.21 143.314C1331.85 139.16 1334.98 136.74 1336.7 134.208C1344.88 122.166 1345.01 109.386 1340.7 96.0193C1336.4 82.718 1329.62 71.7739 1319.48 62.7343C1302.75 74.0104 1294.14 89.1183 1296.59 109.849C1297.2 114.954 1297.23 120.126 1297.63 127.009C1289.44 124.272 1286.02 118.699 1281.47 111.704C1280.11 109.321 1279.62 108.705 1278.71 106.663C1276.61 102.899 1274.95 100.53 1273.33 98.1913C1273.37 98.2223 1273.37 98.324 1273.53 96.4595C1273.3 92.1423 1272.91 89.6898 1272.52 87.2372Z" fill="#F5DEB4"/>
<path d="M2789.13 111.421C2785.25 116.621 2781.37 121.821 2775.7 129.436C2774.42 124.378 2773.5 122.212 2773.41 120.012C2773.3 117.378 2773.79 114.7 2774.19 112.068C2777.48 90.5922 2769.2 74.5007 2751.54 62.6509C2729.36 84.6693 2718.99 111.767 2737.3 141.019C2724.71 140.642 2717.44 136.92 2709.79 126.407C2700.29 113.355 2697.62 98.4397 2699.09 82.7524C2700.68 65.9165 2705.99 50.157 2715.16 35.9205C2723.83 22.4697 2733.88 10.1559 2747.11 0C2761.28 11.9967 2773.95 24.66 2784.44 39.3124C2793.93 52.5789 2800.23 67.1084 2797.82 86.9133C2794.17 97.0363 2791.65 104.229 2789.13 111.421Z" fill="#F7E0B5"/>
<path d="M2790.69 111.745C2791.65 104.228 2794.17 97.0354 2797.29 88.5239C2799.76 87.5484 2802.74 88.816 2803.33 88.1036C2831.28 54.3227 2867.45 54.9627 2905.52 63.45C2907.46 63.8819 2909.35 64.5313 2912.36 65.3955C2912.51 69.6024 2913.26 74.1513 2912.74 78.551C2909.88 102.683 2902.53 125.215 2888.02 145.046C2881.68 153.702 2874.47 161.533 2865.16 166.995C2857.03 171.76 2848.45 175.052 2838.71 171.154C2857.22 148.831 2864.65 129.07 2864.52 101.983C2850.51 98.0737 2837.21 100.248 2824.57 107.224C2812.52 113.876 2806.46 125.975 2798.26 140.331C2795.75 128.523 2794 120.297 2790.69 111.745Z" fill="#F6DFB4"/>
<path d="M1273.37 98.324C1273.37 98.324 1273.37 98.2223 1273.42 99.7777C1275.37 103.575 1277.26 105.817 1279.16 108.058C1279.62 108.705 1280.11 109.321 1281.05 110.337C1279.93 112.523 1277.49 114.081 1277.05 116.076C1275.82 121.758 1275.41 127.619 1273.14 134.599C1271.62 135.79 1270.11 135.904 1270.11 135.904C1267.41 131.337 1264.98 126.581 1261.96 122.236C1248.73 103.206 1231.01 97.0439 1206.45 102.677C1206.35 128.841 1214.12 149.512 1232.39 171.237C1224.15 174.289 1216.45 172.911 1209.52 168.73C1203.33 164.997 1197.08 160.84 1192.16 155.641C1168.68 130.861 1159.24 100.543 1157.56 67.4181C1179.42 58.5579 1207.1 56.0113 1226.44 61.2345C1242.92 65.6858 1257.01 73.9557 1267.86 90.7196C1270.37 94.7858 1271.87 96.5549 1273.37 98.324Z" fill="#F7E0B5"/>
<path d="M3613.57 257.439C3721.36 258.57 3827.19 259.557 3933.02 260.852C3982.92 261.463 4032.82 262.665 4082.83 266.357C4074.86 266.657 4066.88 267.152 4058.91 267.225C3996.34 267.799 3933.77 268.144 3871.2 268.843C3780.01 269.861 3688.83 271.13 3597.65 272.239C3590.42 272.327 3583.18 272.005 3576.34 271.88C3572.44 259.524 3573.56 257.297 3583.66 257.1C3592.97 256.918 3602.3 257.292 3613.57 257.439Z" fill="#DAC5A1"/>
<path d="M265.348 260.084C338.585 259.38 409.822 258.685 481.059 258.005C485.052 257.967 489.059 257.854 493.036 258.125C500.27 258.617 500.827 259.519 501.618 270.295C494.634 273.462 487.206 271.849 480.016 271.777C386.811 270.837 293.608 269.722 200.404 268.656C152.47 268.107 104.536 267.591 56.6024 267.011C41.9501 266.834 27.3065 266.532 13.0051 262.634C10.479 261.946 7.68698 261.595 5.12176 261.917C3.47647 262.124 1.7522 263.618 0.58615 264.982C-0.0765692 265.758 -0.194321 268.236 0.320037 268.561C2.31953 269.828 5.44047 271.96 6.77173 271.239C20.3296 263.89 35.1528 264.53 49.6887 264.215C120.905 262.672 192.128 261.44 265.348 260.084Z" fill="#DAC5A1"/>
<path d="M1569.79 261.288C1567.35 258.275 1565.83 256.226 1563.39 252.944C1569.28 252.295 1573.78 251.494 1578.3 251.349C1640.69 249.352 1722.49 250.1 1740.54 252.918C1739.62 258.477 1734.98 261.492 1732.14 265.46C1729.45 269.229 1726.87 273.427 1723.23 276.054C1720.32 278.165 1715.91 278.986 1712.15 279.04C1692.21 279.325 1672.26 279.234 1652.32 279.18C1635.7 279.134 1619.06 278.382 1602.47 279.046C1591.56 279.483 1583.02 276.509 1576.34 267.909C1574.72 265.826 1572.61 264.128 1569.79 261.288Z" fill="#F3DCB2"/>
<path d="M3273.35 274.876C3246.06 274.842 3220.77 274.807 3195.49 274.702C3195.1 274.7 3194.72 273.822 3194.33 273.353C3202.5 260.765 3211.28 255.005 3224.05 254.947C3245.36 254.849 3266.67 255.195 3287.99 255.327C3331.28 255.595 3374.57 255.841 3417.86 256.106C3421.86 256.131 3425.86 256.071 3429.85 256.323C3439.17 256.915 3439.42 257.329 3440.48 272.013C3412.77 274.326 3384.97 273.022 3357.25 273.597C3329.95 274.162 3302.65 274.456 3273.35 274.876Z" fill="#F2DBB1"/>
<path d="M1148.6 250.762C1151.74 232.932 1158.49 217.751 1169.7 205.015C1183.65 189.153 1200.64 179.815 1222.68 183.724C1225.13 184.159 1227.39 185.621 1230.58 186.958C1229.01 193.482 1222.65 194.368 1219.72 198.305C1216.54 202.569 1212.81 206.493 1210.15 211.048C1207.58 215.446 1206.06 220.459 1204.04 225.321C1216.9 235.654 1229.76 238.132 1243.38 232.324C1247.27 236.886 1245.66 240.689 1243.86 244.141C1238.2 255.017 1228.45 260.74 1217 263.091C1209.92 264.544 1202.33 265.071 1195.17 264.226C1179.35 262.356 1163.73 259.096 1148.6 250.762Z" fill="#F6DFB4"/>
<path d="M2441.33 250.918C2463.8 251.108 2484.27 251.293 2505.82 251.489C2505.55 258.741 2501 261.942 2498.27 265.938C2495.31 270.266 2491.9 274.286 2488.49 278.686C2444.35 278.686 2400.61 278.686 2356.31 278.686C2349.01 270.693 2341.49 262.749 2334.39 252.158C2347.25 249.183 2358.49 251.306 2369.57 250.986C2381.52 250.641 2393.49 250.91 2405.45 250.911C2416.74 250.912 2428.04 250.913 2441.33 250.918Z" fill="#F4DDB3"/>
<path d="M2862.77 264.483C2854.7 262.523 2847.84 261.653 2842.13 258.621C2832.63 253.579 2824.9 246.485 2825.25 233.203C2832.94 233.889 2839.92 235.198 2846.82 234.879C2851.26 234.673 2855.71 232.329 2859.94 230.449C2862.2 229.442 2864 227.39 2866.57 225.366C2863.33 209.268 2852.92 198.642 2839.38 188.528C2843.08 186.361 2845.05 184.543 2847.33 183.993C2858.04 181.405 2868.35 182.858 2878.37 187.457C2892.85 194.103 2903.56 204.823 2910.85 218.631C2916.06 228.492 2919.84 239.109 2924.41 249.753C2914.96 258.01 2904.04 258.602 2893.97 260.765C2884.31 262.838 2874.33 263.384 2862.77 264.483Z" fill="#F6DFB4"/>
<path d="M737.433 273.374C702.825 273.008 670.202 272.663 637.58 272.222C636.362 272.206 635.156 271.248 633.211 270.416C633.664 266.856 634.143 263.095 634.73 258.487C638.945 257.767 642.725 256.583 646.514 256.554C709.107 256.069 771.703 255.777 834.296 255.297C841.816 255.24 848.408 256.201 854.566 261.456C859.883 265.992 866.607 268.876 876.196 274.557C849.915 275.272 827.622 274.36 805.336 274.097C783.364 273.838 761.391 273.618 737.433 273.374Z" fill="#F3DCB2"/>
<path d="M2043.32 211.628C2036.51 211.655 2030.94 212.289 2026.02 210.8C2013.66 207.061 2005.36 194.587 2005.65 181.817C2005.96 168.333 2016 156.047 2029.18 153.034C2041.77 150.156 2054.84 155.916 2061.65 167.34C2068.29 178.481 2067.12 192.971 2057.94 202.455C2054.36 206.15 2049.26 208.373 2043.32 211.628Z" fill="#F7E0B5"/>
<path d="M2770.4 199.5C2771.49 195.042 2772.09 191.525 2774.07 189.194C2779.76 182.514 2789.08 182.097 2794.86 187.696C2801.51 194.136 2801.84 204.308 2795.62 210.526C2789.59 216.547 2781.22 216.443 2774.8 209.658C2772.68 207.422 2771.91 203.911 2770.4 199.5Z" fill="#EFD8AF"/>
<path d="M1291.63 184.963C1295.15 187.955 1298.07 190.055 1299.22 192.875C1302.78 201.615 1298.81 210.358 1290.4 213.744C1283.57 216.488 1275.77 213.199 1272.5 206.204C1268.76 198.193 1272.14 188.652 1280.64 185.002C1283.41 183.815 1287 184.546 1291.63 184.963Z" fill="#EFD8AF"/>
<path d="M2636.43 295.292C2626.69 298.803 2619.53 297.652 2615.4 288.547C2612.96 283.164 2613.79 278.085 2617.54 273.705C2621.26 269.365 2626.16 267.441 2631.82 268.967C2637.43 270.477 2640.85 274.329 2641.89 280.083C2642.89 285.6 2642.16 290.67 2636.43 295.292Z" fill="#EFD8AF"/>
<path d="M3514.9 244.443C3516.54 249.431 3518.06 253.352 3517.74 257.12C3517.13 264.389 3511.48 268.982 3504.36 269.154C3496.45 269.346 3490.59 264.353 3489.29 256.306C3487.96 248.049 3491.94 241.307 3499.39 239.393C3504.94 237.97 3509.87 239.113 3514.9 244.443Z" fill="#F2DBB1"/>
<path d="M1880.64 335.357C1875.01 336.16 1870.27 337.054 1866.06 335.935C1861.15 334.631 1857.91 328.272 1858.43 323.189C1859.08 316.812 1862.04 311.74 1868.28 309.444C1873.77 307.42 1878.89 308.899 1882.81 313.09C1884.49 314.894 1885.66 317.573 1886.14 320.034C1887.2 325.5 1886.1 330.588 1880.64 335.357Z" fill="#EFD8AF"/>
<path d="M1429.01 286.687C1429.78 281.455 1429.95 277.151 1431.99 274.113C1436.09 268.02 1443.36 266.906 1449.51 270.371C1454.93 273.43 1457.76 279.396 1456.64 285.408C1455.33 292.483 1449.9 297.296 1442.97 297.333C1436.4 297.368 1431.54 294.671 1429.01 286.687Z" fill="#EFD8AF"/>
<path d="M2185.09 318.279C2188.5 310.998 2193.42 308.186 2200.03 308.829C2205.05 309.318 2208.46 312.376 2210.77 316.74C2214.52 323.842 2212.31 332.255 2205.76 335.782C2198.15 339.881 2189.15 337.258 2185.73 329.348C2184.49 326.492 2185.01 322.877 2185.09 318.279Z" fill="#EFD8AF"/>
<path d="M565.699 269.02C556.681 266.951 553.021 262.062 552.983 254.559C552.95 248.164 555.347 242.898 561.452 240.167C566.603 237.862 571.856 238.231 576.44 241.616C581.878 245.631 582.789 251.456 581.405 257.599C579.75 264.939 574.771 268.654 565.699 269.02Z" fill="#F2DBB1"/>
<path d="M2218.66 355.974C2217.16 354.881 2217.07 353.731 2216.83 350.858C2219.5 347.46 2222.3 345.769 2225.13 344.116C2237.68 336.792 2244.16 326.404 2241.63 309.898C2241.57 308.326 2241.44 308.526 2241.44 308.526C2251.95 318.594 2247.75 329.016 2241.59 338.933C2236.58 347.014 2229 352.474 2218.66 355.974Z" fill="#C7B393"/>
<path d="M2668.31 167.622C2666.31 174.768 2662.44 177.706 2656.22 176.928C2651.52 176.338 2647.57 172.755 2647.6 167.547C2647.63 163.97 2649.2 159.841 2651.41 156.997C2653.8 153.914 2660.94 154.356 2664.11 157.644C2666.25 159.859 2667.05 163.376 2668.31 167.622Z" fill="#EFD8AF"/>
<path d="M1406.13 174.462C1402.92 170.031 1401.77 166.473 1403.66 162.323C1406 157.19 1409.29 154.856 1414.32 155.192C1419.07 155.51 1423.2 159.221 1423.87 163.792C1424.63 168.966 1421.63 175.023 1416.57 176.342C1413.66 177.099 1410.22 175.795 1406.13 174.462Z" fill="#EFD8AF"/>
<path d="M1245.31 123.414C1245.81 127.176 1246.49 130.018 1245.63 132.278C1243.7 137.365 1239.27 139.761 1235.02 138.886C1230.63 137.979 1226.76 133.545 1226.59 129.221C1226.4 124.018 1230.59 118.719 1236.05 118.717C1238.97 118.715 1241.88 120.986 1245.31 123.414Z" fill="#EFD8AF"/>
<path d="M2844.47 128.662C2843.68 131.77 2843.27 133.986 2841.94 135.194C2836.79 139.879 2832.03 140.179 2828.07 136.534C2824.31 133.063 2823.43 126.073 2826.28 122.159C2829.51 117.704 2836.55 117.538 2841.78 122.146C2843.13 123.334 2843.56 125.559 2844.47 128.662Z" fill="#EFD8AF"/>
<path d="M2740.23 107.716C2740.89 99.3356 2744.85 95.8777 2751.79 95.9025C2756.81 95.9203 2760.64 98.9938 2761.6 103.63C2762.73 109.044 2759.8 114.478 2754.51 115.825C2748.19 117.434 2742.83 116.266 2740.23 107.716Z" fill="#EFD8AF"/>
<path d="M1320.21 95.9434C1323.98 97.2163 1326.89 97.8812 1328.33 99.7056C1332.18 104.586 1331.76 110.275 1328.02 113.743C1323.83 117.639 1316.43 117.339 1312.08 113.095C1308.24 109.358 1307.88 103.881 1311.91 99.1467C1313.4 97.399 1316.37 96.921 1320.21 95.9434Z" fill="#EFD8AF"/>
<path d="M1241.76 214.477C1241.45 218.265 1241.59 221.271 1240.22 223.205C1236.97 227.771 1232.37 228.749 1228.16 226.646C1223.8 224.46 1221.42 219.743 1222.44 215.256C1223.68 209.768 1228.29 206.29 1234.17 207.663C1236.9 208.303 1239.09 211.286 1241.76 214.477Z" fill="#EFD8AF"/>
<path d="M2832.28 224.843C2830.47 222.086 2829.18 220.303 2829.16 218.501C2829.05 211.501 2831.74 208.089 2837.27 207.454C2842.94 206.804 2847.69 210.214 2848.66 215.626C2849.59 220.804 2846.77 225.424 2840.69 227.125C2838.54 227.726 2835.83 226.306 2832.28 224.843Z" fill="#EFD8AF"/>
<path d="M3484.96 291.923C3485.67 293.977 3485.46 295.239 3485.25 298.421C3465.13 291.794 3460.2 283.065 3462.91 257.818C3465.76 265.679 3467.67 271.612 3470.05 277.354C3472.74 283.832 3478.39 287.536 3484.96 291.923Z" fill="#AE9C81"/>
<path d="M586.738 300.109C585.237 299.014 585.147 297.834 584.861 294.89C600.93 282.15 601.279 281.669 608.295 259.93C611.335 279.197 604.645 292.101 586.738 300.109Z" fill="#C7B393"/>
<path d="M1591.85 112.215C1593.34 113.39 1593.35 114.568 1593.42 117.513C1581.03 123.415 1568.58 127.55 1552.85 132.776C1559.09 124.033 1565.91 122.238 1571.91 119.503C1577.92 116.765 1584.2 114.622 1591.85 112.215Z" fill="#C7B393"/>
<path d="M2490.58 123.319C2489.54 121.446 2489.56 120.38 2489.51 117.717C2500.9 117.831 2510.51 123.558 2520.47 131.176C2521.17 132.308 2521.27 132.161 2521.27 132.161C2510.52 132.703 2501.45 127.027 2490.58 123.319Z" fill="#AE9C81"/>
<path d="M1852.71 348.448C1853.7 350.252 1853.68 351.347 1853.58 354.082C1843.14 353.767 1836.15 347.037 1829.69 336.2C1829.62 331.969 1829.77 330.752 1829.91 329.535C1835.59 337.507 1842.71 343.751 1852.71 348.448Z" fill="#DAC5A1"/>
<path d="M1829.93 328.014C1829.77 330.753 1829.62 331.97 1829.15 334.996C1821.54 328.165 1820.71 319.103 1828.17 308.895C1829.3 308.218 1829.13 308.057 1829.13 308.057C1829.41 314.201 1829.68 320.346 1829.93 328.014Z" fill="#AE9C81"/>
<path d="M2000.94 219.203C1999.93 220.364 1998.75 220.301 1995.81 220.104C1992.63 216.068 1991.21 212.166 1989.09 206.355C1997.02 208.691 1998.35 213.861 2000.94 219.203Z" fill="#AE9C81"/>
<path d="M1541.62 136.776C1541.53 136.978 1542.59 137.167 1542.59 137.167C1542.59 137.167 1541.71 136.575 1541.62 136.776Z" fill="#C7B393"/>
<path d="M2529.32 136.319C2527.12 135.539 2524.93 134.76 2522.01 133.07C2521.27 132.161 2521.18 132.308 2521.1 132.366C2523.14 133.295 2525.26 134.165 2528.32 135.62C2529.28 136.206 2529.32 136.319 2529.32 136.319Z" fill="#AE9C81"/>
<path d="M1273.53 96.4606C1271.87 96.556 1270.37 94.7869 1268.74 91.8297C1269.24 90.0553 1269.87 89.4691 1271.52 88.0605C1272.91 89.6909 1273.3 92.1434 1273.53 96.4606Z" fill="#C7B393"/>
<path d="M1871.64 265.117C1872.04 265.297 1872.9 265.851 1873.21 265.631C1874.93 264.44 1874.64 264.008 1872.14 265.057C1871.76 265.521 1871.83 265.133 1871.64 265.117Z" fill="#F5DEB4"/>
<path d="M2198.36 264.577C2197.47 264.521 2196.65 264.309 2195.83 264.096C2196.06 264.486 2196.21 265.099 2196.54 265.213C2196.98 265.365 2197.55 265.132 2198.42 264.744C2198.77 264.422 2198.43 264.42 2198.36 264.577Z" fill="#F5DEB4"/>
<path d="M2237.39 303.695L2236.2 302.98C2236.2 302.98 2236.48 304.123 2236.87 304.026C2237.26 303.93 2237.39 303.695 2237.39 303.695Z" fill="#C7B393"/>
<path d="M2237.15 304.002C2238.14 304.945 2239.25 305.818 2240.9 307.608C2241.44 308.527 2241.57 308.327 2241.68 308.267C2240.64 307.355 2239.5 306.503 2237.88 304.674C2237.39 303.697 2237.26 303.931 2237.15 304.002Z" fill="#C7B393"/>
<path d="M1829.37 308.302C1829.74 308.293 1830.03 308.2 1829.73 308.081C1829.13 308.055 1829.3 308.217 1829.37 308.302Z" fill="#AE9C81"/>
<path d="M2811.35 170.117C2811.41 170.254 2811.29 169.981 2811.35 170.117Z" fill="#F5DEB4"/>
<path d="M1266.96 168.391C1266.08 168.315 1265.19 168.238 1264.3 168.162C1264.75 168.882 1265.19 169.602 1266.11 169.467C1266.6 168.612 1266.96 168.391 1266.96 168.391Z" fill="#F5DEB4"/>
<path d="M2802.97 163.114C2802.8 163.117 2802.4 163.038 2802.01 162.959C2802.35 163.097 2802.7 163.236 2802.89 162.965C2802.73 162.555 2802.75 163.032 2802.97 163.114Z" fill="#F5DEB4"/>
<path d="M1266.55 168.822C1266.51 169.031 1266.27 167.697 1266.27 167.697C1266.27 167.697 1265.8 168.929 1266.38 168.661C1266.96 168.392 1266.6 168.613 1266.55 168.822Z" fill="#F5DEB4"/>
<path d="M2529.32 136.212C2529.35 136.219 2529.84 137.12 2529.84 137.12C2529.84 137.12 2529.96 135.981 2529.64 136.15C2529.32 136.318 2529.28 136.205 2529.32 136.212Z" fill="#AE9C81"/>
<path d="M1270.18 136.711C1270.11 135.904 1271.62 135.789 1272.36 135.939C1272.15 136.565 1271.2 137.042 1270.18 136.711Z" fill="#C7B393"/>
<path d="M1402.9 250.965C1402.82 251.15 1403.08 249.885 1403.08 249.885C1403.08 249.885 1402.69 250.797 1403.03 250.842C1403.37 250.886 1402.98 250.779 1402.9 250.965Z" fill="#F6DFB5"/>
<path d="M2667.64 250.885C2667.45 250.929 2668.45 250.096 2668.45 250.096C2668.45 250.096 2667.33 250.431 2667.66 250.812C2667.98 251.193 2667.83 250.841 2667.64 250.885Z" fill="#F6DFB5"/>
<path d="M1278.71 106.665C1277.26 105.818 1275.36 103.576 1273.38 99.748C1274.95 100.531 1276.61 102.9 1278.71 106.665Z" fill="#C7B393"/>
</svg>
