<svg width="4007" height="475" viewBox="0 0 4007 475" fill="none" xmlns="http://www.w3.org/2000/svg">
<path d="M1768.22 277.241C1769.36 272.123 1770.7 267.039 1771.61 261.88C1774.61 244.766 1764.5 231.493 1747.31 229.769C1733.04 228.339 1720.92 233.399 1711.05 243.165C1669.39 284.356 1685.11 333.239 1718.66 357.221C1748.15 378.306 1781.18 386.111 1817.17 376.513C1856.04 366.145 1889.85 347.105 1917.28 317.475C1923.58 310.67 1929.38 303.214 1934.34 295.382C1978.06 226.339 1945.26 160.811 1904.5 129.656C1885.41 115.068 1863.63 107.651 1839.8 106.089C1833.9 105.702 1827.96 106.031 1821.98 104.791C1837.25 96.7747 1853.55 96.8211 1869.77 98.8671C1893.38 101.846 1914.67 110.986 1933.2 126.06C1979.63 163.841 2001.78 223.462 1980.63 287.734C1970.38 318.876 1951.72 344.559 1927.33 366.099C1896.78 393.083 1861.63 411.069 1821.54 419.331C1774.65 428.995 1733.21 416.744 1695.97 388.201C1678.58 374.874 1667.46 356.799 1659.48 333.445C1657.42 319.712 1655.94 308.879 1654.69 297.102C1654.29 295.153 1653.65 294.146 1653.01 293.14C1652.51 294.825 1652.01 296.511 1651.36 299.886C1650.82 312.393 1648.62 323.293 1652.67 333.908C1657.96 363.516 1674.1 386.54 1696.75 405.323C1725.24 428.946 1758.46 441.632 1795.02 445.336C1825.2 448.396 1854.72 444.629 1883.24 433.924C1930.49 416.191 1969.82 387.814 1999.97 347.11C2002.74 343.377 2005.05 339.303 2007.84 335.589C2012.63 329.21 2013.37 322.687 2010.6 315.078C2005.59 301.284 2002.21 286.986 2002 272.249C2001.8 259.027 2002.49 245.794 2003.91 232.517C2007.47 240.067 2006.15 248.148 2007.16 255.927C2008.19 263.819 2009.4 271.744 2011.35 279.446C2013.46 287.739 2016.51 295.79 2019.9 306.26C2022.96 302.27 2025.48 300.293 2026.21 297.791C2029.38 286.972 2032.02 276 2036.8 263.317C2039.93 261.446 2041.1 261.341 2042.28 261.236C2041.92 279.362 2038.9 297.116 2032.89 314.135C2029.88 322.643 2031.12 329.258 2035.78 336.589C2073.87 396.548 2157.19 452.256 2241.81 445.846C2282.17 442.788 2318.46 429.417 2349.35 402.851C2367.38 387.352 2381 368.682 2387.61 345.508C2388.43 342.637 2387.99 339.409 2388.32 332.236C2383.87 338.712 2381.27 341.57 2379.7 344.909C2355.83 395.547 2312.78 416.688 2260 422.212C2241.97 424.1 2224.1 420.91 2206.69 415.888C2166.11 404.181 2130.85 383.447 2102 352.497C2070.77 318.983 2053.71 279.821 2054.48 233.195C2055.31 183.105 2095.05 112.031 2169.04 99.5427C2186.26 96.6358 2203.36 96.8505 2221.29 103.24C2217.61 106.94 2213.74 105.797 2210.48 105.817C2139.63 106.248 2094.67 162.33 2088.67 218.558C2086.36 240.256 2090.81 261.278 2100.73 280.509C2107.09 292.822 2114.81 304.895 2124.04 315.168C2156.36 351.131 2196.73 373.467 2244.85 379.515C2279.19 383.83 2310.25 372.79 2334.27 348.504C2367.37 315.025 2363.01 274.545 2332.72 243.758C2324.1 234.993 2313.52 229.585 2300.69 229.577C2280.91 229.564 2270.08 240.962 2271.19 261.064C2271.3 263.011 2272.19 264.914 2271.61 268.327C2269.31 269.772 2268.13 269.728 2266.94 269.684C2258.66 247.44 2261.32 234.588 2278.31 219.712C2298.98 201.619 2323.02 200.423 2347.85 208.166C2371.29 215.479 2388 231.577 2399.18 253.049C2423.22 299.234 2425.24 358.752 2383.2 408.099C2355.39 440.747 2319.75 460.577 2278.2 469.609C2222.25 481.771 2169.68 471.808 2120.37 443.375C2083.34 422.026 2052.91 393.708 2030.26 357.275C2027.86 353.419 2025.2 349.723 2021.64 344.429C2017.18 351.138 2013.66 356.479 2010.09 361.778C1974.41 414.678 1926.25 451.131 1864.51 467.308C1799.53 484.335 1738.83 473.162 1684.93 432.055C1655.32 409.471 1635.13 380.03 1628.87 342.774C1622.64 305.678 1630.24 270.817 1652.26 240.313C1672.62 212.097 1700.84 199.665 1735.94 205.413C1751.9 208.026 1764.32 216.678 1773.85 229.366C1784.35 243.337 1783.46 257.766 1770.34 276.016C1768.96 276.792 1768.22 277.241 1768.22 277.241ZM1676.37 238.369C1676.76 244.234 1679.5 241.147 1682.93 238.878C1683.67 238.22 1684.32 237.482 1686.08 235.067C1686.77 230.363 1684.72 230.78 1680.16 233.723C1679.13 234.512 1678.34 235.494 1676.37 238.369ZM1667.62 249.379C1667.77 250.556 1667.91 251.733 1668.06 252.91C1669.58 252.41 1671.11 251.909 1673.97 249.489C1673.7 244.576 1673.44 244.468 1667.62 249.379ZM2354.83 227.551C2351.07 227.351 2351.92 229.198 2353.7 232.56C2354.2 233.377 2354.86 234.042 2357.43 236.614C2361.07 240.627 2364.7 244.64 2369.52 250.733C2371.63 253.375 2372.63 257.775 2379.14 255.832C2376.58 251.647 2374.39 248.076 2370.92 242.101C2367.08 238.222 2363.24 234.342 2358.49 229.536C2357.8 228.979 2357.03 228.568 2354.83 227.551ZM1655.7 274.09C1655.45 276.016 1654.96 277.956 1655.07 279.862C1655.11 280.595 1656.46 281.332 1657.33 281.869C1657.5 281.968 1658.48 281.206 1658.67 280.687C1659.36 278.856 1659.86 276.959 1661.74 273.156C1661.68 271.319 1661.62 269.482 1661.57 267.645C1660 269.118 1658.43 270.59 1655.7 274.09ZM2393.48 319.143C2395.18 301.589 2391.2 284.911 2385.42 268.565C2384.79 266.778 2382.68 265.514 2378.47 261.071C2379.79 267.667 2379.93 270.259 2380.83 272.549C2386.07 285.805 2387.46 299.518 2386.33 313.618C2386.12 316.235 2386.54 318.903 2386.23 324.881C2386.23 327.837 2386.23 330.792 2386.23 333.748C2387.15 333.859 2388.08 333.971 2389 334.082C2390.02 329.994 2391.04 325.907 2393.48 319.143ZM1692.73 227.052L1692.22 227.917C1692.22 227.917 1693.27 227.803 1692.73 227.052ZM1664.74 260.934C1665.16 260.559 1665.88 260.206 1665.91 259.804C1665.93 259.402 1665.27 258.953 1664.91 258.524C1664.49 258.899 1664.07 259.273 1664.74 260.934Z" fill="#F6DFB5"/>
<path d="M4006.65 237.228C3943.41 238.554 3880.16 240.462 3816.91 241.1C3591.8 243.373 3366.69 245.184 3141.59 247.242C3096.3 247.656 3051.02 248.403 3005.74 248.955C2997.15 249.06 2988.56 248.97 2979.47 248.97C2978.03 239.151 2983.73 232.959 2986.12 224.759C2991.6 224.312 2996.78 223.486 3001.94 223.53C3181.09 225.066 3360.24 226.627 3539.39 228.315C3637.29 229.237 3735.19 230.302 3833.09 231.479C3889.7 232.159 3946.3 233.187 4004.7 234.96C4006.5 235.862 4006.65 237.228 4006.65 237.228Z" fill="#EFD8AF"/>
<path d="M1150.72 277.47C1127.09 282.561 1107.35 274.502 1090.39 258.724C1075.14 244.524 1069.53 226.898 1073.7 206.162C1077.38 187.898 1086.79 172.854 1098.99 159.33C1123.05 132.646 1153.43 116.863 1188.23 109.797C1253.69 96.5053 1318.09 101.292 1380.88 123.964C1426.63 140.481 1470.56 161.238 1513.83 183.39C1524.39 188.798 1536.27 192.209 1545.36 202.021C1546.72 201.836 1546.71 201.6 1546.26 202.936C1548.86 207.545 1551.91 210.817 1554.84 213.973C1554.71 213.856 1554.55 213.561 1554.64 214.883C1556.19 216.804 1557.64 217.402 1558.95 217.904C1558.81 217.808 1558.61 217.538 1558.46 219.026C1559.9 220.988 1561.49 221.463 1562.99 221.841C1562.89 221.744 1562.79 221.486 1561.72 222.63C1562.74 225.854 1564.81 227.935 1566.79 230.022C1566.7 230.029 1566.51 229.976 1566.51 229.976C1566.07 231.923 1565.64 233.87 1565.2 235.803C1539.67 238.359 1521.73 234.754 1502.5 223.645C1459.27 198.666 1415.15 175.325 1369.08 156.037C1311.99 132.13 1252.53 124.526 1191.18 133.766C1161.5 138.238 1135.12 150.099 1113.16 170.95C1103.43 180.197 1095.26 190.603 1090.3 203.272C1082.99 221.958 1086.11 238.536 1100.45 252.683C1113.34 265.399 1128.47 272.772 1148.72 272.179C1150.48 274.605 1150.6 276.037 1150.72 277.47Z" fill="#F5DEB4"/>
<path d="M2891.19 270.783C2911.15 273.529 2927.74 266.826 2941.99 253.036C2956.64 238.865 2959.32 222.168 2952.61 203.621C2948.46 192.178 2941.2 182.617 2932.7 174.005C2910.37 151.373 2882.92 139.066 2851.91 133.727C2815.34 127.43 2778.95 129.673 2742.64 135.723C2714.25 140.453 2687.2 149.398 2661.04 161.422C2619.29 180.614 2578.28 201.242 2538.81 224.77C2528.67 230.815 2518.72 234.364 2506.82 232.959C2499.72 232.12 2492.44 232.805 2485.66 232.805C2483.11 228.202 2485.81 225.732 2487.89 223.354C2496.67 213.347 2505.37 203.25 2514.57 193.642C2518.16 189.897 2522.69 186.749 2527.32 184.355C2572.86 160.8 2619.16 138.722 2667.66 122.009C2728.7 100.977 2791.3 96.8263 2854.66 109.842C2889.43 116.985 2919.81 132.727 2943.87 159.438C2955.13 171.948 2963.93 185.849 2968.28 202.398C2974.07 224.46 2968.69 243.327 2952.28 258.791C2935.93 274.198 2916.71 281.846 2892.54 276.562C2891.2 273.668 2891.19 272.225 2891.19 270.783Z" fill="#F5DEB4"/>
<path d="M106.961 234.39C111.611 234.127 116.259 233.685 120.912 233.626C262.839 231.841 404.765 229.824 546.697 228.41C708.619 226.798 870.547 225.724 1032.47 224.43C1041.06 224.362 1049.65 224.422 1059.11 224.422C1061.59 232.013 1063.76 238.657 1066.46 246.928C1059.8 247.543 1054.75 248.449 1049.7 248.404C1005.06 248.011 960.42 247.302 915.777 246.966C795.162 246.059 674.541 245.726 553.931 244.354C406.009 242.671 258.095 240.165 108.611 236.944C107.045 235.875 106.961 234.39 106.961 234.39Z" fill="#EFD8AF"/>
<path d="M2006.03 195.131C1984.01 182.067 1974.4 160.901 1971.59 137.136C1965.34 84.3602 1979.68 38.2675 2020.11 1.91705C2021.02 1.09955 2022.53 0.943664 2025.02 0C2050.25 30.0112 2072.19 62.0273 2077.25 102.665C2080.91 132.04 2072.84 158.074 2052.65 179.95C2048.16 184.815 2042.8 188.884 2035.29 193.771C2031.8 194.083 2030.87 193.943 2030.52 192.47C2034.13 185.215 2037.43 179.415 2040.15 173.353C2049.86 151.684 2050.75 129.423 2042.56 107.259C2038.67 96.7224 2033.02 86.8047 2027.75 76.8328C2026.48 74.4344 2023.51 72.9348 2020.71 70.488C2008.89 91.9236 2002.24 113.441 1999.51 136.068C1997.22 155.066 1999.94 173.283 2010.8 190.596C2008.82 192.915 2007.42 194.023 2006.03 195.131Z" fill="#F7E0B5"/>
<path d="M1547.05 246.663C1558.05 247.73 1567.43 248.108 1576.48 250.074C1589.11 252.821 1600.23 258.808 1607.81 269.841C1609.16 271.807 1609.63 274.378 1610.91 277.736C1607.8 277.474 1605.69 277.885 1604.25 277.082C1591.28 269.824 1577.84 269.462 1563.62 272.781C1538.77 278.582 1516.22 289.057 1493.9 303.742C1510.18 320.358 1529.5 326.782 1549.59 331.628C1570.34 336.635 1590.16 333.573 1611.57 321.632C1609.71 326.976 1609.42 329.481 1608.13 331.249C1592.64 352.423 1570.17 360.466 1545.49 361.048C1497.16 362.187 1458.83 343.951 1434.92 298.561C1445.66 284.659 1459.2 274.294 1474.57 266.171C1496.68 254.481 1520.43 248.535 1547.05 246.663Z" fill="#F6DFB4"/>
<path d="M2582.23 333.184C2549.86 358.47 2514.91 366.874 2476.16 357.767C2460.23 354.021 2446.47 346.22 2436.27 333.069C2434.4 330.661 2433.35 327.619 2431.9 324.827C2436.51 322.239 2439.1 325.225 2441.78 326.631C2453.35 332.704 2465.66 334.321 2478.5 333.71C2503.11 332.539 2529.5 321.707 2546.92 305.412C2547.39 301.253 2543.84 299.796 2541.18 298.525C2525.64 291.093 2510.23 283.209 2494.2 276.967C2473.87 269.05 2453.13 266.362 2434.16 279.987C2430.27 276.761 2432.55 274.471 2433.75 272.418C2441.31 259.411 2453.65 253.405 2467.52 249.752C2485.3 245.07 2503.12 246.136 2520.89 249.681C2551.51 255.789 2579.14 267.916 2601.43 290.469C2603.7 292.758 2605.56 295.442 2607.94 298.346C2601.69 311.592 2593.66 322.73 2582.23 333.184Z" fill="#F6DFB5"/>
<path d="M2437.35 163.43C2426.06 168.046 2415.93 171.523 2406.49 176.347C2393.06 183.206 2384.7 193.736 2386.29 209.978C2386.47 211.848 2385.9 213.791 2385.51 217.167C2373.31 209.007 2371.62 197.571 2372.66 185.585C2373.54 175.428 2377.81 166.042 2384.8 158.66C2392.08 150.974 2399.82 143.43 2408.44 137.349C2434.62 118.866 2464.76 110.676 2495.98 105.828C2497.11 105.653 2498.42 106.645 2500.53 107.415C2511.81 150.654 2504.83 189.943 2473.51 223.699C2463.71 234.253 2451.77 241.087 2437.43 243.677C2427.07 245.549 2418.01 243.246 2408.81 237.405C2410.78 235.543 2411.53 234.196 2412.35 234.155C2430.41 233.265 2441.82 222.78 2449.46 207.681C2456.96 192.848 2462.89 177.409 2462.17 159.159C2453.35 156.679 2446.37 162.183 2437.35 163.43Z" fill="#F6DFB4"/>
<path d="M1546.77 201.943C1547.88 201.337 1549.94 200.373 1549.84 199.948C1548.89 196.116 1547.82 192.266 1546.3 188.629C1535.55 163.011 1536.23 136.785 1541.97 110.284C1542.22 109.117 1543.28 108.124 1544.49 106.209C1552.76 104.33 1560.88 108.347 1569.08 110.077C1592.68 115.058 1614.97 123.595 1635.05 137.276C1647.28 145.61 1658.09 155.411 1665.08 168.706C1673.14 184.058 1673.47 199.266 1663.06 213.827C1662.06 215.222 1660.11 215.931 1658.75 216.852C1657.83 216.139 1656.97 215.742 1657.01 215.468C1659.92 194.343 1649.33 181.552 1631.22 173.236C1616.09 166.286 1600.5 160.876 1582.73 158.046C1582.11 161.508 1580.88 164.537 1581.16 167.416C1582.49 180.782 1586.47 193.468 1592.47 205.448C1600.3 221.106 1611.28 232.844 1630.17 234.139C1631.19 234.209 1632.14 235.337 1633.71 236.345C1626.43 243.842 1617.42 244.986 1608.04 243.968C1597.25 242.797 1587.58 238.441 1578.85 231.98C1575.2 229.282 1572.09 225.403 1566.65 228.026C1566.51 229.976 1566.7 230.029 1568.71 229.376C1569.99 224.216 1567.55 221.577 1562.79 221.486C1562.79 221.486 1562.89 221.744 1563.28 220.312C1562.44 216.701 1560.76 216.256 1558.61 217.538C1558.61 217.538 1558.81 217.808 1559.39 216.24C1558.6 212.164 1556.79 211.8 1554.55 213.561C1554.55 213.561 1554.71 213.856 1556.12 212.663C1555.37 207.864 1553.35 204.161 1550.91 200.761C1550.57 200.282 1548.16 201.284 1546.71 201.6C1546.71 201.6 1546.72 201.835 1546.77 201.943Z" fill="#F6DFB5"/>
<path d="M2778.84 222.458C2802.05 222.512 2823.27 222.512 2844.58 222.512C2849.02 230.963 2846.76 239.052 2848.76 247.65C2844.26 248.373 2840.56 249.478 2836.86 249.488C2745.11 249.738 2653.37 249.881 2561.62 249.989C2558.49 249.992 2555.35 249.436 2550.31 248.962C2552.03 245.507 2552.5 242.497 2554.13 241.606C2565.19 235.565 2576.2 229.271 2587.83 224.527C2593.68 222.142 2600.78 222.239 2607.31 222.23C2663.82 222.157 2720.33 222.315 2778.84 222.458Z" fill="#F2DBB1"/>
<path d="M1465.52 249.916C1375.38 249.432 1287.03 250.006 1198.24 249.062C1195.08 240.897 1192.29 233.705 1189.4 226.231C1195.2 221.292 1201.39 222.866 1207.06 222.838C1258.92 222.576 1310.79 222.484 1362.65 222.355C1384.6 222.301 1406.54 222.523 1428.48 222.121C1438.05 221.946 1446.47 223.288 1454.65 229.173C1462.09 234.534 1471.05 237.782 1479.29 242.058C1482.55 243.747 1487.02 243.676 1488.95 249.337C1481.45 249.538 1474.39 249.728 1465.52 249.916Z" fill="#F2DBB1"/>
<path d="M1760.33 170.067C1754.32 176.183 1750.71 185.261 1740.21 187.497C1742.97 174.759 1745.68 163.368 1747.78 151.867C1748.34 148.761 1747.54 145.164 1746.52 142.067C1745.09 137.685 1743.22 133.361 1740.9 129.377C1738.69 125.569 1735.68 122.228 1732.24 117.644C1719.46 127.101 1709.86 137.769 1702.81 150.691C1696.84 161.657 1696.89 164.11 1700.47 194.038C1684.42 186.76 1676.6 174.634 1674.49 158.552C1672.65 144.418 1675.06 130.804 1681.05 117.8C1688.12 102.457 1698.17 89.4435 1711.02 78.5353C1720.62 70.3806 1731.14 63.6624 1741.77 57.5654C1759.74 75.4785 1775.89 107.988 1776.84 130.205C1777.19 138.607 1774.59 147.134 1771.57 157.479C1766.64 162.925 1763.49 166.496 1760.33 170.067Z" fill="#F6DFB5"/>
<path d="M2270.25 154.647C2264 141.91 2265.23 128.597 2268.64 115.704C2274.31 94.292 2286 75.8597 2299.59 57.0264C2335.04 75.9904 2362.17 100.518 2368.83 141.665C2371.9 160.615 2366.7 177.262 2351.01 189.544C2349.04 191.088 2346.4 191.783 2342.33 193.686C2343.01 189.018 2342.92 185.741 2343.99 182.897C2348.62 170.539 2345.5 159.351 2339.27 148.617C2332.24 136.521 2322.88 126.635 2310.65 117.422C2301.79 128.626 2294.25 139.122 2295.29 152.24C2296.21 163.797 2300.14 175.114 2302.91 187.254C2295.47 186.696 2291.09 181.122 2284.24 178.003C2283.11 177.703 2283.3 177.984 2282.79 176.947C2281.05 175.11 2279.82 174.31 2278.66 173.463C2278.71 173.415 2278.62 173.307 2278.69 172.205C2277.49 169.383 2276.22 167.665 2274.9 165.857C2274.85 165.768 2274.73 165.608 2274.77 164.585C2273.29 160.591 2271.77 157.619 2270.25 154.647Z" fill="#F7E0B5"/>
<path d="M1761.55 171.212C1763.49 166.496 1766.64 162.925 1770.53 158.837C1774.27 157.15 1777.74 156.592 1780.22 154.714C1801.63 138.463 1825.57 137.119 1850.4 143.22C1863.88 146.535 1876.67 152.151 1889.33 159.715C1889.02 169.461 1884.28 177.522 1880.67 185.8C1872.01 205.664 1859.16 222.534 1841.55 235.177C1834.13 240.509 1825.55 244.623 1816.96 247.833C1808.83 250.867 1800.07 251.386 1791.25 244.279C1817.27 232.626 1824.94 208.539 1835.15 186.07C1813.14 173.47 1793.32 175.031 1775.95 190.044C1771.5 193.883 1767.16 197.846 1762.7 201.669C1762.34 201.984 1761.42 201.654 1759.86 201.584C1760.83 191.812 1761.81 182.084 1761.55 171.212Z" fill="#F6DFB4"/>
<path d="M2283.05 177.54C2279.65 180.058 2281.62 183.287 2281.96 186.421C2282.49 191.39 2284.5 196.518 2281.22 201.609C2271.97 194.711 2263.3 187.836 2254.16 181.674C2251.01 179.553 2246.73 178.696 2242.85 178.191C2238.27 177.596 2233.49 177.446 2228.94 178.121C2222.46 179.085 2216.11 180.973 2209.81 182.443C2213.14 207.581 2228.62 230.766 2251.6 244.529C2247.56 246.425 2244.51 248.712 2241.19 249.246C2231.61 250.785 2222.81 247.608 2214.37 243.391C2202.28 237.35 2192.27 228.628 2183.48 218.545C2168.88 201.799 2158.9 182.642 2153.47 160.101C2171.27 149.769 2189.33 142.091 2209.57 140.432C2227.99 138.924 2245.38 141.647 2261.9 155.49C2266.02 161.897 2269.24 165.372 2274.73 165.607C2274.73 165.607 2274.85 165.768 2274.89 166.97C2276.15 169.884 2277.38 171.595 2278.62 173.307C2278.62 173.307 2278.71 173.415 2278.97 174.783C2280.59 176.762 2281.95 177.372 2283.3 177.983C2283.3 177.983 2283.11 177.702 2283.05 177.54Z" fill="#F6DFB4"/>
<path d="M1803.06 306.624C1807.99 302.703 1807.2 298.708 1806.41 294.822C1804 282.946 1798.39 272.656 1790.12 264.087C1793.7 258.926 1798.31 258.869 1803 259.629C1822.2 262.745 1835.26 274.394 1844.32 290.751C1853.16 306.72 1856.79 324.03 1855.44 343.413C1851.53 344.116 1847.83 345.251 1844.1 345.358C1834.17 345.645 1824.22 345.714 1814.28 345.453C1802.12 345.133 1790.8 341.694 1780.49 335.145C1771.69 329.557 1765.73 321.823 1763.76 311.522C1763.2 308.612 1764.19 305.407 1764.68 300.164C1776.89 309.114 1788.78 311.597 1803.06 306.624Z" fill="#F6DFB4"/>
<path d="M2274.57 301.939C2277.75 302.104 2279.1 303.963 2279.3 306.961C2279.95 316.36 2275.94 323.997 2269.18 329.8C2264.22 334.057 2258.43 337.705 2252.45 340.336C2237.28 347.004 2207.11 347.678 2186.92 342.242C2186.64 322.858 2190.45 304.193 2200.8 287.403C2209.84 272.738 2222.47 262.093 2240.25 259.726C2244.39 259.174 2248.85 261.029 2255.7 262.216C2242.47 274.118 2237.58 287.417 2235.28 302.816C2247.64 312.111 2259.7 311.512 2273.29 302.78C2274.49 301.718 2274.57 301.939 2274.57 301.939Z" fill="#F6DFB5"/>
<path d="M1740.78 245.382C1747.44 248.219 1750.32 252.349 1750.84 258.115C1751.61 266.489 1747.26 273.055 1739.88 274.667C1732.81 276.212 1725.77 272.927 1723.3 266.93C1720.36 259.818 1722.04 250.849 1728.04 247.327C1731.18 245.477 1735.55 245.712 1740.78 245.382Z" fill="#F2DBB1"/>
<path d="M2297.58 269.435C2296.06 264.425 2294.57 260.443 2295.06 256.719C2296.12 248.646 2302.59 244.118 2310.6 244.806C2318.44 245.479 2323.48 251.235 2323.56 259.617C2323.64 268.075 2318.96 273.926 2311.11 274.896C2306.28 275.492 2301.89 274.405 2297.58 269.435Z" fill="#F2DBB1"/>
<path d="M2894.81 242.142C2896.17 237.695 2896.85 234.042 2899.03 231.972C2905.02 226.279 2913.21 226.489 2918.6 231.701C2924.44 237.353 2924.32 247.403 2918.33 253.027C2912.6 258.406 2904.97 258.45 2898.9 252.377C2896.77 250.24 2896.13 246.607 2894.81 242.142Z" fill="#EFD8AF"/>
<path d="M1150.76 242.114C1149.85 246.062 1149.52 249.01 1147.92 250.859C1141.55 258.231 1133.51 258.902 1127.25 253.046C1121.29 247.469 1121.13 237.336 1126.93 231.73C1132.85 225.999 1141.55 226.516 1147.8 233.428C1149.44 235.233 1149.81 238.183 1150.76 242.114Z" fill="#EFD8AF"/>
<path d="M2495.07 301.934C2495.37 308.285 2494.48 312.99 2490.26 315.727C2487.66 317.414 2484.24 318.42 2481.12 318.601C2475.37 318.937 2470.98 316.181 2468.57 310.755C2465.98 304.949 2467.01 298.752 2471.35 294.287C2475.41 290.105 2480.34 288.882 2485.84 290.681C2490.57 292.227 2493.49 295.655 2495.07 301.934Z" fill="#EFD8AF"/>
<path d="M1575.48 313.211C1571.09 315.856 1567.61 318.371 1563.99 318.564C1556.18 318.979 1551.38 314.341 1550.46 307.008C1549.43 298.781 1553.74 291.895 1560.95 290.232C1567.62 288.695 1574.1 292.087 1577.09 298.701C1579.16 303.272 1578.65 307.706 1575.48 313.211Z" fill="#EFD8AF"/>
<path d="M1768.27 277.997C1768.22 277.24 1768.96 276.791 1769.06 277.034C1770.44 278.588 1771.69 280.97 1773.01 281.01C1776.9 281.128 1780.82 279.887 1784.71 279.975C1790.37 280.103 1794.65 285.161 1794.34 290.551C1794.02 295.963 1789.14 300.69 1783.91 300.655C1779.35 300.624 1775.32 296.983 1774.23 292.128C1773.25 287.77 1776.44 282.824 1770.57 279.358C1768.8 279.791 1769.04 280.085 1769.04 280.085C1769.04 280.085 1768.31 278.755 1768.27 277.997Z" fill="#DAC5A1"/>
<path d="M2272.79 301.068C2274.57 301.939 2274.49 301.717 2274.63 301.802C2273.29 300.884 2271.86 299.116 2270.35 299.052C2267.84 298.944 2265.29 300.319 2262.74 300.371C2256.78 300.493 2252.29 296.953 2251.28 291.845C2250.28 286.788 2252.82 282.631 2259.11 280.003C2260.74 279.322 2262.93 279.986 2266.31 281.194C2268.47 283.438 2269.4 284.207 2270.57 284.663C2270.72 289.841 2270.86 295.02 2272.79 301.068Z" fill="#DAC5A1"/>
<path d="M1715.12 166.451C1713.36 160.449 1713.77 156.099 1718.27 152.985C1722.51 150.045 1726.82 149.867 1731.21 152.664C1735.1 155.145 1736.81 160.104 1735.37 164.799C1734.06 169.097 1730.14 171.982 1724.52 171.428C1721.48 171.129 1718.63 168.95 1715.12 166.451Z" fill="#EFD8AF"/>
<path d="M2312.32 154.247C2315.06 152.5 2316.83 150.999 2318.62 150.971C2327.32 150.834 2331.85 154.918 2331.52 162.102C2331.27 167.587 2326.95 171.479 2320.92 171.646C2313.5 171.852 2309.95 167.779 2310.01 158.855C2310.01 157.625 2310.89 156.4 2312.32 154.247Z" fill="#EFD8AF"/>
<path d="M1627.45 205.601C1622.16 209.921 1617.93 209.813 1613.78 206.491C1610.31 203.714 1609.68 199.877 1610.13 195.788C1610.68 190.831 1614.27 187.085 1618.87 186.398C1623.23 185.747 1628.55 188.44 1629.6 193.247C1630.36 196.766 1628.93 200.764 1627.45 205.601Z" fill="#EFD8AF"/>
<path d="M2435.26 194.968C2435.42 197.655 2435.71 199.132 2435.21 200.268C2431.61 208.54 2425.96 211.164 2420.24 207.39C2414.95 203.9 2413.38 197.307 2416.5 191.694C2419.91 185.548 2426.09 184.932 2433.11 190.222C2434.05 190.938 2434.4 192.455 2435.26 194.968Z" fill="#EFD8AF"/>
<path d="M1807.31 210.363C1803.18 211.717 1799.72 213.11 1797.11 212.159C1791.51 210.113 1789.67 205.028 1791.35 199.456C1792.7 194.999 1796.86 192.532 1802.02 193.139C1807.01 193.727 1809.87 196.344 1810.42 202.1C1810.65 204.425 1809.1 206.92 1807.31 210.363Z" fill="#EFD8AF"/>
<path d="M1152.17 277.562C1150.6 276.037 1150.48 274.604 1150.4 272.094C1155.12 268.942 1160.07 267.306 1164.44 264.702C1173.13 259.522 1179.34 252.494 1178.44 240.056C1178.21 238.679 1178.08 238.865 1178.08 238.865C1179.44 240.128 1181.62 241.175 1182.02 242.689C1184.47 252.071 1180.44 259.513 1174.12 265.998C1168.43 271.836 1161.52 275.643 1152.17 277.562Z" fill="#C7B393"/>
<path d="M2235.08 201.453C2237.54 197.681 2239.49 194.503 2242.23 193.508C2247.21 191.703 2251.89 194.282 2253.8 198.583C2255.74 202.955 2254.45 208.091 2250.65 211.09C2246.88 214.066 2242.28 213.99 2238.13 210.024C2236.41 208.377 2235.96 205.403 2235.08 201.453Z" fill="#EFD8AF"/>
<path d="M2019.09 254.112C2015.33 251.678 2012.13 249.825 2011.19 247.173C2009.58 242.61 2011.27 238.298 2015.65 235.519C2019.54 233.05 2024.72 233.857 2027.86 237.493C2031.23 241.382 2031.81 245.944 2028.69 249.836C2026.92 252.055 2023.4 252.88 2019.09 254.112Z" fill="#EFD8AF"/>
<path d="M2042.72 259.791C2041.1 261.341 2039.93 261.445 2037 261.804C2035.25 248.958 2035.25 235.858 2035.25 218.476C2043.77 233.688 2043.62 245.988 2042.72 259.791Z" fill="#AE9C81"/>
<path d="M59.1828 237.063C39.4569 236.943 19.7311 236.823 0.00518799 236.704C0.00346299 236.232 0.001724 235.76 0 235.289C18.5022 234.851 37.0044 234.413 57.4274 234.913C59.3483 235.85 59.1828 237.063 59.1828 237.063Z" fill="#AE9C81"/>
<path d="M2889.97 270.121C2891.19 272.225 2891.2 273.668 2891.13 276.192C2880.09 276.413 2872.13 270.455 2865.72 260.342C2866.48 258.01 2867.04 257.543 2867.6 257.075C2874.65 261.203 2881.7 265.331 2889.97 270.121Z" fill="#C7B393"/>
<path d="M60.9987 237.255C59.183 237.063 59.3484 235.85 59.293 235.241C73.933 234.328 88.6284 234.025 105.142 234.056C106.961 234.39 107.044 235.874 107.026 236.618C92.2766 237.39 77.5454 237.418 60.9987 237.255Z" fill="#DAC5A1"/>
<path d="M2861.83 253.969C2856.57 246.769 2858.81 240.605 2865.67 234.415C2866.88 233.917 2866.73 233.81 2866.73 233.81C2866.5 239.383 2866.26 244.956 2865.1 252.238C2863.39 253.955 2862.61 253.962 2861.83 253.969Z" fill="#AE9C81"/>
<path d="M2010.79 190.597C2014.55 191.932 2017.72 194.478 2022.07 197.369C2017.78 204.635 2012.7 199.428 2006.77 196.169C2007.42 194.024 2008.81 192.916 2010.79 190.597Z" fill="#AE9C81"/>
<path d="M1178.28 238.592C1178.28 238.245 1178.21 237.983 1178.11 238.293C1178.08 238.864 1178.21 238.678 1178.28 238.592Z" fill="#C7B393"/>
<path d="M2026.51 198.336C2026.01 196.872 2026.98 195.782 2028.95 194.249C2030.87 193.944 2031.8 194.084 2034.12 194.437C2033 196.004 2030.48 197.357 2026.51 198.336Z" fill="#AE9C81"/>
<path d="M1612.98 283.388C1613.04 283.54 1612.92 283.237 1612.98 283.388Z" fill="#F6DFB4"/>
<path d="M1768.55 280.286C1769.04 280.085 1768.8 279.791 1768.81 279.605C1768.82 279.42 1767.55 279.564 1767.55 279.564C1767.55 279.564 1768.06 280.487 1768.55 280.286Z" fill="#F6DFB5"/>
<path d="M2866.94 233.988C2867 234.058 2867.05 233.625 2866.89 233.717C2866.73 233.81 2866.88 233.918 2866.94 233.988Z" fill="#AE9C81"/>
<path d="M1168.95 227.859C1169.06 227.83 1168.83 227.888 1168.95 227.859Z" fill="#C7B393"/>
<path d="M2862.02 255.022C2862.61 253.963 2863.39 253.956 2865.33 253.914C2866.5 253.878 2867.26 255.403 2867.43 256.24C2867.04 257.544 2866.48 258.011 2865.05 259.151C2863.52 258.574 2862.86 257.324 2862.02 255.022Z" fill="#C7B393"/>
<path d="M1693 227.426C1693.27 227.801 1692.22 227.915 1692.22 227.915C1692.22 227.915 1692.73 227.05 1693 227.426Z" fill="#AE9C81"/>
<path d="M2344.74 223.891C2344.88 224.13 2344.59 223.651 2344.74 223.891Z" fill="#C7B393"/>
<path d="M1664.2 260.289C1664.07 259.271 1664.49 258.897 1664.91 258.522C1665.27 258.951 1665.93 259.401 1665.91 259.802C1665.88 260.204 1665.16 260.557 1664.2 260.289Z" fill="#AE9C81"/>
<path d="M2278.69 172.205C2277.38 171.596 2276.15 169.885 2274.94 167.06C2276.22 167.665 2277.49 169.383 2278.69 172.205Z" fill="#DAC5A1"/>
<path d="M2282.78 176.946C2281.95 177.373 2280.59 176.762 2278.92 174.831C2279.82 174.31 2281.04 175.11 2282.78 176.946Z" fill="#554842"/>
<path d="M2030.78 132.883C2035.21 138.896 2035.36 144.038 2033.04 149.19C2030.55 154.718 2023.99 157.953 2018.24 156.872C2011.6 155.624 2006.91 149.736 2006.85 142.596C2006.8 135.991 2010.43 130.958 2016.56 129.26C2021.33 127.938 2025.73 128.863 2030.78 132.883Z" fill="#F2DBB1"/>
</svg>
