<svg width="4168" height="409" viewBox="0 0 4168 409" fill="none" xmlns="http://www.w3.org/2000/svg">
<path d="M1978.83 152.526C1978.83 151.038 1979.4 148.579 1978.75 148.202C1955.4 134.602 1947.94 112.547 1946.51 87.4743C1945.91 76.954 1944.68 66.3136 1947.06 56.0075C1978.6 48.2174 2018.79 60.3722 2038.54 83.5539C2051.23 98.4464 2055.54 114.915 2047.25 133.549C2046.2 135.917 2045.54 138.461 2044.18 142.432C2048.3 141.929 2051.51 142.093 2054.32 141.106C2085.21 130.243 2113.7 136.485 2139.67 154.533C2152.68 163.573 2163.98 175.075 2177.08 186.351C2197.77 185.409 2217.72 178.432 2233.9 161.888C2247.8 147.674 2255.81 134.472 2259.54 116.808C2256.47 116.288 2253.38 115.079 2250.44 115.381C2237.22 116.739 2223.87 117.732 2210.87 120.342C2190.85 124.362 2172.47 131.768 2163.11 151.854C2157.26 150.672 2158.77 146.571 2158.96 143.909C2159.85 131.319 2166.11 121.264 2174.77 112.497C2187.23 99.8878 2202.4 91.6337 2218.92 85.9332C2249.87 75.2572 2276.83 73.3583 2301.88 82.3956C2304.93 95.1986 2304.43 108.386 2300.36 121.156C2289.53 155.133 2266.76 178.115 2233.6 190.595C2220.29 195.605 2206.42 197.05 2192.43 192.361C2188.88 191.17 2185.17 189.342 2179.72 190.784C2181.24 195.118 2182.14 198.762 2183.75 202.054C2199.63 234.505 2196.96 266.797 2181.9 298.387C2166.94 329.763 2144.55 354.93 2114.86 373.371C2081.28 394.232 2044.28 404.574 2005.27 407.57C1965.7 410.609 1926.77 406.478 1887.68 391.51C1886.37 387.814 1886.39 386.1 1886.41 384.386C1909.4 388.345 1932.41 392.04 1955.87 391.234C1995.49 389.873 2034.02 382.915 2070.9 368.145C2106.09 354.053 2132.93 329.585 2153.96 298.64C2165.39 281.813 2172.05 263.036 2171.43 242.259C2171.31 238.267 2171.15 234.25 2170.59 230.302C2165.05 190.737 2119.91 150.527 2079.99 149.616C2076.69 149.541 2073.34 150.001 2070.08 150.601C2067.87 151.009 2065.79 152.097 2063.87 155.23C2067 155.548 2070.15 155.714 2073.24 156.208C2126.59 164.715 2153.46 204.478 2148.8 256.195C2146.56 281.046 2134.9 301.728 2117.45 319.386C2091.8 345.347 2061.01 361.894 2025.19 367.905C1940.93 382.045 1863.75 364.227 1794.06 314.57C1790.34 311.915 1786.62 309.246 1783.51 307.016C1781.13 307.656 1779.57 307.624 1778.67 308.381C1748.28 334.177 1712.16 347.174 1673.78 354.648C1623.97 364.346 1574.37 364.55 1525.67 348.359C1513.15 344.198 1501.15 338.487 1488.53 331.653C1489.4 328.714 1490.66 327.61 1491.93 326.507C1546.71 346.687 1602.43 348.778 1658.78 334.469C1674.22 330.546 1689.38 325.302 1704.41 319.958C1721.49 313.889 1736.92 304.64 1750.8 292.976C1754.24 290.086 1756.91 286.289 1760.11 282.714C1757.09 278.12 1754.55 274.256 1752.01 270.398C1726.28 231.396 1722.58 189.908 1738.31 146.383C1746.32 124.228 1760.54 101.837 1780.3 79.0329C1790.11 85.8429 1800.36 99.7555 1811.48 121.363C1819.76 137.475 1825.29 154.465 1828.27 172.359C1831.26 190.323 1830.76 208.051 1827.24 225.94C1823.72 243.829 1816.02 259.928 1807.69 275.483C1809.3 282.588 1814.94 285.425 1819.55 288.923C1855.88 316.49 1897.2 332.281 1941.79 340.097C1970.86 345.194 2000.06 346.538 2029.17 340.516C2041.51 337.963 2053.89 335.047 2063.3 325.497C2062.46 324.074 2062.24 324.181 2063.44 325.508C2068.21 325.907 2071.74 324.94 2070.57 320.017C2070.45 320.075 2070.21 320.19 2071.4 321.418C2075.86 321.515 2079.25 320.499 2078.63 316.007C2078.5 316.092 2078.24 316.264 2079.53 317.113C2089.15 311.542 2098.48 306.059 2105.64 298.523C2126.28 276.821 2132.79 251.066 2126.24 221.533C2118.63 187.229 2080.98 168.624 2056.22 171.586C2047.3 172.654 2039.61 175.863 2033.16 181.971C2025.04 189.653 2022.76 201.269 2028.04 211.015C2030.52 215.595 2034.44 219.401 2035.7 224.029C2032.35 224.752 2031 225.003 2028.47 224.541C2025.35 222.037 2023.49 220.15 2021.47 218.468C2009 208.107 2007.5 192.297 2014.63 177.012C2019.49 166.601 2026.92 158.38 2036 151.524C2040.52 148.109 2045.03 144.677 2050.81 140.3C2041.48 136.558 2041.29 128.805 2038.4 122.606C2036.79 119.133 2035.54 115.007 2030.34 116.169C2030.44 116.335 2030.76 116.546 2031.21 115.056C2024.04 103.157 2012.22 100.342 2000.86 97.1852C1995.53 95.7077 1989.48 92.9525 1983.49 98.0822C1983.49 103.128 1982.79 108.448 1983.69 113.484C1984.59 118.575 1986.39 123.809 1989.07 128.201C1991.76 132.608 1995.92 136.16 1999.63 139.89C2003.1 143.378 2008.49 145.054 2011.28 151.119C2001.34 153.404 1993.08 152.421 1984.88 149.957C1982.1 149.123 1979.78 149.499 1978.29 152.153C1978.49 152.247 1978.83 152.526 1978.83 152.526ZM1777.96 242.058C1780.1 243.988 1782.23 245.919 1784.97 248.394C1797.01 225.363 1797.84 202.325 1794.02 179.029C1792.07 167.156 1789.8 154.838 1780.61 145.063C1762.95 172.007 1761.33 211.796 1777.96 242.058Z" fill="#F5DEB4"/>
<path d="M2548.43 358.299C2530.43 354.484 2514 351.632 2497.93 347.413C2471.89 340.578 2447.98 329.099 2426.93 312.027C2424.88 310.362 2422.6 308.969 2420.36 307.554C2419.86 307.24 2419.08 307.37 2416.53 307.078C2368.67 346.098 2311.84 366.809 2249.34 371.769C2217.55 374.291 2185.72 373.447 2153.39 361.443C2158.72 354.149 2163.26 347.915 2168.36 340.927C2223.66 349.623 2276.95 341.377 2328.31 319.651C2356.7 307.641 2378.74 292.943 2393.49 276.488C2372.63 241.05 2364.78 202.868 2374.38 161.837C2381.8 130.13 2397.37 102.914 2419.26 77.0117C2446.64 110.638 2468.76 144.679 2471.29 188.14C2472.97 217.05 2465.9 243.575 2450.22 267.851C2447.34 272.313 2444.32 276.686 2440.65 282.152C2443.36 285.513 2445.69 289.45 2448.97 292.274C2461.17 302.764 2474.74 311.226 2489.62 317.359C2530.68 334.284 2573.25 344.065 2617.88 343.68C2641.35 343.478 2664.25 339.676 2686.82 333.391C2692.95 331.685 2699.05 328.369 2706.64 330.206C2705.47 332.78 2705.16 335.316 2703.86 336.022C2698.04 339.173 2692.08 342.171 2685.91 344.559C2650.54 358.259 2613.74 362.645 2576.05 360.663C2567.41 360.209 2558.79 359.331 2548.43 358.299ZM2422.43 147.831C2418.52 143.825 2416.52 147.426 2415.32 150.147C2405.72 171.997 2402.39 194.78 2405.94 218.457C2407.51 228.866 2409.42 239.179 2416.52 248.51C2424.12 243.073 2426.5 235.271 2429.11 227.968C2438.6 201.431 2435.59 175.584 2422.43 147.831Z" fill="#F7E0B5"/>
<path d="M4094.39 267.724C4089.74 267.99 4085.09 268.436 4080.44 268.496C3938.48 270.337 3796.51 272.417 3654.55 273.869C3512.58 275.321 3370.6 276.14 3228.63 277.227C3222 277.278 3215.37 277.234 3209.21 277.234C3204 270.045 3207.44 263.63 3206.81 256.987C3215.43 253.864 3223.43 254.953 3231.23 254.993C3325.89 255.479 3420.54 255.802 3515.19 256.72C3667.16 258.193 3819.12 260.031 3971.08 261.828C4011.07 262.301 4051.06 263.192 4092.71 264.992C4094.38 266.092 4094.39 267.724 4094.39 267.724Z" fill="#EFD8AF"/>
<path d="M106.615 264.539C175.197 263.28 243.775 261.515 312.362 260.855C533.478 258.727 754.597 256.993 975.715 255.193C982.223 255.139 988.987 253.509 996.324 257.477C997.27 262.473 998.334 268.093 999.311 273.25C992.708 279.264 985.707 276.975 979.327 276.96C924.71 276.832 870.093 276.622 815.479 276.098C627.001 274.289 438.524 272.406 250.048 270.404C203.43 269.908 156.818 268.856 108.428 267.074C106.653 266.089 106.615 264.539 106.615 264.539Z" fill="#EFD8AF"/>
<path d="M1062.38 191.961C1082.49 179.819 1105.1 177.739 1127.7 176.573C1157.83 175.017 1187.45 179.861 1216.79 186.087C1281.55 199.826 1343.07 223.248 1403.58 249.516C1430.51 261.207 1457.96 271.127 1486.71 277.302C1565.66 294.257 1641.5 286.602 1713.58 248.839C1716.5 247.309 1719.48 245.909 1723.01 244.166C1730.58 249.608 1733.66 257.447 1737.25 266.755C1731.36 270.019 1725.81 273.483 1719.94 276.298C1671.06 299.751 1619.44 310.483 1565.27 309.71C1507.68 308.889 1453.43 294.438 1401.53 270.328C1364.1 252.939 1326.37 236.32 1287.5 222.371C1246.71 207.73 1205.26 195.523 1162.13 190.062C1131.48 186.182 1101.02 186.363 1068.81 196.307C1064.95 194.512 1063.66 193.237 1062.38 191.961Z" fill="#F2DBB1"/>
<path d="M3136.18 198.843C3095.99 183.374 3055.04 186.289 3014.01 194.153C2958.1 204.87 2904.98 224.329 2852.86 246.719C2834.5 254.606 2816.41 263.109 2798.2 271.343C2747.89 294.094 2695.59 308.356 2640.03 309.614C2585.1 310.859 2532.7 300.537 2483.06 276.832C2477.15 274.01 2471.51 270.641 2465.32 267.302C2467.04 257.543 2471.58 250.738 2478.1 244.017C2481.52 245.633 2484.52 246.912 2487.4 248.426C2564.21 288.856 2644.85 295.379 2728.03 274.072C2751.15 268.151 2773.77 259.597 2795.81 250.338C2846.22 229.169 2896.9 209.002 2949.75 194.605C2979.39 186.529 3009.38 180.297 3039.95 177.527C3074.15 174.43 3107.92 175.804 3139.3 193.745C3138.07 196.961 3137.13 197.902 3136.18 198.843Z" fill="#F2DBB1"/>
<path d="M2087.17 109.859C2089.93 116.565 2092.47 121.866 2094.95 127.049C2092.51 130.225 2089.8 128.649 2087.63 127.561C2073.75 120.601 2067.85 108.569 2066.85 93.6846C2066.11 82.8457 2068.97 72.593 2072.64 62.573C2078.41 46.8169 2087.37 32.9141 2097.73 19.7988C2105.79 9.6062 2114.86 1.24316 2129.07 0C2142.13 2.44311 2149.86 11.7764 2156.09 23.4155C2167.97 45.5706 2170.22 69.0122 2165.24 93.0642C2162.07 108.433 2154.44 121.646 2139.64 129.256C2134.85 131.719 2129.96 133.784 2123.66 130.316C2144.48 112.683 2141.67 90.7092 2135.24 68.1814C2133.24 61.2102 2131.34 54.1016 2125.59 49.0005C2104.68 63.1619 2089.52 86.5574 2087.17 109.859Z" fill="#F5DEB4"/>
<path d="M1162.71 253.066C1211.87 252.924 1259.07 252.985 1306.27 252.512C1319.11 252.383 1331.25 253.808 1343.15 258.981C1352.26 262.941 1362.01 265.394 1371.37 268.824C1374.72 270.055 1377.75 272.186 1381.63 274.291C1379.18 275.674 1378.06 276.851 1376.93 276.86C1296.49 277.538 1216.06 278.135 1135.62 278.66C1133.09 278.676 1130.55 277.871 1127.42 277.351C1125.73 270.146 1124.11 263.268 1122.16 254.964C1135.86 252.396 1148.38 253.58 1162.71 253.066Z" fill="#EFD8AF"/>
<path d="M2934.47 277.988C2898.5 277.517 2864.52 277.09 2830.55 276.532C2829.66 276.517 2828.78 275.075 2827.42 273.882C2840.75 267.447 2853.78 260.922 2867.04 254.918C2870.53 253.339 2874.75 252.755 2878.63 252.76C2938.62 252.83 2998.6 253.06 3058.59 253.336C3060.51 253.345 3062.42 254.232 3064.88 254.845C3066.6 261.678 3068.34 268.593 3070.09 275.561C3065.01 280.078 3059.49 279.084 3054.43 279.054C3015.11 278.821 2975.79 278.387 2934.47 277.988Z" fill="#EFD8AF"/>
<path d="M2062.58 324.026C2057.33 320.161 2053.17 326.128 2046.73 325.606C2043.54 322.251 2039.57 318.074 2035.35 313.626C2020.38 318.393 2005.69 324.246 1989.19 326.588C1973.91 298.819 1969.71 271.867 1988.95 244.616C1990.07 243.037 1990.7 241.118 1991.52 236.927C1992.43 232.543 1993.39 230.589 1995.28 228.608C1996.21 228.58 1998.08 228.698 1998.08 228.698C1998.08 228.698 1999.94 228.565 2000.61 230.159C2005.64 232.481 2010.01 233.21 2013.75 233.832C2013.75 237.963 2013.75 241.188 2013.88 244.457C2014.01 244.501 2013.83 244.428 2012.28 245.188C2004.95 257.73 2007.56 268.877 2012.56 280.082C2022.69 281.335 2031.61 278.879 2040.69 276.979C2050.8 274.864 2054.92 267.832 2056.74 258.936C2057.56 254.913 2056.88 250.583 2056.88 245.206C2062.61 247.792 2065.72 251.221 2066.36 255.889C2067.25 262.398 2068.2 269.209 2067.21 275.592C2065.57 286.163 2067.43 295.511 2073.94 303.673C2077.05 307.568 2077.65 311.788 2078.25 316.265C2078.25 316.265 2078.5 316.094 2077.25 315.428C2073.21 315.661 2070.07 316.184 2070.21 320.191C2070.21 320.191 2070.45 320.077 2069.22 319.272C2065.17 319.457 2061.94 320.045 2062.24 324.182C2062.24 324.182 2062.46 324.075 2062.58 324.026Z" fill="#F5DEB4"/>
<path d="M2227.94 275.643C2241.48 269.522 2253.22 263.454 2263.77 254.285C2258.39 242.154 2248.7 235.939 2237.52 231.118C2225.76 226.046 2214.12 231.062 2201.88 231.708C2202.49 228.954 2202.33 226.636 2203.4 225.318C2217.19 208.319 2234.78 201.605 2256.4 206.289C2266.97 208.581 2276.41 213.289 2284.87 219.96C2299.18 231.234 2309.05 245.795 2317.46 262.116C2296.97 280.986 2274.1 292.036 2247.66 295.399C2237.04 296.75 2226.42 296.137 2216.35 291.764C2211.2 289.525 2210.48 288.827 2204.21 279.791C2207.35 275.721 2211.34 279.647 2214.8 278.732C2218.63 277.715 2222.54 276.99 2227.94 275.643Z" fill="#F5DEB4"/>
<path d="M1994.34 228.635C1993.39 230.589 1992.43 232.543 1991.19 235.259C1973.85 245.807 1956.11 242.505 1938.62 238.097C1919.55 233.291 1903.3 223.032 1888.68 210.342C1893.87 192.688 1907.7 174.664 1923.83 163.453C1939.52 152.548 1956.68 149.589 1977.02 152.731C1978.83 152.528 1978.49 152.248 1978.87 153.393C1989.43 160.311 2000.07 165.639 2004.1 178.688C1967.64 172.885 1955.1 177.284 1941.89 199.997C1958 215.558 1973.07 222.827 1994.19 226.098C1994.16 226.946 1994.34 228.635 1994.34 228.635Z" fill="#F6DFB5"/>
<path d="M3149.17 266.236C3145.6 271.023 3143.08 275.284 3139.35 277.48C3130.23 282.851 3119.33 279.252 3113.89 269.962C3109 261.613 3111.1 251.276 3118.92 245.227C3127.29 238.75 3138.62 239.956 3145.46 248.151C3149.49 252.983 3150.99 258.541 3149.17 266.236Z" fill="#EFD8AF"/>
<path d="M1083.66 254.637C1086.41 261.406 1085.31 266.453 1082.39 271.126C1077.54 278.917 1067.99 281.939 1060.01 278.423C1051.19 274.541 1047.02 264.653 1050.24 255.266C1053.06 247.042 1061.84 242.236 1070.88 244.034C1076.41 245.132 1080.37 248.368 1083.66 254.637Z" fill="#F2DBB1"/>
<path d="M1060.99 192.145C1063.66 193.236 1064.95 194.512 1067.28 196.653C1063.39 200.641 1058.38 203.66 1053.52 206.905C1040.75 215.437 1030.74 226.523 1024.46 240.543C1020.43 249.534 1017.84 259.029 1019.56 270.549C1017.15 271.979 1016.03 271.929 1014.9 271.878C1009.74 250.159 1017.15 231.951 1030.75 215.542C1038.78 205.86 1048.15 197.776 1060.99 192.145Z" fill="#DAC5A1"/>
<path d="M3146.54 195.887C3165.13 204.282 3176.34 219.519 3184.24 237.459C3189.8 250.053 3190.01 263.145 3183.36 276.585C3180.66 276.33 3179.93 275.689 3179.19 275.048C3185.19 259.359 3180.97 245.163 3172.58 231.729C3165.09 219.726 3154.78 210.552 3142.89 201.367C3144.2 198.3 3145.37 197.094 3146.54 195.887Z" fill="#DAC5A1"/>
<path d="M1015.04 273.28C1016.03 271.929 1017.15 271.979 1019.96 272.128C1023.3 275.071 1024.81 278.004 1026.62 280.747C1036.78 296.207 1051.16 304.418 1069.67 304.166C1076.77 304.07 1083.85 302.025 1092.43 300.333C1093.92 299.798 1093.75 299.715 1093.75 299.715C1080.05 312.918 1063.84 310.868 1048 306.04C1032.21 301.229 1020.89 290.601 1015.04 273.28Z" fill="#AE9C81"/>
<path d="M3182.54 277.88C3179.08 293.598 3167.44 300.967 3154.09 306.173C3141.64 311.025 3128.88 310.154 3110.39 302.974C3127.78 304.503 3141.93 305.956 3155.18 298.994C3164.95 293.856 3172.35 286.545 3178.44 276.018C3179.93 275.688 3180.66 276.329 3182.54 277.88Z" fill="#AE9C81"/>
<path d="M2235.65 257.838C2233.82 263.339 2230.62 265.336 2226.47 265.638C2220.7 266.057 2216.1 262.624 2214.94 257.416C2213.74 251.982 2216.38 246.465 2221.12 244.496C2225.95 242.494 2231.56 244.11 2234.47 249.033C2235.69 251.095 2235.52 253.975 2235.65 257.838Z" fill="#EFD8AF"/>
<path d="M2195.42 163.049C2192.77 159.48 2190.52 156.734 2190.27 153.817C2189.73 147.528 2193.05 143.525 2198.41 142.45C2203.05 141.518 2208.12 143.718 2210 147.474C2212.74 152.934 2211.33 159.941 2206.04 162.757C2203.48 164.123 2199.86 163.511 2195.42 163.049Z" fill="#EFD8AF"/>
<path d="M2121.26 93.819C2123.91 97.4093 2126.24 100.134 2126.5 103.044C2127.05 109.245 2123.69 113.367 2118.38 114.638C2114 115.687 2108.8 113.374 2106.78 109.475C2104.01 104.132 2105.39 97.0858 2110.71 94.0985C2113.21 92.6908 2116.87 93.3268 2121.26 93.819Z" fill="#EFD8AF"/>
<path d="M1885.16 383.722C1886.39 386.1 1886.37 387.814 1886.4 390.812C1874.58 390.198 1864.35 384.36 1854.89 377.262C1856.91 375.708 1858.15 375.431 1859.4 375.154C1867.57 377.789 1875.74 380.423 1885.16 383.722Z" fill="#DAC5A1"/>
<path d="M2708.73 326.828C2718.98 321.665 2729.24 316.503 2741.35 311.502C2743.21 311.664 2744.71 312.92 2744.71 312.92C2735.45 318.957 2726.19 324.994 2714.7 330.437C2711.22 328.838 2709.98 327.833 2708.73 326.828Z" fill="#DAC5A1"/>
<path d="M1490.94 325.55C1490.66 327.611 1489.4 328.714 1487.39 330.831C1477.07 326.397 1467.49 320.949 1457.77 313.742C1458.11 311.419 1458.6 310.855 1459.09 310.291C1469.38 315.058 1479.67 319.825 1490.94 325.55Z" fill="#C7B393"/>
<path d="M58.6682 267.356C39.1121 267.064 19.5561 266.771 0 266.479C0.000321 266.337 0.000626045 266.195 0.000946045 266.054C18.317 265.463 36.633 264.873 56.8312 265.191C58.7133 266.1 58.6682 267.356 58.6682 267.356Z" fill="#AE9C81"/>
<path d="M60.4872 267.593C58.6679 267.355 58.713 266.099 58.6914 265.471C73.4405 264.486 88.2112 264.129 104.799 264.156C106.615 264.538 106.653 266.089 106.641 266.865C91.8549 267.703 77.0807 267.766 60.4872 267.593Z" fill="#C7B393"/>
<path d="M4126.33 264.348C4140.04 262.401 4153.59 264.114 4167.2 265.859C4154.82 268.837 4142.36 268.744 4128.15 267.298C4126.41 266.084 4126.33 264.348 4126.33 264.348Z" fill="#AE9C81"/>
<path d="M1858.54 374.223C1858.15 375.433 1856.91 375.71 1853.78 376.312C1846.28 375.152 1841.42 372.797 1837.94 364.301C1846.15 368.043 1851.91 370.667 1858.54 374.223Z" fill="#AE9C81"/>
<path d="M1438.46 300.18C1444.76 302.927 1451.06 305.673 1458.22 309.355C1458.6 310.854 1458.11 311.418 1456.81 312.753C1450.73 309.68 1445.47 305.838 1439.34 301.104C1438.49 300.213 1438.46 300.18 1438.46 300.18Z" fill="#AE9C81"/>
<path d="M2742.68 310.837C2745.85 307.589 2749.55 305.167 2754.26 302.084C2752.24 308.704 2752.24 308.704 2745.79 312.74C2744.71 312.919 2743.2 311.663 2742.68 310.837Z" fill="#AE9C81"/>
<path d="M4124.56 264.189C4126.33 264.35 4126.41 266.086 4126.36 266.953C4116.84 268.011 4107.36 268.202 4096.14 268.059C4094.39 267.725 4094.38 266.093 4094.39 265.276C4103.86 264.316 4113.33 264.172 4124.56 264.189Z" fill="#DAC5A1"/>
<path d="M2706.88 327.721C2709.98 327.832 2711.22 328.837 2713.33 330.675C2711.98 332.446 2709.78 334.117 2707.55 334.159C2703.55 334.234 2702.84 331.86 2706.88 327.721Z" fill="#F7E0B5"/>
<path d="M1093.97 299.859C1096.17 299.057 1098.32 298.193 1101.48 296.765C1102.5 296.2 1102.62 296.172 1102.62 296.172C1100.43 297.08 1098.23 297.987 1094.89 299.305C1093.75 299.715 1093.92 299.798 1093.97 299.859Z" fill="#AE9C81"/>
<path d="M3145.92 195.193C3145.37 197.094 3144.2 198.3 3142.05 200.304C3139.82 201.019 3138.66 200.668 3136.88 199.445C3137.13 197.902 3138.07 196.961 3140.45 194.617C3143.2 193.163 3144.34 193.592 3145.92 195.193Z" fill="#F2DBB1"/>
<path d="M1102.49 296.209C1102.47 296.217 1103.46 295.749 1103.46 295.749C1103.46 295.749 1102.29 295.56 1102.46 295.867C1102.63 296.173 1102.5 296.202 1102.49 296.209Z" fill="#AE9C81"/>
<path d="M1438.48 300.202C1438.47 300.191 1438 299.529 1438 299.529C1438 299.529 1437.93 300.411 1438.2 300.296C1438.46 300.18 1438.49 300.214 1438.48 300.202Z" fill="#AE9C81"/>
<path d="M2764.23 298.141C2764.27 298.237 2764.18 298.045 2764.23 298.141Z" fill="#AE9C81"/>
<path d="M2047.6 222.652C2041.67 231.517 2041.67 231.517 2030.44 226.309C2031 225.004 2032.35 224.753 2035.7 224.031C2040.3 223.766 2042.89 223.973 2046.22 223.798C2046.95 223.416 2047.6 222.652 2047.6 222.652Z" fill="#AE9C81"/>
<path d="M2063.44 325.509C2061.94 320.044 2065.17 319.456 2069.34 319.213C2071.74 324.941 2068.22 325.908 2063.44 325.509Z" fill="#554842"/>
<path d="M2071.4 321.419C2070.07 316.185 2073.21 315.662 2077.37 315.344C2079.25 320.501 2075.86 321.516 2071.4 321.419Z" fill="#554842"/>
<path d="M1994.19 226.097C1996.79 224.127 1999.28 223.485 2000.62 227.406C1999.94 228.564 1998.08 228.697 1998.08 228.697C1998.08 228.697 1996.21 228.579 1995.27 228.607C1994.34 228.634 1994.16 226.945 1994.19 226.097Z" fill="#DAC5A1"/>
<path d="M2047.3 223.06C2046.76 219.013 2045.72 215.353 2045.03 211.627C2043.13 201.441 2047.93 193.407 2056.61 192.013C2065.42 190.597 2072.87 195.475 2074.47 203.704C2076.48 214.06 2070.73 222.231 2060.15 223.237C2057.01 223.535 2053.72 222.083 2049.05 222.042C2047.6 222.652 2046.95 223.415 2047.3 223.06Z" fill="#EFD8AF"/>
<path d="M2013.88 244.456C2015.22 244.84 2016.91 245.948 2018.14 245.568C2021.81 244.434 2025.18 241.958 2028.88 241.41C2034.04 240.645 2039.07 245.372 2039.96 250.601C2040.86 255.93 2037.74 261.294 2032.68 263.139C2027.56 265.005 2020.91 263.224 2019.1 258.412C2017.55 254.283 2017.72 249.508 2015.48 244.723C2013.83 244.427 2014.01 244.5 2013.88 244.456Z" fill="#EFD8AF"/>
<path d="M1995.41 195.969C1995.1 199.895 1995.23 202.963 1993.82 204.907C1990.42 209.597 1984.45 210.518 1979.69 207.854C1975.72 205.633 1973.72 200.788 1974.72 195.861C1975.85 190.329 1980.28 187.19 1986.49 187.61C1990.98 187.913 1993.74 190.438 1995.41 195.969Z" fill="#F2DBB1"/>
<path d="M2030.34 116.169C2030.38 119.877 2030.91 123.783 2030.58 127.616C2030.08 133.545 2025.85 137.081 2020.1 137.06C2014.26 137.038 2010.28 133.306 2009.81 127.419C2009.32 121.26 2011.94 116.887 2017.77 115.817C2020.82 115.26 2024.17 116.364 2029.07 116.631C2030.77 116.546 2030.44 116.335 2030.34 116.169Z" fill="#F2DBB1"/>
</svg>
