<svg width="4034" height="453" viewBox="0 0 4034 453" fill="none" xmlns="http://www.w3.org/2000/svg">
<path d="M822.43 383.778C861.969 394.773 902.285 399.48 943.084 395.214C969.514 392.451 995.83 387.738 1021.87 382.341C1060.33 374.372 1098.3 364.144 1137.26 358.53C1142.26 357.809 1147.69 355.539 1151.57 352.347C1184.98 324.872 1224.53 314.741 1266.38 311.378C1331.11 306.177 1393.9 316.134 1455.1 337.041C1465.16 340.474 1474.81 345.131 1484.51 349.531C1537.96 373.783 1592.53 394.892 1649.65 408.992C1685.97 417.955 1722.67 424.021 1759.89 424.801C1762.4 429.575 1759.13 430.913 1756.3 432.465C1730.35 446.682 1702.27 450.569 1673.19 449.538C1641.59 448.417 1611.27 440.937 1581.55 430.726C1571.48 427.268 1561.31 423.805 1551.77 419.158C1510.38 399.016 1466.81 384.246 1424.36 366.727C1370.88 344.651 1315.1 332.671 1257.07 332.701C1232.97 332.713 1209.26 336.204 1186.41 344.291C1183.38 345.366 1180.64 347.312 1177.85 348.991C1177.48 349.215 1177.59 350.245 1177.27 352.078C1180.32 352.398 1183.33 353.12 1186.28 352.963C1255.24 349.31 1321.61 361.198 1385.8 386.116C1408.14 394.79 1430.42 403.642 1452.59 412.766C1482.19 424.951 1512.21 435.805 1544.93 445.454C1546.52 448.829 1546.55 450.021 1546.59 451.214C1512.58 448.506 1479.91 439.651 1447.46 429.765C1413.14 419.314 1378.99 408.245 1344.42 398.749C1280.76 381.269 1215.92 377.969 1150.67 386.848C1112.52 392.04 1074.63 399.242 1036.65 405.657C1005.17 410.975 973.656 415.711 941.595 415.702C901.224 415.69 862.301 408.559 823.549 391.068C822.226 387.321 822.328 385.55 822.43 383.778Z" fill="#F5DEB4"/>
<path d="M3190.2 387.327C3178.58 391.943 3167.16 397.151 3155.3 401.068C3112.89 415.086 3069.32 418.268 3025.04 414.039C2983.2 410.043 2942.16 401.137 2900.86 393.813C2853.5 385.413 2805.92 380.755 2757.73 383.052C2714.18 385.127 2671.87 393.588 2630.29 406.135C2596.51 416.325 2563 427.462 2529.04 436.982C2509.22 442.536 2488.77 445.853 2468.55 449.889C2464.82 450.632 2460.82 449.996 2454.2 449.996C2457.71 446.418 2459.04 443.89 2460.99 443.265C2476.19 438.379 2491.76 434.523 2506.75 429.069C2529.89 420.65 2552.55 410.924 2575.61 402.284C2604.28 391.548 2632.82 380.321 2661.99 371.162C2708.76 356.479 2757.02 351.231 2806 352.518C2811.92 352.674 2817.84 352.539 2826.63 352.539C2822.74 348.966 2821.03 346.298 2818.64 345.376C2796.01 336.626 2772.28 333.222 2748.2 332.714C2707.25 331.846 2667.19 338.415 2627.96 349.634C2610.07 354.748 2592.56 361.271 2575.11 367.78C2550.79 376.851 2526.62 386.355 2502.52 395.989C2492.64 399.937 2483.05 404.62 2473.4 409.122C2438.27 425.507 2402.17 439.066 2363.85 445.775C2334.06 450.99 2304.17 452.191 2274.72 443.787C2265.18 441.067 2256.1 436.726 2246.93 432.835C2244.79 431.927 2243.16 429.825 2241.21 428.201C2242.81 426.617 2243.62 425.091 2244.49 425.056C2317.31 422.177 2386.33 402.837 2453.64 376.475C2477.19 367.254 2500.32 356.959 2523.56 346.947C2595.46 315.963 2670.49 304.927 2748.19 312.456C2774.15 314.971 2799.42 321.539 2822.62 333.955C2831.96 338.949 2840.67 345.24 2849.18 351.583C2854.16 355.29 2859.29 357.603 2865.32 358.825C2908.37 367.552 2951.4 376.407 2994.41 385.353C3026.43 392.013 3058.6 396.699 3091.47 396.537C3122.4 396.385 3152.41 391.133 3184.48 383.435C3188.01 385.069 3189.11 386.198 3190.2 387.327Z" fill="#F5DEB4"/>
<path d="M1796.61 405.517C1834.12 430.048 1874.86 432.812 1917.43 423.48C1939.54 418.632 1955.79 406.263 1966.92 386.523C1975.82 370.719 1981.92 353.927 1986.24 336.444C1993.45 307.286 1996.94 277.592 1998.64 247.643C1999.26 236.569 1997.99 225.042 2005.66 215.363C2006.4 214.436 2005.2 210.305 2004.48 210.186C2001.49 209.695 1998.24 209.792 1995.31 210.541C1994.53 210.742 1993.56 214.95 1994.31 215.72C2003.63 225.267 2001.87 237.663 2003.24 249.192C2006.46 276.26 2008.11 303.534 2014.53 330.162C2019.07 348.977 2024.94 367.243 2034.18 384.384C2045.61 405.587 2062.6 418.909 2086.38 423.832C2123.96 431.609 2160.43 430.459 2197.38 411.932C2200.64 413.251 2201.58 414.526 2202.51 415.803C2173.1 442.142 2137.49 451.051 2099.32 451.11C2061.41 451.169 2027.22 440.461 2001.85 410.567C1993.46 417.739 1986.78 424.275 1979.29 429.686C1961.56 442.489 1941.02 448.143 1919.67 450.374C1886.52 453.837 1854.73 448.312 1824.84 433.296C1813.49 427.595 1803.09 420.459 1795.17 408.618C1795.43 406.722 1796.61 405.517 1796.61 405.517Z" fill="#F4DDB3"/>
<path d="M1950.11 387.392C1932.7 399.645 1913.82 399.632 1894.85 392.697C1883.68 388.613 1872.91 383.088 1862.57 377.155C1848.72 369.215 1835.64 359.952 1821.9 351.819C1809.9 344.713 1797.68 337.861 1785.1 331.838C1767.51 323.411 1748.86 318.916 1729.15 319.055C1715.17 319.153 1701.19 318.633 1687.21 318.237C1684.12 318.149 1681.04 317.425 1675.14 316.598C1679.43 312.585 1681.37 310.161 1683.84 308.555C1699.47 298.402 1715.04 288.134 1730.97 278.467C1756.9 262.728 1784.77 252.018 1815.22 249.615C1874.32 244.951 1923.45 265.501 1962.97 309.438C1963.69 310.239 1963.68 311.699 1964.04 312.939C1959.45 314.752 1956.81 311.012 1953.66 309.141C1937.57 299.592 1920.87 291.49 1902.85 286.227C1868 276.052 1833.28 276.131 1798.7 287.426C1796.26 288.223 1794.02 289.693 1791.77 290.981C1791.27 291.263 1791.1 292.102 1790.39 293.376C1792.29 294.827 1794.1 296.7 1796.29 297.814C1819.05 309.355 1838.77 325.126 1858.11 341.516C1870.29 351.838 1882.62 362.01 1895.36 371.634C1909.2 382.1 1924.73 387.064 1944.8 383.301C1948.25 384.887 1949.18 386.14 1950.11 387.392Z" fill="#F5DEB4"/>
<path d="M2049.75 298.819C2102.14 249.808 2162.53 237.004 2230.45 259.238C2239.87 262.324 2248.97 266.614 2257.89 271.018C2276.77 280.343 2311.78 303.498 2325.47 315.408C2321.89 316.527 2319.15 318.046 2316.35 318.151C2302.4 318.674 2288.43 319.197 2274.47 319.019C2251.98 318.732 2230.88 324.26 2211.26 334.636C2194.25 343.63 2178.02 354.104 2161.37 363.79C2146.45 372.469 2131.64 381.362 2116.38 389.418C2103.76 396.082 2089.91 398.427 2075.72 396.5C2062.16 394.657 2050.06 389.804 2042.68 375.308C2042.17 373.927 2041.82 373.598 2041.82 373.598C2062.03 388.558 2082.6 387.483 2102.94 374.3C2111.83 368.54 2120.28 361.98 2128.35 355.101C2154.62 332.707 2180.36 309.651 2211.51 295.08C2212.02 289.408 2208.32 288.894 2205.46 287.936C2166.88 275.03 2128.31 275.672 2090.17 289.343C2077.74 293.8 2066.07 300.388 2052.2 304.546C2050.15 301.667 2049.95 300.243 2049.75 298.819Z" fill="#F5DEB4"/>
<path d="M3550.43 347.895C3663.01 347.916 3773.54 350.846 3886.81 351.744C3883.85 355.574 3882.76 358.414 3881.29 358.627C3875.39 359.484 3869.38 359.665 3863.41 359.852C3666.88 365.991 3470.28 365.727 3273.7 367.576C3265.09 367.657 3256.49 367.586 3246.37 367.586C3248.51 359.77 3250.22 353.567 3252.18 346.416C3351.27 346.907 3449.85 347.396 3550.43 347.895Z" fill="#EFD8AF"/>
<path d="M94.4238 355.563C164.388 354.264 234.349 352.682 304.317 351.725C442.271 349.839 580.228 348.291 718.185 346.632C728.133 346.512 738.084 346.616 748.934 346.616C750.353 352.688 751.64 358.198 752.775 363.058C751.105 364.407 750.65 364.861 750.114 365.183C749.548 365.523 748.924 365.906 748.293 365.974C746.308 366.19 744.309 366.353 742.314 366.381C738.316 366.437 734.316 366.426 730.317 366.381C519.718 364.024 309.118 361.661 96.6406 358.312C94.7632 357.326 94.4238 355.563 94.4238 355.563Z" fill="#EFD8AF"/>
<path d="M2021.55 147.734C2030.6 130.954 2028.9 115.551 2021.03 100.587C2016.42 91.8135 2011.74 82.9014 2003.65 76.0977C1990.56 77.749 1988.18 89.6157 1982.82 98.1265C1977.48 106.611 1974.39 116.054 1974.38 126.476C1974.36 137.774 1980.93 146.479 1985.03 155.858C1982.83 159.48 1980.37 158.041 1978.05 156.923C1957.25 146.898 1947.99 129.489 1946.86 107.229C1946.1 92.27 1950.31 78.1816 1956.14 64.6201C1966.51 40.4912 1983.43 20.9844 2001.03 0C2020.83 22.8154 2039.06 44.6802 2049.26 72.0562C2054.47 86.0332 2056.66 100.528 2054.52 115.288C2051.41 136.7 2039.66 151.277 2019.21 158.956C2016.25 154.072 2019.66 151.81 2021.55 147.734Z" fill="#F6DFB5"/>
<path d="M1527.74 297.394C1532.98 299.995 1538 303.245 1543.5 305.093C1584.35 318.842 1620.94 340.208 1654.71 366.692C1657.12 368.587 1659.16 370.963 1663.29 374.973C1640.8 371.469 1621.25 368.179 1602.37 361.435C1550.38 342.867 1498.31 324.523 1446.25 306.165C1436.21 302.626 1426.15 299.114 1415.94 296.134C1385.59 287.276 1355.08 281.651 1320.54 296.27C1324.92 291.198 1326.16 288.991 1328.04 287.721C1338.72 280.492 1350.64 276.769 1363.4 275.14C1386.77 272.16 1409.95 274.585 1433.06 277.404C1464.19 281.199 1494.5 288.862 1526.06 297.892C1527.73 297.553 1527.74 297.394 1527.74 297.394Z" fill="#F4DDB3"/>
<path d="M1798.17 118.587C1811.61 170.156 1840.72 208.41 1883.51 237.935C1877.46 237.269 1871.41 236.639 1865.36 235.928C1858.75 235.152 1852.14 234.353 1845.54 233.476C1818.24 229.851 1791.01 229.612 1764.14 236.264C1741.59 241.844 1721.72 251.903 1708.79 272.456C1708.27 273.286 1706.47 273.312 1703.97 274.146C1702.21 261.377 1706.42 250.577 1712.76 240.457C1719.59 229.547 1729.08 221.195 1739.88 214.312C1755.28 204.497 1772.06 198.445 1790.14 196.001C1793.89 195.496 1797.64 195.012 1803.41 194.251C1800.75 189.354 1799.25 185.857 1797.12 182.794C1783.38 163.01 1777.6 140.495 1775.89 117.042C1775.13 106.609 1777.03 95.8179 1778.95 85.4136C1780.25 78.3369 1783.43 71.4941 1789.95 67.4863C1794.02 68.0605 1793.8 70.8247 1793.62 73.4155C1792.63 88.1665 1793.83 102.694 1798.17 118.587Z" fill="#F3DCB2"/>
<path d="M2218.64 74.0288C2228.22 91.9956 2227.91 110.015 2225.42 127.915C2222.64 147.838 2216.52 166.812 2204.73 183.542C2202.87 186.178 2201.4 189.085 2199.97 191.49C2202.5 197.114 2207.06 195.321 2210.6 195.776C2233.59 198.732 2254.37 206.959 2272.43 221.563C2282.94 230.059 2291.35 240.205 2295.87 253.254C2298.26 260.159 2299.75 266.973 2297.05 276.053C2275.07 243.936 2243.44 234.534 2208.55 231.626C2178.37 229.113 2148.89 235.067 2116.9 238.366C2120.56 235.017 2122.76 232.456 2125.46 230.623C2173.43 198.019 2200.54 152.578 2208.77 95.5127C2209.43 90.9223 2209.45 86.227 2209.59 81.5752C2209.72 77.0327 2209.62 72.4834 2209.62 68.1533C2214.98 66.5703 2215.75 70.8046 2218.64 74.0288Z" fill="#F3DCB2"/>
<path d="M2666.28 290.429C2641.59 283.811 2617.23 287.059 2593.48 294.326C2566.15 302.687 2539.17 312.245 2512.17 321.653C2475.75 334.346 2439.39 347.244 2403.11 360.346C2383.63 367.383 2363.53 371.342 2342.26 374.359C2343.19 372.085 2343.38 369.845 2344.56 368.997C2359.16 358.538 2373.6 347.803 2388.7 338.091C2410.05 324.354 2433.04 313.985 2457.43 306.648C2495.68 295.147 2534.14 284.58 2573.52 277.695C2593.22 274.248 2613.09 272.67 2633.14 274.561C2643.83 275.568 2654.22 277.415 2665.18 284.546C2666.35 288.159 2666.32 289.293 2666.28 290.429Z" fill="#F4DDB3"/>
<path d="M1943.01 227.822C1921.42 236.503 1904.02 230.754 1888.37 217.065C1879.24 209.073 1872.48 199.214 1866.91 188.529C1859.42 174.179 1852.35 151.383 1849.06 131.266C1850.49 130.504 1852.17 128.776 1853.67 128.93C1874.13 131.029 1894.66 132.814 1914.99 135.895C1927.52 137.796 1939.23 143.047 1949.39 150.932C1965.89 163.732 1973.83 180.323 1970.78 201.436C1970.61 202.556 1969.32 203.514 1968.56 204.546C1947.47 174.907 1933.94 168.353 1902.54 172.576C1904.08 200.812 1917.77 215.129 1950.34 221.779C1948.05 223.879 1946.18 225.596 1943.01 227.822Z" fill="#F5DEB4"/>
<path d="M2124.5 205.728C2115.62 216.939 2106.12 225.178 2093.76 229.277C2079.2 234.104 2065.36 233.364 2050.83 221.491C2065.23 219.006 2077.76 217.618 2086.22 207.014C2094.24 196.969 2098.86 185.596 2102.6 172.172C2071.97 168.291 2048.78 176.139 2035.38 203.247C2030.49 203.411 2030.61 200.448 2030.53 197.994C2029.78 176.107 2039.05 159.151 2057.49 148.037C2066.44 142.643 2076.66 138.829 2086.78 136.006C2107.97 130.095 2130.04 131.361 2153.17 127.66C2153.25 143.858 2147.39 156.381 2143.39 169.262C2139.42 182.044 2133.38 193.835 2124.5 205.728Z" fill="#F5DEB4"/>
<path d="M1626.48 211.474C1622.95 214.01 1619.42 216.546 1614.12 220.352C1616.44 191.297 1601.35 176.072 1578.07 166.4C1565.76 190.919 1569.18 206.304 1593.19 236.218C1587.76 238.909 1582.84 235.509 1575.43 234.04C1569.48 232.066 1566.42 226.288 1562.26 231.759C1562.35 231.876 1562.61 231.997 1563.12 230.544C1561.83 228.572 1560.04 228.052 1558.31 227.648C1558.37 227.765 1558.61 227.874 1559.3 226.686C1558.14 223.576 1556.29 221.654 1554.43 219.733C1540.86 199.392 1537.37 176.897 1540.11 153.04C1541.09 144.459 1541.74 135.838 1542.83 127.271C1543.57 121.47 1544.79 115.731 1545.99 108.896C1553.15 109.555 1557.99 112.957 1563.05 115.535C1568.37 118.249 1573.62 121.119 1578.79 124.121C1583.39 126.789 1588.01 129.478 1592.27 132.617C1597.08 136.151 1601.77 139.929 1606.02 144.102C1610.27 148.273 1614.27 152.802 1617.74 157.632C1627.02 170.542 1631.33 184.866 1629.55 202.32C1630.39 203.771 1630.62 203.37 1629.24 203.678C1627.29 206.669 1626.71 209.353 1626.26 211.922C1626.39 211.808 1626.48 211.474 1626.48 211.474Z" fill="#F6DFB4"/>
<path d="M2375.98 208.706C2368.37 182.642 2377.69 161.908 2396.21 143.985C2410.6 130.068 2437.39 114.6 2456.63 109.588C2460.47 133.173 2464.21 156.651 2462.22 180.581C2460.98 195.468 2455.73 209.004 2446.5 222.295C2446.39 223.647 2446.62 223.37 2445.38 223.586C2443.46 225.212 2442.76 226.622 2442.27 227.917C2442.48 227.802 2442.78 227.426 2441.44 227.297C2439.22 227.278 2438.33 227.388 2436.72 227.527C2435.99 227.556 2434.55 227.687 2433.29 228.267C2431.37 230.546 2430.71 232.246 2430.11 233.765C2430.18 233.584 2430.03 233.228 2430.03 233.228C2423.86 235.543 2417.58 237.245 2409.51 237.087C2410.96 229.032 2418.49 226.954 2421.24 221.571C2424.23 215.721 2427.77 209.937 2429.43 203.689C2430.92 198.072 2430.64 191.84 2430.32 185.923C2429.97 179.454 2430.67 172.519 2425.66 167.144C2399.08 175.434 2390.07 187.981 2388.01 219.993C2381.63 219.343 2380.35 213.602 2376.51 209.147C2375.65 208.58 2375.98 208.706 2375.98 208.706Z" fill="#F5DEB4"/>
<path d="M1630.21 203.904C1631.66 203.279 1633.94 202.97 1634.84 201.689C1645.03 187.118 1658.9 177.018 1674.35 168.868C1683.04 164.284 1691.13 158.376 1700.43 155.785C1701.5 156.72 1702.31 157.067 1702.46 157.605C1709.02 179.652 1710.35 202.039 1704.63 224.324C1702.71 231.82 1698.73 239.322 1693.92 245.428C1685.28 256.392 1673.73 261.88 1658.58 258.712C1680.39 235.544 1681.21 233.188 1677.26 204.654C1653.05 210.211 1640.07 225.417 1637.06 251.016C1626.14 239.243 1627.16 226.77 1627.61 212.825C1626.48 211.473 1626.39 211.808 1627.78 211.854C1629.65 209.057 1630.13 206.213 1630.61 203.37C1630.61 203.37 1630.39 203.77 1630.21 203.904Z" fill="#F3DCB2"/>
<path d="M2375.52 208.453C2371.22 211.55 2373.93 215.6 2374.16 219.3C2375 233.154 2375.01 233.339 2368.29 247.812C2361.89 248.025 2363.65 242.661 2362.76 239.376C2357.58 220.222 2347.43 210.861 2325.98 205.763C2319.46 228.273 2322.38 237.27 2342.68 257.183C2330.26 260.256 2321.84 258.33 2312.71 250.229C2306.08 244.34 2301.85 236.86 2298.86 228.639C2294.7 217.204 2293.56 205.33 2294.32 193.277C2294.78 185.992 2295.47 178.704 2296.48 171.477C2297.19 166.34 2298.62 161.302 2300.02 154.889C2329.04 167.988 2356.11 181.51 2374.31 209.037C2375.98 208.707 2375.64 208.581 2375.52 208.453Z" fill="#F3DCB2"/>
<path d="M2431.89 233.698C2430.03 233.228 2430.18 233.584 2432.05 234.222C2435.9 232.625 2436.11 230.235 2434.55 227.687C2434.55 227.687 2435.99 227.556 2436.82 228.851C2440.72 231.797 2442.41 230.857 2442.78 227.427C2442.78 227.427 2442.48 227.803 2443.78 227.906C2447.36 227.053 2447.87 225.506 2446.61 223.37C2446.61 223.37 2446.39 223.647 2446.22 223.687C2448 226.218 2450.38 225.968 2453.03 224.977C2480.92 214.558 2507.7 222.908 2535.06 228.461C2526.34 252.626 2505.11 277.949 2485.68 287.735C2470.47 295.395 2455.29 297.051 2440.75 286.041C2439.38 285.001 2438.7 283.036 2437.55 281.268C2467.3 277.284 2474.58 272.587 2483.79 251.756C2457.71 241.109 2451.05 244.881 2425.88 260.464C2426.47 256.351 2426.6 253.309 2427.4 250.452C2428.96 244.829 2434.73 240.819 2431.89 233.698Z" fill="#F2DBB1"/>
<path d="M1527.78 297.647C1529.02 294.651 1527.47 293.087 1524.87 291.677C1495.96 276.022 1482.13 261.338 1467.47 230.899C1489.92 220.211 1519.61 217.578 1548.8 225.145C1553.71 226.882 1556.16 227.378 1558.61 227.873C1558.61 227.873 1558.37 227.764 1558.44 228.826C1559.88 230.591 1561.25 231.294 1562.61 231.996C1562.61 231.996 1562.35 231.876 1562.65 232.901C1565.31 236.043 1567.68 238.158 1570.05 240.275C1572.1 246.832 1578.05 252.263 1575.93 261.872C1558.88 245.724 1540.22 241.842 1519.35 250.096C1522.71 269.33 1536.44 278.769 1564.71 280.577C1562.46 283.532 1561.13 286.255 1558.98 287.905C1549.88 294.893 1538.99 293.43 1528.13 295.601C1527.75 297.394 1527.73 297.553 1527.78 297.647Z" fill="#F3DCB2"/>
<path d="M1604.18 256.092C1610.22 256.52 1615.12 256.373 1619.21 258.114C1628.6 262.104 1633.95 271.154 1632.86 280.367C1631.7 290.213 1627.04 298.098 1617.81 302.458C1609.95 306.173 1598.64 303.624 1591.91 297.107C1584.61 290.038 1583.4 277.154 1589.11 267.576C1592.3 262.227 1596.79 258.463 1604.18 256.092Z" fill="#F4DDB3"/>
<path d="M2410.84 296.675C2406.29 299.672 2403 302.375 2399.27 303.258C2386.56 306.272 2374.98 299.452 2370.99 287.25C2367.89 277.763 2370.38 267.617 2377.28 261.665C2384.71 255.249 2395.36 253.638 2403.31 258.026C2413 263.374 2417.49 272.091 2416.9 282.793C2416.66 287.124 2413.65 291.301 2410.84 296.675Z" fill="#F5DEB4"/>
<path d="M1724.6 372.855C1724.44 377.511 1724.55 381.014 1723.32 383.962C1718.43 395.701 1706.08 400.048 1695.57 394.08C1686.5 388.929 1683.43 375.663 1689.08 366.066C1695.25 355.599 1708.54 353.215 1718.21 361.434C1721.03 363.827 1722.28 368.058 1724.6 372.855Z" fill="#F2DBB1"/>
<path d="M2314.95 370.496C2315.15 375.831 2315.81 379.996 2314.7 383.618C2311.54 393.934 2301.81 398.576 2290.99 395.618C2280.93 392.868 2275.41 381.441 2278.61 370.003C2281.32 360.312 2292.26 354.347 2302.14 357.362C2308.14 359.195 2312.52 362.976 2314.95 370.496Z" fill="#F5DEB4"/>
<path d="M770.823 359.512C766.305 357.353 763.54 353.815 762.752 348.875C761.735 342.493 764.403 336.705 769.794 333.566C774.804 330.648 780.001 330.733 785.03 333.368C790.121 336.035 793.013 342.572 791.943 348.749C790.963 354.402 787.992 358.54 779.46 359.986C774.735 359.666 772.779 359.588 770.823 359.512Z" fill="#F2DBB1"/>
<path d="M3222.19 359.887C3217.29 358.53 3214.52 355.085 3213.33 350.378C3211.76 344.178 3213.1 338.726 3218.27 334.589C3222.83 330.936 3229.8 330.317 3234.79 333.382C3240.23 336.727 3243.5 341.731 3242.1 348.139C3241.31 351.711 3238.54 354.847 3233.89 358.71C3228.14 359.456 3225.17 359.671 3222.19 359.887Z" fill="#F2DBB1"/>
<path d="M3926.21 352.352C3960.02 352.814 3993.83 353.263 4027.64 353.762C4030.71 353.807 4033.78 354.174 4033.56 354.158C4001.15 355.59 3965.4 357.169 3927.66 357.4C3925.8 354.811 3925.98 353.577 3926.21 352.352Z" fill="#C7B393"/>
<path d="M92.9394 354.908C94.4221 355.562 94.7614 357.326 94.7902 358.223C63.2153 359.021 31.6115 358.921 0.00765991 358.821C0.00511191 358.045 0.002549 357.268 0 356.491C30.4856 355.746 60.9711 355 92.9394 354.908Z" fill="#AE9C81"/>
<path d="M821.244 382.996C822.327 385.549 822.225 387.32 822.275 390.417C806.688 387.68 792.822 379.88 779.042 369.299C778.281 368.21 778.162 368.411 778.162 368.411C792.127 373.012 806.093 377.613 821.244 382.996Z" fill="#C7B393"/>
<path d="M3222.68 361.372C3225.17 359.671 3228.14 359.456 3232.6 359.387C3223 372.559 3208.52 380.522 3191.63 387.188C3189.11 386.2 3188.01 385.07 3186.04 383.135C3195.3 378.3 3205.49 374.412 3215.52 370.163C3218.82 368.769 3223.26 368.027 3222.68 361.372Z" fill="#C7B393"/>
<path d="M2434.8 447.046C2443.35 445.789 2450.33 444.721 2459.96 443.246C2457.61 447.507 2456.91 450.637 2455.52 450.977C2443.52 453.926 2431.4 453.452 2418.96 449.767C2423.72 448.923 2428.48 448.079 2434.8 447.046Z" fill="#C7B393"/>
<path d="M1547.88 451.691C1546.55 450.02 1546.52 448.828 1546.38 445.849C1547.57 443.985 1548.91 443.663 1550.16 443.872C1560.98 445.691 1571.79 447.605 1582.61 449.493C1582.34 450.64 1582.36 451.398 1582 451.828C1581.62 452.272 1580.86 452.631 1580.28 452.624C1569.91 452.509 1559.54 452.332 1547.88 451.691Z" fill="#C7B393"/>
<path d="M3924.41 352.166C3925.98 353.576 3925.8 354.81 3925.8 356.977C3916.14 358.788 3906.3 360.16 3895.1 356.812C3897.74 354.067 3898.44 352.685 3899.2 352.651C3906.99 352.303 3914.8 352.173 3924.41 352.166Z" fill="#EFD8AF"/>
<path d="M2667.18 291.144C2666.32 289.292 2666.35 288.157 2666.45 285.318C2675.13 285.393 2680.98 290.975 2686.64 297.68C2682.02 301.952 2679.7 296.76 2676.7 295.977C2673.68 295.187 2670.94 293.279 2667.18 291.144Z" fill="#C7B393"/>
<path d="M2048.55 299.291C2049.95 300.243 2050.15 301.667 2050.8 305.198C2046.94 311.736 2042.35 315.684 2034.68 315.626C2033.59 315.05 2033.78 315.173 2033.78 315.173C2038.31 310.037 2042.83 304.9 2048.55 299.291Z" fill="#C7B393"/>
<path d="M2203.7 415.334C2201.58 414.526 2200.64 413.25 2198.71 411.307C2201.99 404.67 2208.13 401.11 2214.67 396.494C2213.09 405.916 2213.09 405.916 2203.7 415.334Z" fill="#AE9C81"/>
<path d="M1951.32 387.061C1949.18 386.139 1948.25 384.887 1946.43 382.854C1950.37 379.779 1955.2 377.485 1961.25 375.516C1962.48 375.841 1962.29 375.694 1962.29 375.694C1959.04 379.373 1955.79 383.051 1951.32 387.061Z" fill="#AE9C81"/>
<path d="M1570.89 239.345C1567.68 238.157 1565.31 236.041 1562.56 232.783C1566.41 226.286 1569.48 232.064 1574.22 233.899C1574.15 236.143 1572.94 237.28 1570.89 239.345Z" fill="#766759"/>
<path d="M771.572 360.382C772.78 359.588 774.736 359.665 778.107 360.153C778.855 362.27 778.188 363.977 777.842 367.047C778.163 368.411 778.282 368.209 778.369 368.161C776.41 365.826 774.365 363.54 771.572 360.382Z" fill="#C7B393"/>
<path d="M1559.3 226.685C1556.16 227.377 1553.71 226.882 1550.39 225.411C1550.66 223.431 1551.79 222.425 1553.68 220.576C1556.29 221.653 1558.14 223.575 1559.3 226.685Z" fill="#766759"/>
<path d="M1785.64 393.623C1786.23 396.928 1786.82 400.233 1787.99 405.077C1788.57 406.615 1788.36 406.59 1788.36 406.59C1788.1 403.352 1787.84 400.114 1786.78 395.409C1785.96 393.942 1785.64 393.623 1785.64 393.623Z" fill="#F4DDB3"/>
<path d="M1794.83 407.314C1792.99 407.426 1791.74 406.944 1789.43 406.525C1788.36 406.589 1788.57 406.614 1788.46 406.752C1790.17 405.908 1791.99 404.927 1795.21 404.73C1796.61 405.516 1795.43 406.721 1794.83 407.314Z" fill="#F4DDB3"/>
<path d="M1962.58 375.916C1962.67 375.991 1962.73 375.538 1962.51 375.617C1962.29 375.695 1962.48 375.842 1962.58 375.916Z" fill="#AE9C81"/>
<path d="M2042.39 373.864C2042.22 373.94 2041.83 374.081 2041.43 374.221C2041.92 374.322 2042.41 374.424 2042.36 374.062C2041.82 373.6 2042.17 373.929 2042.39 373.864Z" fill="#F5DEB4"/>
<path d="M2033.48 315C2033.38 314.948 2034.38 315.935 2034.38 315.935C2034.38 315.935 2033.87 315.871 2033.83 315.523C2033.78 315.175 2033.59 315.052 2033.48 315Z" fill="#C7B393"/>
<path d="M1314.23 298.38C1313.8 299.155 1313.38 299.932 1312.95 300.708C1313.81 300.309 1314.67 299.909 1315.09 298.923C1314.64 298.338 1314.23 298.38 1314.23 298.38Z" fill="#F4DDB3"/>
<path d="M1314.78 298.178C1314.91 298.004 1314.9 297.988 1314.56 298.176C1314.23 298.38 1314.65 298.338 1314.78 298.178Z" fill="#F4DDB3"/>
<path d="M2220.53 389.876C2220.55 389.967 2220.51 389.784 2220.53 389.876Z" fill="#AE9C81"/>
<path d="M1786.18 393.886C1785.97 393.989 1785.54 394.148 1785.11 394.307C1785.67 394.44 1786.23 394.574 1786.22 394.164C1785.64 393.622 1785.96 393.941 1786.18 393.886Z" fill="#F4DDB3"/>
<path d="M1629.24 203.678C1630.13 206.214 1629.65 209.058 1627.65 211.969C1626.71 209.353 1627.29 206.669 1629.24 203.678Z" fill="#554842"/>
<path d="M1563.12 230.544C1561.25 231.294 1559.88 230.591 1558.38 228.71C1560.04 228.051 1561.83 228.571 1563.12 230.544Z" fill="#766759"/>
<path d="M2441.44 227.297C2442.41 230.856 2440.72 231.796 2437.55 228.822C2438.33 227.388 2439.22 227.278 2441.44 227.297Z" fill="#554842"/>
<path d="M2433.29 228.268C2436.11 230.235 2435.9 232.626 2431.98 234.403C2430.71 232.247 2431.37 230.547 2433.29 228.268Z" fill="#554842"/>
<path d="M2445.38 223.588C2447.87 225.507 2447.36 227.055 2443.56 228.021C2442.76 226.624 2443.45 225.214 2445.38 223.588Z" fill="#554842"/>
</svg>
