<svg width="4150" height="441" viewBox="0 0 4150 441" fill="none" xmlns="http://www.w3.org/2000/svg">
<path d="M4074.09 395.042C4050.11 395.397 4026.12 395.824 4002.14 396.096C3844.86 397.885 3687.59 399.834 3530.31 401.351C3379.7 402.803 3229.09 404.27 3078.47 404.891C2772.56 406.152 2466.65 406.848 2160.74 407.773C2152.82 407.797 2144.91 407.776 2136.17 407.776C2133.26 397.694 2133.45 388.805 2135.28 378.463C2142.17 378.288 2148.75 377.963 2155.33 377.977C2377.26 378.444 2599.2 378.888 2821.14 379.462C2932.44 379.749 3043.75 380.004 3155.05 380.766C3331.65 381.975 3508.26 383.294 3684.86 385.145C3810.14 386.458 3935.42 388.722 4060.69 390.575C4064.03 390.624 4067.36 390.829 4072.38 392.112C4074.07 393.262 4074.09 395.042 4074.09 395.042Z" fill="#F4DDB3"/>
<path d="M114.348 391.403C162.318 390.293 210.282 388.635 258.259 388.167C477.568 386.032 696.878 383.835 916.193 382.416C1157.51 380.853 1398.83 380.062 1640.15 379.041C1756.14 378.551 1872.13 378.296 1988.13 377.978C1996.05 377.956 2003.98 378.298 2012.12 378.476C2015.83 387.863 2014.53 396.305 2013.55 404.766C2006.77 409.754 1999.17 407.665 1992.08 407.67C1915.42 407.722 1838.75 407.585 1762.09 407.415C1656.76 407.18 1551.43 407.105 1446.1 406.547C1199.45 405.24 952.802 403.909 706.156 402.143C570.172 401.17 434.194 399.337 298.214 397.814C238.223 397.142 178.235 396.276 116.39 394.382C114.535 393.266 114.348 391.403 114.348 391.403Z" fill="#F4DDB3"/>
<path d="M1697.78 299.928C1696.87 301.697 1696.24 304.765 1695 305.03C1684.68 307.242 1674.16 310.182 1664.14 303.969C1646.65 293.116 1627.07 289.393 1607.06 287.817C1569.78 284.881 1532.57 286.596 1495.37 289.876C1434.09 295.277 1374.84 310.876 1315.35 325.213C1253.87 340.027 1192 352.961 1129.41 361.993C1093.13 367.227 1056.61 369.987 1019.98 363.988C999.41 360.617 979.784 354.829 961.985 343.699C950.001 336.206 939.427 327.099 931.577 315.256C918.429 295.42 914.844 274.892 930.078 253.178C933.118 254.129 934.172 255.397 935.225 256.664C923.52 280.62 930.768 300.629 948.548 318.021C965.803 334.9 987.242 343.349 1010.65 347.641C1044.59 353.863 1078.43 351.051 1112 345.634C1183.01 334.173 1252.63 316.386 1321.9 297.263C1364.23 285.582 1406.5 273.802 1449.74 265.758C1500.4 256.333 1551.42 253.069 1602.79 256.053C1625.41 257.367 1647.76 261.098 1669.42 268.099C1676.36 270.344 1683.53 272.419 1688.91 279.51C1690.18 279.677 1690.12 279.291 1689.77 280.76C1690.27 284.926 1690.25 288.421 1694.48 287.797C1694.36 287.649 1694.3 287.274 1693.18 288.437C1693.12 293.7 1693.58 298.16 1698.23 299.993C1698.08 300.016 1697.78 299.928 1697.78 299.928Z" fill="#F3DCB2"/>
<path d="M3250.41 263.61C3257.88 280.591 3253.33 296.285 3244.76 311.238C3236.99 324.812 3225.56 334.991 3212.44 343.311C3195.88 353.817 3177.64 360.032 3158.45 363.237C3132.04 367.646 3105.5 368.205 3078.79 365.709C3004.97 358.813 2932.96 342.173 2860.86 325.924C2819.96 316.705 2779.24 306.556 2738.12 298.375C2685 287.805 2631.16 284.672 2577.04 287.125C2552.89 288.22 2529.45 291.961 2508.11 304.698C2498.98 310.144 2488.83 306.822 2477.91 305.709C2479.55 295.017 2483.02 285.805 2488.21 277.581C2490.43 274.074 2495.27 271.396 2499.45 270.122C2512.16 266.255 2524.97 262.288 2538.04 260.103C2580.37 253.02 2622.96 253.959 2665.55 257.678C2729.61 263.27 2791.23 280.275 2852.8 297.565C2913.71 314.673 2975.19 329.495 3037.29 341.59C3067.38 347.451 3097.78 351.41 3128.57 350.946C3146.64 350.674 3164.48 348.447 3181.76 343.104C3199.86 337.507 3216.15 328.539 3228.89 314.223C3240.99 300.643 3247.89 285.317 3243.72 264.929C3246.7 263.369 3248.56 263.489 3250.41 263.61Z" fill="#F3DCB2"/>
<path d="M2102.79 271.136C2112.19 244.082 2112.59 216.604 2107.33 188.672C2103.14 166.359 2096.02 145.047 2086.97 124.327C2085.49 120.936 2082.96 118.002 2079.96 113.384C2077.13 119.869 2074.8 124.581 2072.98 129.484C2061.16 161.419 2054.29 194.467 2051.63 228.364C2050.27 245.702 2051.63 262.839 2059.21 280.45C2060.08 281.713 2060.25 281.301 2060.25 281.301C2057.89 281.022 2054.29 281.612 2053.38 280.314C2049.59 274.923 2045.51 269.309 2043.59 263.138C2039.85 251.125 2036.14 238.828 2034.82 226.393C2030.64 186.88 2034.64 148.003 2047.1 110.147C2055.12 85.7395 2067.46 64.2327 2082.16 48.6465C2083.3 49.1252 2084.98 49.2822 2085.48 50.1362C2106.34 85.3186 2122.61 122.365 2128.55 163.138C2133.95 200.134 2131.66 236.209 2109.26 270.558C2105.33 271.518 2104.06 271.327 2102.79 271.136Z" fill="#F5DEB4"/>
<path d="M1892.46 91.8573C1906.97 77.9984 1923.29 77.6835 1940.14 81.2142C1951.3 83.5504 1961.56 88.319 1970.99 94.848C1974.1 97.0089 1977.5 98.7721 1981.16 100.951C1985.97 94.0995 1984.85 87.2631 1985.55 80.9171C1987.95 59.4464 1993.95 39.2401 2005.84 21.0153C2011.39 12.4939 2018.16 5.14905 2028 1.70154C2031.48 0.48291 2035.48 0.76001 2042.53 0C2022.43 16.6443 2019.96 37.4923 2018.84 58.0277C2017.23 87.2325 2017.06 116.543 2017.16 145.806C2017.21 161.736 2019.22 177.655 2020.05 193.594C2020.32 198.595 2022.4 204.237 2016.28 208.903C2013.83 204.779 2011.5 200.864 2009.19 196.937C1995.98 174.539 1981.2 153.254 1964.7 133.141C1955.72 122.182 1945.15 113.246 1932.61 106.638C1914.49 97.0922 1906.4 97.1119 1886.97 107.273C1885.03 101.081 1888.92 97.11 1892.46 91.8573Z" fill="#F3DCB2"/>
<path d="M1822.31 339.656C1821.05 339.435 1819.79 339.213 1818.41 338.971C1817.75 341.414 1817.1 343.854 1816.26 346.95C1808.56 346.95 1800.59 347.647 1792.78 346.835C1746.26 341.995 1699.76 342.135 1653.38 347.915C1638.31 349.792 1622.86 352.188 1613.13 366.121C1607.25 363.216 1609.43 358.846 1610.55 355.648C1614.5 344.363 1623.31 337.218 1633.14 331.269C1652.33 319.647 1673.58 314.584 1695.61 312.177C1700.19 311.677 1704.78 311.279 1709.63 310.809C1708.79 303.685 1705.19 299.382 1698.6 298.292C1697.78 299.929 1698.08 300.016 1699.78 299.176C1700.73 293.588 1699.03 289.444 1694.3 287.274C1694.3 287.274 1694.36 287.65 1694.74 286.374C1694.32 282.42 1693.98 279.339 1690.12 279.292C1690.12 279.292 1690.18 279.677 1690.29 279.839C1693.16 274.02 1689.22 268.432 1689.38 262.619C1689.6 254.082 1688.89 245.317 1690.6 237.067C1693.31 223.953 1700.54 218.106 1714.17 215.102C1714.36 215.707 1714.91 216.559 1714.69 216.882C1704.21 232.164 1707.43 247.254 1716.3 261.513C1721.84 270.424 1728.04 279.42 1735.73 286.411C1759.83 308.308 1786.62 326.591 1815.47 341.78C1817.15 342.666 1819.23 342.802 1821.86 341.564C1822.59 339.842 1822.31 339.656 1822.31 339.656Z" fill="#F6DFB4"/>
<path d="M2405.19 310.829C2415.24 302.993 2424.23 296.13 2432.95 288.944C2442.3 281.237 2449.48 271.703 2455.25 261.069C2464.92 243.216 2465.16 235.136 2456.5 216.048C2459.53 212.497 2462.81 214.882 2465.27 216.388C2476.3 223.154 2481.51 233.511 2482.56 246.204C2483.97 263.434 2479.28 279.122 2470.47 293.719C2467.44 298.745 2464.04 303.55 2460.95 308.234C2463.75 313.412 2468.13 311.646 2471.71 311.921C2492.47 313.517 2512.44 318.017 2531.15 327.386C2540.15 331.89 2548.58 337.303 2554.76 345.375C2559.54 351.616 2564.27 358.212 2560.49 368.496C2549.57 353.389 2533.99 349.776 2517.98 347.852C2471.61 342.276 2425.17 342.013 2378.69 346.802C2370.91 347.602 2362.99 346.915 2355.13 346.915C2353.97 342.076 2357.74 341.207 2360.32 339.554C2374.87 330.233 2389.44 320.953 2405.19 310.829Z" fill="#F6DFB4"/>
<path d="M2146.21 111.804C2144.97 88.5748 2144.22 67.2613 2142.34 46.0487C2140.85 29.2712 2136.91 13.0834 2121.24 1.35798C2132.46 -1.7575 2140.07 2.72529 2146.01 8.90498C2152.38 15.5374 2158.09 23.1704 2162.52 31.2299C2171.95 48.3995 2175.92 67.3477 2177.89 86.7149C2178.35 91.275 2178.57 95.8607 2179.04 102.43C2184.61 99.0689 2188.97 96.5609 2193.21 93.8555C2208.78 83.9102 2225.51 77.897 2244.24 79.7977C2260.05 81.4031 2271.82 88.7208 2276.83 104.501C2274.12 107.785 2271.99 106.057 2269.92 104.588C2259.48 97.1644 2248.66 98.4515 2237.62 103.033C2222.54 109.296 2209.93 118.856 2199.46 131.32C2182.26 151.781 2167.05 173.632 2153.57 196.7C2151.28 200.606 2148.71 204.344 2146.48 207.841C2141.74 207.025 2142.39 203.91 2142.35 201.516C2142.28 196.859 2142.04 192.096 2142.84 187.551C2147.18 163.085 2145.82 138.389 2146.21 111.804Z" fill="#F6DFB4"/>
<path d="M2222.58 271.024C2240.28 243.551 2246.07 207.88 2237.62 182.754C2220.68 185.381 2200.8 198.209 2183.86 217.239C2169.38 233.51 2160.31 252 2161.34 278.079C2157.64 272.841 2155.7 271.026 2154.9 268.799C2149.75 254.395 2150.94 239.901 2155.42 225.653C2168.41 184.348 2212.28 143.465 2262.17 142.309C2263.4 142.281 2264.65 143.055 2266.23 143.561C2266.96 145.11 2268.33 146.806 2268.57 148.646C2271.84 174.54 2272.7 200.386 2266.18 225.98C2262.87 238.998 2257.71 251.242 2249.7 262.071C2238.7 276.942 2224.69 287.376 2202.5 291.748C2207.63 286.498 2210.46 283.596 2213.29 280.706C2216.09 277.858 2218.89 275.021 2222.58 271.024Z" fill="#F4DDB3"/>
<path d="M2005.76 212.763C2011.41 225.906 2014.83 237.936 2014.49 250.911C2014.26 259.632 2012.35 267.676 2008.28 275.514C2003.5 272.877 2005.42 269.152 2005.11 266.199C2003.42 249.795 1996.98 235.487 1986.8 222.651C1971.69 203.607 1951.46 188.979 1929.48 181.484C1924.91 192.078 1924.45 198.09 1925.71 219.754C1926.53 233.919 1928.91 247.936 1936.55 259.821C1943.54 270.713 1952.8 280.153 1961.97 291.339C1945.45 288.572 1932.85 280.724 1922.31 269.284C1909.3 255.158 1902.31 238.006 1898.46 219.471C1893.23 194.356 1893.54 169.253 1899.06 143.403C1909.03 141.28 1918.64 143.292 1928.14 146.019C1956.88 154.274 1978.84 171.879 1995.93 195.941C1999.38 200.805 2002.09 206.201 2005.76 212.763Z" fill="#F3DCB2"/>
<path d="M2345.21 264.269C2359.02 269.661 2371.45 274.307 2381.7 282.726C2367.79 340.318 2296.84 372.384 2241.1 344.672C2247.33 343.837 2251.5 342.995 2255.72 342.757C2286.49 341.023 2312.11 328.555 2332.87 305.939C2335.01 303.604 2336.54 300.705 2339.2 296.839C2321.34 287.347 2303.67 283.269 2284.8 285.236C2265.37 287.261 2250.31 297.661 2237.12 315.464C2236.1 303.825 2239.5 297.272 2243.73 291.653C2248.87 284.828 2254.63 278.105 2261.34 272.904C2272.02 264.617 2284.7 260.356 2298.29 259.29C2313.68 258.083 2328.86 259.115 2345.21 264.269Z" fill="#F4DDB3"/>
<path d="M1822.69 339.98C1822.47 333.71 1816.49 332.054 1812.78 328.7C1799.2 316.413 1789.32 301.913 1783.07 283.66C1802.9 269.444 1824.03 260.922 1847.77 259.18C1861.82 258.148 1875.74 258.884 1889.05 264.229C1909.41 272.406 1923.44 286.51 1929.6 307.859C1929.9 308.91 1929.04 310.298 1928.42 312.724C1914.42 297.114 1898.52 285.564 1877.25 284.832C1859.8 284.231 1843.33 288.148 1827.24 296.289C1831.66 306.543 1839.04 312.456 1846.31 318.031C1853.65 323.661 1861.56 328.907 1869.95 332.711C1878.33 336.509 1887.48 338.943 1896.53 340.809C1905.4 342.637 1914.57 342.995 1927.01 344.376C1898.53 359.032 1872.87 358.868 1846.88 349.071C1839.44 346.267 1832.41 342.37 1823.75 339.316C1822.31 339.657 1822.59 339.842 1822.69 339.98Z" fill="#F4DDB3"/>
<path d="M2029.63 400.823C2028.61 390.654 2029.02 382.163 2032.56 373.999C2041.01 354.512 2061.99 342.487 2082.38 345.551C2104.93 348.939 2121.5 365.974 2123.38 387.695C2125.36 410.621 2113.23 430.137 2092.3 437.671C2071.77 445.065 2048.16 437.286 2036.54 418.71C2033.45 413.777 2032.02 407.811 2029.63 400.823ZM2069.29 380.523C2063.4 383.665 2061.05 388.7 2061.48 395.19C2061.86 400.921 2064.4 405.388 2069.93 407.315C2075.17 409.137 2080.36 408.586 2084.68 404.694C2089.12 400.687 2090.51 393.946 2088.23 388.455C2085.27 381.36 2079.71 378.909 2069.29 380.523Z" fill="#F7E0B5"/>
<path d="M2066.29 198.822C2070.66 197.049 2073.88 195.347 2076.96 195.575C2087.78 196.376 2095.02 205.866 2093.29 216.192C2091.78 225.252 2083.77 231.976 2075.23 231.352C2065.1 230.612 2057.51 220.798 2059.59 210.1C2060.29 206.442 2063.18 203.207 2066.29 198.822Z" fill="#EFD8AF"/>
<path d="M2197.35 223.06C2202.66 222.577 2206.8 221.741 2210.44 222.74C2218.98 225.09 2223.56 232.569 2222.42 240.795C2221.43 247.992 2215.48 253.991 2208.04 255.281C2200.48 256.593 2193.13 253.517 2189.17 247.17C2185.25 240.868 2185.53 234.559 2190.06 228.714C2191.63 226.685 2193.96 225.248 2197.35 223.06Z" fill="#EFD8AF"/>
<path d="M1945.76 233.882C1947.5 227.757 1950.56 224.465 1955.3 222.909C1964.64 219.844 1973.29 223.762 1976.51 232.414C1979.96 241.693 1974.93 252.127 1965.7 254.806C1957 257.333 1948.97 252.78 1945.86 243.131C1945.08 240.713 1945.58 237.882 1945.76 233.882Z" fill="#F2DBB1"/>
<path d="M3250.35 262.2C3248.56 263.49 3246.7 263.369 3243.48 263.466C3236.52 257.205 3231.64 249.919 3225.24 244.4C3206.3 228.08 3189.47 227.263 3165.46 240.597C3163.55 240.753 3162.11 239.478 3162.11 239.478C3175.37 222.836 3192.54 219.955 3211.5 226.689C3228.72 232.805 3242.65 243.414 3250.35 262.2Z" fill="#C7B393"/>
<path d="M936.375 255.947C934.172 255.398 933.118 254.13 931.053 252.15C938.411 236.493 952.49 229.449 967.951 224.779C977.077 222.021 986.341 223.041 995.191 226.844C1002.38 229.932 1009.21 233.409 1012.85 241.26C1007.41 243.494 1005.16 239.182 1002.06 237.396C986.768 228.589 971.527 228.865 957.014 238.466C949.924 243.157 943.984 249.586 936.375 255.947Z" fill="#C7B393"/>
<path d="M112.826 390.844C114.348 391.404 114.535 393.267 114.536 394.203C77.4816 396.301 40.4533 396.474 3.54076 392.149C2.41142 392.016 1.17217 392.822 0 393.766C37.0783 391.711 74.1567 389.686 112.826 390.844Z" fill="#C7B393"/>
<path d="M2086.56 310.894C2089.12 315.921 2089.11 319.714 2087.07 323.364C2083.87 329.085 2077.81 331.814 2072.42 330.137C2065.81 328.085 2061.51 321.203 2062.97 315.026C2064.49 308.601 2070.77 303.861 2077.54 305.013C2080.5 305.515 2083.11 308.031 2086.56 310.894Z" fill="#EFD8AF"/>
<path d="M2013.25 344.012C2016.87 346.856 2019.92 348.894 2021.07 351.709C2023.55 357.745 2020.86 364.271 2015.71 367.089C2010.45 369.963 2002.91 368.713 1999.35 364.375C1994.91 358.969 1995.09 351.057 2000.83 346.65C2003.63 344.499 2008.1 344.52 2013.25 344.012Z" fill="#EFD8AF"/>
<path d="M2035.44 315.428C2040.4 316.848 2044.67 317.66 2047.15 320.217C2051.72 324.92 2051.11 331.628 2046.89 336.375C2042.99 340.775 2035.82 341.873 2030.57 338.877C2026.22 336.395 2023.62 330.492 2024.88 325.154C2026.03 320.317 2028.99 316.941 2035.44 315.428Z" fill="#EFD8AF"/>
<path d="M1873.71 317.315C1862.65 313.327 1860.79 311.101 1861.33 304.231C1861.78 298.396 1865.59 294.449 1871.28 293.91C1877.73 293.299 1883.01 297.406 1883.65 303.762C1884.32 310.442 1882.04 315.36 1873.71 317.315Z" fill="#EFD8AF"/>
<path d="M4075.95 395.436C4074.09 395.043 4074.07 393.262 4074.2 392.381C4077.56 390.963 4080.82 389.894 4084.05 389.975C4105.74 390.523 4127.46 390.777 4149.03 394.944C4125.29 395.239 4101.54 395.535 4075.95 395.436Z" fill="#C7B393"/>
<path d="M3185.77 280.316C3184.14 275.395 3182.41 271.376 3183.22 267.969C3184.89 261.026 3191.78 257.788 3198.65 259.559C3204.46 261.06 3208.18 266.675 3207.6 273.068C3207.02 279.358 3202.86 283.771 3195.97 284.086C3192.97 284.224 3189.87 282.419 3185.77 280.316Z" fill="#F2DBB1"/>
<path d="M2150.94 346.765C2152.91 351.58 2154.74 355.4 2154.33 358.962C2153.61 365.248 2148.04 368.883 2141.61 368.565C2135.16 368.248 2130.56 363.947 2129.89 357.602C2129.19 351.084 2132.29 345.43 2138.56 344.183C2142.07 343.485 2146.04 345.088 2150.94 346.765Z" fill="#F2DBB1"/>
<path d="M978.521 284.211C973.774 282.107 969.684 280.659 967.769 277.771C964.242 272.451 965.975 265.658 970.524 261.988C974.512 258.771 980.713 258.318 985.165 260.918C990.16 263.837 992.408 270.252 990.317 276.262C988.665 281.007 985.05 283.485 978.521 284.211Z" fill="#F3DCB2"/>
<path d="M2300.43 297.413C2303.29 301.689 2305.91 305.073 2306.14 308.612C2306.52 314.488 2302.46 318.664 2297.13 319.794C2291.53 320.981 2286.48 318.602 2283.98 313.594C2281.46 308.542 2282.33 303.324 2286.41 299.189C2290.05 295.502 2294.37 295.036 2300.43 297.413Z" fill="#DAC5A1"/>
<path d="M2105.22 336.818C2101.39 331.514 2100.85 327.122 2102.73 322.624C2104.77 317.707 2109.85 314.921 2115.34 315.399C2121.52 315.936 2126.12 320.558 2126.66 326.761C2127.14 332.28 2124.35 337.349 2119.42 339.352C2114.92 341.184 2110.52 340.64 2105.22 336.818Z" fill="#F3DCB2"/>
<path d="M3158.53 249.55C3156.57 258.258 3154.61 266.967 3152.13 277.955C3148.59 265.06 3149.92 255.073 3157.36 246.129C3158.55 247.582 3158.54 248.566 3158.53 249.55Z" fill="#AE9C81"/>
<path d="M1023.54 263.684C1026.08 268.852 1026.48 273.736 1021.19 278.524C1016.25 275.255 1018.59 270.279 1019.57 264.939C1021.84 263.724 1022.69 263.704 1023.54 263.684Z" fill="#766759"/>
<path d="M2102.02 272.08C2104.06 271.328 2105.33 271.519 2108.53 271.742C2108.83 277.195 2106.36 281.846 2100.61 283.627C2096.59 279.248 2100 276.258 2102.02 272.08Z" fill="#AE9C81"/>
<path d="M1023.32 262.332C1022.69 263.704 1021.84 263.724 1019.72 263.627C1018.2 260.928 1017.94 258.346 1017.97 253.947C1018.25 252.129 1019.02 251.346 1019.02 251.346C1020.38 254.558 1021.74 257.77 1023.32 262.332Z" fill="#AE9C81"/>
<path d="M3159.5 248.764C3158.54 248.565 3158.55 247.581 3158.45 245.126C3158.59 242.297 3159.25 241.178 3161.21 239.888C3162.11 239.478 3163.55 240.753 3164.24 241.419C3163.45 244.049 3161.96 246.013 3159.5 248.764Z" fill="#C7B393"/>
<path d="M2060.3 281.663C2060.51 281.613 2060.28 282.119 2060.27 281.71C2060.25 281.301 2060.08 281.713 2060.3 281.663Z" fill="#F5DEB4"/>
<path d="M1018.08 252.654C1017.24 251.909 1016.56 250.64 1015.88 249.371C1016.67 249.402 1017.46 249.432 1018.63 250.405C1019.02 251.346 1018.25 252.13 1018.08 252.654Z" fill="#C7B393"/>
<path d="M1016.51 289.518C1016.62 289.729 1016.39 289.307 1016.51 289.518Z" fill="#766759"/>
<path d="M2096.43 289.551C2096.66 289.427 2096.21 289.675 2096.43 289.551Z" fill="#AE9C81"/>
<path d="M1012.35 297.643C1012.46 297.595 1012.24 297.69 1012.35 297.643Z" fill="#766759"/>
<path d="M1693.19 288.438C1699.04 289.443 1700.73 293.588 1699.94 299.153C1693.58 298.16 1693.12 293.7 1693.19 288.438Z" fill="#554842"/>
<path d="M1689.77 280.76C1693.98 279.339 1694.32 282.419 1694.86 286.521C1690.25 288.421 1690.28 284.926 1689.77 280.76Z" fill="#554842"/>
<path d="M2070.84 380.077C2079.71 378.91 2085.27 381.361 2088.22 388.457C2090.51 393.948 2089.12 400.688 2084.68 404.696C2080.36 408.588 2075.17 409.138 2069.93 407.316C2064.4 405.389 2061.86 400.923 2061.48 395.192C2061.05 388.702 2063.4 383.666 2070.84 380.077Z" fill="#5E5148"/>
</svg>
